%TF.GenerationSoftware,KiCad,Pcbnew,8.0.3*%
%TF.CreationDate,2024-07-10T08:52:34-07:00*%
%TF.ProjectId,Custom_KB_V1,43757374-6f6d-45f4-9b42-5f56312e6b69,rev?*%
%TF.SameCoordinates,Original*%
%TF.FileFunction,Profile,NP*%
%FSLAX46Y46*%
G04 Gerber Fmt 4.6, Leading zero omitted, Abs format (unit mm)*
G04 Created by KiCad (PCBNEW 8.0.3) date 2024-07-10 08:52:34*
%MOMM*%
%LPD*%
G01*
G04 APERTURE LIST*
%TA.AperFunction,Profile*%
%ADD10C,0.050000*%
%TD*%
G04 APERTURE END LIST*
D10*
X210739379Y-123524337D02*
G75*
G02*
X211803524Y-125792577I-759257J-1739947D01*
G01*
X203305567Y-120080630D02*
G75*
G02*
X202000000Y-118000000I927127J2031687D01*
G01*
X198244492Y-102641037D02*
G75*
G02*
X197483946Y-101483649I487766J1149102D01*
G01*
X201255508Y-104358962D02*
G75*
G02*
X201980263Y-105482381I-508310J-1123419D01*
G01*
X209985472Y-131969851D02*
X211803524Y-125792577D01*
X203305567Y-120080630D02*
X210739379Y-123524337D01*
X201980263Y-105482381D02*
X202000000Y-118000000D01*
X112500000Y-46000000D02*
G75*
G02*
X110099163Y-47993535I-2303441J331615D01*
G01*
X170218278Y-51880573D02*
X170207107Y-52207107D01*
X168430197Y-50027323D02*
G75*
G02*
X170218277Y-51880573I-31638J-1819751D01*
G01*
X172000000Y-54000000D02*
G75*
G02*
X170207107Y-52207107I0J1792893D01*
G01*
X174156696Y-53997084D02*
X172000000Y-54000000D01*
X207093726Y-140135423D02*
G75*
G02*
X203609317Y-141334922I-2295366J1007123D01*
G01*
X197500000Y-79750000D02*
X197483946Y-101483649D01*
X55053324Y-130726537D02*
G75*
G02*
X52501430Y-128353555I-91224J2460537D01*
G01*
X166208814Y-131943545D02*
G75*
G02*
X203609317Y-141334922I-11208814J-123806455D01*
G01*
X134440956Y-50018975D02*
X152000000Y-50000000D01*
X92430407Y-50715699D02*
G75*
G02*
X94680161Y-48034510I2465493J215699D01*
G01*
X195750000Y-79750000D02*
X197500000Y-79750000D01*
X51586746Y-73421923D02*
G75*
G02*
X54090071Y-70995242I2461954J-35177D01*
G01*
X129658038Y-43899004D02*
G75*
G02*
X131999998Y-46500000I-129538J-2471496D01*
G01*
X114431661Y-106471643D02*
G75*
G02*
X111931661Y-108971561I-2499961J43D01*
G01*
X123305666Y-104034174D02*
X116675794Y-104025124D01*
X166208252Y-131949758D02*
X128250000Y-132000000D01*
X125750000Y-129500000D02*
X125854796Y-106504224D01*
X72487687Y-68089327D02*
X72500000Y-63000000D01*
X193408038Y-54149004D02*
G75*
G02*
X195749998Y-56750000I-129538J-2471496D01*
G01*
X74767767Y-124267767D02*
G75*
G02*
X77267767Y-121767767I2500033J-33D01*
G01*
X209985472Y-131969851D02*
X207093726Y-140135423D01*
X74767767Y-124267767D02*
X74735221Y-128232018D01*
X114424792Y-106088439D02*
G75*
G02*
X116675793Y-104025142I2150008J-86061D01*
G01*
X72500000Y-63000000D02*
G75*
G02*
X75000000Y-60500000I2500000J0D01*
G01*
X92232233Y-121750000D02*
X77267767Y-121767767D01*
X94680164Y-48034544D02*
X110099163Y-47993535D01*
X94750000Y-109000000D02*
X94732233Y-119250000D01*
X134440956Y-50018975D02*
G75*
G02*
X131990825Y-47470159I49344J2499475D01*
G01*
X195750000Y-56750000D02*
X195750000Y-79750000D01*
X94732233Y-119250000D02*
G75*
G02*
X92232233Y-121750033I-2500033J0D01*
G01*
X112500000Y-46000000D02*
G75*
G02*
X114284431Y-43713331I2520489J-127309D01*
G01*
X114424792Y-106088439D02*
X114431661Y-106471643D01*
X114284431Y-43713331D02*
X129658038Y-43899004D01*
X198244492Y-102641037D02*
X201255508Y-104358962D01*
X174156696Y-53997084D02*
X193408038Y-54149004D01*
X75000000Y-60500000D02*
X90062374Y-60466656D01*
X72487687Y-68089327D02*
G75*
G02*
X70070596Y-70669586I-2498687J-81573D01*
G01*
X74735221Y-128232018D02*
G75*
G02*
X72229545Y-130729246I-2500001J2768D01*
G01*
X72229545Y-130729241D02*
X55053324Y-130726537D01*
X152000000Y-50000000D02*
X168430197Y-50027323D01*
X92479465Y-57886411D02*
G75*
G02*
X90062374Y-60466665I-2498665J-81589D01*
G01*
X123305666Y-104034174D02*
G75*
G02*
X125854839Y-106504223I49334J-2499526D01*
G01*
X54090072Y-70995200D02*
X70070596Y-70669572D01*
X128250000Y-132000000D02*
G75*
G02*
X125750000Y-129500000I0J2500000D01*
G01*
X111931661Y-108971643D02*
X94750000Y-109000000D01*
X52501399Y-128353556D02*
X51586746Y-73421923D01*
X92479465Y-57886411D02*
X92430407Y-50715699D01*
X132000000Y-46500000D02*
X131990742Y-47470157D01*
M02*
