M48
; DRILL file {KiCad 8.0.3} date 2024-07-10T08:52:40-0700
; FORMAT={-:-/ absolute / inch / decimal}
; #@! TF.CreationDate,2024-07-10T08:52:40-07:00
; #@! TF.GenerationSoftware,Kicad,Pcbnew,8.0.3
; #@! TF.FileFunction,Plated,1,2,PTH
FMAT,2
INCH
; #@! TA.AperFunction,Plated,PTH,ViaDrill
T1C0.0039
; #@! TA.AperFunction,Plated,PTH,ViaDrill
T2C0.0157
; #@! TA.AperFunction,Plated,PTH,ComponentDrill
T3C0.0315
; #@! TA.AperFunction,Plated,PTH,ComponentDrill
T4C0.0354
; #@! TA.AperFunction,Plated,PTH,ComponentDrill
T5C0.0394
; #@! TA.AperFunction,Plated,PTH,ComponentDrill
T6C0.0591
; #@! TA.AperFunction,Plated,PTH,ComponentDrill
T7C0.0630
%
G90
G05
T1
X6.8701Y-4.2717
T2
X3.9469Y-1.9291
X6.2598Y-2.7854
X6.5846Y-4.0157
X6.6339Y-4.2618
X6.6831Y-2.5295
X6.6831Y-3.5096
X6.7116Y-2.8543
X6.7618Y-2.8543
X6.8724Y-2.8749
X6.9198Y-4.1442
X6.939Y-4.2028
X6.9685Y-4.2628
X7.004Y-3.7303
X7.0374Y-4.1142
X7.0374Y-3.3071
X7.0611Y-3.8739
X7.2623Y-3.5921
X7.2879Y-3.3804
X7.313Y-3.4646
X7.3465Y-4.1594
X7.372Y-3.1398
X7.372Y-3.7402
X7.4016Y-3.7697
X7.4616Y-3.7106
X7.4827Y-3.6774
X7.4902Y-3.1004
X7.5487Y-3.7407
X7.5782Y-3.7702
X7.5787Y-3.0906
X7.6181Y-3.563
X7.6476Y-3.9961
X7.6476Y-4.0945
T3
X2.8248Y-3.7575
X2.8248Y-4.0575
X2.8248Y-4.4441
X2.8248Y-4.7441
X2.8346Y-2.9972
X2.8346Y-3.2972
X3.6122Y-2.5272
X3.6122Y-2.8272
X3.6122Y-4.0898
X3.6122Y-4.3898
X3.6417Y-3.3319
X3.6417Y-3.6319
X4.3996Y-3.6614
X4.3996Y-3.9614
X4.4094Y-2.2441
X4.4094Y-2.5441
X4.4094Y-3.0118
X4.4094Y-3.3118
X5.187Y-2.2492
X5.187Y-2.5492
X5.187Y-2.9382
X5.187Y-3.2382
X5.2067Y-3.6469
X5.2067Y-3.9469
X5.7677Y-4.7122
X5.7677Y-5.0122
X5.9843Y-3.8878
X5.9843Y-4.1878
X5.9941Y-2.3598
X5.9941Y-2.6598
X6.0039Y-3.2358
X6.0039Y-3.5358
X6.5716Y-5.051
X6.5977Y-4.7521
X6.7323Y-3.9913
X6.7323Y-4.2913
X6.756Y-2.2199
X6.756Y-2.5199
X6.756Y-2.6393
X6.756Y-2.9393
X6.7618Y-3.2382
X6.7618Y-3.5382
X6.8752Y-3.1791
X7.1752Y-3.1791
X7.2886Y-3.1791
X7.3479Y-5.1828
X7.4356Y-4.8959
X7.5886Y-3.1791
X8.0688Y-5.4658
X8.1714Y-5.1838
T4
X7.0749Y-3.5129
X7.0749Y-3.6129
X7.0749Y-3.7129
X7.0749Y-3.8129
X7.0752Y-3.513
X7.0752Y-3.613
X7.0752Y-3.713
X7.0752Y-3.813
X7.1749Y-3.4629
X7.1749Y-3.5629
X7.1749Y-3.6629
X7.1749Y-3.7629
X7.1752Y-3.563
X7.1752Y-3.663
X7.1752Y-3.763
X7.1752Y-3.863
T5
X6.9255Y-2.2235
X6.9255Y-2.3235
X6.9255Y-2.4235
X6.9255Y-2.5235
X6.9255Y-2.6235
X6.9255Y-2.7235
X6.9255Y-2.8235
X6.9255Y-2.9235
X6.9255Y-3.0235
X7.0255Y-3.0235
X7.1255Y-3.0235
X7.1272Y-2.3216
X7.1272Y-2.8925
X7.2255Y-3.0235
X7.2256Y-2.3216
X7.3241Y-2.3216
X7.3241Y-2.8925
X7.3255Y-3.0235
X7.4255Y-3.0235
X7.5255Y-2.2235
X7.5255Y-2.3235
X7.5255Y-2.4235
X7.5255Y-2.5235
X7.5255Y-2.6235
X7.5255Y-2.7235
X7.5255Y-2.8235
X7.5255Y-2.9235
X7.5255Y-3.0235
T6
X2.2909Y-3.0594
X2.2909Y-3.8469
X2.2909Y-4.6343
X2.3409Y-2.9594
X2.3409Y-3.7469
X2.3409Y-4.5343
X2.5409Y-2.9594
X2.5409Y-3.7469
X2.5409Y-4.5343
X2.5909Y-3.0594
X2.5909Y-3.8469
X2.5909Y-4.6343
X3.0783Y-2.6657
X3.0783Y-3.4531
X3.0783Y-4.2406
X3.1283Y-2.5657
X3.1283Y-3.3531
X3.1283Y-4.1406
X3.3283Y-2.5657
X3.3283Y-3.3531
X3.3283Y-4.1406
X3.3783Y-2.6657
X3.3783Y-3.4531
X3.3783Y-4.2406
X3.8657Y-2.1539
X3.8657Y-2.9413
X3.8657Y-3.7287
X3.9157Y-2.0539
X3.9157Y-2.8413
X3.9157Y-3.6287
X4.1157Y-2.0539
X4.1157Y-2.8413
X4.1157Y-3.6287
X4.1657Y-2.1539
X4.1657Y-2.9413
X4.1657Y-3.7287
X4.6531Y-1.9571
X4.6531Y-2.7445
X4.6531Y-3.5319
X4.7031Y-1.8571
X4.7031Y-2.6445
X4.7031Y-3.4319
X4.9031Y-1.8571
X4.9031Y-2.6445
X4.9031Y-3.4319
X4.9531Y-1.9571
X4.9531Y-2.7445
X4.9531Y-3.5319
X5.2437Y-4.6232
X5.2937Y-4.5232
X5.4406Y-2.1933
X5.4406Y-2.9807
X5.4406Y-3.7681
X5.4906Y-2.0933
X5.4906Y-2.8807
X5.4906Y-3.6681
X5.4937Y-4.5232
X5.5437Y-4.6232
X5.6906Y-2.0933
X5.6906Y-2.8807
X5.6906Y-3.6681
X5.7406Y-2.1933
X5.7406Y-2.9807
X5.7406Y-3.7681
X6.0311Y-4.6232
X6.0811Y-4.5232
X6.228Y-2.272
X6.228Y-3.0594
X6.228Y-3.8469
X6.278Y-2.172
X6.278Y-2.9594
X6.278Y-3.7469
X6.2811Y-4.5232
X6.3311Y-4.6232
X6.478Y-2.172
X6.478Y-2.9594
X6.478Y-3.7469
X6.528Y-2.272
X6.528Y-3.0594
X6.528Y-3.8469
X6.8926Y-4.6844
X6.9593Y-4.5946
X7.1562Y-4.6293
X7.1881Y-4.7365
X7.7345Y-4.8794
X7.8157Y-4.8025
X8.0036Y-4.8709
X8.0164Y-4.982
T7
X7.545Y-3.332
X7.545Y-3.9438
X7.5453Y-3.3821
X7.5453Y-3.9939
T6
G00X7.0052Y-2.5913
M15
G01X7.0052Y-2.6425
M16
G05
G00X7.4461Y-2.5913
M15
G01X7.4461Y-2.6425
M16
G05
M30
