%TF.GenerationSoftware,KiCad,Pcbnew,8.0.3*%
%TF.CreationDate,2024-07-09T07:59:51-07:00*%
%TF.ProjectId,Custom_KB_V1,43757374-6f6d-45f4-9b42-5f56312e6b69,rev?*%
%TF.SameCoordinates,Original*%
%TF.FileFunction,Soldermask,Bot*%
%TF.FilePolarity,Negative*%
%FSLAX46Y46*%
G04 Gerber Fmt 4.6, Leading zero omitted, Abs format (unit mm)*
G04 Created by KiCad (PCBNEW 8.0.3) date 2024-07-09 07:59:51*
%MOMM*%
%LPD*%
G01*
G04 APERTURE LIST*
G04 Aperture macros list*
%AMRoundRect*
0 Rectangle with rounded corners*
0 $1 Rounding radius*
0 $2 $3 $4 $5 $6 $7 $8 $9 X,Y pos of 4 corners*
0 Add a 4 corners polygon primitive as box body*
4,1,4,$2,$3,$4,$5,$6,$7,$8,$9,$2,$3,0*
0 Add four circle primitives for the rounded corners*
1,1,$1+$1,$2,$3*
1,1,$1+$1,$4,$5*
1,1,$1+$1,$6,$7*
1,1,$1+$1,$8,$9*
0 Add four rect primitives between the rounded corners*
20,1,$1+$1,$2,$3,$4,$5,0*
20,1,$1+$1,$4,$5,$6,$7,0*
20,1,$1+$1,$6,$7,$8,$9,0*
20,1,$1+$1,$8,$9,$2,$3,0*%
%AMHorizOval*
0 Thick line with rounded ends*
0 $1 width*
0 $2 $3 position (X,Y) of the first rounded end (center of the circle)*
0 $4 $5 position (X,Y) of the second rounded end (center of the circle)*
0 Add line between two ends*
20,1,$1,$2,$3,$4,$5,0*
0 Add two circle primitives to create the rounded ends*
1,1,$1,$2,$3*
1,1,$1,$4,$5*%
%AMFreePoly0*
4,1,16,0.535355,0.785355,0.541603,0.777735,1.041603,0.027735,1.049029,-0.009806,1.041603,-0.027735,0.541603,-0.777735,0.509806,-0.799029,0.500000,-0.800000,-0.500000,-0.800000,-0.535355,-0.785355,-0.550000,-0.750000,-0.550000,0.750000,-0.535355,0.785355,-0.500000,0.800000,0.500000,0.800000,0.535355,0.785355,0.535355,0.785355,$1*%
%AMFreePoly1*
4,1,16,0.535355,0.785355,0.550000,0.750000,0.550000,-0.750000,0.535355,-0.785355,0.500000,-0.800000,-0.650000,-0.800000,-0.685355,-0.785355,-0.700000,-0.750000,-0.691603,-0.722265,-0.210093,0.000000,-0.691603,0.722265,-0.699029,0.759806,-0.677735,0.791603,-0.650000,0.800000,0.500000,0.800000,0.535355,0.785355,0.535355,0.785355,$1*%
G04 Aperture macros list end*
%ADD10C,1.850000*%
%ADD11C,4.100000*%
%ADD12C,2.600000*%
%ADD13RoundRect,0.050000X-0.800000X-0.800000X0.800000X-0.800000X0.800000X0.800000X-0.800000X0.800000X0*%
%ADD14O,1.700000X1.700000*%
%ADD15RoundRect,0.050000X0.800000X0.800000X-0.800000X0.800000X-0.800000X-0.800000X0.800000X-0.800000X0*%
%ADD16RoundRect,0.050000X-0.800000X0.800000X-0.800000X-0.800000X0.800000X-0.800000X0.800000X0.800000X0*%
%ADD17RoundRect,0.050000X0.800000X-0.800000X0.800000X0.800000X-0.800000X0.800000X-0.800000X-0.800000X0*%
%ADD18C,3.350000*%
%ADD19RoundRect,0.050000X-0.750000X0.750000X-0.750000X-0.750000X0.750000X-0.750000X0.750000X0.750000X0*%
%ADD20C,1.600000*%
%ADD21C,3.100000*%
%ADD22O,2.600000X1.600000*%
%ADD23O,1.600000X2.600000*%
%ADD24RoundRect,0.050000X-1.000000X1.000000X-1.000000X-1.000000X1.000000X-1.000000X1.000000X1.000000X0*%
%ADD25C,2.100000*%
%ADD26RoundRect,0.050000X-1.000000X1.600000X-1.000000X-1.600000X1.000000X-1.600000X1.000000X1.600000X0*%
%ADD27RoundRect,0.050000X0.648928X-0.926765X0.926765X0.648928X-0.648928X0.926765X-0.926765X-0.648928X0*%
%ADD28HorizOval,1.700000X0.000000X0.000000X0.000000X0.000000X0*%
%ADD29RoundRect,0.050000X1.025370X0.478138X-0.478138X1.025370X-1.025370X-0.478138X0.478138X-1.025370X0*%
%ADD30HorizOval,1.700000X0.000000X0.000000X0.000000X0.000000X0*%
%ADD31FreePoly0,90.000000*%
%ADD32FreePoly1,90.000000*%
%ADD33RoundRect,0.050000X0.750000X-0.750000X0.750000X0.750000X-0.750000X0.750000X-0.750000X-0.750000X0*%
G04 APERTURE END LIST*
D10*
%TO.C,K17*%
X57004022Y-100317025D03*
D11*
X62084022Y-100317025D03*
X62084022Y-100317025D03*
D10*
X67164022Y-100317025D03*
D12*
X58274022Y-97777025D03*
X59544022Y-95237025D03*
X64624022Y-95237025D03*
X65894022Y-97777025D03*
%TD*%
D10*
%TO.C,K1*%
X157004022Y-60317025D03*
D11*
X162084022Y-60317025D03*
X162084022Y-60317025D03*
D10*
X167164022Y-60317025D03*
D12*
X158274022Y-57777025D03*
X159544022Y-55237025D03*
X164624022Y-55237025D03*
X165894022Y-57777025D03*
%TD*%
D13*
%TO.C,D12*%
X161422223Y-110704386D03*
D14*
X169042223Y-110704386D03*
%TD*%
D10*
%TO.C,K21*%
X152004022Y-120037025D03*
D11*
X157084022Y-120037025D03*
X157084022Y-120037025D03*
D10*
X162164022Y-120037025D03*
D12*
X153274022Y-117497025D03*
X154544022Y-114957025D03*
X159624022Y-114957025D03*
X160894022Y-117497025D03*
%TD*%
D13*
%TO.C,D14*%
X104476270Y-67407129D03*
D14*
X112096270Y-67407129D03*
%TD*%
D10*
%TO.C,K20*%
X173465524Y-121331989D03*
D11*
X178468347Y-122214121D03*
X178468347Y-122214121D03*
D10*
X183471170Y-123096253D03*
D12*
X175157295Y-119051110D03*
X176849067Y-116770232D03*
X181851892Y-117652364D03*
X182661531Y-120374310D03*
%TD*%
D15*
%TO.C,D10*%
X85725000Y-100012500D03*
D14*
X78105000Y-100012500D03*
%TD*%
D10*
%TO.C,K6*%
X137004022Y-98317025D03*
D11*
X142084022Y-98317025D03*
X142084022Y-98317025D03*
D10*
X147164022Y-98317025D03*
D12*
X138274022Y-95777025D03*
X139544022Y-93237025D03*
X144624022Y-93237025D03*
X145894022Y-95777025D03*
%TD*%
D10*
%TO.C,K14*%
X77004022Y-90317025D03*
D11*
X82084022Y-90317025D03*
X82084022Y-90317025D03*
D10*
X87164022Y-90317025D03*
D12*
X78274022Y-87777025D03*
X79544022Y-85237025D03*
X84624022Y-85237025D03*
X85894022Y-87777025D03*
%TD*%
D15*
%TO.C,D11*%
X125845081Y-62779299D03*
D14*
X118225081Y-62779299D03*
%TD*%
D10*
%TO.C,K3*%
X157003750Y-100330000D03*
D11*
X162083750Y-100330000D03*
X162083750Y-100330000D03*
D10*
X167163750Y-100330000D03*
D12*
X158273750Y-97790000D03*
X159543750Y-95250000D03*
X164623750Y-95250000D03*
X165893750Y-97790000D03*
%TD*%
D10*
%TO.C,K11*%
X97004022Y-77317025D03*
D11*
X102084022Y-77317025D03*
X102084022Y-77317025D03*
D10*
X107164022Y-77317025D03*
D12*
X98274022Y-74777025D03*
X99544022Y-72237025D03*
X104624022Y-72237025D03*
X105894022Y-74777025D03*
%TD*%
D10*
%TO.C,K19*%
X194477618Y-125955193D03*
D11*
X199251256Y-127692655D03*
X199251256Y-127692655D03*
D10*
X204024894Y-129430117D03*
D12*
X196539756Y-124002739D03*
X198601899Y-122050286D03*
X203375539Y-123787749D03*
X203700215Y-126608933D03*
%TD*%
D16*
%TO.C,D2*%
X171738933Y-81328564D03*
D14*
X171738933Y-88948564D03*
%TD*%
D10*
%TO.C,K2*%
X157004022Y-80317025D03*
D11*
X162084022Y-80317025D03*
X162084022Y-80317025D03*
D10*
X167164022Y-80317025D03*
D12*
X158274022Y-77777025D03*
X159544022Y-75237025D03*
X164624022Y-75237025D03*
X165894022Y-77777025D03*
%TD*%
D10*
%TO.C,K15*%
X77004022Y-110317025D03*
D11*
X82084022Y-110317025D03*
X82084022Y-110317025D03*
D10*
X87164022Y-110317025D03*
D12*
X78274022Y-107777025D03*
X79544022Y-105237025D03*
X84624022Y-105237025D03*
X85894022Y-107777025D03*
%TD*%
D10*
%TO.C,K9*%
X117004022Y-92317025D03*
D11*
X122084022Y-92317025D03*
X122084022Y-92317025D03*
D10*
X127164022Y-92317025D03*
D12*
X118274022Y-89777025D03*
X119544022Y-87237025D03*
X124624022Y-87237025D03*
X125894022Y-89777025D03*
%TD*%
D15*
%TO.C,D25*%
X152155682Y-110415453D03*
D14*
X144535682Y-110415453D03*
%TD*%
D16*
%TO.C,D1*%
X171863807Y-57150000D03*
D14*
X171863807Y-64770000D03*
%TD*%
D17*
%TO.C,D7*%
X131980016Y-59102748D03*
D14*
X131980016Y-51482748D03*
%TD*%
D10*
%TO.C,K10*%
X97004022Y-57317025D03*
D11*
X102084022Y-57317025D03*
X102084022Y-57317025D03*
D10*
X107164022Y-57317025D03*
D12*
X98274022Y-54777025D03*
X99544022Y-52237025D03*
X104624022Y-52237025D03*
X105894022Y-54777025D03*
%TD*%
D10*
%TO.C,K5*%
X136988759Y-78311514D03*
D11*
X142068759Y-78311514D03*
X142068759Y-78311514D03*
D10*
X147148759Y-78311514D03*
D12*
X138258759Y-75771514D03*
X139528759Y-73231514D03*
X144608759Y-73231514D03*
X145878759Y-75771514D03*
%TD*%
D16*
%TO.C,D17*%
X71711739Y-96268613D03*
D14*
X71711739Y-103888613D03*
%TD*%
D10*
%TO.C,K13*%
X77004022Y-70317025D03*
D11*
X82084022Y-70317025D03*
X82084022Y-70317025D03*
D10*
X87164022Y-70317025D03*
D12*
X78274022Y-67777025D03*
X79544022Y-65237025D03*
X84624022Y-65237025D03*
X85894022Y-67777025D03*
%TD*%
D15*
%TO.C,D22*%
X165995772Y-70349102D03*
D14*
X158375772Y-70349102D03*
%TD*%
D18*
%TO.C,J2-Right1*%
X185222538Y-97912984D03*
X185222538Y-86482984D03*
D19*
X178872538Y-96642984D03*
D20*
X176332538Y-95372984D03*
X178872538Y-94102984D03*
X176332538Y-92832984D03*
X178872538Y-91562984D03*
X176332538Y-90292984D03*
X178872538Y-89022984D03*
X176332538Y-87752984D03*
D21*
X188272538Y-99967984D03*
X188272538Y-84427984D03*
%TD*%
D13*
%TO.C,D8*%
X59531250Y-90487500D03*
D14*
X67151250Y-90487500D03*
%TD*%
D10*
%TO.C,K22*%
X132004022Y-120037025D03*
D11*
X137084022Y-120037025D03*
X137084022Y-120037025D03*
D10*
X142164022Y-120037025D03*
D12*
X133274022Y-117497025D03*
X134544022Y-114957025D03*
X139624022Y-114957025D03*
X140894022Y-117497025D03*
%TD*%
D17*
%TO.C,D6*%
X152331657Y-95925484D03*
D14*
X152331657Y-88305484D03*
%TD*%
D16*
%TO.C,D9*%
X132172638Y-84032621D03*
D14*
X132172638Y-91652621D03*
%TD*%
D16*
%TO.C,D23*%
X171811166Y-68146600D03*
D14*
X171811166Y-75766600D03*
%TD*%
D10*
%TO.C,K7*%
X117004022Y-52317025D03*
D11*
X122084022Y-52317025D03*
X122084022Y-52317025D03*
D10*
X127164022Y-52317025D03*
D12*
X118274022Y-49777025D03*
X119544022Y-47237025D03*
X124624022Y-47237025D03*
X125894022Y-49777025D03*
%TD*%
D13*
%TO.C,D13*%
X78000934Y-80456866D03*
D14*
X85620934Y-80456866D03*
%TD*%
D17*
%TO.C,D20*%
X71962312Y-116719202D03*
D14*
X71962312Y-109099202D03*
%TD*%
D22*
%TO.C,U1*%
X191647772Y-56477748D03*
X191647772Y-59017748D03*
X191647772Y-61557748D03*
X191647772Y-64097748D03*
X191647772Y-66637748D03*
X191647772Y-69177748D03*
X191647772Y-71717748D03*
X191647772Y-74257748D03*
X191647772Y-76797748D03*
D23*
X188607772Y-77297748D03*
X186067772Y-77297748D03*
X183527772Y-77297748D03*
X180987772Y-77297748D03*
X178447772Y-77297748D03*
D22*
X175407772Y-76797748D03*
X175407772Y-74257748D03*
X175407772Y-71717748D03*
X175407772Y-69177748D03*
X175407772Y-66637748D03*
X175407772Y-64097748D03*
X175407772Y-61557748D03*
X175407772Y-59017748D03*
X175407772Y-56477748D03*
%TD*%
D24*
%TO.C,SW1*%
X186030307Y-59083245D03*
D25*
X181030307Y-59083245D03*
X183530307Y-59083245D03*
D26*
X189130307Y-66583245D03*
X177930307Y-66583245D03*
D25*
X181030307Y-73583245D03*
X186030307Y-73583245D03*
%TD*%
D10*
%TO.C,K12*%
X97004022Y-97317025D03*
D11*
X102084022Y-97317025D03*
X102084022Y-97317025D03*
D10*
X107164022Y-97317025D03*
D12*
X98274022Y-94777025D03*
X99544022Y-92237025D03*
X104624022Y-92237025D03*
X105894022Y-94777025D03*
%TD*%
D10*
%TO.C,K16*%
X57004022Y-80317025D03*
D11*
X62084022Y-80317025D03*
X62084022Y-80317025D03*
D10*
X67164022Y-80317025D03*
D12*
X58274022Y-77777025D03*
X59544022Y-75237025D03*
X64624022Y-75237025D03*
X65894022Y-77777025D03*
%TD*%
D10*
%TO.C,K4*%
X137021647Y-58317025D03*
D11*
X142101647Y-58317025D03*
X142101647Y-58317025D03*
D10*
X147181647Y-58317025D03*
D12*
X138291647Y-55777025D03*
X139561647Y-53237025D03*
X144641647Y-53237025D03*
X145911647Y-55777025D03*
%TD*%
D10*
%TO.C,K8*%
X117004022Y-72317025D03*
D11*
X122084022Y-72317025D03*
X122084022Y-72317025D03*
D10*
X127164022Y-72317025D03*
D12*
X118274022Y-69777025D03*
X119544022Y-67237025D03*
X124624022Y-67237025D03*
X125894022Y-69777025D03*
%TD*%
D16*
%TO.C,D15*%
X91739543Y-105401021D03*
D14*
X91739543Y-113021021D03*
%TD*%
D15*
%TO.C,D24*%
X183288095Y-80341376D03*
D14*
X175668095Y-80341376D03*
%TD*%
D16*
%TO.C,D3*%
X171430407Y-93447848D03*
D14*
X171430407Y-101067848D03*
%TD*%
D16*
%TO.C,D4*%
X152400000Y-57150000D03*
D14*
X152400000Y-64770000D03*
%TD*%
D27*
%TO.C,D18*%
X188273357Y-121721107D03*
D28*
X189596550Y-114216870D03*
%TD*%
D10*
%TO.C,K18*%
X57004022Y-120317025D03*
D11*
X62084022Y-120317025D03*
X62084022Y-120317025D03*
D10*
X67164022Y-120317025D03*
D12*
X58274022Y-117777025D03*
X59544022Y-115237025D03*
X64624022Y-115237025D03*
X65894022Y-117777025D03*
%TD*%
D16*
%TO.C,D5*%
X152400000Y-71437500D03*
D14*
X152400000Y-79057500D03*
%TD*%
D29*
%TO.C,D19*%
X206756978Y-120913360D03*
D30*
X199596518Y-118307167D03*
%TD*%
D17*
%TO.C,D21*%
X112133000Y-84326246D03*
D14*
X112133000Y-76706246D03*
%TD*%
D16*
%TO.C,D16*%
X131915129Y-70292785D03*
D14*
X131915129Y-77912785D03*
%TD*%
D31*
%TO.C,JP1*%
X199324718Y-106951795D03*
D32*
X199324718Y-105501797D03*
%TD*%
D31*
%TO.C,JP2*%
X195499908Y-107000315D03*
D32*
X195499908Y-105550317D03*
%TD*%
D31*
%TO.C,JP4*%
X188399908Y-107000315D03*
D32*
X188399908Y-105550317D03*
%TD*%
D31*
%TO.C,JP7*%
X177749908Y-107000315D03*
D32*
X177749908Y-105550317D03*
%TD*%
D31*
%TO.C,JP8*%
X174130805Y-107047656D03*
D32*
X174130805Y-105597658D03*
%TD*%
D31*
%TO.C,JP6*%
X181299908Y-107000315D03*
D32*
X181299908Y-105550317D03*
%TD*%
D31*
%TO.C,JP5*%
X184849908Y-107000315D03*
D32*
X184849908Y-105550317D03*
%TD*%
D18*
%TO.C,J1-Left1*%
X185236188Y-85218219D03*
X185236188Y-96648219D03*
D33*
X178886188Y-86488219D03*
D20*
X176346188Y-87758219D03*
X178886188Y-89028219D03*
X176346188Y-90298219D03*
X178886188Y-91568219D03*
X176346188Y-92838219D03*
X178886188Y-94108219D03*
X176346188Y-95378219D03*
D21*
X188286188Y-83163219D03*
X188286188Y-98703219D03*
%TD*%
D31*
%TO.C,JP3*%
X191949908Y-107000315D03*
D32*
X191949908Y-105550317D03*
%TD*%
M02*
