%TF.GenerationSoftware,KiCad,Pcbnew,8.0.3*%
%TF.CreationDate,2024-07-09T08:00:13-07:00*%
%TF.ProjectId,Custom_KB_V1,43757374-6f6d-45f4-9b42-5f56312e6b69,rev?*%
%TF.SameCoordinates,Original*%
%TF.FileFunction,Drillmap*%
%TF.FilePolarity,Positive*%
%FSLAX45Y45*%
G04 Gerber Fmt 4.5, Leading zero omitted, Abs format (unit mm)*
G04 Created by KiCad (PCBNEW 8.0.3) date 2024-07-09 08:00:13*
%MOMM*%
%LPD*%
G01*
G04 APERTURE LIST*
%ADD10C,0.200000*%
%ADD11C,0.100000*%
%ADD12C,0.150000*%
%ADD13C,0.160000*%
G04 APERTURE END LIST*
D10*
D11*
X11410000Y-6885625D02*
X11450000Y-6925625D01*
X11450000Y-6885625D02*
X11410000Y-6925625D01*
X11648125Y-6647500D02*
X11688125Y-6687500D01*
X11688125Y-6647500D02*
X11648125Y-6687500D01*
X12600625Y-8568262D02*
X12640625Y-8608262D01*
X12640625Y-8568262D02*
X12600625Y-8608262D01*
X13345777Y-8480747D02*
X13385777Y-8520747D01*
X13385777Y-8480747D02*
X13345777Y-8520747D01*
X13553125Y-8552500D02*
X13593125Y-8592500D01*
X13593125Y-8552500D02*
X13553125Y-8592500D01*
X13553125Y-8652500D02*
X13593125Y-8692500D01*
X13593125Y-8652500D02*
X13553125Y-8692500D01*
X13733427Y-10816826D02*
X13773427Y-10856826D01*
X13773427Y-10816826D02*
X13733427Y-10856826D01*
X13982222Y-10172222D02*
X14022222Y-10212222D01*
X14022222Y-10172222D02*
X13982222Y-10212222D01*
X15546744Y-11027609D02*
X15586744Y-11067609D01*
X15586744Y-11027609D02*
X15546744Y-11067609D01*
X16814375Y-8552500D02*
X16854375Y-8592500D01*
X16854375Y-8552500D02*
X16814375Y-8592500D01*
X16968893Y-8790625D02*
X17008893Y-8830625D01*
X17008893Y-8790625D02*
X16968893Y-8830625D01*
X16976117Y-7838125D02*
X17016117Y-7878125D01*
X17016117Y-7838125D02*
X16976117Y-7878125D01*
X17125000Y-7838125D02*
X17165000Y-7878125D01*
X17165000Y-7838125D02*
X17125000Y-7878125D01*
X17200090Y-11044018D02*
X17240090Y-11084018D01*
X17240090Y-11044018D02*
X17200090Y-11084018D01*
X17794464Y-10893028D02*
X17834464Y-10933028D01*
X17834464Y-10893028D02*
X17794464Y-10933028D01*
X17881524Y-10146875D02*
X17921524Y-10186875D01*
X17921524Y-10146875D02*
X17881524Y-10186875D01*
X17950395Y-10524532D02*
X17990395Y-10564532D01*
X17990395Y-10524532D02*
X17950395Y-10564532D01*
X17999379Y-10893174D02*
X18039379Y-10933174D01*
X18039379Y-10893174D02*
X17999379Y-10933174D01*
X18601072Y-10291875D02*
X18641072Y-10331875D01*
X18641072Y-10291875D02*
X18601072Y-10331875D01*
X18700508Y-10302483D02*
X18740508Y-10342483D01*
X18740508Y-10302483D02*
X18700508Y-10342483D01*
X18828834Y-10291875D02*
X18868834Y-10331875D01*
X18868834Y-10291875D02*
X18828834Y-10331875D01*
X18957500Y-10146875D02*
X18997500Y-10186875D01*
X18997500Y-10146875D02*
X18957500Y-10186875D01*
X19030000Y-10291875D02*
X19070000Y-10331875D01*
X19070000Y-10291875D02*
X19030000Y-10331875D01*
X19336088Y-9811088D02*
X19376088Y-9851088D01*
X19376088Y-9811088D02*
X19336088Y-9851088D01*
X19406799Y-9740378D02*
X19446799Y-9780378D01*
X19446799Y-9740378D02*
X19406799Y-9780378D01*
X5993125Y-9048750D02*
G75*
G02*
X5913125Y-9048750I-40000J0D01*
G01*
X5913125Y-9048750D02*
G75*
G02*
X5993125Y-9048750I40000J0D01*
G01*
X6755125Y-9048750D02*
G75*
G02*
X6675125Y-9048750I-40000J0D01*
G01*
X6675125Y-9048750D02*
G75*
G02*
X6755125Y-9048750I40000J0D01*
G01*
X7211174Y-9626861D02*
G75*
G02*
X7131174Y-9626861I-40000J0D01*
G01*
X7131174Y-9626861D02*
G75*
G02*
X7211174Y-9626861I40000J0D01*
G01*
X7211174Y-10388861D02*
G75*
G02*
X7131174Y-10388861I-40000J0D01*
G01*
X7131174Y-10388861D02*
G75*
G02*
X7211174Y-10388861I40000J0D01*
G01*
X7236231Y-10909920D02*
G75*
G02*
X7156231Y-10909920I-40000J0D01*
G01*
X7156231Y-10909920D02*
G75*
G02*
X7236231Y-10909920I40000J0D01*
G01*
X7236231Y-11671920D02*
G75*
G02*
X7156231Y-11671920I-40000J0D01*
G01*
X7156231Y-11671920D02*
G75*
G02*
X7236231Y-11671920I40000J0D01*
G01*
X7840093Y-8045687D02*
G75*
G02*
X7760093Y-8045687I-40000J0D01*
G01*
X7760093Y-8045687D02*
G75*
G02*
X7840093Y-8045687I40000J0D01*
G01*
X7850500Y-10001250D02*
G75*
G02*
X7770500Y-10001250I-40000J0D01*
G01*
X7770500Y-10001250D02*
G75*
G02*
X7850500Y-10001250I40000J0D01*
G01*
X8602093Y-8045687D02*
G75*
G02*
X8522093Y-8045687I-40000J0D01*
G01*
X8522093Y-8045687D02*
G75*
G02*
X8602093Y-8045687I40000J0D01*
G01*
X8612500Y-10001250D02*
G75*
G02*
X8532500Y-10001250I-40000J0D01*
G01*
X8532500Y-10001250D02*
G75*
G02*
X8612500Y-10001250I40000J0D01*
G01*
X9213954Y-10540102D02*
G75*
G02*
X9133954Y-10540102I-40000J0D01*
G01*
X9133954Y-10540102D02*
G75*
G02*
X9213954Y-10540102I40000J0D01*
G01*
X9213954Y-11302102D02*
G75*
G02*
X9133954Y-11302102I-40000J0D01*
G01*
X9133954Y-11302102D02*
G75*
G02*
X9213954Y-11302102I40000J0D01*
G01*
X10487627Y-6740713D02*
G75*
G02*
X10407627Y-6740713I-40000J0D01*
G01*
X10407627Y-6740713D02*
G75*
G02*
X10487627Y-6740713I40000J0D01*
G01*
X11249627Y-6740713D02*
G75*
G02*
X11169627Y-6740713I-40000J0D01*
G01*
X11169627Y-6740713D02*
G75*
G02*
X11249627Y-6740713I40000J0D01*
G01*
X11253300Y-7670625D02*
G75*
G02*
X11173300Y-7670625I-40000J0D01*
G01*
X11173300Y-7670625D02*
G75*
G02*
X11253300Y-7670625I40000J0D01*
G01*
X11253300Y-8432625D02*
G75*
G02*
X11173300Y-8432625I-40000J0D01*
G01*
X11173300Y-8432625D02*
G75*
G02*
X11253300Y-8432625I40000J0D01*
G01*
X11862508Y-6277930D02*
G75*
G02*
X11782508Y-6277930I-40000J0D01*
G01*
X11782508Y-6277930D02*
G75*
G02*
X11862508Y-6277930I40000J0D01*
G01*
X12624508Y-6277930D02*
G75*
G02*
X12544508Y-6277930I-40000J0D01*
G01*
X12544508Y-6277930D02*
G75*
G02*
X12624508Y-6277930I40000J0D01*
G01*
X13231513Y-7029278D02*
G75*
G02*
X13151513Y-7029278I-40000J0D01*
G01*
X13151513Y-7029278D02*
G75*
G02*
X13231513Y-7029278I40000J0D01*
G01*
X13231513Y-7791278D02*
G75*
G02*
X13151513Y-7791278I-40000J0D01*
G01*
X13151513Y-7791278D02*
G75*
G02*
X13231513Y-7791278I40000J0D01*
G01*
X13238002Y-5148275D02*
G75*
G02*
X13158002Y-5148275I-40000J0D01*
G01*
X13158002Y-5148275D02*
G75*
G02*
X13238002Y-5148275I40000J0D01*
G01*
X13238002Y-5910275D02*
G75*
G02*
X13158002Y-5910275I-40000J0D01*
G01*
X13158002Y-5910275D02*
G75*
G02*
X13238002Y-5910275I40000J0D01*
G01*
X13257264Y-8403262D02*
G75*
G02*
X13177264Y-8403262I-40000J0D01*
G01*
X13177264Y-8403262D02*
G75*
G02*
X13257264Y-8403262I40000J0D01*
G01*
X13257264Y-9165262D02*
G75*
G02*
X13177264Y-9165262I-40000J0D01*
G01*
X13177264Y-9165262D02*
G75*
G02*
X13257264Y-9165262I40000J0D01*
G01*
X14493568Y-11041545D02*
G75*
G02*
X14413568Y-11041545I-40000J0D01*
G01*
X14413568Y-11041545D02*
G75*
G02*
X14493568Y-11041545I40000J0D01*
G01*
X15255568Y-11041545D02*
G75*
G02*
X15175568Y-11041545I-40000J0D01*
G01*
X15175568Y-11041545D02*
G75*
G02*
X15255568Y-11041545I40000J0D01*
G01*
X15273166Y-8830548D02*
G75*
G02*
X15193166Y-8830548I-40000J0D01*
G01*
X15193166Y-8830548D02*
G75*
G02*
X15273166Y-8830548I40000J0D01*
G01*
X15273166Y-9592548D02*
G75*
G02*
X15193166Y-9592548I-40000J0D01*
G01*
X15193166Y-9592548D02*
G75*
G02*
X15273166Y-9592548I40000J0D01*
G01*
X15280000Y-5715000D02*
G75*
G02*
X15200000Y-5715000I-40000J0D01*
G01*
X15200000Y-5715000D02*
G75*
G02*
X15280000Y-5715000I40000J0D01*
G01*
X15280000Y-6477000D02*
G75*
G02*
X15200000Y-6477000I-40000J0D01*
G01*
X15200000Y-6477000D02*
G75*
G02*
X15280000Y-6477000I40000J0D01*
G01*
X15280000Y-7143750D02*
G75*
G02*
X15200000Y-7143750I-40000J0D01*
G01*
X15200000Y-7143750D02*
G75*
G02*
X15280000Y-7143750I40000J0D01*
G01*
X15280000Y-7905750D02*
G75*
G02*
X15200000Y-7905750I-40000J0D01*
G01*
X15200000Y-7905750D02*
G75*
G02*
X15280000Y-7905750I40000J0D01*
G01*
X15877577Y-7034910D02*
G75*
G02*
X15797577Y-7034910I-40000J0D01*
G01*
X15797577Y-7034910D02*
G75*
G02*
X15877577Y-7034910I40000J0D01*
G01*
X16182222Y-11070439D02*
G75*
G02*
X16102222Y-11070439I-40000J0D01*
G01*
X16102222Y-11070439D02*
G75*
G02*
X16182222Y-11070439I40000J0D01*
G01*
X16639577Y-7034910D02*
G75*
G02*
X16559577Y-7034910I-40000J0D01*
G01*
X16559577Y-7034910D02*
G75*
G02*
X16639577Y-7034910I40000J0D01*
G01*
X16944222Y-11070439D02*
G75*
G02*
X16864222Y-11070439I-40000J0D01*
G01*
X16864222Y-11070439D02*
G75*
G02*
X16944222Y-11070439I40000J0D01*
G01*
X17183041Y-9344785D02*
G75*
G02*
X17103041Y-9344785I-40000J0D01*
G01*
X17103041Y-9344785D02*
G75*
G02*
X17183041Y-9344785I40000J0D01*
G01*
X17183041Y-10106785D02*
G75*
G02*
X17103041Y-10106785I-40000J0D01*
G01*
X17103041Y-10106785D02*
G75*
G02*
X17183041Y-10106785I40000J0D01*
G01*
X17213893Y-8132856D02*
G75*
G02*
X17133893Y-8132856I-40000J0D01*
G01*
X17133893Y-8132856D02*
G75*
G02*
X17213893Y-8132856I40000J0D01*
G01*
X17213893Y-8894856D02*
G75*
G02*
X17133893Y-8894856I-40000J0D01*
G01*
X17133893Y-8894856D02*
G75*
G02*
X17213893Y-8894856I40000J0D01*
G01*
X17221117Y-6814660D02*
G75*
G02*
X17141117Y-6814660I-40000J0D01*
G01*
X17141117Y-6814660D02*
G75*
G02*
X17221117Y-6814660I40000J0D01*
G01*
X17221117Y-7576660D02*
G75*
G02*
X17141117Y-7576660I-40000J0D01*
G01*
X17141117Y-7576660D02*
G75*
G02*
X17221117Y-7576660I40000J0D01*
G01*
X17226381Y-5715000D02*
G75*
G02*
X17146381Y-5715000I-40000J0D01*
G01*
X17146381Y-5715000D02*
G75*
G02*
X17226381Y-5715000I40000J0D01*
G01*
X17226381Y-6477000D02*
G75*
G02*
X17146381Y-6477000I-40000J0D01*
G01*
X17146381Y-6477000D02*
G75*
G02*
X17226381Y-6477000I40000J0D01*
G01*
X17606810Y-8034138D02*
G75*
G02*
X17526810Y-8034138I-40000J0D01*
G01*
X17526810Y-8034138D02*
G75*
G02*
X17606810Y-8034138I40000J0D01*
G01*
X18368810Y-8034138D02*
G75*
G02*
X18288810Y-8034138I-40000J0D01*
G01*
X18288810Y-8034138D02*
G75*
G02*
X18368810Y-8034138I40000J0D01*
G01*
X18867336Y-12172111D02*
G75*
G02*
X18787336Y-12172111I-40000J0D01*
G01*
X18787336Y-12172111D02*
G75*
G02*
X18867336Y-12172111I40000J0D01*
G01*
X18999655Y-11421687D02*
G75*
G02*
X18919655Y-11421687I-40000J0D01*
G01*
X18919655Y-11421687D02*
G75*
G02*
X18999655Y-11421687I40000J0D01*
G01*
X19999652Y-11830717D02*
G75*
G02*
X19919652Y-11830717I-40000J0D01*
G01*
X19919652Y-11830717D02*
G75*
G02*
X19999652Y-11830717I40000J0D01*
G01*
X20715698Y-12091336D02*
G75*
G02*
X20635698Y-12091336I-40000J0D01*
G01*
X20635698Y-12091336D02*
G75*
G02*
X20715698Y-12091336I40000J0D01*
G01*
X17633254Y-8730298D02*
X17633254Y-8820298D01*
X17588254Y-8775298D02*
X17678254Y-8775298D01*
X17633254Y-8984298D02*
X17633254Y-9074298D01*
X17588254Y-9029298D02*
X17678254Y-9029298D01*
X17633254Y-9238298D02*
X17633254Y-9328298D01*
X17588254Y-9283298D02*
X17678254Y-9283298D01*
X17633254Y-9492298D02*
X17633254Y-9582298D01*
X17588254Y-9537298D02*
X17678254Y-9537298D01*
X17634619Y-8730822D02*
X17634619Y-8820822D01*
X17589619Y-8775822D02*
X17679619Y-8775822D01*
X17634619Y-8984822D02*
X17634619Y-9074822D01*
X17589619Y-9029822D02*
X17679619Y-9029822D01*
X17634619Y-9238822D02*
X17634619Y-9328822D01*
X17589619Y-9283822D02*
X17679619Y-9283822D01*
X17634619Y-9492822D02*
X17634619Y-9582822D01*
X17589619Y-9537822D02*
X17679619Y-9537822D01*
X17887254Y-8857298D02*
X17887254Y-8947298D01*
X17842254Y-8902298D02*
X17932254Y-8902298D01*
X17887254Y-9111298D02*
X17887254Y-9201298D01*
X17842254Y-9156298D02*
X17932254Y-9156298D01*
X17887254Y-9365298D02*
X17887254Y-9455298D01*
X17842254Y-9410298D02*
X17932254Y-9410298D01*
X17887254Y-9619298D02*
X17887254Y-9709298D01*
X17842254Y-9664298D02*
X17932254Y-9664298D01*
X17888619Y-8603822D02*
X17888619Y-8693822D01*
X17843619Y-8648822D02*
X17933619Y-8648822D01*
X17888619Y-8857822D02*
X17888619Y-8947822D01*
X17843619Y-8902822D02*
X17933619Y-8902822D01*
X17888619Y-9111822D02*
X17888619Y-9201822D01*
X17843619Y-9156822D02*
X17933619Y-9156822D01*
X17888619Y-9365822D02*
X17888619Y-9455822D01*
X17843619Y-9410822D02*
X17933619Y-9410822D01*
X17626133Y-5683130D02*
X17626133Y-5612419D01*
X17555422Y-5612419D01*
X17555422Y-5683130D01*
X17626133Y-5683130D01*
X17626133Y-5937130D02*
X17626133Y-5866419D01*
X17555422Y-5866419D01*
X17555422Y-5937130D01*
X17626133Y-5937130D01*
X17626133Y-6191130D02*
X17626133Y-6120419D01*
X17555422Y-6120419D01*
X17555422Y-6191130D01*
X17626133Y-6191130D01*
X17626133Y-6445130D02*
X17626133Y-6374419D01*
X17555422Y-6374419D01*
X17555422Y-6445130D01*
X17626133Y-6445130D01*
X17626133Y-6699130D02*
X17626133Y-6628419D01*
X17555422Y-6628419D01*
X17555422Y-6699130D01*
X17626133Y-6699130D01*
X17626133Y-6953130D02*
X17626133Y-6882419D01*
X17555422Y-6882419D01*
X17555422Y-6953130D01*
X17626133Y-6953130D01*
X17626133Y-7207130D02*
X17626133Y-7136419D01*
X17555422Y-7136419D01*
X17555422Y-7207130D01*
X17626133Y-7207130D01*
X17626133Y-7461130D02*
X17626133Y-7390419D01*
X17555422Y-7390419D01*
X17555422Y-7461130D01*
X17626133Y-7461130D01*
X17626133Y-7715130D02*
X17626133Y-7644419D01*
X17555422Y-7644419D01*
X17555422Y-7715130D01*
X17626133Y-7715130D01*
X17880133Y-7715130D02*
X17880133Y-7644419D01*
X17809422Y-7644419D01*
X17809422Y-7715130D01*
X17880133Y-7715130D01*
X18134133Y-7715130D02*
X18134133Y-7644419D01*
X18063422Y-7644419D01*
X18063422Y-7715130D01*
X18134133Y-7715130D01*
X18138386Y-5943680D02*
X18138386Y-5872969D01*
X18067675Y-5872969D01*
X18067675Y-5943680D01*
X18138386Y-5943680D01*
X18138386Y-7393680D02*
X18138386Y-7322969D01*
X18067675Y-7322969D01*
X18067675Y-7393680D01*
X18138386Y-7393680D01*
X18388133Y-7715130D02*
X18388133Y-7644419D01*
X18317422Y-7644419D01*
X18317422Y-7715130D01*
X18388133Y-7715130D01*
X18388386Y-5943680D02*
X18388386Y-5872969D01*
X18317675Y-5872969D01*
X18317675Y-5943680D01*
X18388386Y-5943680D01*
X18638386Y-5943680D02*
X18638386Y-5872969D01*
X18567675Y-5872969D01*
X18567675Y-5943680D01*
X18638386Y-5943680D01*
X18638386Y-7393680D02*
X18638386Y-7322969D01*
X18567675Y-7322969D01*
X18567675Y-7393680D01*
X18638386Y-7393680D01*
X18642133Y-7715130D02*
X18642133Y-7644419D01*
X18571422Y-7644419D01*
X18571422Y-7715130D01*
X18642133Y-7715130D01*
X18896133Y-7715130D02*
X18896133Y-7644419D01*
X18825422Y-7644419D01*
X18825422Y-7715130D01*
X18896133Y-7715130D01*
X19150133Y-5683130D02*
X19150133Y-5612419D01*
X19079422Y-5612419D01*
X19079422Y-5683130D01*
X19150133Y-5683130D01*
X19150133Y-5937130D02*
X19150133Y-5866419D01*
X19079422Y-5866419D01*
X19079422Y-5937130D01*
X19150133Y-5937130D01*
X19150133Y-6191130D02*
X19150133Y-6120419D01*
X19079422Y-6120419D01*
X19079422Y-6191130D01*
X19150133Y-6191130D01*
X19150133Y-6445130D02*
X19150133Y-6374419D01*
X19079422Y-6374419D01*
X19079422Y-6445130D01*
X19150133Y-6445130D01*
X19150133Y-6699130D02*
X19150133Y-6628419D01*
X19079422Y-6628419D01*
X19079422Y-6699130D01*
X19150133Y-6699130D01*
X19150133Y-6953130D02*
X19150133Y-6882419D01*
X19079422Y-6882419D01*
X19079422Y-6953130D01*
X19150133Y-6953130D01*
X19150133Y-7207130D02*
X19150133Y-7136419D01*
X19079422Y-7136419D01*
X19079422Y-7207130D01*
X19150133Y-7207130D01*
X19150133Y-7461130D02*
X19150133Y-7390419D01*
X19079422Y-7390419D01*
X19079422Y-7461130D01*
X19150133Y-7461130D01*
X19150133Y-7715130D02*
X19150133Y-7644419D01*
X19079422Y-7644419D01*
X19079422Y-7715130D01*
X19150133Y-7715130D01*
D12*
X5827402Y-7852702D02*
X5902402Y-7777702D01*
X5827402Y-7702702D01*
X5752402Y-7777702D01*
X5827402Y-7852702D01*
X5827402Y-9852703D02*
X5902402Y-9777703D01*
X5827402Y-9702703D01*
X5752402Y-9777703D01*
X5827402Y-9852703D01*
X5827402Y-11852702D02*
X5902402Y-11777702D01*
X5827402Y-11702702D01*
X5752402Y-11777702D01*
X5827402Y-11852702D01*
X5954402Y-7598702D02*
X6029402Y-7523702D01*
X5954402Y-7448702D01*
X5879402Y-7523702D01*
X5954402Y-7598702D01*
X5954402Y-9598703D02*
X6029402Y-9523703D01*
X5954402Y-9448703D01*
X5879402Y-9523703D01*
X5954402Y-9598703D01*
X5954402Y-11598702D02*
X6029402Y-11523702D01*
X5954402Y-11448702D01*
X5879402Y-11523702D01*
X5954402Y-11598702D01*
X6462402Y-7598702D02*
X6537402Y-7523702D01*
X6462402Y-7448702D01*
X6387402Y-7523702D01*
X6462402Y-7598702D01*
X6462402Y-9598703D02*
X6537402Y-9523703D01*
X6462402Y-9448703D01*
X6387402Y-9523703D01*
X6462402Y-9598703D01*
X6462402Y-11598702D02*
X6537402Y-11523702D01*
X6462402Y-11448702D01*
X6387402Y-11523702D01*
X6462402Y-11598702D01*
X6589402Y-7852702D02*
X6664402Y-7777702D01*
X6589402Y-7702702D01*
X6514402Y-7777702D01*
X6589402Y-7852702D01*
X6589402Y-9852703D02*
X6664402Y-9777703D01*
X6589402Y-9702703D01*
X6514402Y-9777703D01*
X6589402Y-9852703D01*
X6589402Y-11852702D02*
X6664402Y-11777702D01*
X6589402Y-11702702D01*
X6514402Y-11777702D01*
X6589402Y-11852702D01*
X7827402Y-6852702D02*
X7902402Y-6777702D01*
X7827402Y-6702702D01*
X7752402Y-6777702D01*
X7827402Y-6852702D01*
X7827402Y-8852703D02*
X7902402Y-8777703D01*
X7827402Y-8702703D01*
X7752402Y-8777703D01*
X7827402Y-8852703D01*
X7827402Y-10852703D02*
X7902402Y-10777703D01*
X7827402Y-10702703D01*
X7752402Y-10777703D01*
X7827402Y-10852703D01*
X7954402Y-6598702D02*
X8029402Y-6523702D01*
X7954402Y-6448702D01*
X7879402Y-6523702D01*
X7954402Y-6598702D01*
X7954402Y-8598703D02*
X8029402Y-8523703D01*
X7954402Y-8448703D01*
X7879402Y-8523703D01*
X7954402Y-8598703D01*
X7954402Y-10598703D02*
X8029402Y-10523703D01*
X7954402Y-10448703D01*
X7879402Y-10523703D01*
X7954402Y-10598703D01*
X8462402Y-6598702D02*
X8537402Y-6523702D01*
X8462402Y-6448702D01*
X8387402Y-6523702D01*
X8462402Y-6598702D01*
X8462402Y-8598703D02*
X8537402Y-8523703D01*
X8462402Y-8448703D01*
X8387402Y-8523703D01*
X8462402Y-8598703D01*
X8462402Y-10598703D02*
X8537402Y-10523703D01*
X8462402Y-10448703D01*
X8387402Y-10523703D01*
X8462402Y-10598703D01*
X8589402Y-6852702D02*
X8664402Y-6777702D01*
X8589402Y-6702702D01*
X8514402Y-6777702D01*
X8589402Y-6852702D01*
X8589402Y-8852703D02*
X8664402Y-8777703D01*
X8589402Y-8702703D01*
X8514402Y-8777703D01*
X8589402Y-8852703D01*
X8589402Y-10852703D02*
X8664402Y-10777703D01*
X8589402Y-10702703D01*
X8514402Y-10777703D01*
X8589402Y-10852703D01*
X9827402Y-5552703D02*
X9902402Y-5477703D01*
X9827402Y-5402703D01*
X9752402Y-5477703D01*
X9827402Y-5552703D01*
X9827402Y-7552702D02*
X9902402Y-7477702D01*
X9827402Y-7402702D01*
X9752402Y-7477702D01*
X9827402Y-7552702D01*
X9827402Y-9552703D02*
X9902402Y-9477703D01*
X9827402Y-9402703D01*
X9752402Y-9477703D01*
X9827402Y-9552703D01*
X9954402Y-5298703D02*
X10029402Y-5223703D01*
X9954402Y-5148703D01*
X9879402Y-5223703D01*
X9954402Y-5298703D01*
X9954402Y-7298702D02*
X10029402Y-7223702D01*
X9954402Y-7148702D01*
X9879402Y-7223702D01*
X9954402Y-7298702D01*
X9954402Y-9298703D02*
X10029402Y-9223703D01*
X9954402Y-9148703D01*
X9879402Y-9223703D01*
X9954402Y-9298703D01*
X10462402Y-5298703D02*
X10537402Y-5223703D01*
X10462402Y-5148703D01*
X10387402Y-5223703D01*
X10462402Y-5298703D01*
X10462402Y-7298702D02*
X10537402Y-7223702D01*
X10462402Y-7148702D01*
X10387402Y-7223702D01*
X10462402Y-7298702D01*
X10462402Y-9298703D02*
X10537402Y-9223703D01*
X10462402Y-9148703D01*
X10387402Y-9223703D01*
X10462402Y-9298703D01*
X10589402Y-5552703D02*
X10664402Y-5477703D01*
X10589402Y-5402703D01*
X10514402Y-5477703D01*
X10589402Y-5552703D01*
X10589402Y-7552702D02*
X10664402Y-7477702D01*
X10589402Y-7402702D01*
X10514402Y-7477702D01*
X10589402Y-7552702D01*
X10589402Y-9552703D02*
X10664402Y-9477703D01*
X10589402Y-9402703D01*
X10514402Y-9477703D01*
X10589402Y-9552703D01*
X11827402Y-5052703D02*
X11902402Y-4977703D01*
X11827402Y-4902703D01*
X11752402Y-4977703D01*
X11827402Y-5052703D01*
X11827402Y-7052702D02*
X11902402Y-6977702D01*
X11827402Y-6902702D01*
X11752402Y-6977702D01*
X11827402Y-7052702D01*
X11827402Y-9052703D02*
X11902402Y-8977703D01*
X11827402Y-8902703D01*
X11752402Y-8977703D01*
X11827402Y-9052703D01*
X11954402Y-4798703D02*
X12029402Y-4723703D01*
X11954402Y-4648703D01*
X11879402Y-4723703D01*
X11954402Y-4798703D01*
X11954402Y-6798702D02*
X12029402Y-6723702D01*
X11954402Y-6648702D01*
X11879402Y-6723702D01*
X11954402Y-6798702D01*
X11954402Y-8798703D02*
X12029402Y-8723703D01*
X11954402Y-8648703D01*
X11879402Y-8723703D01*
X11954402Y-8798703D01*
X12462402Y-4798703D02*
X12537402Y-4723703D01*
X12462402Y-4648703D01*
X12387402Y-4723703D01*
X12462402Y-4798703D01*
X12462402Y-6798702D02*
X12537402Y-6723702D01*
X12462402Y-6648702D01*
X12387402Y-6723702D01*
X12462402Y-6798702D01*
X12462402Y-8798703D02*
X12537402Y-8723703D01*
X12462402Y-8648703D01*
X12387402Y-8723703D01*
X12462402Y-8798703D01*
X12589402Y-5052703D02*
X12664402Y-4977703D01*
X12589402Y-4902703D01*
X12514402Y-4977703D01*
X12589402Y-5052703D01*
X12589402Y-7052702D02*
X12664402Y-6977702D01*
X12589402Y-6902702D01*
X12514402Y-6977702D01*
X12589402Y-7052702D01*
X12589402Y-9052703D02*
X12664402Y-8977703D01*
X12589402Y-8902703D01*
X12514402Y-8977703D01*
X12589402Y-9052703D01*
X13327402Y-11824702D02*
X13402402Y-11749702D01*
X13327402Y-11674702D01*
X13252402Y-11749702D01*
X13327402Y-11824702D01*
X13454402Y-11570702D02*
X13529402Y-11495702D01*
X13454402Y-11420702D01*
X13379402Y-11495702D01*
X13454402Y-11570702D01*
X13825876Y-7652151D02*
X13900876Y-7577151D01*
X13825876Y-7502151D01*
X13750876Y-7577151D01*
X13825876Y-7652151D01*
X13827402Y-9652703D02*
X13902402Y-9577703D01*
X13827402Y-9502703D01*
X13752402Y-9577703D01*
X13827402Y-9652703D01*
X13829165Y-5652702D02*
X13904165Y-5577703D01*
X13829165Y-5502703D01*
X13754165Y-5577703D01*
X13829165Y-5652702D01*
X13952876Y-7398151D02*
X14027876Y-7323151D01*
X13952876Y-7248151D01*
X13877876Y-7323151D01*
X13952876Y-7398151D01*
X13954402Y-9398703D02*
X14029402Y-9323703D01*
X13954402Y-9248703D01*
X13879402Y-9323703D01*
X13954402Y-9398703D01*
X13956165Y-5398703D02*
X14031165Y-5323703D01*
X13956165Y-5248703D01*
X13881165Y-5323703D01*
X13956165Y-5398703D01*
X13962402Y-11570702D02*
X14037402Y-11495702D01*
X13962402Y-11420702D01*
X13887402Y-11495702D01*
X13962402Y-11570702D01*
X14089402Y-11824702D02*
X14164402Y-11749702D01*
X14089402Y-11674702D01*
X14014402Y-11749702D01*
X14089402Y-11824702D01*
X14460876Y-7398151D02*
X14535876Y-7323151D01*
X14460876Y-7248151D01*
X14385876Y-7323151D01*
X14460876Y-7398151D01*
X14462402Y-9398703D02*
X14537402Y-9323703D01*
X14462402Y-9248703D01*
X14387402Y-9323703D01*
X14462402Y-9398703D01*
X14464165Y-5398703D02*
X14539165Y-5323703D01*
X14464165Y-5248703D01*
X14389165Y-5323703D01*
X14464165Y-5398703D01*
X14587876Y-7652151D02*
X14662876Y-7577151D01*
X14587876Y-7502151D01*
X14512876Y-7577151D01*
X14587876Y-7652151D01*
X14589402Y-9652703D02*
X14664402Y-9577703D01*
X14589402Y-9502703D01*
X14514402Y-9577703D01*
X14589402Y-9652703D01*
X14591165Y-5652702D02*
X14666165Y-5577703D01*
X14591165Y-5502703D01*
X14516165Y-5577703D01*
X14591165Y-5652702D01*
X15327402Y-11824702D02*
X15402402Y-11749702D01*
X15327402Y-11674702D01*
X15252402Y-11749702D01*
X15327402Y-11824702D01*
X15454402Y-11570702D02*
X15529402Y-11495702D01*
X15454402Y-11420702D01*
X15379402Y-11495702D01*
X15454402Y-11570702D01*
X15827375Y-9854000D02*
X15902375Y-9779000D01*
X15827375Y-9704000D01*
X15752375Y-9779000D01*
X15827375Y-9854000D01*
X15827402Y-5852702D02*
X15902402Y-5777702D01*
X15827402Y-5702702D01*
X15752402Y-5777702D01*
X15827402Y-5852702D01*
X15827402Y-7852702D02*
X15902402Y-7777702D01*
X15827402Y-7702702D01*
X15752402Y-7777702D01*
X15827402Y-7852702D01*
X15954375Y-9600000D02*
X16029375Y-9525000D01*
X15954375Y-9450000D01*
X15879375Y-9525000D01*
X15954375Y-9600000D01*
X15954402Y-5598702D02*
X16029402Y-5523703D01*
X15954402Y-5448703D01*
X15879402Y-5523703D01*
X15954402Y-5598702D01*
X15954402Y-7598702D02*
X16029402Y-7523702D01*
X15954402Y-7448702D01*
X15879402Y-7523702D01*
X15954402Y-7598702D01*
X15962402Y-11570702D02*
X16037402Y-11495702D01*
X15962402Y-11420702D01*
X15887402Y-11495702D01*
X15962402Y-11570702D01*
X16089402Y-11824702D02*
X16164402Y-11749702D01*
X16089402Y-11674702D01*
X16014402Y-11749702D01*
X16089402Y-11824702D01*
X16462375Y-9600000D02*
X16537375Y-9525000D01*
X16462375Y-9450000D01*
X16387375Y-9525000D01*
X16462375Y-9600000D01*
X16462402Y-5598702D02*
X16537402Y-5523703D01*
X16462402Y-5448703D01*
X16387402Y-5523703D01*
X16462402Y-5598702D01*
X16462402Y-7598702D02*
X16537402Y-7523702D01*
X16462402Y-7448702D01*
X16387402Y-7523702D01*
X16462402Y-7598702D01*
X16589375Y-9854000D02*
X16664375Y-9779000D01*
X16589375Y-9704000D01*
X16514375Y-9779000D01*
X16589375Y-9854000D01*
X16589402Y-5852702D02*
X16664402Y-5777702D01*
X16589402Y-5702702D01*
X16514402Y-5777702D01*
X16589402Y-5852702D01*
X16589402Y-7852702D02*
X16664402Y-7777702D01*
X16589402Y-7702702D01*
X16514402Y-7777702D01*
X16589402Y-7852702D01*
X17515730Y-11980111D02*
X17590730Y-11905111D01*
X17515730Y-11830111D01*
X17440730Y-11905111D01*
X17515730Y-11980111D01*
X17684907Y-11752023D02*
X17759907Y-11677023D01*
X17684907Y-11602023D01*
X17609907Y-11677023D01*
X17684907Y-11752023D01*
X17793031Y-6733324D02*
X17868031Y-6658324D01*
X17793031Y-6583324D01*
X17718031Y-6658324D01*
X17793031Y-6733324D01*
D11*
X17718031Y-6593324D02*
X17718031Y-6723324D01*
X17868031Y-6723324D02*
G75*
G02*
X17718031Y-6723324I-75000J0D01*
G01*
X17868031Y-6723324D02*
X17868031Y-6593324D01*
X17868031Y-6593324D02*
G75*
G03*
X17718031Y-6593324I-75000J0D01*
G01*
D12*
X18185189Y-11840236D02*
X18260189Y-11765236D01*
X18185189Y-11690236D01*
X18110189Y-11765236D01*
X18185189Y-11840236D01*
X18266153Y-12112431D02*
X18341153Y-12037431D01*
X18266153Y-11962431D01*
X18191153Y-12037431D01*
X18266153Y-12112431D01*
X18913031Y-6733324D02*
X18988031Y-6658324D01*
X18913031Y-6583324D01*
X18838031Y-6658324D01*
X18913031Y-6733324D01*
D11*
X18838031Y-6593324D02*
X18838031Y-6723324D01*
X18988031Y-6723324D02*
G75*
G02*
X18838031Y-6723324I-75000J0D01*
G01*
X18988031Y-6723324D02*
X18988031Y-6593324D01*
X18988031Y-6593324D02*
G75*
G03*
X18838031Y-6593324I-75000J0D01*
G01*
D12*
X19653976Y-12475274D02*
X19728976Y-12400274D01*
X19653976Y-12325274D01*
X19578976Y-12400274D01*
X19653976Y-12475274D01*
X19860190Y-12280029D02*
X19935190Y-12205029D01*
X19860190Y-12130029D01*
X19785190Y-12205029D01*
X19860190Y-12280029D01*
X20337554Y-12453775D02*
X20412554Y-12378775D01*
X20337554Y-12303775D01*
X20262554Y-12378775D01*
X20337554Y-12453775D01*
X20370022Y-12735893D02*
X20445022Y-12660893D01*
X20370022Y-12585893D01*
X20295022Y-12660893D01*
X20370022Y-12735893D01*
D13*
X18747254Y-8362798D02*
X18907254Y-8522798D01*
X18907254Y-8362798D02*
X18747254Y-8522798D01*
X18907254Y-8442798D02*
G75*
G02*
X18747254Y-8442798I-80000J0D01*
G01*
X18747254Y-8442798D02*
G75*
G02*
X18907254Y-8442798I80000J0D01*
G01*
X18747254Y-9916798D02*
X18907254Y-10076798D01*
X18907254Y-9916798D02*
X18747254Y-10076798D01*
X18907254Y-9996798D02*
G75*
G02*
X18747254Y-9996798I-80000J0D01*
G01*
X18747254Y-9996798D02*
G75*
G02*
X18907254Y-9996798I80000J0D01*
G01*
X18748619Y-8236322D02*
X18908619Y-8396322D01*
X18908619Y-8236322D02*
X18748619Y-8396322D01*
X18908619Y-8316322D02*
G75*
G02*
X18748619Y-8316322I-80000J0D01*
G01*
X18748619Y-8316322D02*
G75*
G02*
X18908619Y-8316322I80000J0D01*
G01*
X18748619Y-9790322D02*
X18908619Y-9950322D01*
X18908619Y-9790322D02*
X18748619Y-9950322D01*
X18908619Y-9870322D02*
G75*
G02*
X18748619Y-9870322I-80000J0D01*
G01*
X18748619Y-9870322D02*
G75*
G02*
X18908619Y-9870322I80000J0D01*
G01*
D10*
X260777Y-311484D02*
X260777Y-111484D01*
X260777Y-111484D02*
X308396Y-111484D01*
X308396Y-111484D02*
X336967Y-121008D01*
X336967Y-121008D02*
X356015Y-140055D01*
X356015Y-140055D02*
X365539Y-159103D01*
X365539Y-159103D02*
X375062Y-197198D01*
X375062Y-197198D02*
X375062Y-225769D01*
X375062Y-225769D02*
X365539Y-263865D01*
X365539Y-263865D02*
X356015Y-282912D01*
X356015Y-282912D02*
X336967Y-301960D01*
X336967Y-301960D02*
X308396Y-311484D01*
X308396Y-311484D02*
X260777Y-311484D01*
X460777Y-311484D02*
X460777Y-178150D01*
X460777Y-216246D02*
X470301Y-197198D01*
X470301Y-197198D02*
X479824Y-187674D01*
X479824Y-187674D02*
X498872Y-178150D01*
X498872Y-178150D02*
X517920Y-178150D01*
X584586Y-311484D02*
X584586Y-178150D01*
X584586Y-111484D02*
X575063Y-121008D01*
X575063Y-121008D02*
X584586Y-130531D01*
X584586Y-130531D02*
X594110Y-121008D01*
X594110Y-121008D02*
X584586Y-111484D01*
X584586Y-111484D02*
X584586Y-130531D01*
X708396Y-311484D02*
X689348Y-301960D01*
X689348Y-301960D02*
X679824Y-282912D01*
X679824Y-282912D02*
X679824Y-111484D01*
X813158Y-311484D02*
X794110Y-301960D01*
X794110Y-301960D02*
X784586Y-282912D01*
X784586Y-282912D02*
X784586Y-111484D01*
X1041729Y-311484D02*
X1041729Y-111484D01*
X1041729Y-111484D02*
X1108396Y-254341D01*
X1108396Y-254341D02*
X1175063Y-111484D01*
X1175063Y-111484D02*
X1175063Y-311484D01*
X1356015Y-311484D02*
X1356015Y-206722D01*
X1356015Y-206722D02*
X1346491Y-187674D01*
X1346491Y-187674D02*
X1327444Y-178150D01*
X1327444Y-178150D02*
X1289348Y-178150D01*
X1289348Y-178150D02*
X1270301Y-187674D01*
X1356015Y-301960D02*
X1336967Y-311484D01*
X1336967Y-311484D02*
X1289348Y-311484D01*
X1289348Y-311484D02*
X1270301Y-301960D01*
X1270301Y-301960D02*
X1260777Y-282912D01*
X1260777Y-282912D02*
X1260777Y-263865D01*
X1260777Y-263865D02*
X1270301Y-244817D01*
X1270301Y-244817D02*
X1289348Y-235293D01*
X1289348Y-235293D02*
X1336967Y-235293D01*
X1336967Y-235293D02*
X1356015Y-225769D01*
X1451253Y-178150D02*
X1451253Y-378150D01*
X1451253Y-187674D02*
X1470301Y-178150D01*
X1470301Y-178150D02*
X1508396Y-178150D01*
X1508396Y-178150D02*
X1527443Y-187674D01*
X1527443Y-187674D02*
X1536967Y-197198D01*
X1536967Y-197198D02*
X1546491Y-216246D01*
X1546491Y-216246D02*
X1546491Y-273389D01*
X1546491Y-273389D02*
X1536967Y-292436D01*
X1536967Y-292436D02*
X1527443Y-301960D01*
X1527443Y-301960D02*
X1508396Y-311484D01*
X1508396Y-311484D02*
X1470301Y-311484D01*
X1470301Y-311484D02*
X1451253Y-301960D01*
X1632205Y-292436D02*
X1641729Y-301960D01*
X1641729Y-301960D02*
X1632205Y-311484D01*
X1632205Y-311484D02*
X1622682Y-301960D01*
X1622682Y-301960D02*
X1632205Y-292436D01*
X1632205Y-292436D02*
X1632205Y-311484D01*
X1632205Y-187674D02*
X1641729Y-197198D01*
X1641729Y-197198D02*
X1632205Y-206722D01*
X1632205Y-206722D02*
X1622682Y-197198D01*
X1622682Y-197198D02*
X1632205Y-187674D01*
X1632205Y-187674D02*
X1632205Y-206722D01*
D11*
X-40000Y-620000D02*
X0Y-660000D01*
X0Y-620000D02*
X-40000Y-660000D01*
D10*
X298872Y-531484D02*
X317920Y-531484D01*
X317920Y-531484D02*
X336967Y-541008D01*
X336967Y-541008D02*
X346491Y-550531D01*
X346491Y-550531D02*
X356015Y-569579D01*
X356015Y-569579D02*
X365539Y-607674D01*
X365539Y-607674D02*
X365539Y-655293D01*
X365539Y-655293D02*
X356015Y-693389D01*
X356015Y-693389D02*
X346491Y-712436D01*
X346491Y-712436D02*
X336967Y-721960D01*
X336967Y-721960D02*
X317920Y-731484D01*
X317920Y-731484D02*
X298872Y-731484D01*
X298872Y-731484D02*
X279824Y-721960D01*
X279824Y-721960D02*
X270301Y-712436D01*
X270301Y-712436D02*
X260777Y-693389D01*
X260777Y-693389D02*
X251253Y-655293D01*
X251253Y-655293D02*
X251253Y-607674D01*
X251253Y-607674D02*
X260777Y-569579D01*
X260777Y-569579D02*
X270301Y-550531D01*
X270301Y-550531D02*
X279824Y-541008D01*
X279824Y-541008D02*
X298872Y-531484D01*
X451253Y-712436D02*
X460777Y-721960D01*
X460777Y-721960D02*
X451253Y-731484D01*
X451253Y-731484D02*
X441729Y-721960D01*
X441729Y-721960D02*
X451253Y-712436D01*
X451253Y-712436D02*
X451253Y-731484D01*
X632205Y-598150D02*
X632205Y-731484D01*
X584586Y-521960D02*
X536967Y-664817D01*
X536967Y-664817D02*
X660777Y-664817D01*
X775062Y-531484D02*
X794110Y-531484D01*
X794110Y-531484D02*
X813158Y-541008D01*
X813158Y-541008D02*
X822682Y-550531D01*
X822682Y-550531D02*
X832205Y-569579D01*
X832205Y-569579D02*
X841729Y-607674D01*
X841729Y-607674D02*
X841729Y-655293D01*
X841729Y-655293D02*
X832205Y-693389D01*
X832205Y-693389D02*
X822682Y-712436D01*
X822682Y-712436D02*
X813158Y-721960D01*
X813158Y-721960D02*
X794110Y-731484D01*
X794110Y-731484D02*
X775062Y-731484D01*
X775062Y-731484D02*
X756015Y-721960D01*
X756015Y-721960D02*
X746491Y-712436D01*
X746491Y-712436D02*
X736967Y-693389D01*
X736967Y-693389D02*
X727443Y-655293D01*
X727443Y-655293D02*
X727443Y-607674D01*
X727443Y-607674D02*
X736967Y-569579D01*
X736967Y-569579D02*
X746491Y-550531D01*
X746491Y-550531D02*
X756015Y-541008D01*
X756015Y-541008D02*
X775062Y-531484D01*
X965539Y-531484D02*
X984586Y-531484D01*
X984586Y-531484D02*
X1003634Y-541008D01*
X1003634Y-541008D02*
X1013158Y-550531D01*
X1013158Y-550531D02*
X1022682Y-569579D01*
X1022682Y-569579D02*
X1032205Y-607674D01*
X1032205Y-607674D02*
X1032205Y-655293D01*
X1032205Y-655293D02*
X1022682Y-693389D01*
X1022682Y-693389D02*
X1013158Y-712436D01*
X1013158Y-712436D02*
X1003634Y-721960D01*
X1003634Y-721960D02*
X984586Y-731484D01*
X984586Y-731484D02*
X965539Y-731484D01*
X965539Y-731484D02*
X946491Y-721960D01*
X946491Y-721960D02*
X936967Y-712436D01*
X936967Y-712436D02*
X927443Y-693389D01*
X927443Y-693389D02*
X917920Y-655293D01*
X917920Y-655293D02*
X917920Y-607674D01*
X917920Y-607674D02*
X927443Y-569579D01*
X927443Y-569579D02*
X936967Y-550531D01*
X936967Y-550531D02*
X946491Y-541008D01*
X946491Y-541008D02*
X965539Y-531484D01*
X1117920Y-731484D02*
X1117920Y-598150D01*
X1117920Y-617198D02*
X1127444Y-607674D01*
X1127444Y-607674D02*
X1146491Y-598150D01*
X1146491Y-598150D02*
X1175063Y-598150D01*
X1175063Y-598150D02*
X1194110Y-607674D01*
X1194110Y-607674D02*
X1203634Y-626722D01*
X1203634Y-626722D02*
X1203634Y-731484D01*
X1203634Y-626722D02*
X1213158Y-607674D01*
X1213158Y-607674D02*
X1232205Y-598150D01*
X1232205Y-598150D02*
X1260777Y-598150D01*
X1260777Y-598150D02*
X1279825Y-607674D01*
X1279825Y-607674D02*
X1289348Y-626722D01*
X1289348Y-626722D02*
X1289348Y-731484D01*
X1384586Y-731484D02*
X1384586Y-598150D01*
X1384586Y-617198D02*
X1394110Y-607674D01*
X1394110Y-607674D02*
X1413158Y-598150D01*
X1413158Y-598150D02*
X1441729Y-598150D01*
X1441729Y-598150D02*
X1460777Y-607674D01*
X1460777Y-607674D02*
X1470301Y-626722D01*
X1470301Y-626722D02*
X1470301Y-731484D01*
X1470301Y-626722D02*
X1479824Y-607674D01*
X1479824Y-607674D02*
X1498872Y-598150D01*
X1498872Y-598150D02*
X1527443Y-598150D01*
X1527443Y-598150D02*
X1546491Y-607674D01*
X1546491Y-607674D02*
X1556015Y-626722D01*
X1556015Y-626722D02*
X1556015Y-731484D01*
X1946491Y-521960D02*
X1775063Y-779103D01*
X2203634Y-531484D02*
X2222682Y-531484D01*
X2222682Y-531484D02*
X2241729Y-541008D01*
X2241729Y-541008D02*
X2251253Y-550531D01*
X2251253Y-550531D02*
X2260777Y-569579D01*
X2260777Y-569579D02*
X2270301Y-607674D01*
X2270301Y-607674D02*
X2270301Y-655293D01*
X2270301Y-655293D02*
X2260777Y-693389D01*
X2260777Y-693389D02*
X2251253Y-712436D01*
X2251253Y-712436D02*
X2241729Y-721960D01*
X2241729Y-721960D02*
X2222682Y-731484D01*
X2222682Y-731484D02*
X2203634Y-731484D01*
X2203634Y-731484D02*
X2184587Y-721960D01*
X2184587Y-721960D02*
X2175063Y-712436D01*
X2175063Y-712436D02*
X2165539Y-693389D01*
X2165539Y-693389D02*
X2156015Y-655293D01*
X2156015Y-655293D02*
X2156015Y-607674D01*
X2156015Y-607674D02*
X2165539Y-569579D01*
X2165539Y-569579D02*
X2175063Y-550531D01*
X2175063Y-550531D02*
X2184587Y-541008D01*
X2184587Y-541008D02*
X2203634Y-531484D01*
X2356015Y-712436D02*
X2365539Y-721960D01*
X2365539Y-721960D02*
X2356015Y-731484D01*
X2356015Y-731484D02*
X2346491Y-721960D01*
X2346491Y-721960D02*
X2356015Y-712436D01*
X2356015Y-712436D02*
X2356015Y-731484D01*
X2489348Y-531484D02*
X2508396Y-531484D01*
X2508396Y-531484D02*
X2527444Y-541008D01*
X2527444Y-541008D02*
X2536968Y-550531D01*
X2536968Y-550531D02*
X2546491Y-569579D01*
X2546491Y-569579D02*
X2556015Y-607674D01*
X2556015Y-607674D02*
X2556015Y-655293D01*
X2556015Y-655293D02*
X2546491Y-693389D01*
X2546491Y-693389D02*
X2536968Y-712436D01*
X2536968Y-712436D02*
X2527444Y-721960D01*
X2527444Y-721960D02*
X2508396Y-731484D01*
X2508396Y-731484D02*
X2489348Y-731484D01*
X2489348Y-731484D02*
X2470301Y-721960D01*
X2470301Y-721960D02*
X2460777Y-712436D01*
X2460777Y-712436D02*
X2451253Y-693389D01*
X2451253Y-693389D02*
X2441729Y-655293D01*
X2441729Y-655293D02*
X2441729Y-607674D01*
X2441729Y-607674D02*
X2451253Y-569579D01*
X2451253Y-569579D02*
X2460777Y-550531D01*
X2460777Y-550531D02*
X2470301Y-541008D01*
X2470301Y-541008D02*
X2489348Y-531484D01*
X2746491Y-731484D02*
X2632206Y-731484D01*
X2689348Y-731484D02*
X2689348Y-531484D01*
X2689348Y-531484D02*
X2670301Y-560055D01*
X2670301Y-560055D02*
X2651253Y-579103D01*
X2651253Y-579103D02*
X2632206Y-588627D01*
X2927444Y-531484D02*
X2832206Y-531484D01*
X2832206Y-531484D02*
X2822682Y-626722D01*
X2822682Y-626722D02*
X2832206Y-617198D01*
X2832206Y-617198D02*
X2851253Y-607674D01*
X2851253Y-607674D02*
X2898872Y-607674D01*
X2898872Y-607674D02*
X2917920Y-617198D01*
X2917920Y-617198D02*
X2927444Y-626722D01*
X2927444Y-626722D02*
X2936967Y-645770D01*
X2936967Y-645770D02*
X2936967Y-693389D01*
X2936967Y-693389D02*
X2927444Y-712436D01*
X2927444Y-712436D02*
X2917920Y-721960D01*
X2917920Y-721960D02*
X2898872Y-731484D01*
X2898872Y-731484D02*
X2851253Y-731484D01*
X2851253Y-731484D02*
X2832206Y-721960D01*
X2832206Y-721960D02*
X2822682Y-712436D01*
X3003634Y-531484D02*
X3136967Y-531484D01*
X3136967Y-531484D02*
X3051253Y-731484D01*
X3203634Y-531484D02*
X3203634Y-569579D01*
X3279825Y-531484D02*
X3279825Y-569579D01*
X3575063Y-807674D02*
X3565539Y-798150D01*
X3565539Y-798150D02*
X3546491Y-769579D01*
X3546491Y-769579D02*
X3536968Y-750531D01*
X3536968Y-750531D02*
X3527444Y-721960D01*
X3527444Y-721960D02*
X3517920Y-674341D01*
X3517920Y-674341D02*
X3517920Y-636246D01*
X3517920Y-636246D02*
X3527444Y-588627D01*
X3527444Y-588627D02*
X3536968Y-560055D01*
X3536968Y-560055D02*
X3546491Y-541008D01*
X3546491Y-541008D02*
X3565539Y-512436D01*
X3565539Y-512436D02*
X3575063Y-502912D01*
X3641729Y-550531D02*
X3651253Y-541008D01*
X3651253Y-541008D02*
X3670301Y-531484D01*
X3670301Y-531484D02*
X3717920Y-531484D01*
X3717920Y-531484D02*
X3736968Y-541008D01*
X3736968Y-541008D02*
X3746491Y-550531D01*
X3746491Y-550531D02*
X3756015Y-569579D01*
X3756015Y-569579D02*
X3756015Y-588627D01*
X3756015Y-588627D02*
X3746491Y-617198D01*
X3746491Y-617198D02*
X3632206Y-731484D01*
X3632206Y-731484D02*
X3756015Y-731484D01*
X3936968Y-531484D02*
X3841729Y-531484D01*
X3841729Y-531484D02*
X3832206Y-626722D01*
X3832206Y-626722D02*
X3841729Y-617198D01*
X3841729Y-617198D02*
X3860777Y-607674D01*
X3860777Y-607674D02*
X3908396Y-607674D01*
X3908396Y-607674D02*
X3927444Y-617198D01*
X3927444Y-617198D02*
X3936968Y-626722D01*
X3936968Y-626722D02*
X3946491Y-645770D01*
X3946491Y-645770D02*
X3946491Y-693389D01*
X3946491Y-693389D02*
X3936968Y-712436D01*
X3936968Y-712436D02*
X3927444Y-721960D01*
X3927444Y-721960D02*
X3908396Y-731484D01*
X3908396Y-731484D02*
X3860777Y-731484D01*
X3860777Y-731484D02*
X3841729Y-721960D01*
X3841729Y-721960D02*
X3832206Y-712436D01*
X4184587Y-731484D02*
X4184587Y-531484D01*
X4270301Y-731484D02*
X4270301Y-626722D01*
X4270301Y-626722D02*
X4260777Y-607674D01*
X4260777Y-607674D02*
X4241730Y-598150D01*
X4241730Y-598150D02*
X4213158Y-598150D01*
X4213158Y-598150D02*
X4194110Y-607674D01*
X4194110Y-607674D02*
X4184587Y-617198D01*
X4394111Y-731484D02*
X4375063Y-721960D01*
X4375063Y-721960D02*
X4365539Y-712436D01*
X4365539Y-712436D02*
X4356015Y-693389D01*
X4356015Y-693389D02*
X4356015Y-636246D01*
X4356015Y-636246D02*
X4365539Y-617198D01*
X4365539Y-617198D02*
X4375063Y-607674D01*
X4375063Y-607674D02*
X4394111Y-598150D01*
X4394111Y-598150D02*
X4422682Y-598150D01*
X4422682Y-598150D02*
X4441730Y-607674D01*
X4441730Y-607674D02*
X4451253Y-617198D01*
X4451253Y-617198D02*
X4460777Y-636246D01*
X4460777Y-636246D02*
X4460777Y-693389D01*
X4460777Y-693389D02*
X4451253Y-712436D01*
X4451253Y-712436D02*
X4441730Y-721960D01*
X4441730Y-721960D02*
X4422682Y-731484D01*
X4422682Y-731484D02*
X4394111Y-731484D01*
X4575063Y-731484D02*
X4556015Y-721960D01*
X4556015Y-721960D02*
X4546492Y-702912D01*
X4546492Y-702912D02*
X4546492Y-531484D01*
X4727444Y-721960D02*
X4708396Y-731484D01*
X4708396Y-731484D02*
X4670301Y-731484D01*
X4670301Y-731484D02*
X4651253Y-721960D01*
X4651253Y-721960D02*
X4641730Y-702912D01*
X4641730Y-702912D02*
X4641730Y-626722D01*
X4641730Y-626722D02*
X4651253Y-607674D01*
X4651253Y-607674D02*
X4670301Y-598150D01*
X4670301Y-598150D02*
X4708396Y-598150D01*
X4708396Y-598150D02*
X4727444Y-607674D01*
X4727444Y-607674D02*
X4736968Y-626722D01*
X4736968Y-626722D02*
X4736968Y-645770D01*
X4736968Y-645770D02*
X4641730Y-664817D01*
X4813158Y-721960D02*
X4832206Y-731484D01*
X4832206Y-731484D02*
X4870301Y-731484D01*
X4870301Y-731484D02*
X4889349Y-721960D01*
X4889349Y-721960D02*
X4898873Y-702912D01*
X4898873Y-702912D02*
X4898873Y-693389D01*
X4898873Y-693389D02*
X4889349Y-674341D01*
X4889349Y-674341D02*
X4870301Y-664817D01*
X4870301Y-664817D02*
X4841730Y-664817D01*
X4841730Y-664817D02*
X4822682Y-655293D01*
X4822682Y-655293D02*
X4813158Y-636246D01*
X4813158Y-636246D02*
X4813158Y-626722D01*
X4813158Y-626722D02*
X4822682Y-607674D01*
X4822682Y-607674D02*
X4841730Y-598150D01*
X4841730Y-598150D02*
X4870301Y-598150D01*
X4870301Y-598150D02*
X4889349Y-607674D01*
X4965539Y-807674D02*
X4975063Y-798150D01*
X4975063Y-798150D02*
X4994111Y-769579D01*
X4994111Y-769579D02*
X5003634Y-750531D01*
X5003634Y-750531D02*
X5013158Y-721960D01*
X5013158Y-721960D02*
X5022682Y-674341D01*
X5022682Y-674341D02*
X5022682Y-636246D01*
X5022682Y-636246D02*
X5013158Y-588627D01*
X5013158Y-588627D02*
X5003634Y-560055D01*
X5003634Y-560055D02*
X4994111Y-541008D01*
X4994111Y-541008D02*
X4975063Y-512436D01*
X4975063Y-512436D02*
X4965539Y-502912D01*
D11*
X0Y-904000D02*
G75*
G02*
X-80000Y-904000I-40000J0D01*
G01*
X-80000Y-904000D02*
G75*
G02*
X0Y-904000I40000J0D01*
G01*
D10*
X298872Y-795484D02*
X317920Y-795484D01*
X317920Y-795484D02*
X336967Y-805008D01*
X336967Y-805008D02*
X346491Y-814531D01*
X346491Y-814531D02*
X356015Y-833579D01*
X356015Y-833579D02*
X365539Y-871674D01*
X365539Y-871674D02*
X365539Y-919293D01*
X365539Y-919293D02*
X356015Y-957388D01*
X356015Y-957388D02*
X346491Y-976436D01*
X346491Y-976436D02*
X336967Y-985960D01*
X336967Y-985960D02*
X317920Y-995484D01*
X317920Y-995484D02*
X298872Y-995484D01*
X298872Y-995484D02*
X279824Y-985960D01*
X279824Y-985960D02*
X270301Y-976436D01*
X270301Y-976436D02*
X260777Y-957388D01*
X260777Y-957388D02*
X251253Y-919293D01*
X251253Y-919293D02*
X251253Y-871674D01*
X251253Y-871674D02*
X260777Y-833579D01*
X260777Y-833579D02*
X270301Y-814531D01*
X270301Y-814531D02*
X279824Y-805008D01*
X279824Y-805008D02*
X298872Y-795484D01*
X451253Y-976436D02*
X460777Y-985960D01*
X460777Y-985960D02*
X451253Y-995484D01*
X451253Y-995484D02*
X441729Y-985960D01*
X441729Y-985960D02*
X451253Y-976436D01*
X451253Y-976436D02*
X451253Y-995484D01*
X575063Y-881198D02*
X556015Y-871674D01*
X556015Y-871674D02*
X546491Y-862150D01*
X546491Y-862150D02*
X536967Y-843103D01*
X536967Y-843103D02*
X536967Y-833579D01*
X536967Y-833579D02*
X546491Y-814531D01*
X546491Y-814531D02*
X556015Y-805008D01*
X556015Y-805008D02*
X575063Y-795484D01*
X575063Y-795484D02*
X613158Y-795484D01*
X613158Y-795484D02*
X632205Y-805008D01*
X632205Y-805008D02*
X641729Y-814531D01*
X641729Y-814531D02*
X651253Y-833579D01*
X651253Y-833579D02*
X651253Y-843103D01*
X651253Y-843103D02*
X641729Y-862150D01*
X641729Y-862150D02*
X632205Y-871674D01*
X632205Y-871674D02*
X613158Y-881198D01*
X613158Y-881198D02*
X575063Y-881198D01*
X575063Y-881198D02*
X556015Y-890722D01*
X556015Y-890722D02*
X546491Y-900246D01*
X546491Y-900246D02*
X536967Y-919293D01*
X536967Y-919293D02*
X536967Y-957388D01*
X536967Y-957388D02*
X546491Y-976436D01*
X546491Y-976436D02*
X556015Y-985960D01*
X556015Y-985960D02*
X575063Y-995484D01*
X575063Y-995484D02*
X613158Y-995484D01*
X613158Y-995484D02*
X632205Y-985960D01*
X632205Y-985960D02*
X641729Y-976436D01*
X641729Y-976436D02*
X651253Y-957388D01*
X651253Y-957388D02*
X651253Y-919293D01*
X651253Y-919293D02*
X641729Y-900246D01*
X641729Y-900246D02*
X632205Y-890722D01*
X632205Y-890722D02*
X613158Y-881198D01*
X775062Y-795484D02*
X794110Y-795484D01*
X794110Y-795484D02*
X813158Y-805008D01*
X813158Y-805008D02*
X822682Y-814531D01*
X822682Y-814531D02*
X832205Y-833579D01*
X832205Y-833579D02*
X841729Y-871674D01*
X841729Y-871674D02*
X841729Y-919293D01*
X841729Y-919293D02*
X832205Y-957388D01*
X832205Y-957388D02*
X822682Y-976436D01*
X822682Y-976436D02*
X813158Y-985960D01*
X813158Y-985960D02*
X794110Y-995484D01*
X794110Y-995484D02*
X775062Y-995484D01*
X775062Y-995484D02*
X756015Y-985960D01*
X756015Y-985960D02*
X746491Y-976436D01*
X746491Y-976436D02*
X736967Y-957388D01*
X736967Y-957388D02*
X727443Y-919293D01*
X727443Y-919293D02*
X727443Y-871674D01*
X727443Y-871674D02*
X736967Y-833579D01*
X736967Y-833579D02*
X746491Y-814531D01*
X746491Y-814531D02*
X756015Y-805008D01*
X756015Y-805008D02*
X775062Y-795484D01*
X965539Y-795484D02*
X984586Y-795484D01*
X984586Y-795484D02*
X1003634Y-805008D01*
X1003634Y-805008D02*
X1013158Y-814531D01*
X1013158Y-814531D02*
X1022682Y-833579D01*
X1022682Y-833579D02*
X1032205Y-871674D01*
X1032205Y-871674D02*
X1032205Y-919293D01*
X1032205Y-919293D02*
X1022682Y-957388D01*
X1022682Y-957388D02*
X1013158Y-976436D01*
X1013158Y-976436D02*
X1003634Y-985960D01*
X1003634Y-985960D02*
X984586Y-995484D01*
X984586Y-995484D02*
X965539Y-995484D01*
X965539Y-995484D02*
X946491Y-985960D01*
X946491Y-985960D02*
X936967Y-976436D01*
X936967Y-976436D02*
X927443Y-957388D01*
X927443Y-957388D02*
X917920Y-919293D01*
X917920Y-919293D02*
X917920Y-871674D01*
X917920Y-871674D02*
X927443Y-833579D01*
X927443Y-833579D02*
X936967Y-814531D01*
X936967Y-814531D02*
X946491Y-805008D01*
X946491Y-805008D02*
X965539Y-795484D01*
X1117920Y-995484D02*
X1117920Y-862150D01*
X1117920Y-881198D02*
X1127444Y-871674D01*
X1127444Y-871674D02*
X1146491Y-862150D01*
X1146491Y-862150D02*
X1175063Y-862150D01*
X1175063Y-862150D02*
X1194110Y-871674D01*
X1194110Y-871674D02*
X1203634Y-890722D01*
X1203634Y-890722D02*
X1203634Y-995484D01*
X1203634Y-890722D02*
X1213158Y-871674D01*
X1213158Y-871674D02*
X1232205Y-862150D01*
X1232205Y-862150D02*
X1260777Y-862150D01*
X1260777Y-862150D02*
X1279825Y-871674D01*
X1279825Y-871674D02*
X1289348Y-890722D01*
X1289348Y-890722D02*
X1289348Y-995484D01*
X1384586Y-995484D02*
X1384586Y-862150D01*
X1384586Y-881198D02*
X1394110Y-871674D01*
X1394110Y-871674D02*
X1413158Y-862150D01*
X1413158Y-862150D02*
X1441729Y-862150D01*
X1441729Y-862150D02*
X1460777Y-871674D01*
X1460777Y-871674D02*
X1470301Y-890722D01*
X1470301Y-890722D02*
X1470301Y-995484D01*
X1470301Y-890722D02*
X1479824Y-871674D01*
X1479824Y-871674D02*
X1498872Y-862150D01*
X1498872Y-862150D02*
X1527443Y-862150D01*
X1527443Y-862150D02*
X1546491Y-871674D01*
X1546491Y-871674D02*
X1556015Y-890722D01*
X1556015Y-890722D02*
X1556015Y-995484D01*
X1946491Y-785960D02*
X1775063Y-1043103D01*
X2203634Y-795484D02*
X2222682Y-795484D01*
X2222682Y-795484D02*
X2241729Y-805008D01*
X2241729Y-805008D02*
X2251253Y-814531D01*
X2251253Y-814531D02*
X2260777Y-833579D01*
X2260777Y-833579D02*
X2270301Y-871674D01*
X2270301Y-871674D02*
X2270301Y-919293D01*
X2270301Y-919293D02*
X2260777Y-957388D01*
X2260777Y-957388D02*
X2251253Y-976436D01*
X2251253Y-976436D02*
X2241729Y-985960D01*
X2241729Y-985960D02*
X2222682Y-995484D01*
X2222682Y-995484D02*
X2203634Y-995484D01*
X2203634Y-995484D02*
X2184587Y-985960D01*
X2184587Y-985960D02*
X2175063Y-976436D01*
X2175063Y-976436D02*
X2165539Y-957388D01*
X2165539Y-957388D02*
X2156015Y-919293D01*
X2156015Y-919293D02*
X2156015Y-871674D01*
X2156015Y-871674D02*
X2165539Y-833579D01*
X2165539Y-833579D02*
X2175063Y-814531D01*
X2175063Y-814531D02*
X2184587Y-805008D01*
X2184587Y-805008D02*
X2203634Y-795484D01*
X2356015Y-976436D02*
X2365539Y-985960D01*
X2365539Y-985960D02*
X2356015Y-995484D01*
X2356015Y-995484D02*
X2346491Y-985960D01*
X2346491Y-985960D02*
X2356015Y-976436D01*
X2356015Y-976436D02*
X2356015Y-995484D01*
X2489348Y-795484D02*
X2508396Y-795484D01*
X2508396Y-795484D02*
X2527444Y-805008D01*
X2527444Y-805008D02*
X2536968Y-814531D01*
X2536968Y-814531D02*
X2546491Y-833579D01*
X2546491Y-833579D02*
X2556015Y-871674D01*
X2556015Y-871674D02*
X2556015Y-919293D01*
X2556015Y-919293D02*
X2546491Y-957388D01*
X2546491Y-957388D02*
X2536968Y-976436D01*
X2536968Y-976436D02*
X2527444Y-985960D01*
X2527444Y-985960D02*
X2508396Y-995484D01*
X2508396Y-995484D02*
X2489348Y-995484D01*
X2489348Y-995484D02*
X2470301Y-985960D01*
X2470301Y-985960D02*
X2460777Y-976436D01*
X2460777Y-976436D02*
X2451253Y-957388D01*
X2451253Y-957388D02*
X2441729Y-919293D01*
X2441729Y-919293D02*
X2441729Y-871674D01*
X2441729Y-871674D02*
X2451253Y-833579D01*
X2451253Y-833579D02*
X2460777Y-814531D01*
X2460777Y-814531D02*
X2470301Y-805008D01*
X2470301Y-805008D02*
X2489348Y-795484D01*
X2622682Y-795484D02*
X2746491Y-795484D01*
X2746491Y-795484D02*
X2679825Y-871674D01*
X2679825Y-871674D02*
X2708396Y-871674D01*
X2708396Y-871674D02*
X2727444Y-881198D01*
X2727444Y-881198D02*
X2736968Y-890722D01*
X2736968Y-890722D02*
X2746491Y-909769D01*
X2746491Y-909769D02*
X2746491Y-957388D01*
X2746491Y-957388D02*
X2736968Y-976436D01*
X2736968Y-976436D02*
X2727444Y-985960D01*
X2727444Y-985960D02*
X2708396Y-995484D01*
X2708396Y-995484D02*
X2651253Y-995484D01*
X2651253Y-995484D02*
X2632206Y-985960D01*
X2632206Y-985960D02*
X2622682Y-976436D01*
X2936967Y-995484D02*
X2822682Y-995484D01*
X2879825Y-995484D02*
X2879825Y-795484D01*
X2879825Y-795484D02*
X2860777Y-824055D01*
X2860777Y-824055D02*
X2841729Y-843103D01*
X2841729Y-843103D02*
X2822682Y-852627D01*
X3117920Y-795484D02*
X3022682Y-795484D01*
X3022682Y-795484D02*
X3013158Y-890722D01*
X3013158Y-890722D02*
X3022682Y-881198D01*
X3022682Y-881198D02*
X3041729Y-871674D01*
X3041729Y-871674D02*
X3089348Y-871674D01*
X3089348Y-871674D02*
X3108396Y-881198D01*
X3108396Y-881198D02*
X3117920Y-890722D01*
X3117920Y-890722D02*
X3127444Y-909769D01*
X3127444Y-909769D02*
X3127444Y-957388D01*
X3127444Y-957388D02*
X3117920Y-976436D01*
X3117920Y-976436D02*
X3108396Y-985960D01*
X3108396Y-985960D02*
X3089348Y-995484D01*
X3089348Y-995484D02*
X3041729Y-995484D01*
X3041729Y-995484D02*
X3022682Y-985960D01*
X3022682Y-985960D02*
X3013158Y-976436D01*
X3203634Y-795484D02*
X3203634Y-833579D01*
X3279825Y-795484D02*
X3279825Y-833579D01*
X3575063Y-1071674D02*
X3565539Y-1062150D01*
X3565539Y-1062150D02*
X3546491Y-1033579D01*
X3546491Y-1033579D02*
X3536968Y-1014531D01*
X3536968Y-1014531D02*
X3527444Y-985960D01*
X3527444Y-985960D02*
X3517920Y-938341D01*
X3517920Y-938341D02*
X3517920Y-900246D01*
X3517920Y-900246D02*
X3527444Y-852627D01*
X3527444Y-852627D02*
X3536968Y-824055D01*
X3536968Y-824055D02*
X3546491Y-805008D01*
X3546491Y-805008D02*
X3565539Y-776436D01*
X3565539Y-776436D02*
X3575063Y-766912D01*
X3746491Y-795484D02*
X3651253Y-795484D01*
X3651253Y-795484D02*
X3641729Y-890722D01*
X3641729Y-890722D02*
X3651253Y-881198D01*
X3651253Y-881198D02*
X3670301Y-871674D01*
X3670301Y-871674D02*
X3717920Y-871674D01*
X3717920Y-871674D02*
X3736968Y-881198D01*
X3736968Y-881198D02*
X3746491Y-890722D01*
X3746491Y-890722D02*
X3756015Y-909769D01*
X3756015Y-909769D02*
X3756015Y-957388D01*
X3756015Y-957388D02*
X3746491Y-976436D01*
X3746491Y-976436D02*
X3736968Y-985960D01*
X3736968Y-985960D02*
X3717920Y-995484D01*
X3717920Y-995484D02*
X3670301Y-995484D01*
X3670301Y-995484D02*
X3651253Y-985960D01*
X3651253Y-985960D02*
X3641729Y-976436D01*
X3879825Y-795484D02*
X3898872Y-795484D01*
X3898872Y-795484D02*
X3917920Y-805008D01*
X3917920Y-805008D02*
X3927444Y-814531D01*
X3927444Y-814531D02*
X3936968Y-833579D01*
X3936968Y-833579D02*
X3946491Y-871674D01*
X3946491Y-871674D02*
X3946491Y-919293D01*
X3946491Y-919293D02*
X3936968Y-957388D01*
X3936968Y-957388D02*
X3927444Y-976436D01*
X3927444Y-976436D02*
X3917920Y-985960D01*
X3917920Y-985960D02*
X3898872Y-995484D01*
X3898872Y-995484D02*
X3879825Y-995484D01*
X3879825Y-995484D02*
X3860777Y-985960D01*
X3860777Y-985960D02*
X3851253Y-976436D01*
X3851253Y-976436D02*
X3841729Y-957388D01*
X3841729Y-957388D02*
X3832206Y-919293D01*
X3832206Y-919293D02*
X3832206Y-871674D01*
X3832206Y-871674D02*
X3841729Y-833579D01*
X3841729Y-833579D02*
X3851253Y-814531D01*
X3851253Y-814531D02*
X3860777Y-805008D01*
X3860777Y-805008D02*
X3879825Y-795484D01*
X4184587Y-995484D02*
X4184587Y-795484D01*
X4270301Y-995484D02*
X4270301Y-890722D01*
X4270301Y-890722D02*
X4260777Y-871674D01*
X4260777Y-871674D02*
X4241730Y-862150D01*
X4241730Y-862150D02*
X4213158Y-862150D01*
X4213158Y-862150D02*
X4194110Y-871674D01*
X4194110Y-871674D02*
X4184587Y-881198D01*
X4394111Y-995484D02*
X4375063Y-985960D01*
X4375063Y-985960D02*
X4365539Y-976436D01*
X4365539Y-976436D02*
X4356015Y-957388D01*
X4356015Y-957388D02*
X4356015Y-900246D01*
X4356015Y-900246D02*
X4365539Y-881198D01*
X4365539Y-881198D02*
X4375063Y-871674D01*
X4375063Y-871674D02*
X4394111Y-862150D01*
X4394111Y-862150D02*
X4422682Y-862150D01*
X4422682Y-862150D02*
X4441730Y-871674D01*
X4441730Y-871674D02*
X4451253Y-881198D01*
X4451253Y-881198D02*
X4460777Y-900246D01*
X4460777Y-900246D02*
X4460777Y-957388D01*
X4460777Y-957388D02*
X4451253Y-976436D01*
X4451253Y-976436D02*
X4441730Y-985960D01*
X4441730Y-985960D02*
X4422682Y-995484D01*
X4422682Y-995484D02*
X4394111Y-995484D01*
X4575063Y-995484D02*
X4556015Y-985960D01*
X4556015Y-985960D02*
X4546492Y-966912D01*
X4546492Y-966912D02*
X4546492Y-795484D01*
X4727444Y-985960D02*
X4708396Y-995484D01*
X4708396Y-995484D02*
X4670301Y-995484D01*
X4670301Y-995484D02*
X4651253Y-985960D01*
X4651253Y-985960D02*
X4641730Y-966912D01*
X4641730Y-966912D02*
X4641730Y-890722D01*
X4641730Y-890722D02*
X4651253Y-871674D01*
X4651253Y-871674D02*
X4670301Y-862150D01*
X4670301Y-862150D02*
X4708396Y-862150D01*
X4708396Y-862150D02*
X4727444Y-871674D01*
X4727444Y-871674D02*
X4736968Y-890722D01*
X4736968Y-890722D02*
X4736968Y-909769D01*
X4736968Y-909769D02*
X4641730Y-928817D01*
X4813158Y-985960D02*
X4832206Y-995484D01*
X4832206Y-995484D02*
X4870301Y-995484D01*
X4870301Y-995484D02*
X4889349Y-985960D01*
X4889349Y-985960D02*
X4898873Y-966912D01*
X4898873Y-966912D02*
X4898873Y-957388D01*
X4898873Y-957388D02*
X4889349Y-938341D01*
X4889349Y-938341D02*
X4870301Y-928817D01*
X4870301Y-928817D02*
X4841730Y-928817D01*
X4841730Y-928817D02*
X4822682Y-919293D01*
X4822682Y-919293D02*
X4813158Y-900246D01*
X4813158Y-900246D02*
X4813158Y-890722D01*
X4813158Y-890722D02*
X4822682Y-871674D01*
X4822682Y-871674D02*
X4841730Y-862150D01*
X4841730Y-862150D02*
X4870301Y-862150D01*
X4870301Y-862150D02*
X4889349Y-871674D01*
X4965539Y-1071674D02*
X4975063Y-1062150D01*
X4975063Y-1062150D02*
X4994111Y-1033579D01*
X4994111Y-1033579D02*
X5003634Y-1014531D01*
X5003634Y-1014531D02*
X5013158Y-985960D01*
X5013158Y-985960D02*
X5022682Y-938341D01*
X5022682Y-938341D02*
X5022682Y-900246D01*
X5022682Y-900246D02*
X5013158Y-852627D01*
X5013158Y-852627D02*
X5003634Y-824055D01*
X5003634Y-824055D02*
X4994111Y-805008D01*
X4994111Y-805008D02*
X4975063Y-776436D01*
X4975063Y-776436D02*
X4965539Y-766912D01*
D11*
X-45000Y-1123000D02*
X-45000Y-1213000D01*
X-90000Y-1168000D02*
X0Y-1168000D01*
D10*
X298872Y-1059484D02*
X317920Y-1059484D01*
X317920Y-1059484D02*
X336967Y-1069008D01*
X336967Y-1069008D02*
X346491Y-1078531D01*
X346491Y-1078531D02*
X356015Y-1097579D01*
X356015Y-1097579D02*
X365539Y-1135674D01*
X365539Y-1135674D02*
X365539Y-1183293D01*
X365539Y-1183293D02*
X356015Y-1221389D01*
X356015Y-1221389D02*
X346491Y-1240436D01*
X346491Y-1240436D02*
X336967Y-1249960D01*
X336967Y-1249960D02*
X317920Y-1259484D01*
X317920Y-1259484D02*
X298872Y-1259484D01*
X298872Y-1259484D02*
X279824Y-1249960D01*
X279824Y-1249960D02*
X270301Y-1240436D01*
X270301Y-1240436D02*
X260777Y-1221389D01*
X260777Y-1221389D02*
X251253Y-1183293D01*
X251253Y-1183293D02*
X251253Y-1135674D01*
X251253Y-1135674D02*
X260777Y-1097579D01*
X260777Y-1097579D02*
X270301Y-1078531D01*
X270301Y-1078531D02*
X279824Y-1069008D01*
X279824Y-1069008D02*
X298872Y-1059484D01*
X451253Y-1240436D02*
X460777Y-1249960D01*
X460777Y-1249960D02*
X451253Y-1259484D01*
X451253Y-1259484D02*
X441729Y-1249960D01*
X441729Y-1249960D02*
X451253Y-1240436D01*
X451253Y-1240436D02*
X451253Y-1259484D01*
X556015Y-1259484D02*
X594110Y-1259484D01*
X594110Y-1259484D02*
X613158Y-1249960D01*
X613158Y-1249960D02*
X622682Y-1240436D01*
X622682Y-1240436D02*
X641729Y-1211865D01*
X641729Y-1211865D02*
X651253Y-1173770D01*
X651253Y-1173770D02*
X651253Y-1097579D01*
X651253Y-1097579D02*
X641729Y-1078531D01*
X641729Y-1078531D02*
X632205Y-1069008D01*
X632205Y-1069008D02*
X613158Y-1059484D01*
X613158Y-1059484D02*
X575063Y-1059484D01*
X575063Y-1059484D02*
X556015Y-1069008D01*
X556015Y-1069008D02*
X546491Y-1078531D01*
X546491Y-1078531D02*
X536967Y-1097579D01*
X536967Y-1097579D02*
X536967Y-1145198D01*
X536967Y-1145198D02*
X546491Y-1164246D01*
X546491Y-1164246D02*
X556015Y-1173770D01*
X556015Y-1173770D02*
X575063Y-1183293D01*
X575063Y-1183293D02*
X613158Y-1183293D01*
X613158Y-1183293D02*
X632205Y-1173770D01*
X632205Y-1173770D02*
X641729Y-1164246D01*
X641729Y-1164246D02*
X651253Y-1145198D01*
X775062Y-1059484D02*
X794110Y-1059484D01*
X794110Y-1059484D02*
X813158Y-1069008D01*
X813158Y-1069008D02*
X822682Y-1078531D01*
X822682Y-1078531D02*
X832205Y-1097579D01*
X832205Y-1097579D02*
X841729Y-1135674D01*
X841729Y-1135674D02*
X841729Y-1183293D01*
X841729Y-1183293D02*
X832205Y-1221389D01*
X832205Y-1221389D02*
X822682Y-1240436D01*
X822682Y-1240436D02*
X813158Y-1249960D01*
X813158Y-1249960D02*
X794110Y-1259484D01*
X794110Y-1259484D02*
X775062Y-1259484D01*
X775062Y-1259484D02*
X756015Y-1249960D01*
X756015Y-1249960D02*
X746491Y-1240436D01*
X746491Y-1240436D02*
X736967Y-1221389D01*
X736967Y-1221389D02*
X727443Y-1183293D01*
X727443Y-1183293D02*
X727443Y-1135674D01*
X727443Y-1135674D02*
X736967Y-1097579D01*
X736967Y-1097579D02*
X746491Y-1078531D01*
X746491Y-1078531D02*
X756015Y-1069008D01*
X756015Y-1069008D02*
X775062Y-1059484D01*
X965539Y-1059484D02*
X984586Y-1059484D01*
X984586Y-1059484D02*
X1003634Y-1069008D01*
X1003634Y-1069008D02*
X1013158Y-1078531D01*
X1013158Y-1078531D02*
X1022682Y-1097579D01*
X1022682Y-1097579D02*
X1032205Y-1135674D01*
X1032205Y-1135674D02*
X1032205Y-1183293D01*
X1032205Y-1183293D02*
X1022682Y-1221389D01*
X1022682Y-1221389D02*
X1013158Y-1240436D01*
X1013158Y-1240436D02*
X1003634Y-1249960D01*
X1003634Y-1249960D02*
X984586Y-1259484D01*
X984586Y-1259484D02*
X965539Y-1259484D01*
X965539Y-1259484D02*
X946491Y-1249960D01*
X946491Y-1249960D02*
X936967Y-1240436D01*
X936967Y-1240436D02*
X927443Y-1221389D01*
X927443Y-1221389D02*
X917920Y-1183293D01*
X917920Y-1183293D02*
X917920Y-1135674D01*
X917920Y-1135674D02*
X927443Y-1097579D01*
X927443Y-1097579D02*
X936967Y-1078531D01*
X936967Y-1078531D02*
X946491Y-1069008D01*
X946491Y-1069008D02*
X965539Y-1059484D01*
X1117920Y-1259484D02*
X1117920Y-1126150D01*
X1117920Y-1145198D02*
X1127444Y-1135674D01*
X1127444Y-1135674D02*
X1146491Y-1126150D01*
X1146491Y-1126150D02*
X1175063Y-1126150D01*
X1175063Y-1126150D02*
X1194110Y-1135674D01*
X1194110Y-1135674D02*
X1203634Y-1154722D01*
X1203634Y-1154722D02*
X1203634Y-1259484D01*
X1203634Y-1154722D02*
X1213158Y-1135674D01*
X1213158Y-1135674D02*
X1232205Y-1126150D01*
X1232205Y-1126150D02*
X1260777Y-1126150D01*
X1260777Y-1126150D02*
X1279825Y-1135674D01*
X1279825Y-1135674D02*
X1289348Y-1154722D01*
X1289348Y-1154722D02*
X1289348Y-1259484D01*
X1384586Y-1259484D02*
X1384586Y-1126150D01*
X1384586Y-1145198D02*
X1394110Y-1135674D01*
X1394110Y-1135674D02*
X1413158Y-1126150D01*
X1413158Y-1126150D02*
X1441729Y-1126150D01*
X1441729Y-1126150D02*
X1460777Y-1135674D01*
X1460777Y-1135674D02*
X1470301Y-1154722D01*
X1470301Y-1154722D02*
X1470301Y-1259484D01*
X1470301Y-1154722D02*
X1479824Y-1135674D01*
X1479824Y-1135674D02*
X1498872Y-1126150D01*
X1498872Y-1126150D02*
X1527443Y-1126150D01*
X1527443Y-1126150D02*
X1546491Y-1135674D01*
X1546491Y-1135674D02*
X1556015Y-1154722D01*
X1556015Y-1154722D02*
X1556015Y-1259484D01*
X1946491Y-1049960D02*
X1775063Y-1307103D01*
X2203634Y-1059484D02*
X2222682Y-1059484D01*
X2222682Y-1059484D02*
X2241729Y-1069008D01*
X2241729Y-1069008D02*
X2251253Y-1078531D01*
X2251253Y-1078531D02*
X2260777Y-1097579D01*
X2260777Y-1097579D02*
X2270301Y-1135674D01*
X2270301Y-1135674D02*
X2270301Y-1183293D01*
X2270301Y-1183293D02*
X2260777Y-1221389D01*
X2260777Y-1221389D02*
X2251253Y-1240436D01*
X2251253Y-1240436D02*
X2241729Y-1249960D01*
X2241729Y-1249960D02*
X2222682Y-1259484D01*
X2222682Y-1259484D02*
X2203634Y-1259484D01*
X2203634Y-1259484D02*
X2184587Y-1249960D01*
X2184587Y-1249960D02*
X2175063Y-1240436D01*
X2175063Y-1240436D02*
X2165539Y-1221389D01*
X2165539Y-1221389D02*
X2156015Y-1183293D01*
X2156015Y-1183293D02*
X2156015Y-1135674D01*
X2156015Y-1135674D02*
X2165539Y-1097579D01*
X2165539Y-1097579D02*
X2175063Y-1078531D01*
X2175063Y-1078531D02*
X2184587Y-1069008D01*
X2184587Y-1069008D02*
X2203634Y-1059484D01*
X2356015Y-1240436D02*
X2365539Y-1249960D01*
X2365539Y-1249960D02*
X2356015Y-1259484D01*
X2356015Y-1259484D02*
X2346491Y-1249960D01*
X2346491Y-1249960D02*
X2356015Y-1240436D01*
X2356015Y-1240436D02*
X2356015Y-1259484D01*
X2489348Y-1059484D02*
X2508396Y-1059484D01*
X2508396Y-1059484D02*
X2527444Y-1069008D01*
X2527444Y-1069008D02*
X2536968Y-1078531D01*
X2536968Y-1078531D02*
X2546491Y-1097579D01*
X2546491Y-1097579D02*
X2556015Y-1135674D01*
X2556015Y-1135674D02*
X2556015Y-1183293D01*
X2556015Y-1183293D02*
X2546491Y-1221389D01*
X2546491Y-1221389D02*
X2536968Y-1240436D01*
X2536968Y-1240436D02*
X2527444Y-1249960D01*
X2527444Y-1249960D02*
X2508396Y-1259484D01*
X2508396Y-1259484D02*
X2489348Y-1259484D01*
X2489348Y-1259484D02*
X2470301Y-1249960D01*
X2470301Y-1249960D02*
X2460777Y-1240436D01*
X2460777Y-1240436D02*
X2451253Y-1221389D01*
X2451253Y-1221389D02*
X2441729Y-1183293D01*
X2441729Y-1183293D02*
X2441729Y-1135674D01*
X2441729Y-1135674D02*
X2451253Y-1097579D01*
X2451253Y-1097579D02*
X2460777Y-1078531D01*
X2460777Y-1078531D02*
X2470301Y-1069008D01*
X2470301Y-1069008D02*
X2489348Y-1059484D01*
X2622682Y-1059484D02*
X2746491Y-1059484D01*
X2746491Y-1059484D02*
X2679825Y-1135674D01*
X2679825Y-1135674D02*
X2708396Y-1135674D01*
X2708396Y-1135674D02*
X2727444Y-1145198D01*
X2727444Y-1145198D02*
X2736968Y-1154722D01*
X2736968Y-1154722D02*
X2746491Y-1173770D01*
X2746491Y-1173770D02*
X2746491Y-1221389D01*
X2746491Y-1221389D02*
X2736968Y-1240436D01*
X2736968Y-1240436D02*
X2727444Y-1249960D01*
X2727444Y-1249960D02*
X2708396Y-1259484D01*
X2708396Y-1259484D02*
X2651253Y-1259484D01*
X2651253Y-1259484D02*
X2632206Y-1249960D01*
X2632206Y-1249960D02*
X2622682Y-1240436D01*
X2927444Y-1059484D02*
X2832206Y-1059484D01*
X2832206Y-1059484D02*
X2822682Y-1154722D01*
X2822682Y-1154722D02*
X2832206Y-1145198D01*
X2832206Y-1145198D02*
X2851253Y-1135674D01*
X2851253Y-1135674D02*
X2898872Y-1135674D01*
X2898872Y-1135674D02*
X2917920Y-1145198D01*
X2917920Y-1145198D02*
X2927444Y-1154722D01*
X2927444Y-1154722D02*
X2936967Y-1173770D01*
X2936967Y-1173770D02*
X2936967Y-1221389D01*
X2936967Y-1221389D02*
X2927444Y-1240436D01*
X2927444Y-1240436D02*
X2917920Y-1249960D01*
X2917920Y-1249960D02*
X2898872Y-1259484D01*
X2898872Y-1259484D02*
X2851253Y-1259484D01*
X2851253Y-1259484D02*
X2832206Y-1249960D01*
X2832206Y-1249960D02*
X2822682Y-1240436D01*
X3108396Y-1126150D02*
X3108396Y-1259484D01*
X3060777Y-1049960D02*
X3013158Y-1192817D01*
X3013158Y-1192817D02*
X3136967Y-1192817D01*
X3203634Y-1059484D02*
X3203634Y-1097579D01*
X3279825Y-1059484D02*
X3279825Y-1097579D01*
X3575063Y-1335674D02*
X3565539Y-1326150D01*
X3565539Y-1326150D02*
X3546491Y-1297579D01*
X3546491Y-1297579D02*
X3536968Y-1278531D01*
X3536968Y-1278531D02*
X3527444Y-1249960D01*
X3527444Y-1249960D02*
X3517920Y-1202341D01*
X3517920Y-1202341D02*
X3517920Y-1164246D01*
X3517920Y-1164246D02*
X3527444Y-1116627D01*
X3527444Y-1116627D02*
X3536968Y-1088055D01*
X3536968Y-1088055D02*
X3546491Y-1069008D01*
X3546491Y-1069008D02*
X3565539Y-1040436D01*
X3565539Y-1040436D02*
X3575063Y-1030912D01*
X3756015Y-1259484D02*
X3641729Y-1259484D01*
X3698872Y-1259484D02*
X3698872Y-1059484D01*
X3698872Y-1059484D02*
X3679825Y-1088055D01*
X3679825Y-1088055D02*
X3660777Y-1107103D01*
X3660777Y-1107103D02*
X3641729Y-1116627D01*
X3927444Y-1059484D02*
X3889348Y-1059484D01*
X3889348Y-1059484D02*
X3870301Y-1069008D01*
X3870301Y-1069008D02*
X3860777Y-1078531D01*
X3860777Y-1078531D02*
X3841729Y-1107103D01*
X3841729Y-1107103D02*
X3832206Y-1145198D01*
X3832206Y-1145198D02*
X3832206Y-1221389D01*
X3832206Y-1221389D02*
X3841729Y-1240436D01*
X3841729Y-1240436D02*
X3851253Y-1249960D01*
X3851253Y-1249960D02*
X3870301Y-1259484D01*
X3870301Y-1259484D02*
X3908396Y-1259484D01*
X3908396Y-1259484D02*
X3927444Y-1249960D01*
X3927444Y-1249960D02*
X3936968Y-1240436D01*
X3936968Y-1240436D02*
X3946491Y-1221389D01*
X3946491Y-1221389D02*
X3946491Y-1173770D01*
X3946491Y-1173770D02*
X3936968Y-1154722D01*
X3936968Y-1154722D02*
X3927444Y-1145198D01*
X3927444Y-1145198D02*
X3908396Y-1135674D01*
X3908396Y-1135674D02*
X3870301Y-1135674D01*
X3870301Y-1135674D02*
X3851253Y-1145198D01*
X3851253Y-1145198D02*
X3841729Y-1154722D01*
X3841729Y-1154722D02*
X3832206Y-1173770D01*
X4184587Y-1259484D02*
X4184587Y-1059484D01*
X4270301Y-1259484D02*
X4270301Y-1154722D01*
X4270301Y-1154722D02*
X4260777Y-1135674D01*
X4260777Y-1135674D02*
X4241730Y-1126150D01*
X4241730Y-1126150D02*
X4213158Y-1126150D01*
X4213158Y-1126150D02*
X4194110Y-1135674D01*
X4194110Y-1135674D02*
X4184587Y-1145198D01*
X4394111Y-1259484D02*
X4375063Y-1249960D01*
X4375063Y-1249960D02*
X4365539Y-1240436D01*
X4365539Y-1240436D02*
X4356015Y-1221389D01*
X4356015Y-1221389D02*
X4356015Y-1164246D01*
X4356015Y-1164246D02*
X4365539Y-1145198D01*
X4365539Y-1145198D02*
X4375063Y-1135674D01*
X4375063Y-1135674D02*
X4394111Y-1126150D01*
X4394111Y-1126150D02*
X4422682Y-1126150D01*
X4422682Y-1126150D02*
X4441730Y-1135674D01*
X4441730Y-1135674D02*
X4451253Y-1145198D01*
X4451253Y-1145198D02*
X4460777Y-1164246D01*
X4460777Y-1164246D02*
X4460777Y-1221389D01*
X4460777Y-1221389D02*
X4451253Y-1240436D01*
X4451253Y-1240436D02*
X4441730Y-1249960D01*
X4441730Y-1249960D02*
X4422682Y-1259484D01*
X4422682Y-1259484D02*
X4394111Y-1259484D01*
X4575063Y-1259484D02*
X4556015Y-1249960D01*
X4556015Y-1249960D02*
X4546492Y-1230912D01*
X4546492Y-1230912D02*
X4546492Y-1059484D01*
X4727444Y-1249960D02*
X4708396Y-1259484D01*
X4708396Y-1259484D02*
X4670301Y-1259484D01*
X4670301Y-1259484D02*
X4651253Y-1249960D01*
X4651253Y-1249960D02*
X4641730Y-1230912D01*
X4641730Y-1230912D02*
X4641730Y-1154722D01*
X4641730Y-1154722D02*
X4651253Y-1135674D01*
X4651253Y-1135674D02*
X4670301Y-1126150D01*
X4670301Y-1126150D02*
X4708396Y-1126150D01*
X4708396Y-1126150D02*
X4727444Y-1135674D01*
X4727444Y-1135674D02*
X4736968Y-1154722D01*
X4736968Y-1154722D02*
X4736968Y-1173770D01*
X4736968Y-1173770D02*
X4641730Y-1192817D01*
X4813158Y-1249960D02*
X4832206Y-1259484D01*
X4832206Y-1259484D02*
X4870301Y-1259484D01*
X4870301Y-1259484D02*
X4889349Y-1249960D01*
X4889349Y-1249960D02*
X4898873Y-1230912D01*
X4898873Y-1230912D02*
X4898873Y-1221389D01*
X4898873Y-1221389D02*
X4889349Y-1202341D01*
X4889349Y-1202341D02*
X4870301Y-1192817D01*
X4870301Y-1192817D02*
X4841730Y-1192817D01*
X4841730Y-1192817D02*
X4822682Y-1183293D01*
X4822682Y-1183293D02*
X4813158Y-1164246D01*
X4813158Y-1164246D02*
X4813158Y-1154722D01*
X4813158Y-1154722D02*
X4822682Y-1135674D01*
X4822682Y-1135674D02*
X4841730Y-1126150D01*
X4841730Y-1126150D02*
X4870301Y-1126150D01*
X4870301Y-1126150D02*
X4889349Y-1135674D01*
X4965539Y-1335674D02*
X4975063Y-1326150D01*
X4975063Y-1326150D02*
X4994111Y-1297579D01*
X4994111Y-1297579D02*
X5003634Y-1278531D01*
X5003634Y-1278531D02*
X5013158Y-1249960D01*
X5013158Y-1249960D02*
X5022682Y-1202341D01*
X5022682Y-1202341D02*
X5022682Y-1164246D01*
X5022682Y-1164246D02*
X5013158Y-1116627D01*
X5013158Y-1116627D02*
X5003634Y-1088055D01*
X5003634Y-1088055D02*
X4994111Y-1069008D01*
X4994111Y-1069008D02*
X4975063Y-1040436D01*
X4975063Y-1040436D02*
X4965539Y-1030912D01*
D11*
X-14644Y-1467356D02*
X-14644Y-1396644D01*
X-85356Y-1396644D01*
X-85356Y-1467356D01*
X-14644Y-1467356D01*
D10*
X365539Y-1523484D02*
X251253Y-1523484D01*
X308396Y-1523484D02*
X308396Y-1323484D01*
X308396Y-1323484D02*
X289348Y-1352055D01*
X289348Y-1352055D02*
X270301Y-1371103D01*
X270301Y-1371103D02*
X251253Y-1380627D01*
X451253Y-1504436D02*
X460777Y-1513960D01*
X460777Y-1513960D02*
X451253Y-1523484D01*
X451253Y-1523484D02*
X441729Y-1513960D01*
X441729Y-1513960D02*
X451253Y-1504436D01*
X451253Y-1504436D02*
X451253Y-1523484D01*
X584586Y-1323484D02*
X603634Y-1323484D01*
X603634Y-1323484D02*
X622682Y-1333008D01*
X622682Y-1333008D02*
X632205Y-1342531D01*
X632205Y-1342531D02*
X641729Y-1361579D01*
X641729Y-1361579D02*
X651253Y-1399674D01*
X651253Y-1399674D02*
X651253Y-1447293D01*
X651253Y-1447293D02*
X641729Y-1485388D01*
X641729Y-1485388D02*
X632205Y-1504436D01*
X632205Y-1504436D02*
X622682Y-1513960D01*
X622682Y-1513960D02*
X603634Y-1523484D01*
X603634Y-1523484D02*
X584586Y-1523484D01*
X584586Y-1523484D02*
X565539Y-1513960D01*
X565539Y-1513960D02*
X556015Y-1504436D01*
X556015Y-1504436D02*
X546491Y-1485388D01*
X546491Y-1485388D02*
X536967Y-1447293D01*
X536967Y-1447293D02*
X536967Y-1399674D01*
X536967Y-1399674D02*
X546491Y-1361579D01*
X546491Y-1361579D02*
X556015Y-1342531D01*
X556015Y-1342531D02*
X565539Y-1333008D01*
X565539Y-1333008D02*
X584586Y-1323484D01*
X775062Y-1323484D02*
X794110Y-1323484D01*
X794110Y-1323484D02*
X813158Y-1333008D01*
X813158Y-1333008D02*
X822682Y-1342531D01*
X822682Y-1342531D02*
X832205Y-1361579D01*
X832205Y-1361579D02*
X841729Y-1399674D01*
X841729Y-1399674D02*
X841729Y-1447293D01*
X841729Y-1447293D02*
X832205Y-1485388D01*
X832205Y-1485388D02*
X822682Y-1504436D01*
X822682Y-1504436D02*
X813158Y-1513960D01*
X813158Y-1513960D02*
X794110Y-1523484D01*
X794110Y-1523484D02*
X775062Y-1523484D01*
X775062Y-1523484D02*
X756015Y-1513960D01*
X756015Y-1513960D02*
X746491Y-1504436D01*
X746491Y-1504436D02*
X736967Y-1485388D01*
X736967Y-1485388D02*
X727443Y-1447293D01*
X727443Y-1447293D02*
X727443Y-1399674D01*
X727443Y-1399674D02*
X736967Y-1361579D01*
X736967Y-1361579D02*
X746491Y-1342531D01*
X746491Y-1342531D02*
X756015Y-1333008D01*
X756015Y-1333008D02*
X775062Y-1323484D01*
X965539Y-1323484D02*
X984586Y-1323484D01*
X984586Y-1323484D02*
X1003634Y-1333008D01*
X1003634Y-1333008D02*
X1013158Y-1342531D01*
X1013158Y-1342531D02*
X1022682Y-1361579D01*
X1022682Y-1361579D02*
X1032205Y-1399674D01*
X1032205Y-1399674D02*
X1032205Y-1447293D01*
X1032205Y-1447293D02*
X1022682Y-1485388D01*
X1022682Y-1485388D02*
X1013158Y-1504436D01*
X1013158Y-1504436D02*
X1003634Y-1513960D01*
X1003634Y-1513960D02*
X984586Y-1523484D01*
X984586Y-1523484D02*
X965539Y-1523484D01*
X965539Y-1523484D02*
X946491Y-1513960D01*
X946491Y-1513960D02*
X936967Y-1504436D01*
X936967Y-1504436D02*
X927443Y-1485388D01*
X927443Y-1485388D02*
X917920Y-1447293D01*
X917920Y-1447293D02*
X917920Y-1399674D01*
X917920Y-1399674D02*
X927443Y-1361579D01*
X927443Y-1361579D02*
X936967Y-1342531D01*
X936967Y-1342531D02*
X946491Y-1333008D01*
X946491Y-1333008D02*
X965539Y-1323484D01*
X1117920Y-1523484D02*
X1117920Y-1390150D01*
X1117920Y-1409198D02*
X1127444Y-1399674D01*
X1127444Y-1399674D02*
X1146491Y-1390150D01*
X1146491Y-1390150D02*
X1175063Y-1390150D01*
X1175063Y-1390150D02*
X1194110Y-1399674D01*
X1194110Y-1399674D02*
X1203634Y-1418722D01*
X1203634Y-1418722D02*
X1203634Y-1523484D01*
X1203634Y-1418722D02*
X1213158Y-1399674D01*
X1213158Y-1399674D02*
X1232205Y-1390150D01*
X1232205Y-1390150D02*
X1260777Y-1390150D01*
X1260777Y-1390150D02*
X1279825Y-1399674D01*
X1279825Y-1399674D02*
X1289348Y-1418722D01*
X1289348Y-1418722D02*
X1289348Y-1523484D01*
X1384586Y-1523484D02*
X1384586Y-1390150D01*
X1384586Y-1409198D02*
X1394110Y-1399674D01*
X1394110Y-1399674D02*
X1413158Y-1390150D01*
X1413158Y-1390150D02*
X1441729Y-1390150D01*
X1441729Y-1390150D02*
X1460777Y-1399674D01*
X1460777Y-1399674D02*
X1470301Y-1418722D01*
X1470301Y-1418722D02*
X1470301Y-1523484D01*
X1470301Y-1418722D02*
X1479824Y-1399674D01*
X1479824Y-1399674D02*
X1498872Y-1390150D01*
X1498872Y-1390150D02*
X1527443Y-1390150D01*
X1527443Y-1390150D02*
X1546491Y-1399674D01*
X1546491Y-1399674D02*
X1556015Y-1418722D01*
X1556015Y-1418722D02*
X1556015Y-1523484D01*
X1946491Y-1313960D02*
X1775063Y-1571103D01*
X2203634Y-1323484D02*
X2222682Y-1323484D01*
X2222682Y-1323484D02*
X2241729Y-1333008D01*
X2241729Y-1333008D02*
X2251253Y-1342531D01*
X2251253Y-1342531D02*
X2260777Y-1361579D01*
X2260777Y-1361579D02*
X2270301Y-1399674D01*
X2270301Y-1399674D02*
X2270301Y-1447293D01*
X2270301Y-1447293D02*
X2260777Y-1485388D01*
X2260777Y-1485388D02*
X2251253Y-1504436D01*
X2251253Y-1504436D02*
X2241729Y-1513960D01*
X2241729Y-1513960D02*
X2222682Y-1523484D01*
X2222682Y-1523484D02*
X2203634Y-1523484D01*
X2203634Y-1523484D02*
X2184587Y-1513960D01*
X2184587Y-1513960D02*
X2175063Y-1504436D01*
X2175063Y-1504436D02*
X2165539Y-1485388D01*
X2165539Y-1485388D02*
X2156015Y-1447293D01*
X2156015Y-1447293D02*
X2156015Y-1399674D01*
X2156015Y-1399674D02*
X2165539Y-1361579D01*
X2165539Y-1361579D02*
X2175063Y-1342531D01*
X2175063Y-1342531D02*
X2184587Y-1333008D01*
X2184587Y-1333008D02*
X2203634Y-1323484D01*
X2356015Y-1504436D02*
X2365539Y-1513960D01*
X2365539Y-1513960D02*
X2356015Y-1523484D01*
X2356015Y-1523484D02*
X2346491Y-1513960D01*
X2346491Y-1513960D02*
X2356015Y-1504436D01*
X2356015Y-1504436D02*
X2356015Y-1523484D01*
X2489348Y-1323484D02*
X2508396Y-1323484D01*
X2508396Y-1323484D02*
X2527444Y-1333008D01*
X2527444Y-1333008D02*
X2536968Y-1342531D01*
X2536968Y-1342531D02*
X2546491Y-1361579D01*
X2546491Y-1361579D02*
X2556015Y-1399674D01*
X2556015Y-1399674D02*
X2556015Y-1447293D01*
X2556015Y-1447293D02*
X2546491Y-1485388D01*
X2546491Y-1485388D02*
X2536968Y-1504436D01*
X2536968Y-1504436D02*
X2527444Y-1513960D01*
X2527444Y-1513960D02*
X2508396Y-1523484D01*
X2508396Y-1523484D02*
X2489348Y-1523484D01*
X2489348Y-1523484D02*
X2470301Y-1513960D01*
X2470301Y-1513960D02*
X2460777Y-1504436D01*
X2460777Y-1504436D02*
X2451253Y-1485388D01*
X2451253Y-1485388D02*
X2441729Y-1447293D01*
X2441729Y-1447293D02*
X2441729Y-1399674D01*
X2441729Y-1399674D02*
X2451253Y-1361579D01*
X2451253Y-1361579D02*
X2460777Y-1342531D01*
X2460777Y-1342531D02*
X2470301Y-1333008D01*
X2470301Y-1333008D02*
X2489348Y-1323484D01*
X2622682Y-1323484D02*
X2746491Y-1323484D01*
X2746491Y-1323484D02*
X2679825Y-1399674D01*
X2679825Y-1399674D02*
X2708396Y-1399674D01*
X2708396Y-1399674D02*
X2727444Y-1409198D01*
X2727444Y-1409198D02*
X2736968Y-1418722D01*
X2736968Y-1418722D02*
X2746491Y-1437769D01*
X2746491Y-1437769D02*
X2746491Y-1485388D01*
X2746491Y-1485388D02*
X2736968Y-1504436D01*
X2736968Y-1504436D02*
X2727444Y-1513960D01*
X2727444Y-1513960D02*
X2708396Y-1523484D01*
X2708396Y-1523484D02*
X2651253Y-1523484D01*
X2651253Y-1523484D02*
X2632206Y-1513960D01*
X2632206Y-1513960D02*
X2622682Y-1504436D01*
X2841729Y-1523484D02*
X2879825Y-1523484D01*
X2879825Y-1523484D02*
X2898872Y-1513960D01*
X2898872Y-1513960D02*
X2908396Y-1504436D01*
X2908396Y-1504436D02*
X2927444Y-1475865D01*
X2927444Y-1475865D02*
X2936967Y-1437769D01*
X2936967Y-1437769D02*
X2936967Y-1361579D01*
X2936967Y-1361579D02*
X2927444Y-1342531D01*
X2927444Y-1342531D02*
X2917920Y-1333008D01*
X2917920Y-1333008D02*
X2898872Y-1323484D01*
X2898872Y-1323484D02*
X2860777Y-1323484D01*
X2860777Y-1323484D02*
X2841729Y-1333008D01*
X2841729Y-1333008D02*
X2832206Y-1342531D01*
X2832206Y-1342531D02*
X2822682Y-1361579D01*
X2822682Y-1361579D02*
X2822682Y-1409198D01*
X2822682Y-1409198D02*
X2832206Y-1428246D01*
X2832206Y-1428246D02*
X2841729Y-1437769D01*
X2841729Y-1437769D02*
X2860777Y-1447293D01*
X2860777Y-1447293D02*
X2898872Y-1447293D01*
X2898872Y-1447293D02*
X2917920Y-1437769D01*
X2917920Y-1437769D02*
X2927444Y-1428246D01*
X2927444Y-1428246D02*
X2936967Y-1409198D01*
X3108396Y-1390150D02*
X3108396Y-1523484D01*
X3060777Y-1313960D02*
X3013158Y-1456817D01*
X3013158Y-1456817D02*
X3136967Y-1456817D01*
X3203634Y-1323484D02*
X3203634Y-1361579D01*
X3279825Y-1323484D02*
X3279825Y-1361579D01*
X3575063Y-1599674D02*
X3565539Y-1590150D01*
X3565539Y-1590150D02*
X3546491Y-1561579D01*
X3546491Y-1561579D02*
X3536968Y-1542531D01*
X3536968Y-1542531D02*
X3527444Y-1513960D01*
X3527444Y-1513960D02*
X3517920Y-1466341D01*
X3517920Y-1466341D02*
X3517920Y-1428246D01*
X3517920Y-1428246D02*
X3527444Y-1380627D01*
X3527444Y-1380627D02*
X3536968Y-1352055D01*
X3536968Y-1352055D02*
X3546491Y-1333008D01*
X3546491Y-1333008D02*
X3565539Y-1304436D01*
X3565539Y-1304436D02*
X3575063Y-1294912D01*
X3641729Y-1342531D02*
X3651253Y-1333008D01*
X3651253Y-1333008D02*
X3670301Y-1323484D01*
X3670301Y-1323484D02*
X3717920Y-1323484D01*
X3717920Y-1323484D02*
X3736968Y-1333008D01*
X3736968Y-1333008D02*
X3746491Y-1342531D01*
X3746491Y-1342531D02*
X3756015Y-1361579D01*
X3756015Y-1361579D02*
X3756015Y-1380627D01*
X3756015Y-1380627D02*
X3746491Y-1409198D01*
X3746491Y-1409198D02*
X3632206Y-1523484D01*
X3632206Y-1523484D02*
X3756015Y-1523484D01*
X3870301Y-1409198D02*
X3851253Y-1399674D01*
X3851253Y-1399674D02*
X3841729Y-1390150D01*
X3841729Y-1390150D02*
X3832206Y-1371103D01*
X3832206Y-1371103D02*
X3832206Y-1361579D01*
X3832206Y-1361579D02*
X3841729Y-1342531D01*
X3841729Y-1342531D02*
X3851253Y-1333008D01*
X3851253Y-1333008D02*
X3870301Y-1323484D01*
X3870301Y-1323484D02*
X3908396Y-1323484D01*
X3908396Y-1323484D02*
X3927444Y-1333008D01*
X3927444Y-1333008D02*
X3936968Y-1342531D01*
X3936968Y-1342531D02*
X3946491Y-1361579D01*
X3946491Y-1361579D02*
X3946491Y-1371103D01*
X3946491Y-1371103D02*
X3936968Y-1390150D01*
X3936968Y-1390150D02*
X3927444Y-1399674D01*
X3927444Y-1399674D02*
X3908396Y-1409198D01*
X3908396Y-1409198D02*
X3870301Y-1409198D01*
X3870301Y-1409198D02*
X3851253Y-1418722D01*
X3851253Y-1418722D02*
X3841729Y-1428246D01*
X3841729Y-1428246D02*
X3832206Y-1447293D01*
X3832206Y-1447293D02*
X3832206Y-1485388D01*
X3832206Y-1485388D02*
X3841729Y-1504436D01*
X3841729Y-1504436D02*
X3851253Y-1513960D01*
X3851253Y-1513960D02*
X3870301Y-1523484D01*
X3870301Y-1523484D02*
X3908396Y-1523484D01*
X3908396Y-1523484D02*
X3927444Y-1513960D01*
X3927444Y-1513960D02*
X3936968Y-1504436D01*
X3936968Y-1504436D02*
X3946491Y-1485388D01*
X3946491Y-1485388D02*
X3946491Y-1447293D01*
X3946491Y-1447293D02*
X3936968Y-1428246D01*
X3936968Y-1428246D02*
X3927444Y-1418722D01*
X3927444Y-1418722D02*
X3908396Y-1409198D01*
X4184587Y-1523484D02*
X4184587Y-1323484D01*
X4270301Y-1523484D02*
X4270301Y-1418722D01*
X4270301Y-1418722D02*
X4260777Y-1399674D01*
X4260777Y-1399674D02*
X4241730Y-1390150D01*
X4241730Y-1390150D02*
X4213158Y-1390150D01*
X4213158Y-1390150D02*
X4194110Y-1399674D01*
X4194110Y-1399674D02*
X4184587Y-1409198D01*
X4394111Y-1523484D02*
X4375063Y-1513960D01*
X4375063Y-1513960D02*
X4365539Y-1504436D01*
X4365539Y-1504436D02*
X4356015Y-1485388D01*
X4356015Y-1485388D02*
X4356015Y-1428246D01*
X4356015Y-1428246D02*
X4365539Y-1409198D01*
X4365539Y-1409198D02*
X4375063Y-1399674D01*
X4375063Y-1399674D02*
X4394111Y-1390150D01*
X4394111Y-1390150D02*
X4422682Y-1390150D01*
X4422682Y-1390150D02*
X4441730Y-1399674D01*
X4441730Y-1399674D02*
X4451253Y-1409198D01*
X4451253Y-1409198D02*
X4460777Y-1428246D01*
X4460777Y-1428246D02*
X4460777Y-1485388D01*
X4460777Y-1485388D02*
X4451253Y-1504436D01*
X4451253Y-1504436D02*
X4441730Y-1513960D01*
X4441730Y-1513960D02*
X4422682Y-1523484D01*
X4422682Y-1523484D02*
X4394111Y-1523484D01*
X4575063Y-1523484D02*
X4556015Y-1513960D01*
X4556015Y-1513960D02*
X4546492Y-1494912D01*
X4546492Y-1494912D02*
X4546492Y-1323484D01*
X4727444Y-1513960D02*
X4708396Y-1523484D01*
X4708396Y-1523484D02*
X4670301Y-1523484D01*
X4670301Y-1523484D02*
X4651253Y-1513960D01*
X4651253Y-1513960D02*
X4641730Y-1494912D01*
X4641730Y-1494912D02*
X4641730Y-1418722D01*
X4641730Y-1418722D02*
X4651253Y-1399674D01*
X4651253Y-1399674D02*
X4670301Y-1390150D01*
X4670301Y-1390150D02*
X4708396Y-1390150D01*
X4708396Y-1390150D02*
X4727444Y-1399674D01*
X4727444Y-1399674D02*
X4736968Y-1418722D01*
X4736968Y-1418722D02*
X4736968Y-1437769D01*
X4736968Y-1437769D02*
X4641730Y-1456817D01*
X4813158Y-1513960D02*
X4832206Y-1523484D01*
X4832206Y-1523484D02*
X4870301Y-1523484D01*
X4870301Y-1523484D02*
X4889349Y-1513960D01*
X4889349Y-1513960D02*
X4898873Y-1494912D01*
X4898873Y-1494912D02*
X4898873Y-1485388D01*
X4898873Y-1485388D02*
X4889349Y-1466341D01*
X4889349Y-1466341D02*
X4870301Y-1456817D01*
X4870301Y-1456817D02*
X4841730Y-1456817D01*
X4841730Y-1456817D02*
X4822682Y-1447293D01*
X4822682Y-1447293D02*
X4813158Y-1428246D01*
X4813158Y-1428246D02*
X4813158Y-1418722D01*
X4813158Y-1418722D02*
X4822682Y-1399674D01*
X4822682Y-1399674D02*
X4841730Y-1390150D01*
X4841730Y-1390150D02*
X4870301Y-1390150D01*
X4870301Y-1390150D02*
X4889349Y-1399674D01*
X4965539Y-1599674D02*
X4975063Y-1590150D01*
X4975063Y-1590150D02*
X4994111Y-1561579D01*
X4994111Y-1561579D02*
X5003634Y-1542531D01*
X5003634Y-1542531D02*
X5013158Y-1513960D01*
X5013158Y-1513960D02*
X5022682Y-1466341D01*
X5022682Y-1466341D02*
X5022682Y-1428246D01*
X5022682Y-1428246D02*
X5013158Y-1380627D01*
X5013158Y-1380627D02*
X5003634Y-1352055D01*
X5003634Y-1352055D02*
X4994111Y-1333008D01*
X4994111Y-1333008D02*
X4975063Y-1304436D01*
X4975063Y-1304436D02*
X4965539Y-1294912D01*
D12*
X-75000Y-1771000D02*
X0Y-1696000D01*
X-75000Y-1621000D01*
X-150000Y-1696000D01*
X-75000Y-1771000D01*
D10*
X365539Y-1787484D02*
X251253Y-1787484D01*
X308396Y-1787484D02*
X308396Y-1587484D01*
X308396Y-1587484D02*
X289348Y-1616055D01*
X289348Y-1616055D02*
X270301Y-1635103D01*
X270301Y-1635103D02*
X251253Y-1644627D01*
X451253Y-1768436D02*
X460777Y-1777960D01*
X460777Y-1777960D02*
X451253Y-1787484D01*
X451253Y-1787484D02*
X441729Y-1777960D01*
X441729Y-1777960D02*
X451253Y-1768436D01*
X451253Y-1768436D02*
X451253Y-1787484D01*
X641729Y-1587484D02*
X546491Y-1587484D01*
X546491Y-1587484D02*
X536967Y-1682722D01*
X536967Y-1682722D02*
X546491Y-1673198D01*
X546491Y-1673198D02*
X565539Y-1663674D01*
X565539Y-1663674D02*
X613158Y-1663674D01*
X613158Y-1663674D02*
X632205Y-1673198D01*
X632205Y-1673198D02*
X641729Y-1682722D01*
X641729Y-1682722D02*
X651253Y-1701769D01*
X651253Y-1701769D02*
X651253Y-1749388D01*
X651253Y-1749388D02*
X641729Y-1768436D01*
X641729Y-1768436D02*
X632205Y-1777960D01*
X632205Y-1777960D02*
X613158Y-1787484D01*
X613158Y-1787484D02*
X565539Y-1787484D01*
X565539Y-1787484D02*
X546491Y-1777960D01*
X546491Y-1777960D02*
X536967Y-1768436D01*
X775062Y-1587484D02*
X794110Y-1587484D01*
X794110Y-1587484D02*
X813158Y-1597008D01*
X813158Y-1597008D02*
X822682Y-1606531D01*
X822682Y-1606531D02*
X832205Y-1625579D01*
X832205Y-1625579D02*
X841729Y-1663674D01*
X841729Y-1663674D02*
X841729Y-1711293D01*
X841729Y-1711293D02*
X832205Y-1749388D01*
X832205Y-1749388D02*
X822682Y-1768436D01*
X822682Y-1768436D02*
X813158Y-1777960D01*
X813158Y-1777960D02*
X794110Y-1787484D01*
X794110Y-1787484D02*
X775062Y-1787484D01*
X775062Y-1787484D02*
X756015Y-1777960D01*
X756015Y-1777960D02*
X746491Y-1768436D01*
X746491Y-1768436D02*
X736967Y-1749388D01*
X736967Y-1749388D02*
X727443Y-1711293D01*
X727443Y-1711293D02*
X727443Y-1663674D01*
X727443Y-1663674D02*
X736967Y-1625579D01*
X736967Y-1625579D02*
X746491Y-1606531D01*
X746491Y-1606531D02*
X756015Y-1597008D01*
X756015Y-1597008D02*
X775062Y-1587484D01*
X965539Y-1587484D02*
X984586Y-1587484D01*
X984586Y-1587484D02*
X1003634Y-1597008D01*
X1003634Y-1597008D02*
X1013158Y-1606531D01*
X1013158Y-1606531D02*
X1022682Y-1625579D01*
X1022682Y-1625579D02*
X1032205Y-1663674D01*
X1032205Y-1663674D02*
X1032205Y-1711293D01*
X1032205Y-1711293D02*
X1022682Y-1749388D01*
X1022682Y-1749388D02*
X1013158Y-1768436D01*
X1013158Y-1768436D02*
X1003634Y-1777960D01*
X1003634Y-1777960D02*
X984586Y-1787484D01*
X984586Y-1787484D02*
X965539Y-1787484D01*
X965539Y-1787484D02*
X946491Y-1777960D01*
X946491Y-1777960D02*
X936967Y-1768436D01*
X936967Y-1768436D02*
X927443Y-1749388D01*
X927443Y-1749388D02*
X917920Y-1711293D01*
X917920Y-1711293D02*
X917920Y-1663674D01*
X917920Y-1663674D02*
X927443Y-1625579D01*
X927443Y-1625579D02*
X936967Y-1606531D01*
X936967Y-1606531D02*
X946491Y-1597008D01*
X946491Y-1597008D02*
X965539Y-1587484D01*
X1117920Y-1787484D02*
X1117920Y-1654150D01*
X1117920Y-1673198D02*
X1127444Y-1663674D01*
X1127444Y-1663674D02*
X1146491Y-1654150D01*
X1146491Y-1654150D02*
X1175063Y-1654150D01*
X1175063Y-1654150D02*
X1194110Y-1663674D01*
X1194110Y-1663674D02*
X1203634Y-1682722D01*
X1203634Y-1682722D02*
X1203634Y-1787484D01*
X1203634Y-1682722D02*
X1213158Y-1663674D01*
X1213158Y-1663674D02*
X1232205Y-1654150D01*
X1232205Y-1654150D02*
X1260777Y-1654150D01*
X1260777Y-1654150D02*
X1279825Y-1663674D01*
X1279825Y-1663674D02*
X1289348Y-1682722D01*
X1289348Y-1682722D02*
X1289348Y-1787484D01*
X1384586Y-1787484D02*
X1384586Y-1654150D01*
X1384586Y-1673198D02*
X1394110Y-1663674D01*
X1394110Y-1663674D02*
X1413158Y-1654150D01*
X1413158Y-1654150D02*
X1441729Y-1654150D01*
X1441729Y-1654150D02*
X1460777Y-1663674D01*
X1460777Y-1663674D02*
X1470301Y-1682722D01*
X1470301Y-1682722D02*
X1470301Y-1787484D01*
X1470301Y-1682722D02*
X1479824Y-1663674D01*
X1479824Y-1663674D02*
X1498872Y-1654150D01*
X1498872Y-1654150D02*
X1527443Y-1654150D01*
X1527443Y-1654150D02*
X1546491Y-1663674D01*
X1546491Y-1663674D02*
X1556015Y-1682722D01*
X1556015Y-1682722D02*
X1556015Y-1787484D01*
X1946491Y-1577960D02*
X1775063Y-1835103D01*
X2203634Y-1587484D02*
X2222682Y-1587484D01*
X2222682Y-1587484D02*
X2241729Y-1597008D01*
X2241729Y-1597008D02*
X2251253Y-1606531D01*
X2251253Y-1606531D02*
X2260777Y-1625579D01*
X2260777Y-1625579D02*
X2270301Y-1663674D01*
X2270301Y-1663674D02*
X2270301Y-1711293D01*
X2270301Y-1711293D02*
X2260777Y-1749388D01*
X2260777Y-1749388D02*
X2251253Y-1768436D01*
X2251253Y-1768436D02*
X2241729Y-1777960D01*
X2241729Y-1777960D02*
X2222682Y-1787484D01*
X2222682Y-1787484D02*
X2203634Y-1787484D01*
X2203634Y-1787484D02*
X2184587Y-1777960D01*
X2184587Y-1777960D02*
X2175063Y-1768436D01*
X2175063Y-1768436D02*
X2165539Y-1749388D01*
X2165539Y-1749388D02*
X2156015Y-1711293D01*
X2156015Y-1711293D02*
X2156015Y-1663674D01*
X2156015Y-1663674D02*
X2165539Y-1625579D01*
X2165539Y-1625579D02*
X2175063Y-1606531D01*
X2175063Y-1606531D02*
X2184587Y-1597008D01*
X2184587Y-1597008D02*
X2203634Y-1587484D01*
X2356015Y-1768436D02*
X2365539Y-1777960D01*
X2365539Y-1777960D02*
X2356015Y-1787484D01*
X2356015Y-1787484D02*
X2346491Y-1777960D01*
X2346491Y-1777960D02*
X2356015Y-1768436D01*
X2356015Y-1768436D02*
X2356015Y-1787484D01*
X2489348Y-1587484D02*
X2508396Y-1587484D01*
X2508396Y-1587484D02*
X2527444Y-1597008D01*
X2527444Y-1597008D02*
X2536968Y-1606531D01*
X2536968Y-1606531D02*
X2546491Y-1625579D01*
X2546491Y-1625579D02*
X2556015Y-1663674D01*
X2556015Y-1663674D02*
X2556015Y-1711293D01*
X2556015Y-1711293D02*
X2546491Y-1749388D01*
X2546491Y-1749388D02*
X2536968Y-1768436D01*
X2536968Y-1768436D02*
X2527444Y-1777960D01*
X2527444Y-1777960D02*
X2508396Y-1787484D01*
X2508396Y-1787484D02*
X2489348Y-1787484D01*
X2489348Y-1787484D02*
X2470301Y-1777960D01*
X2470301Y-1777960D02*
X2460777Y-1768436D01*
X2460777Y-1768436D02*
X2451253Y-1749388D01*
X2451253Y-1749388D02*
X2441729Y-1711293D01*
X2441729Y-1711293D02*
X2441729Y-1663674D01*
X2441729Y-1663674D02*
X2451253Y-1625579D01*
X2451253Y-1625579D02*
X2460777Y-1606531D01*
X2460777Y-1606531D02*
X2470301Y-1597008D01*
X2470301Y-1597008D02*
X2489348Y-1587484D01*
X2736968Y-1587484D02*
X2641729Y-1587484D01*
X2641729Y-1587484D02*
X2632206Y-1682722D01*
X2632206Y-1682722D02*
X2641729Y-1673198D01*
X2641729Y-1673198D02*
X2660777Y-1663674D01*
X2660777Y-1663674D02*
X2708396Y-1663674D01*
X2708396Y-1663674D02*
X2727444Y-1673198D01*
X2727444Y-1673198D02*
X2736968Y-1682722D01*
X2736968Y-1682722D02*
X2746491Y-1701769D01*
X2746491Y-1701769D02*
X2746491Y-1749388D01*
X2746491Y-1749388D02*
X2736968Y-1768436D01*
X2736968Y-1768436D02*
X2727444Y-1777960D01*
X2727444Y-1777960D02*
X2708396Y-1787484D01*
X2708396Y-1787484D02*
X2660777Y-1787484D01*
X2660777Y-1787484D02*
X2641729Y-1777960D01*
X2641729Y-1777960D02*
X2632206Y-1768436D01*
X2841729Y-1787484D02*
X2879825Y-1787484D01*
X2879825Y-1787484D02*
X2898872Y-1777960D01*
X2898872Y-1777960D02*
X2908396Y-1768436D01*
X2908396Y-1768436D02*
X2927444Y-1739865D01*
X2927444Y-1739865D02*
X2936967Y-1701769D01*
X2936967Y-1701769D02*
X2936967Y-1625579D01*
X2936967Y-1625579D02*
X2927444Y-1606531D01*
X2927444Y-1606531D02*
X2917920Y-1597008D01*
X2917920Y-1597008D02*
X2898872Y-1587484D01*
X2898872Y-1587484D02*
X2860777Y-1587484D01*
X2860777Y-1587484D02*
X2841729Y-1597008D01*
X2841729Y-1597008D02*
X2832206Y-1606531D01*
X2832206Y-1606531D02*
X2822682Y-1625579D01*
X2822682Y-1625579D02*
X2822682Y-1673198D01*
X2822682Y-1673198D02*
X2832206Y-1692246D01*
X2832206Y-1692246D02*
X2841729Y-1701769D01*
X2841729Y-1701769D02*
X2860777Y-1711293D01*
X2860777Y-1711293D02*
X2898872Y-1711293D01*
X2898872Y-1711293D02*
X2917920Y-1701769D01*
X2917920Y-1701769D02*
X2927444Y-1692246D01*
X2927444Y-1692246D02*
X2936967Y-1673198D01*
X3127444Y-1787484D02*
X3013158Y-1787484D01*
X3070301Y-1787484D02*
X3070301Y-1587484D01*
X3070301Y-1587484D02*
X3051253Y-1616055D01*
X3051253Y-1616055D02*
X3032206Y-1635103D01*
X3032206Y-1635103D02*
X3013158Y-1644627D01*
X3203634Y-1587484D02*
X3203634Y-1625579D01*
X3279825Y-1587484D02*
X3279825Y-1625579D01*
X3575063Y-1863674D02*
X3565539Y-1854150D01*
X3565539Y-1854150D02*
X3546491Y-1825579D01*
X3546491Y-1825579D02*
X3536968Y-1806531D01*
X3536968Y-1806531D02*
X3527444Y-1777960D01*
X3527444Y-1777960D02*
X3517920Y-1730341D01*
X3517920Y-1730341D02*
X3517920Y-1692246D01*
X3517920Y-1692246D02*
X3527444Y-1644627D01*
X3527444Y-1644627D02*
X3536968Y-1616055D01*
X3536968Y-1616055D02*
X3546491Y-1597008D01*
X3546491Y-1597008D02*
X3565539Y-1568436D01*
X3565539Y-1568436D02*
X3575063Y-1558912D01*
X3679825Y-1673198D02*
X3660777Y-1663674D01*
X3660777Y-1663674D02*
X3651253Y-1654150D01*
X3651253Y-1654150D02*
X3641729Y-1635103D01*
X3641729Y-1635103D02*
X3641729Y-1625579D01*
X3641729Y-1625579D02*
X3651253Y-1606531D01*
X3651253Y-1606531D02*
X3660777Y-1597008D01*
X3660777Y-1597008D02*
X3679825Y-1587484D01*
X3679825Y-1587484D02*
X3717920Y-1587484D01*
X3717920Y-1587484D02*
X3736968Y-1597008D01*
X3736968Y-1597008D02*
X3746491Y-1606531D01*
X3746491Y-1606531D02*
X3756015Y-1625579D01*
X3756015Y-1625579D02*
X3756015Y-1635103D01*
X3756015Y-1635103D02*
X3746491Y-1654150D01*
X3746491Y-1654150D02*
X3736968Y-1663674D01*
X3736968Y-1663674D02*
X3717920Y-1673198D01*
X3717920Y-1673198D02*
X3679825Y-1673198D01*
X3679825Y-1673198D02*
X3660777Y-1682722D01*
X3660777Y-1682722D02*
X3651253Y-1692246D01*
X3651253Y-1692246D02*
X3641729Y-1711293D01*
X3641729Y-1711293D02*
X3641729Y-1749388D01*
X3641729Y-1749388D02*
X3651253Y-1768436D01*
X3651253Y-1768436D02*
X3660777Y-1777960D01*
X3660777Y-1777960D02*
X3679825Y-1787484D01*
X3679825Y-1787484D02*
X3717920Y-1787484D01*
X3717920Y-1787484D02*
X3736968Y-1777960D01*
X3736968Y-1777960D02*
X3746491Y-1768436D01*
X3746491Y-1768436D02*
X3756015Y-1749388D01*
X3756015Y-1749388D02*
X3756015Y-1711293D01*
X3756015Y-1711293D02*
X3746491Y-1692246D01*
X3746491Y-1692246D02*
X3736968Y-1682722D01*
X3736968Y-1682722D02*
X3717920Y-1673198D01*
X3870301Y-1673198D02*
X3851253Y-1663674D01*
X3851253Y-1663674D02*
X3841729Y-1654150D01*
X3841729Y-1654150D02*
X3832206Y-1635103D01*
X3832206Y-1635103D02*
X3832206Y-1625579D01*
X3832206Y-1625579D02*
X3841729Y-1606531D01*
X3841729Y-1606531D02*
X3851253Y-1597008D01*
X3851253Y-1597008D02*
X3870301Y-1587484D01*
X3870301Y-1587484D02*
X3908396Y-1587484D01*
X3908396Y-1587484D02*
X3927444Y-1597008D01*
X3927444Y-1597008D02*
X3936968Y-1606531D01*
X3936968Y-1606531D02*
X3946491Y-1625579D01*
X3946491Y-1625579D02*
X3946491Y-1635103D01*
X3946491Y-1635103D02*
X3936968Y-1654150D01*
X3936968Y-1654150D02*
X3927444Y-1663674D01*
X3927444Y-1663674D02*
X3908396Y-1673198D01*
X3908396Y-1673198D02*
X3870301Y-1673198D01*
X3870301Y-1673198D02*
X3851253Y-1682722D01*
X3851253Y-1682722D02*
X3841729Y-1692246D01*
X3841729Y-1692246D02*
X3832206Y-1711293D01*
X3832206Y-1711293D02*
X3832206Y-1749388D01*
X3832206Y-1749388D02*
X3841729Y-1768436D01*
X3841729Y-1768436D02*
X3851253Y-1777960D01*
X3851253Y-1777960D02*
X3870301Y-1787484D01*
X3870301Y-1787484D02*
X3908396Y-1787484D01*
X3908396Y-1787484D02*
X3927444Y-1777960D01*
X3927444Y-1777960D02*
X3936968Y-1768436D01*
X3936968Y-1768436D02*
X3946491Y-1749388D01*
X3946491Y-1749388D02*
X3946491Y-1711293D01*
X3946491Y-1711293D02*
X3936968Y-1692246D01*
X3936968Y-1692246D02*
X3927444Y-1682722D01*
X3927444Y-1682722D02*
X3908396Y-1673198D01*
X4184587Y-1787484D02*
X4184587Y-1587484D01*
X4270301Y-1787484D02*
X4270301Y-1682722D01*
X4270301Y-1682722D02*
X4260777Y-1663674D01*
X4260777Y-1663674D02*
X4241730Y-1654150D01*
X4241730Y-1654150D02*
X4213158Y-1654150D01*
X4213158Y-1654150D02*
X4194110Y-1663674D01*
X4194110Y-1663674D02*
X4184587Y-1673198D01*
X4394111Y-1787484D02*
X4375063Y-1777960D01*
X4375063Y-1777960D02*
X4365539Y-1768436D01*
X4365539Y-1768436D02*
X4356015Y-1749388D01*
X4356015Y-1749388D02*
X4356015Y-1692246D01*
X4356015Y-1692246D02*
X4365539Y-1673198D01*
X4365539Y-1673198D02*
X4375063Y-1663674D01*
X4375063Y-1663674D02*
X4394111Y-1654150D01*
X4394111Y-1654150D02*
X4422682Y-1654150D01*
X4422682Y-1654150D02*
X4441730Y-1663674D01*
X4441730Y-1663674D02*
X4451253Y-1673198D01*
X4451253Y-1673198D02*
X4460777Y-1692246D01*
X4460777Y-1692246D02*
X4460777Y-1749388D01*
X4460777Y-1749388D02*
X4451253Y-1768436D01*
X4451253Y-1768436D02*
X4441730Y-1777960D01*
X4441730Y-1777960D02*
X4422682Y-1787484D01*
X4422682Y-1787484D02*
X4394111Y-1787484D01*
X4575063Y-1787484D02*
X4556015Y-1777960D01*
X4556015Y-1777960D02*
X4546492Y-1758912D01*
X4546492Y-1758912D02*
X4546492Y-1587484D01*
X4727444Y-1777960D02*
X4708396Y-1787484D01*
X4708396Y-1787484D02*
X4670301Y-1787484D01*
X4670301Y-1787484D02*
X4651253Y-1777960D01*
X4651253Y-1777960D02*
X4641730Y-1758912D01*
X4641730Y-1758912D02*
X4641730Y-1682722D01*
X4641730Y-1682722D02*
X4651253Y-1663674D01*
X4651253Y-1663674D02*
X4670301Y-1654150D01*
X4670301Y-1654150D02*
X4708396Y-1654150D01*
X4708396Y-1654150D02*
X4727444Y-1663674D01*
X4727444Y-1663674D02*
X4736968Y-1682722D01*
X4736968Y-1682722D02*
X4736968Y-1701769D01*
X4736968Y-1701769D02*
X4641730Y-1720817D01*
X4813158Y-1777960D02*
X4832206Y-1787484D01*
X4832206Y-1787484D02*
X4870301Y-1787484D01*
X4870301Y-1787484D02*
X4889349Y-1777960D01*
X4889349Y-1777960D02*
X4898873Y-1758912D01*
X4898873Y-1758912D02*
X4898873Y-1749388D01*
X4898873Y-1749388D02*
X4889349Y-1730341D01*
X4889349Y-1730341D02*
X4870301Y-1720817D01*
X4870301Y-1720817D02*
X4841730Y-1720817D01*
X4841730Y-1720817D02*
X4822682Y-1711293D01*
X4822682Y-1711293D02*
X4813158Y-1692246D01*
X4813158Y-1692246D02*
X4813158Y-1682722D01*
X4813158Y-1682722D02*
X4822682Y-1663674D01*
X4822682Y-1663674D02*
X4841730Y-1654150D01*
X4841730Y-1654150D02*
X4870301Y-1654150D01*
X4870301Y-1654150D02*
X4889349Y-1663674D01*
X5136968Y-1711293D02*
X5289349Y-1711293D01*
X5213158Y-1787484D02*
X5213158Y-1635103D01*
X5527444Y-1606531D02*
X5536968Y-1597008D01*
X5536968Y-1597008D02*
X5556015Y-1587484D01*
X5556015Y-1587484D02*
X5603634Y-1587484D01*
X5603634Y-1587484D02*
X5622682Y-1597008D01*
X5622682Y-1597008D02*
X5632206Y-1606531D01*
X5632206Y-1606531D02*
X5641730Y-1625579D01*
X5641730Y-1625579D02*
X5641730Y-1644627D01*
X5641730Y-1644627D02*
X5632206Y-1673198D01*
X5632206Y-1673198D02*
X5517920Y-1787484D01*
X5517920Y-1787484D02*
X5641730Y-1787484D01*
X5870301Y-1777960D02*
X5889349Y-1787484D01*
X5889349Y-1787484D02*
X5927444Y-1787484D01*
X5927444Y-1787484D02*
X5946492Y-1777960D01*
X5946492Y-1777960D02*
X5956015Y-1758912D01*
X5956015Y-1758912D02*
X5956015Y-1749388D01*
X5956015Y-1749388D02*
X5946492Y-1730341D01*
X5946492Y-1730341D02*
X5927444Y-1720817D01*
X5927444Y-1720817D02*
X5898873Y-1720817D01*
X5898873Y-1720817D02*
X5879825Y-1711293D01*
X5879825Y-1711293D02*
X5870301Y-1692246D01*
X5870301Y-1692246D02*
X5870301Y-1682722D01*
X5870301Y-1682722D02*
X5879825Y-1663674D01*
X5879825Y-1663674D02*
X5898873Y-1654150D01*
X5898873Y-1654150D02*
X5927444Y-1654150D01*
X5927444Y-1654150D02*
X5946492Y-1663674D01*
X6070301Y-1787484D02*
X6051254Y-1777960D01*
X6051254Y-1777960D02*
X6041730Y-1758912D01*
X6041730Y-1758912D02*
X6041730Y-1587484D01*
X6175063Y-1787484D02*
X6156015Y-1777960D01*
X6156015Y-1777960D02*
X6146492Y-1768436D01*
X6146492Y-1768436D02*
X6136968Y-1749388D01*
X6136968Y-1749388D02*
X6136968Y-1692246D01*
X6136968Y-1692246D02*
X6146492Y-1673198D01*
X6146492Y-1673198D02*
X6156015Y-1663674D01*
X6156015Y-1663674D02*
X6175063Y-1654150D01*
X6175063Y-1654150D02*
X6203635Y-1654150D01*
X6203635Y-1654150D02*
X6222682Y-1663674D01*
X6222682Y-1663674D02*
X6232206Y-1673198D01*
X6232206Y-1673198D02*
X6241730Y-1692246D01*
X6241730Y-1692246D02*
X6241730Y-1749388D01*
X6241730Y-1749388D02*
X6232206Y-1768436D01*
X6232206Y-1768436D02*
X6222682Y-1777960D01*
X6222682Y-1777960D02*
X6203635Y-1787484D01*
X6203635Y-1787484D02*
X6175063Y-1787484D01*
X6298873Y-1654150D02*
X6375063Y-1654150D01*
X6327444Y-1587484D02*
X6327444Y-1758912D01*
X6327444Y-1758912D02*
X6336968Y-1777960D01*
X6336968Y-1777960D02*
X6356015Y-1787484D01*
X6356015Y-1787484D02*
X6375063Y-1787484D01*
X6432206Y-1777960D02*
X6451254Y-1787484D01*
X6451254Y-1787484D02*
X6489349Y-1787484D01*
X6489349Y-1787484D02*
X6508396Y-1777960D01*
X6508396Y-1777960D02*
X6517920Y-1758912D01*
X6517920Y-1758912D02*
X6517920Y-1749388D01*
X6517920Y-1749388D02*
X6508396Y-1730341D01*
X6508396Y-1730341D02*
X6489349Y-1720817D01*
X6489349Y-1720817D02*
X6460777Y-1720817D01*
X6460777Y-1720817D02*
X6441730Y-1711293D01*
X6441730Y-1711293D02*
X6432206Y-1692246D01*
X6432206Y-1692246D02*
X6432206Y-1682722D01*
X6432206Y-1682722D02*
X6441730Y-1663674D01*
X6441730Y-1663674D02*
X6460777Y-1654150D01*
X6460777Y-1654150D02*
X6489349Y-1654150D01*
X6489349Y-1654150D02*
X6508396Y-1663674D01*
X6584587Y-1863674D02*
X6594111Y-1854150D01*
X6594111Y-1854150D02*
X6613158Y-1825579D01*
X6613158Y-1825579D02*
X6622682Y-1806531D01*
X6622682Y-1806531D02*
X6632206Y-1777960D01*
X6632206Y-1777960D02*
X6641730Y-1730341D01*
X6641730Y-1730341D02*
X6641730Y-1692246D01*
X6641730Y-1692246D02*
X6632206Y-1644627D01*
X6632206Y-1644627D02*
X6622682Y-1616055D01*
X6622682Y-1616055D02*
X6613158Y-1597008D01*
X6613158Y-1597008D02*
X6594111Y-1568436D01*
X6594111Y-1568436D02*
X6584587Y-1558912D01*
D13*
X-160000Y-1886000D02*
X0Y-2046000D01*
X0Y-1886000D02*
X-160000Y-2046000D01*
X0Y-1966000D02*
G75*
G02*
X-160000Y-1966000I-80000J0D01*
G01*
X-160000Y-1966000D02*
G75*
G02*
X0Y-1966000I80000J0D01*
G01*
D10*
X365539Y-2057484D02*
X251253Y-2057484D01*
X308396Y-2057484D02*
X308396Y-1857484D01*
X308396Y-1857484D02*
X289348Y-1886055D01*
X289348Y-1886055D02*
X270301Y-1905103D01*
X270301Y-1905103D02*
X251253Y-1914627D01*
X451253Y-2038436D02*
X460777Y-2047960D01*
X460777Y-2047960D02*
X451253Y-2057484D01*
X451253Y-2057484D02*
X441729Y-2047960D01*
X441729Y-2047960D02*
X451253Y-2038436D01*
X451253Y-2038436D02*
X451253Y-2057484D01*
X632205Y-1857484D02*
X594110Y-1857484D01*
X594110Y-1857484D02*
X575063Y-1867008D01*
X575063Y-1867008D02*
X565539Y-1876531D01*
X565539Y-1876531D02*
X546491Y-1905103D01*
X546491Y-1905103D02*
X536967Y-1943198D01*
X536967Y-1943198D02*
X536967Y-2019388D01*
X536967Y-2019388D02*
X546491Y-2038436D01*
X546491Y-2038436D02*
X556015Y-2047960D01*
X556015Y-2047960D02*
X575063Y-2057484D01*
X575063Y-2057484D02*
X613158Y-2057484D01*
X613158Y-2057484D02*
X632205Y-2047960D01*
X632205Y-2047960D02*
X641729Y-2038436D01*
X641729Y-2038436D02*
X651253Y-2019388D01*
X651253Y-2019388D02*
X651253Y-1971769D01*
X651253Y-1971769D02*
X641729Y-1952722D01*
X641729Y-1952722D02*
X632205Y-1943198D01*
X632205Y-1943198D02*
X613158Y-1933674D01*
X613158Y-1933674D02*
X575063Y-1933674D01*
X575063Y-1933674D02*
X556015Y-1943198D01*
X556015Y-1943198D02*
X546491Y-1952722D01*
X546491Y-1952722D02*
X536967Y-1971769D01*
X775062Y-1857484D02*
X794110Y-1857484D01*
X794110Y-1857484D02*
X813158Y-1867008D01*
X813158Y-1867008D02*
X822682Y-1876531D01*
X822682Y-1876531D02*
X832205Y-1895579D01*
X832205Y-1895579D02*
X841729Y-1933674D01*
X841729Y-1933674D02*
X841729Y-1981293D01*
X841729Y-1981293D02*
X832205Y-2019388D01*
X832205Y-2019388D02*
X822682Y-2038436D01*
X822682Y-2038436D02*
X813158Y-2047960D01*
X813158Y-2047960D02*
X794110Y-2057484D01*
X794110Y-2057484D02*
X775062Y-2057484D01*
X775062Y-2057484D02*
X756015Y-2047960D01*
X756015Y-2047960D02*
X746491Y-2038436D01*
X746491Y-2038436D02*
X736967Y-2019388D01*
X736967Y-2019388D02*
X727443Y-1981293D01*
X727443Y-1981293D02*
X727443Y-1933674D01*
X727443Y-1933674D02*
X736967Y-1895579D01*
X736967Y-1895579D02*
X746491Y-1876531D01*
X746491Y-1876531D02*
X756015Y-1867008D01*
X756015Y-1867008D02*
X775062Y-1857484D01*
X965539Y-1857484D02*
X984586Y-1857484D01*
X984586Y-1857484D02*
X1003634Y-1867008D01*
X1003634Y-1867008D02*
X1013158Y-1876531D01*
X1013158Y-1876531D02*
X1022682Y-1895579D01*
X1022682Y-1895579D02*
X1032205Y-1933674D01*
X1032205Y-1933674D02*
X1032205Y-1981293D01*
X1032205Y-1981293D02*
X1022682Y-2019388D01*
X1022682Y-2019388D02*
X1013158Y-2038436D01*
X1013158Y-2038436D02*
X1003634Y-2047960D01*
X1003634Y-2047960D02*
X984586Y-2057484D01*
X984586Y-2057484D02*
X965539Y-2057484D01*
X965539Y-2057484D02*
X946491Y-2047960D01*
X946491Y-2047960D02*
X936967Y-2038436D01*
X936967Y-2038436D02*
X927443Y-2019388D01*
X927443Y-2019388D02*
X917920Y-1981293D01*
X917920Y-1981293D02*
X917920Y-1933674D01*
X917920Y-1933674D02*
X927443Y-1895579D01*
X927443Y-1895579D02*
X936967Y-1876531D01*
X936967Y-1876531D02*
X946491Y-1867008D01*
X946491Y-1867008D02*
X965539Y-1857484D01*
X1117920Y-2057484D02*
X1117920Y-1924150D01*
X1117920Y-1943198D02*
X1127444Y-1933674D01*
X1127444Y-1933674D02*
X1146491Y-1924150D01*
X1146491Y-1924150D02*
X1175063Y-1924150D01*
X1175063Y-1924150D02*
X1194110Y-1933674D01*
X1194110Y-1933674D02*
X1203634Y-1952722D01*
X1203634Y-1952722D02*
X1203634Y-2057484D01*
X1203634Y-1952722D02*
X1213158Y-1933674D01*
X1213158Y-1933674D02*
X1232205Y-1924150D01*
X1232205Y-1924150D02*
X1260777Y-1924150D01*
X1260777Y-1924150D02*
X1279825Y-1933674D01*
X1279825Y-1933674D02*
X1289348Y-1952722D01*
X1289348Y-1952722D02*
X1289348Y-2057484D01*
X1384586Y-2057484D02*
X1384586Y-1924150D01*
X1384586Y-1943198D02*
X1394110Y-1933674D01*
X1394110Y-1933674D02*
X1413158Y-1924150D01*
X1413158Y-1924150D02*
X1441729Y-1924150D01*
X1441729Y-1924150D02*
X1460777Y-1933674D01*
X1460777Y-1933674D02*
X1470301Y-1952722D01*
X1470301Y-1952722D02*
X1470301Y-2057484D01*
X1470301Y-1952722D02*
X1479824Y-1933674D01*
X1479824Y-1933674D02*
X1498872Y-1924150D01*
X1498872Y-1924150D02*
X1527443Y-1924150D01*
X1527443Y-1924150D02*
X1546491Y-1933674D01*
X1546491Y-1933674D02*
X1556015Y-1952722D01*
X1556015Y-1952722D02*
X1556015Y-2057484D01*
X1946491Y-1847960D02*
X1775063Y-2105103D01*
X2203634Y-1857484D02*
X2222682Y-1857484D01*
X2222682Y-1857484D02*
X2241729Y-1867008D01*
X2241729Y-1867008D02*
X2251253Y-1876531D01*
X2251253Y-1876531D02*
X2260777Y-1895579D01*
X2260777Y-1895579D02*
X2270301Y-1933674D01*
X2270301Y-1933674D02*
X2270301Y-1981293D01*
X2270301Y-1981293D02*
X2260777Y-2019388D01*
X2260777Y-2019388D02*
X2251253Y-2038436D01*
X2251253Y-2038436D02*
X2241729Y-2047960D01*
X2241729Y-2047960D02*
X2222682Y-2057484D01*
X2222682Y-2057484D02*
X2203634Y-2057484D01*
X2203634Y-2057484D02*
X2184587Y-2047960D01*
X2184587Y-2047960D02*
X2175063Y-2038436D01*
X2175063Y-2038436D02*
X2165539Y-2019388D01*
X2165539Y-2019388D02*
X2156015Y-1981293D01*
X2156015Y-1981293D02*
X2156015Y-1933674D01*
X2156015Y-1933674D02*
X2165539Y-1895579D01*
X2165539Y-1895579D02*
X2175063Y-1876531D01*
X2175063Y-1876531D02*
X2184587Y-1867008D01*
X2184587Y-1867008D02*
X2203634Y-1857484D01*
X2356015Y-2038436D02*
X2365539Y-2047960D01*
X2365539Y-2047960D02*
X2356015Y-2057484D01*
X2356015Y-2057484D02*
X2346491Y-2047960D01*
X2346491Y-2047960D02*
X2356015Y-2038436D01*
X2356015Y-2038436D02*
X2356015Y-2057484D01*
X2489348Y-1857484D02*
X2508396Y-1857484D01*
X2508396Y-1857484D02*
X2527444Y-1867008D01*
X2527444Y-1867008D02*
X2536968Y-1876531D01*
X2536968Y-1876531D02*
X2546491Y-1895579D01*
X2546491Y-1895579D02*
X2556015Y-1933674D01*
X2556015Y-1933674D02*
X2556015Y-1981293D01*
X2556015Y-1981293D02*
X2546491Y-2019388D01*
X2546491Y-2019388D02*
X2536968Y-2038436D01*
X2536968Y-2038436D02*
X2527444Y-2047960D01*
X2527444Y-2047960D02*
X2508396Y-2057484D01*
X2508396Y-2057484D02*
X2489348Y-2057484D01*
X2489348Y-2057484D02*
X2470301Y-2047960D01*
X2470301Y-2047960D02*
X2460777Y-2038436D01*
X2460777Y-2038436D02*
X2451253Y-2019388D01*
X2451253Y-2019388D02*
X2441729Y-1981293D01*
X2441729Y-1981293D02*
X2441729Y-1933674D01*
X2441729Y-1933674D02*
X2451253Y-1895579D01*
X2451253Y-1895579D02*
X2460777Y-1876531D01*
X2460777Y-1876531D02*
X2470301Y-1867008D01*
X2470301Y-1867008D02*
X2489348Y-1857484D01*
X2727444Y-1857484D02*
X2689348Y-1857484D01*
X2689348Y-1857484D02*
X2670301Y-1867008D01*
X2670301Y-1867008D02*
X2660777Y-1876531D01*
X2660777Y-1876531D02*
X2641729Y-1905103D01*
X2641729Y-1905103D02*
X2632206Y-1943198D01*
X2632206Y-1943198D02*
X2632206Y-2019388D01*
X2632206Y-2019388D02*
X2641729Y-2038436D01*
X2641729Y-2038436D02*
X2651253Y-2047960D01*
X2651253Y-2047960D02*
X2670301Y-2057484D01*
X2670301Y-2057484D02*
X2708396Y-2057484D01*
X2708396Y-2057484D02*
X2727444Y-2047960D01*
X2727444Y-2047960D02*
X2736968Y-2038436D01*
X2736968Y-2038436D02*
X2746491Y-2019388D01*
X2746491Y-2019388D02*
X2746491Y-1971769D01*
X2746491Y-1971769D02*
X2736968Y-1952722D01*
X2736968Y-1952722D02*
X2727444Y-1943198D01*
X2727444Y-1943198D02*
X2708396Y-1933674D01*
X2708396Y-1933674D02*
X2670301Y-1933674D01*
X2670301Y-1933674D02*
X2651253Y-1943198D01*
X2651253Y-1943198D02*
X2641729Y-1952722D01*
X2641729Y-1952722D02*
X2632206Y-1971769D01*
X2813158Y-1857484D02*
X2936967Y-1857484D01*
X2936967Y-1857484D02*
X2870301Y-1933674D01*
X2870301Y-1933674D02*
X2898872Y-1933674D01*
X2898872Y-1933674D02*
X2917920Y-1943198D01*
X2917920Y-1943198D02*
X2927444Y-1952722D01*
X2927444Y-1952722D02*
X2936967Y-1971769D01*
X2936967Y-1971769D02*
X2936967Y-2019388D01*
X2936967Y-2019388D02*
X2927444Y-2038436D01*
X2927444Y-2038436D02*
X2917920Y-2047960D01*
X2917920Y-2047960D02*
X2898872Y-2057484D01*
X2898872Y-2057484D02*
X2841729Y-2057484D01*
X2841729Y-2057484D02*
X2822682Y-2047960D01*
X2822682Y-2047960D02*
X2813158Y-2038436D01*
X3060777Y-1857484D02*
X3079825Y-1857484D01*
X3079825Y-1857484D02*
X3098872Y-1867008D01*
X3098872Y-1867008D02*
X3108396Y-1876531D01*
X3108396Y-1876531D02*
X3117920Y-1895579D01*
X3117920Y-1895579D02*
X3127444Y-1933674D01*
X3127444Y-1933674D02*
X3127444Y-1981293D01*
X3127444Y-1981293D02*
X3117920Y-2019388D01*
X3117920Y-2019388D02*
X3108396Y-2038436D01*
X3108396Y-2038436D02*
X3098872Y-2047960D01*
X3098872Y-2047960D02*
X3079825Y-2057484D01*
X3079825Y-2057484D02*
X3060777Y-2057484D01*
X3060777Y-2057484D02*
X3041729Y-2047960D01*
X3041729Y-2047960D02*
X3032206Y-2038436D01*
X3032206Y-2038436D02*
X3022682Y-2019388D01*
X3022682Y-2019388D02*
X3013158Y-1981293D01*
X3013158Y-1981293D02*
X3013158Y-1933674D01*
X3013158Y-1933674D02*
X3022682Y-1895579D01*
X3022682Y-1895579D02*
X3032206Y-1876531D01*
X3032206Y-1876531D02*
X3041729Y-1867008D01*
X3041729Y-1867008D02*
X3060777Y-1857484D01*
X3203634Y-1857484D02*
X3203634Y-1895579D01*
X3279825Y-1857484D02*
X3279825Y-1895579D01*
X3575063Y-2133674D02*
X3565539Y-2124150D01*
X3565539Y-2124150D02*
X3546491Y-2095579D01*
X3546491Y-2095579D02*
X3536968Y-2076531D01*
X3536968Y-2076531D02*
X3527444Y-2047960D01*
X3527444Y-2047960D02*
X3517920Y-2000341D01*
X3517920Y-2000341D02*
X3517920Y-1962246D01*
X3517920Y-1962246D02*
X3527444Y-1914627D01*
X3527444Y-1914627D02*
X3536968Y-1886055D01*
X3536968Y-1886055D02*
X3546491Y-1867008D01*
X3546491Y-1867008D02*
X3565539Y-1838436D01*
X3565539Y-1838436D02*
X3575063Y-1828912D01*
X3736968Y-1924150D02*
X3736968Y-2057484D01*
X3689348Y-1847960D02*
X3641729Y-1990817D01*
X3641729Y-1990817D02*
X3765539Y-1990817D01*
X3994110Y-2057484D02*
X3994110Y-1857484D01*
X4079825Y-2057484D02*
X4079825Y-1952722D01*
X4079825Y-1952722D02*
X4070301Y-1933674D01*
X4070301Y-1933674D02*
X4051253Y-1924150D01*
X4051253Y-1924150D02*
X4022682Y-1924150D01*
X4022682Y-1924150D02*
X4003634Y-1933674D01*
X4003634Y-1933674D02*
X3994110Y-1943198D01*
X4203634Y-2057484D02*
X4184587Y-2047960D01*
X4184587Y-2047960D02*
X4175063Y-2038436D01*
X4175063Y-2038436D02*
X4165539Y-2019388D01*
X4165539Y-2019388D02*
X4165539Y-1962246D01*
X4165539Y-1962246D02*
X4175063Y-1943198D01*
X4175063Y-1943198D02*
X4184587Y-1933674D01*
X4184587Y-1933674D02*
X4203634Y-1924150D01*
X4203634Y-1924150D02*
X4232206Y-1924150D01*
X4232206Y-1924150D02*
X4251253Y-1933674D01*
X4251253Y-1933674D02*
X4260777Y-1943198D01*
X4260777Y-1943198D02*
X4270301Y-1962246D01*
X4270301Y-1962246D02*
X4270301Y-2019388D01*
X4270301Y-2019388D02*
X4260777Y-2038436D01*
X4260777Y-2038436D02*
X4251253Y-2047960D01*
X4251253Y-2047960D02*
X4232206Y-2057484D01*
X4232206Y-2057484D02*
X4203634Y-2057484D01*
X4384587Y-2057484D02*
X4365539Y-2047960D01*
X4365539Y-2047960D02*
X4356015Y-2028912D01*
X4356015Y-2028912D02*
X4356015Y-1857484D01*
X4536968Y-2047960D02*
X4517920Y-2057484D01*
X4517920Y-2057484D02*
X4479825Y-2057484D01*
X4479825Y-2057484D02*
X4460777Y-2047960D01*
X4460777Y-2047960D02*
X4451253Y-2028912D01*
X4451253Y-2028912D02*
X4451253Y-1952722D01*
X4451253Y-1952722D02*
X4460777Y-1933674D01*
X4460777Y-1933674D02*
X4479825Y-1924150D01*
X4479825Y-1924150D02*
X4517920Y-1924150D01*
X4517920Y-1924150D02*
X4536968Y-1933674D01*
X4536968Y-1933674D02*
X4546492Y-1952722D01*
X4546492Y-1952722D02*
X4546492Y-1971769D01*
X4546492Y-1971769D02*
X4451253Y-1990817D01*
X4622682Y-2047960D02*
X4641730Y-2057484D01*
X4641730Y-2057484D02*
X4679825Y-2057484D01*
X4679825Y-2057484D02*
X4698873Y-2047960D01*
X4698873Y-2047960D02*
X4708396Y-2028912D01*
X4708396Y-2028912D02*
X4708396Y-2019388D01*
X4708396Y-2019388D02*
X4698873Y-2000341D01*
X4698873Y-2000341D02*
X4679825Y-1990817D01*
X4679825Y-1990817D02*
X4651253Y-1990817D01*
X4651253Y-1990817D02*
X4632206Y-1981293D01*
X4632206Y-1981293D02*
X4622682Y-1962246D01*
X4622682Y-1962246D02*
X4622682Y-1952722D01*
X4622682Y-1952722D02*
X4632206Y-1933674D01*
X4632206Y-1933674D02*
X4651253Y-1924150D01*
X4651253Y-1924150D02*
X4679825Y-1924150D01*
X4679825Y-1924150D02*
X4698873Y-1933674D01*
X4775063Y-2133674D02*
X4784587Y-2124150D01*
X4784587Y-2124150D02*
X4803634Y-2095579D01*
X4803634Y-2095579D02*
X4813158Y-2076531D01*
X4813158Y-2076531D02*
X4822682Y-2047960D01*
X4822682Y-2047960D02*
X4832206Y-2000341D01*
X4832206Y-2000341D02*
X4832206Y-1962246D01*
X4832206Y-1962246D02*
X4822682Y-1914627D01*
X4822682Y-1914627D02*
X4813158Y-1886055D01*
X4813158Y-1886055D02*
X4803634Y-1867008D01*
X4803634Y-1867008D02*
X4784587Y-1838436D01*
X4784587Y-1838436D02*
X4775063Y-1828912D01*
M02*
