%TF.GenerationSoftware,KiCad,Pcbnew,8.0.3*%
%TF.CreationDate,2024-07-09T07:59:51-07:00*%
%TF.ProjectId,Custom_KB_V1,43757374-6f6d-45f4-9b42-5f56312e6b69,rev?*%
%TF.SameCoordinates,Original*%
%TF.FileFunction,Legend,Bot*%
%TF.FilePolarity,Positive*%
%FSLAX46Y46*%
G04 Gerber Fmt 4.6, Leading zero omitted, Abs format (unit mm)*
G04 Created by KiCad (PCBNEW 8.0.3) date 2024-07-09 07:59:51*
%MOMM*%
%LPD*%
G01*
G04 APERTURE LIST*
%ADD10C,0.150000*%
%ADD11C,0.120000*%
G04 APERTURE END LIST*
D10*
X200579537Y-105393462D02*
X201293822Y-105393462D01*
X201293822Y-105393462D02*
X201436679Y-105345843D01*
X201436679Y-105345843D02*
X201531918Y-105250605D01*
X201531918Y-105250605D02*
X201579537Y-105107748D01*
X201579537Y-105107748D02*
X201579537Y-105012510D01*
X201579537Y-105869653D02*
X200579537Y-105869653D01*
X200579537Y-105869653D02*
X200579537Y-106250605D01*
X200579537Y-106250605D02*
X200627156Y-106345843D01*
X200627156Y-106345843D02*
X200674775Y-106393462D01*
X200674775Y-106393462D02*
X200770013Y-106441081D01*
X200770013Y-106441081D02*
X200912870Y-106441081D01*
X200912870Y-106441081D02*
X201008108Y-106393462D01*
X201008108Y-106393462D02*
X201055727Y-106345843D01*
X201055727Y-106345843D02*
X201103346Y-106250605D01*
X201103346Y-106250605D02*
X201103346Y-105869653D01*
X201579537Y-107393462D02*
X201579537Y-106822034D01*
X201579537Y-107107748D02*
X200579537Y-107107748D01*
X200579537Y-107107748D02*
X200722394Y-107012510D01*
X200722394Y-107012510D02*
X200817632Y-106917272D01*
X200817632Y-106917272D02*
X200865251Y-106822034D01*
X196754727Y-105441982D02*
X197469012Y-105441982D01*
X197469012Y-105441982D02*
X197611869Y-105394363D01*
X197611869Y-105394363D02*
X197707108Y-105299125D01*
X197707108Y-105299125D02*
X197754727Y-105156268D01*
X197754727Y-105156268D02*
X197754727Y-105061030D01*
X197754727Y-105918173D02*
X196754727Y-105918173D01*
X196754727Y-105918173D02*
X196754727Y-106299125D01*
X196754727Y-106299125D02*
X196802346Y-106394363D01*
X196802346Y-106394363D02*
X196849965Y-106441982D01*
X196849965Y-106441982D02*
X196945203Y-106489601D01*
X196945203Y-106489601D02*
X197088060Y-106489601D01*
X197088060Y-106489601D02*
X197183298Y-106441982D01*
X197183298Y-106441982D02*
X197230917Y-106394363D01*
X197230917Y-106394363D02*
X197278536Y-106299125D01*
X197278536Y-106299125D02*
X197278536Y-105918173D01*
X196849965Y-106870554D02*
X196802346Y-106918173D01*
X196802346Y-106918173D02*
X196754727Y-107013411D01*
X196754727Y-107013411D02*
X196754727Y-107251506D01*
X196754727Y-107251506D02*
X196802346Y-107346744D01*
X196802346Y-107346744D02*
X196849965Y-107394363D01*
X196849965Y-107394363D02*
X196945203Y-107441982D01*
X196945203Y-107441982D02*
X197040441Y-107441982D01*
X197040441Y-107441982D02*
X197183298Y-107394363D01*
X197183298Y-107394363D02*
X197754727Y-106822935D01*
X197754727Y-106822935D02*
X197754727Y-107441982D01*
X189654727Y-105441982D02*
X190369012Y-105441982D01*
X190369012Y-105441982D02*
X190511869Y-105394363D01*
X190511869Y-105394363D02*
X190607108Y-105299125D01*
X190607108Y-105299125D02*
X190654727Y-105156268D01*
X190654727Y-105156268D02*
X190654727Y-105061030D01*
X190654727Y-105918173D02*
X189654727Y-105918173D01*
X189654727Y-105918173D02*
X189654727Y-106299125D01*
X189654727Y-106299125D02*
X189702346Y-106394363D01*
X189702346Y-106394363D02*
X189749965Y-106441982D01*
X189749965Y-106441982D02*
X189845203Y-106489601D01*
X189845203Y-106489601D02*
X189988060Y-106489601D01*
X189988060Y-106489601D02*
X190083298Y-106441982D01*
X190083298Y-106441982D02*
X190130917Y-106394363D01*
X190130917Y-106394363D02*
X190178536Y-106299125D01*
X190178536Y-106299125D02*
X190178536Y-105918173D01*
X189988060Y-107346744D02*
X190654727Y-107346744D01*
X189607108Y-107108649D02*
X190321393Y-106870554D01*
X190321393Y-106870554D02*
X190321393Y-107489601D01*
X179004727Y-105441982D02*
X179719012Y-105441982D01*
X179719012Y-105441982D02*
X179861869Y-105394363D01*
X179861869Y-105394363D02*
X179957108Y-105299125D01*
X179957108Y-105299125D02*
X180004727Y-105156268D01*
X180004727Y-105156268D02*
X180004727Y-105061030D01*
X180004727Y-105918173D02*
X179004727Y-105918173D01*
X179004727Y-105918173D02*
X179004727Y-106299125D01*
X179004727Y-106299125D02*
X179052346Y-106394363D01*
X179052346Y-106394363D02*
X179099965Y-106441982D01*
X179099965Y-106441982D02*
X179195203Y-106489601D01*
X179195203Y-106489601D02*
X179338060Y-106489601D01*
X179338060Y-106489601D02*
X179433298Y-106441982D01*
X179433298Y-106441982D02*
X179480917Y-106394363D01*
X179480917Y-106394363D02*
X179528536Y-106299125D01*
X179528536Y-106299125D02*
X179528536Y-105918173D01*
X179004727Y-106822935D02*
X179004727Y-107489601D01*
X179004727Y-107489601D02*
X180004727Y-107061030D01*
X175385624Y-105489323D02*
X176099909Y-105489323D01*
X176099909Y-105489323D02*
X176242766Y-105441704D01*
X176242766Y-105441704D02*
X176338005Y-105346466D01*
X176338005Y-105346466D02*
X176385624Y-105203609D01*
X176385624Y-105203609D02*
X176385624Y-105108371D01*
X176385624Y-105965514D02*
X175385624Y-105965514D01*
X175385624Y-105965514D02*
X175385624Y-106346466D01*
X175385624Y-106346466D02*
X175433243Y-106441704D01*
X175433243Y-106441704D02*
X175480862Y-106489323D01*
X175480862Y-106489323D02*
X175576100Y-106536942D01*
X175576100Y-106536942D02*
X175718957Y-106536942D01*
X175718957Y-106536942D02*
X175814195Y-106489323D01*
X175814195Y-106489323D02*
X175861814Y-106441704D01*
X175861814Y-106441704D02*
X175909433Y-106346466D01*
X175909433Y-106346466D02*
X175909433Y-105965514D01*
X175814195Y-107108371D02*
X175766576Y-107013133D01*
X175766576Y-107013133D02*
X175718957Y-106965514D01*
X175718957Y-106965514D02*
X175623719Y-106917895D01*
X175623719Y-106917895D02*
X175576100Y-106917895D01*
X175576100Y-106917895D02*
X175480862Y-106965514D01*
X175480862Y-106965514D02*
X175433243Y-107013133D01*
X175433243Y-107013133D02*
X175385624Y-107108371D01*
X175385624Y-107108371D02*
X175385624Y-107298847D01*
X175385624Y-107298847D02*
X175433243Y-107394085D01*
X175433243Y-107394085D02*
X175480862Y-107441704D01*
X175480862Y-107441704D02*
X175576100Y-107489323D01*
X175576100Y-107489323D02*
X175623719Y-107489323D01*
X175623719Y-107489323D02*
X175718957Y-107441704D01*
X175718957Y-107441704D02*
X175766576Y-107394085D01*
X175766576Y-107394085D02*
X175814195Y-107298847D01*
X175814195Y-107298847D02*
X175814195Y-107108371D01*
X175814195Y-107108371D02*
X175861814Y-107013133D01*
X175861814Y-107013133D02*
X175909433Y-106965514D01*
X175909433Y-106965514D02*
X176004671Y-106917895D01*
X176004671Y-106917895D02*
X176195147Y-106917895D01*
X176195147Y-106917895D02*
X176290385Y-106965514D01*
X176290385Y-106965514D02*
X176338005Y-107013133D01*
X176338005Y-107013133D02*
X176385624Y-107108371D01*
X176385624Y-107108371D02*
X176385624Y-107298847D01*
X176385624Y-107298847D02*
X176338005Y-107394085D01*
X176338005Y-107394085D02*
X176290385Y-107441704D01*
X176290385Y-107441704D02*
X176195147Y-107489323D01*
X176195147Y-107489323D02*
X176004671Y-107489323D01*
X176004671Y-107489323D02*
X175909433Y-107441704D01*
X175909433Y-107441704D02*
X175861814Y-107394085D01*
X175861814Y-107394085D02*
X175814195Y-107298847D01*
X182554727Y-105441982D02*
X183269012Y-105441982D01*
X183269012Y-105441982D02*
X183411869Y-105394363D01*
X183411869Y-105394363D02*
X183507108Y-105299125D01*
X183507108Y-105299125D02*
X183554727Y-105156268D01*
X183554727Y-105156268D02*
X183554727Y-105061030D01*
X183554727Y-105918173D02*
X182554727Y-105918173D01*
X182554727Y-105918173D02*
X182554727Y-106299125D01*
X182554727Y-106299125D02*
X182602346Y-106394363D01*
X182602346Y-106394363D02*
X182649965Y-106441982D01*
X182649965Y-106441982D02*
X182745203Y-106489601D01*
X182745203Y-106489601D02*
X182888060Y-106489601D01*
X182888060Y-106489601D02*
X182983298Y-106441982D01*
X182983298Y-106441982D02*
X183030917Y-106394363D01*
X183030917Y-106394363D02*
X183078536Y-106299125D01*
X183078536Y-106299125D02*
X183078536Y-105918173D01*
X182554727Y-107346744D02*
X182554727Y-107156268D01*
X182554727Y-107156268D02*
X182602346Y-107061030D01*
X182602346Y-107061030D02*
X182649965Y-107013411D01*
X182649965Y-107013411D02*
X182792822Y-106918173D01*
X182792822Y-106918173D02*
X182983298Y-106870554D01*
X182983298Y-106870554D02*
X183364250Y-106870554D01*
X183364250Y-106870554D02*
X183459488Y-106918173D01*
X183459488Y-106918173D02*
X183507108Y-106965792D01*
X183507108Y-106965792D02*
X183554727Y-107061030D01*
X183554727Y-107061030D02*
X183554727Y-107251506D01*
X183554727Y-107251506D02*
X183507108Y-107346744D01*
X183507108Y-107346744D02*
X183459488Y-107394363D01*
X183459488Y-107394363D02*
X183364250Y-107441982D01*
X183364250Y-107441982D02*
X183126155Y-107441982D01*
X183126155Y-107441982D02*
X183030917Y-107394363D01*
X183030917Y-107394363D02*
X182983298Y-107346744D01*
X182983298Y-107346744D02*
X182935679Y-107251506D01*
X182935679Y-107251506D02*
X182935679Y-107061030D01*
X182935679Y-107061030D02*
X182983298Y-106965792D01*
X182983298Y-106965792D02*
X183030917Y-106918173D01*
X183030917Y-106918173D02*
X183126155Y-106870554D01*
X186104727Y-105441982D02*
X186819012Y-105441982D01*
X186819012Y-105441982D02*
X186961869Y-105394363D01*
X186961869Y-105394363D02*
X187057108Y-105299125D01*
X187057108Y-105299125D02*
X187104727Y-105156268D01*
X187104727Y-105156268D02*
X187104727Y-105061030D01*
X187104727Y-105918173D02*
X186104727Y-105918173D01*
X186104727Y-105918173D02*
X186104727Y-106299125D01*
X186104727Y-106299125D02*
X186152346Y-106394363D01*
X186152346Y-106394363D02*
X186199965Y-106441982D01*
X186199965Y-106441982D02*
X186295203Y-106489601D01*
X186295203Y-106489601D02*
X186438060Y-106489601D01*
X186438060Y-106489601D02*
X186533298Y-106441982D01*
X186533298Y-106441982D02*
X186580917Y-106394363D01*
X186580917Y-106394363D02*
X186628536Y-106299125D01*
X186628536Y-106299125D02*
X186628536Y-105918173D01*
X186104727Y-107394363D02*
X186104727Y-106918173D01*
X186104727Y-106918173D02*
X186580917Y-106870554D01*
X186580917Y-106870554D02*
X186533298Y-106918173D01*
X186533298Y-106918173D02*
X186485679Y-107013411D01*
X186485679Y-107013411D02*
X186485679Y-107251506D01*
X186485679Y-107251506D02*
X186533298Y-107346744D01*
X186533298Y-107346744D02*
X186580917Y-107394363D01*
X186580917Y-107394363D02*
X186676155Y-107441982D01*
X186676155Y-107441982D02*
X186914250Y-107441982D01*
X186914250Y-107441982D02*
X187009488Y-107394363D01*
X187009488Y-107394363D02*
X187057108Y-107346744D01*
X187057108Y-107346744D02*
X187104727Y-107251506D01*
X187104727Y-107251506D02*
X187104727Y-107013411D01*
X187104727Y-107013411D02*
X187057108Y-106918173D01*
X187057108Y-106918173D02*
X187009488Y-106870554D01*
X173001007Y-88099885D02*
X173715292Y-88099885D01*
X173715292Y-88099885D02*
X173858149Y-88052266D01*
X173858149Y-88052266D02*
X173953388Y-87957028D01*
X173953388Y-87957028D02*
X174001007Y-87814171D01*
X174001007Y-87814171D02*
X174001007Y-87718933D01*
X174001007Y-89099885D02*
X174001007Y-88528457D01*
X174001007Y-88814171D02*
X173001007Y-88814171D01*
X173001007Y-88814171D02*
X173143864Y-88718933D01*
X173143864Y-88718933D02*
X173239102Y-88623695D01*
X173239102Y-88623695D02*
X173286721Y-88528457D01*
X173620054Y-89528457D02*
X173620054Y-90290362D01*
X174001007Y-91242742D02*
X174001007Y-90766552D01*
X174001007Y-90766552D02*
X173001007Y-90766552D01*
X173953388Y-91957028D02*
X174001007Y-91861790D01*
X174001007Y-91861790D02*
X174001007Y-91671314D01*
X174001007Y-91671314D02*
X173953388Y-91576076D01*
X173953388Y-91576076D02*
X173858149Y-91528457D01*
X173858149Y-91528457D02*
X173477197Y-91528457D01*
X173477197Y-91528457D02*
X173381959Y-91576076D01*
X173381959Y-91576076D02*
X173334340Y-91671314D01*
X173334340Y-91671314D02*
X173334340Y-91861790D01*
X173334340Y-91861790D02*
X173381959Y-91957028D01*
X173381959Y-91957028D02*
X173477197Y-92004647D01*
X173477197Y-92004647D02*
X173572435Y-92004647D01*
X173572435Y-92004647D02*
X173667673Y-91528457D01*
X173334340Y-92290362D02*
X173334340Y-92671314D01*
X174001007Y-92433219D02*
X173143864Y-92433219D01*
X173143864Y-92433219D02*
X173048626Y-92480838D01*
X173048626Y-92480838D02*
X173001007Y-92576076D01*
X173001007Y-92576076D02*
X173001007Y-92671314D01*
X173334340Y-92861791D02*
X173334340Y-93242743D01*
X173001007Y-93004648D02*
X173858149Y-93004648D01*
X173858149Y-93004648D02*
X173953388Y-93052267D01*
X173953388Y-93052267D02*
X174001007Y-93147505D01*
X174001007Y-93147505D02*
X174001007Y-93242743D01*
X174001007Y-94099886D02*
X174001007Y-93528458D01*
X174001007Y-93814172D02*
X173001007Y-93814172D01*
X173001007Y-93814172D02*
X173143864Y-93718934D01*
X173143864Y-93718934D02*
X173239102Y-93623696D01*
X173239102Y-93623696D02*
X173286721Y-93528458D01*
X193204727Y-105441982D02*
X193919012Y-105441982D01*
X193919012Y-105441982D02*
X194061869Y-105394363D01*
X194061869Y-105394363D02*
X194157108Y-105299125D01*
X194157108Y-105299125D02*
X194204727Y-105156268D01*
X194204727Y-105156268D02*
X194204727Y-105061030D01*
X194204727Y-105918173D02*
X193204727Y-105918173D01*
X193204727Y-105918173D02*
X193204727Y-106299125D01*
X193204727Y-106299125D02*
X193252346Y-106394363D01*
X193252346Y-106394363D02*
X193299965Y-106441982D01*
X193299965Y-106441982D02*
X193395203Y-106489601D01*
X193395203Y-106489601D02*
X193538060Y-106489601D01*
X193538060Y-106489601D02*
X193633298Y-106441982D01*
X193633298Y-106441982D02*
X193680917Y-106394363D01*
X193680917Y-106394363D02*
X193728536Y-106299125D01*
X193728536Y-106299125D02*
X193728536Y-105918173D01*
X193204727Y-106822935D02*
X193204727Y-107441982D01*
X193204727Y-107441982D02*
X193585679Y-107108649D01*
X193585679Y-107108649D02*
X193585679Y-107251506D01*
X193585679Y-107251506D02*
X193633298Y-107346744D01*
X193633298Y-107346744D02*
X193680917Y-107394363D01*
X193680917Y-107394363D02*
X193776155Y-107441982D01*
X193776155Y-107441982D02*
X194014250Y-107441982D01*
X194014250Y-107441982D02*
X194109488Y-107394363D01*
X194109488Y-107394363D02*
X194157108Y-107346744D01*
X194157108Y-107346744D02*
X194204727Y-107251506D01*
X194204727Y-107251506D02*
X194204727Y-106965792D01*
X194204727Y-106965792D02*
X194157108Y-106870554D01*
X194157108Y-106870554D02*
X194109488Y-106822935D01*
D11*
%TO.C,JP1*%
X198324718Y-104826796D02*
X200324718Y-104826796D01*
X198324718Y-107626796D02*
X198324718Y-104826796D01*
X200324718Y-104826796D02*
X200324718Y-107626796D01*
X200324718Y-107626796D02*
X198324718Y-107626796D01*
%TO.C,JP2*%
X194499908Y-104875316D02*
X196499908Y-104875316D01*
X194499908Y-107675316D02*
X194499908Y-104875316D01*
X196499908Y-104875316D02*
X196499908Y-107675316D01*
X196499908Y-107675316D02*
X194499908Y-107675316D01*
%TO.C,JP4*%
X187399908Y-104875316D02*
X189399908Y-104875316D01*
X187399908Y-107675316D02*
X187399908Y-104875316D01*
X189399908Y-104875316D02*
X189399908Y-107675316D01*
X189399908Y-107675316D02*
X187399908Y-107675316D01*
%TO.C,JP7*%
X176749908Y-104875316D02*
X178749908Y-104875316D01*
X176749908Y-107675316D02*
X176749908Y-104875316D01*
X178749908Y-104875316D02*
X178749908Y-107675316D01*
X178749908Y-107675316D02*
X176749908Y-107675316D01*
%TO.C,JP8*%
X173130805Y-104922657D02*
X175130805Y-104922657D01*
X173130805Y-107722657D02*
X173130805Y-104922657D01*
X175130805Y-104922657D02*
X175130805Y-107722657D01*
X175130805Y-107722657D02*
X173130805Y-107722657D01*
%TO.C,JP6*%
X180299908Y-104875316D02*
X182299908Y-104875316D01*
X180299908Y-107675316D02*
X180299908Y-104875316D01*
X182299908Y-104875316D02*
X182299908Y-107675316D01*
X182299908Y-107675316D02*
X180299908Y-107675316D01*
%TO.C,JP5*%
X183849908Y-104875316D02*
X185849908Y-104875316D01*
X183849908Y-107675316D02*
X183849908Y-104875316D01*
X185849908Y-104875316D02*
X185849908Y-107675316D01*
X185849908Y-107675316D02*
X183849908Y-107675316D01*
%TO.C,J1-Left1*%
X174606188Y-82923219D02*
X174606188Y-98943219D01*
X178378188Y-82047219D02*
X178886188Y-82555219D01*
X178886188Y-82555219D02*
X179394188Y-82047219D01*
X179394188Y-82047219D02*
X178378188Y-82047219D01*
X186536188Y-82923219D02*
X174606188Y-82923219D01*
X186536188Y-98943219D02*
X174606188Y-98943219D01*
X193476188Y-82923219D02*
X190036188Y-82923219D01*
X193476188Y-82923219D02*
X193476188Y-98943219D01*
X193476188Y-98943219D02*
X190036188Y-98943219D01*
%TO.C,JP3*%
X190949908Y-104875316D02*
X192949908Y-104875316D01*
X190949908Y-107675316D02*
X190949908Y-104875316D01*
X192949908Y-104875316D02*
X192949908Y-107675316D01*
X192949908Y-107675316D02*
X190949908Y-107675316D01*
%TD*%
M02*
