M48
; DRILL file {KiCad 8.0.3} date 2024-07-09T08:00:11-0700
; FORMAT={-:-/ absolute / inch / decimal}
; #@! TF.CreationDate,2024-07-09T08:00:11-07:00
; #@! TF.GenerationSoftware,Kicad,Pcbnew,8.0.3
; #@! TF.FileFunction,Plated,1,2,PTH
FMAT,2
INCH
; #@! TA.AperFunction,Plated,PTH,ViaDrill
T1C0.0157
; #@! TA.AperFunction,Plated,PTH,ComponentDrill
T2C0.0315
; #@! TA.AperFunction,Plated,PTH,ComponentDrill
T3C0.0354
; #@! TA.AperFunction,Plated,PTH,ComponentDrill
T4C0.0394
; #@! TA.AperFunction,Plated,PTH,ComponentDrill
T5C0.0591
; #@! TA.AperFunction,Plated,PTH,ComponentDrill
T6C0.0630
%
G90
G05
T1
X4.5Y-2.7188
X4.5938Y-2.625
X4.9688Y-3.3812
X5.2621Y-3.3468
X5.3438Y-3.375
X5.3438Y-3.4144
X5.4147Y-4.2665
X5.5127Y-4.0127
X6.1286Y-4.3495
X6.6277Y-3.375
X6.6885Y-3.4688
X6.6914Y-3.0938
X6.75Y-3.0938
X6.7796Y-4.3559
X7.0136Y-4.2965
X7.0478Y-4.0027
X7.075Y-4.1514
X7.0942Y-4.2965
X7.3311Y-4.0598
X7.3703Y-4.064
X7.4208Y-4.0598
X7.4715Y-4.0027
X7.5Y-4.0598
X7.6205Y-3.8705
X7.6483Y-3.8427
T2
X2.3438Y-3.5625
X2.6437Y-3.5625
X2.8233Y-3.7901
X2.8233Y-4.0901
X2.8332Y-4.2952
X2.8332Y-4.5952
X3.0709Y-3.1676
X3.075Y-3.9375
X3.3709Y-3.1676
X3.375Y-3.9375
X3.6118Y-4.1496
X3.6118Y-4.4496
X4.1132Y-2.6538
X4.4132Y-2.6538
X4.4147Y-3.0199
X4.4147Y-3.3199
X4.6545Y-2.4716
X4.9545Y-2.4716
X5.1935Y-2.7674
X5.1935Y-3.0674
X5.1961Y-2.0269
X5.1961Y-2.3269
X5.2036Y-3.3084
X5.2036Y-3.6084
X5.6904Y-4.3471
X5.9904Y-4.3471
X5.9973Y-3.4766
X5.9973Y-3.7766
X6.0Y-2.25
X6.0Y-2.55
X6.0Y-2.8125
X6.0Y-3.1125
X6.2353Y-2.7696
X6.3552Y-4.3584
X6.5353Y-2.7696
X6.6552Y-4.3584
X6.7492Y-3.679
X6.7492Y-3.979
X6.7614Y-3.2019
X6.7614Y-3.5019
X6.7642Y-2.6829
X6.7642Y-2.9829
X6.7663Y-2.25
X6.7663Y-2.55
X6.9161Y-3.163
X7.2161Y-3.163
X7.4123Y-4.7922
X7.4644Y-4.4967
X7.8581Y-4.6578
X8.14Y-4.7604
T3
X6.9422Y-3.4548
X6.9422Y-3.5548
X6.9422Y-3.6548
X6.9422Y-3.7548
X6.9428Y-3.455
X6.9428Y-3.555
X6.9428Y-3.655
X6.9428Y-3.755
X7.0422Y-3.5048
X7.0422Y-3.6048
X7.0422Y-3.7048
X7.0422Y-3.8048
X7.0428Y-3.405
X7.0428Y-3.505
X7.0428Y-3.605
X7.0428Y-3.705
T4
X6.9255Y-2.2235
X6.9255Y-2.3235
X6.9255Y-2.4235
X6.9255Y-2.5235
X6.9255Y-2.6235
X6.9255Y-2.7235
X6.9255Y-2.8235
X6.9255Y-2.9235
X6.9255Y-3.0235
X7.0255Y-3.0235
X7.1255Y-3.0235
X7.1272Y-2.3261
X7.1272Y-2.897
X7.2255Y-3.0235
X7.2256Y-2.3261
X7.324Y-2.3261
X7.324Y-2.897
X7.3255Y-3.0235
X7.4255Y-3.0235
X7.5255Y-2.2235
X7.5255Y-2.3235
X7.5255Y-2.4235
X7.5255Y-2.5235
X7.5255Y-2.6235
X7.5255Y-2.7235
X7.5255Y-2.8235
X7.5255Y-2.9235
X7.5255Y-3.0235
T5
X2.2943Y-3.0621
X2.2943Y-3.8495
X2.2943Y-4.6369
X2.3443Y-2.9621
X2.3443Y-3.7495
X2.3443Y-4.5369
X2.5443Y-2.9621
X2.5443Y-3.7495
X2.5443Y-4.5369
X2.5943Y-3.0621
X2.5943Y-3.8495
X2.5943Y-4.6369
X3.0817Y-2.6684
X3.0817Y-3.4558
X3.0817Y-4.2432
X3.1317Y-2.5684
X3.1317Y-3.3558
X3.1317Y-4.1432
X3.3317Y-2.5684
X3.3317Y-3.3558
X3.3317Y-4.1432
X3.3817Y-2.6684
X3.3817Y-3.4558
X3.3817Y-4.2432
X3.8691Y-2.1566
X3.8691Y-2.944
X3.8691Y-3.7314
X3.9191Y-2.0566
X3.9191Y-2.844
X3.9191Y-3.6314
X4.1191Y-2.0566
X4.1191Y-2.844
X4.1191Y-3.6314
X4.1691Y-2.1566
X4.1691Y-2.944
X4.1691Y-3.7314
X4.6565Y-1.9597
X4.6565Y-2.7471
X4.6565Y-3.5345
X4.7065Y-1.8597
X4.7065Y-2.6471
X4.7065Y-3.4345
X4.9065Y-1.8597
X4.9065Y-2.6471
X4.9065Y-3.4345
X4.9565Y-1.9597
X4.9565Y-2.7471
X4.9565Y-3.5345
X5.247Y-4.6259
X5.297Y-4.5259
X5.4433Y-2.9831
X5.4439Y-3.7707
X5.4446Y-2.1959
X5.4933Y-2.8831
X5.4939Y-3.6707
X5.4946Y-2.0959
X5.497Y-4.5259
X5.547Y-4.6259
X5.6933Y-2.8831
X5.6939Y-3.6707
X5.6946Y-2.0959
X5.7433Y-2.9831
X5.7439Y-3.7707
X5.7446Y-2.1959
X6.0344Y-4.6259
X6.0844Y-4.5259
X6.2313Y-3.85
X6.2313Y-2.2747
X6.2313Y-3.0621
X6.2812Y-3.75
X6.2813Y-2.1747
X6.2813Y-2.9621
X6.2844Y-4.5259
X6.3344Y-4.6259
X6.4813Y-3.75
X6.4813Y-2.1747
X6.4813Y-2.9621
X6.5312Y-3.85
X6.5313Y-2.2747
X6.5313Y-3.0621
X6.896Y-4.6871
X6.9626Y-4.5973
X7.1595Y-4.632
X7.1914Y-4.7391
X7.7378Y-4.882
X7.819Y-4.8051
X8.0069Y-4.8735
X8.0197Y-4.9846
T6
X7.4123Y-3.3239
X7.4123Y-3.9357
X7.4128Y-3.2741
X7.4128Y-3.886
T5
G00X7.0051Y-2.5958
M15
G01X7.0051Y-2.647
M16
G05
G00X7.4461Y-2.5958
M15
G01X7.4461Y-2.647
M16
G05
M30
