M48
; DRILL file {KiCad 8.0.3} date 2024-07-09T08:00:11-0700
; FORMAT={-:-/ absolute / inch / decimal}
; #@! TF.CreationDate,2024-07-09T08:00:11-07:00
; #@! TF.GenerationSoftware,Kicad,Pcbnew,8.0.3
; #@! TF.FileFunction,NonPlated,1,2,NPTH
FMAT,2
INCH
; #@! TA.AperFunction,NonPlated,NPTH,ComponentDrill
T1C0.0689
; #@! TA.AperFunction,NonPlated,NPTH,ComponentDrill
T2C0.1280
; #@! TA.AperFunction,NonPlated,NPTH,ComponentDrill
T3C0.1575
%
G90
G05
T1
X2.2443Y-3.1621
X2.2443Y-3.9495
X2.2443Y-4.7369
X2.6443Y-3.1621
X2.6443Y-3.9495
X2.6443Y-4.7369
X3.0317Y-2.7684
X3.0317Y-3.5558
X3.0317Y-4.3432
X3.4317Y-2.7684
X3.4317Y-3.5558
X3.4317Y-4.3432
X3.8191Y-2.2566
X3.8191Y-3.044
X3.8191Y-3.8314
X4.2191Y-2.2566
X4.2191Y-3.044
X4.2191Y-3.8314
X4.6065Y-2.0597
X4.6065Y-2.8471
X4.6065Y-3.6345
X5.0065Y-2.0597
X5.0065Y-2.8471
X5.0065Y-3.6345
X5.197Y-4.7259
X5.3933Y-3.0831
X5.3939Y-3.8707
X5.3946Y-2.2959
X5.597Y-4.7259
X5.7933Y-3.0831
X5.7939Y-3.8707
X5.7946Y-2.2959
X5.9844Y-4.7259
X6.1812Y-3.95
X6.1813Y-2.3747
X6.1813Y-3.1621
X6.3844Y-4.7259
X6.5812Y-3.95
X6.5813Y-2.3747
X6.5813Y-3.1621
X6.8294Y-4.7768
X7.2233Y-4.8463
X7.6566Y-4.9589
X8.0325Y-5.0957
T2
X7.2922Y-3.4048
X7.2922Y-3.8548
X7.2928Y-3.355
X7.2928Y-3.805
T3
X2.4443Y-3.1621
X2.4443Y-3.1621
X2.4443Y-3.9495
X2.4443Y-3.9495
X2.4443Y-4.7369
X2.4443Y-4.7369
X3.2317Y-2.7684
X3.2317Y-2.7684
X3.2317Y-3.5558
X3.2317Y-3.5558
X3.2317Y-4.3432
X3.2317Y-4.3432
X4.0191Y-2.2566
X4.0191Y-2.2566
X4.0191Y-3.044
X4.0191Y-3.044
X4.0191Y-3.8314
X4.0191Y-3.8314
X4.8065Y-2.0597
X4.8065Y-2.0597
X4.8065Y-2.8471
X4.8065Y-2.8471
X4.8065Y-3.6345
X4.8065Y-3.6345
X5.397Y-4.7259
X5.397Y-4.7259
X5.5933Y-3.0831
X5.5933Y-3.0831
X5.5939Y-3.8707
X5.5939Y-3.8707
X5.5946Y-2.2959
X5.5946Y-2.2959
X6.1844Y-4.7259
X6.1844Y-4.7259
X6.3812Y-3.95
X6.3812Y-3.95
X6.3813Y-2.3747
X6.3813Y-2.3747
X6.3813Y-3.1621
X6.3813Y-3.1621
X7.0263Y-4.8116
X7.0263Y-4.8116
X7.8445Y-5.0273
X7.8445Y-5.0273
M30
