%TF.GenerationSoftware,KiCad,Pcbnew,8.0.3*%
%TF.CreationDate,2024-07-09T07:59:51-07:00*%
%TF.ProjectId,Custom_KB_V1,43757374-6f6d-45f4-9b42-5f56312e6b69,rev?*%
%TF.SameCoordinates,Original*%
%TF.FileFunction,Copper,L1,Top*%
%TF.FilePolarity,Positive*%
%FSLAX46Y46*%
G04 Gerber Fmt 4.6, Leading zero omitted, Abs format (unit mm)*
G04 Created by KiCad (PCBNEW 8.0.3) date 2024-07-09 07:59:51*
%MOMM*%
%LPD*%
G01*
G04 APERTURE LIST*
G04 Aperture macros list*
%AMHorizOval*
0 Thick line with rounded ends*
0 $1 width*
0 $2 $3 position (X,Y) of the first rounded end (center of the circle)*
0 $4 $5 position (X,Y) of the second rounded end (center of the circle)*
0 Add line between two ends*
20,1,$1,$2,$3,$4,$5,0*
0 Add two circle primitives to create the rounded ends*
1,1,$1,$2,$3*
1,1,$1,$4,$5*%
%AMRotRect*
0 Rectangle, with rotation*
0 The origin of the aperture is its center*
0 $1 length*
0 $2 width*
0 $3 Rotation angle, in degrees counterclockwise*
0 Add horizontal line*
21,1,$1,$2,0,0,$3*%
G04 Aperture macros list end*
%TA.AperFunction,ComponentPad*%
%ADD10C,2.500000*%
%TD*%
%TA.AperFunction,ComponentPad*%
%ADD11R,1.600000X1.600000*%
%TD*%
%TA.AperFunction,ComponentPad*%
%ADD12O,1.600000X1.600000*%
%TD*%
%TA.AperFunction,ComponentPad*%
%ADD13R,1.500000X1.500000*%
%TD*%
%TA.AperFunction,ComponentPad*%
%ADD14C,1.500000*%
%TD*%
%TA.AperFunction,ComponentPad*%
%ADD15C,3.000000*%
%TD*%
%TA.AperFunction,ComponentPad*%
%ADD16O,2.500000X1.500000*%
%TD*%
%TA.AperFunction,ComponentPad*%
%ADD17O,1.500000X2.500000*%
%TD*%
%TA.AperFunction,ComponentPad*%
%ADD18R,2.000000X2.000000*%
%TD*%
%TA.AperFunction,ComponentPad*%
%ADD19C,2.000000*%
%TD*%
%TA.AperFunction,ComponentPad*%
%ADD20R,2.000000X3.200000*%
%TD*%
%TA.AperFunction,ComponentPad*%
%ADD21RotRect,1.600000X1.600000X80.000000*%
%TD*%
%TA.AperFunction,ComponentPad*%
%ADD22HorizOval,1.600000X0.000000X0.000000X0.000000X0.000000X0*%
%TD*%
%TA.AperFunction,ComponentPad*%
%ADD23RotRect,1.600000X1.600000X160.000000*%
%TD*%
%TA.AperFunction,ComponentPad*%
%ADD24HorizOval,1.600000X0.000000X0.000000X0.000000X0.000000X0*%
%TD*%
%TA.AperFunction,ViaPad*%
%ADD25C,0.800000*%
%TD*%
%TA.AperFunction,Conductor*%
%ADD26C,0.250000*%
%TD*%
G04 APERTURE END LIST*
D10*
%TO.P,K17,1,1*%
%TO.N,Col4*%
X58274022Y-97777025D03*
X59544022Y-95237025D03*
%TO.P,K17,2,2*%
%TO.N,Net-(D17-A)*%
X64624022Y-95237025D03*
X65894022Y-97777025D03*
%TD*%
%TO.P,K1,1,1*%
%TO.N,Col4*%
X158274022Y-57777025D03*
X159544022Y-55237025D03*
%TO.P,K1,2,2*%
%TO.N,Net-(D1-K)*%
X164624022Y-55237025D03*
X165894022Y-57777025D03*
%TD*%
D11*
%TO.P,D12,1,K*%
%TO.N,Net-(D12-K)*%
X161422223Y-110704386D03*
D12*
%TO.P,D12,2,A*%
%TO.N,Row3*%
X169042223Y-110704386D03*
%TD*%
D10*
%TO.P,K21,1,1*%
%TO.N,Col1*%
X153274022Y-117497025D03*
X154544022Y-114957025D03*
%TO.P,K21,2,2*%
%TO.N,Net-(D12-K)*%
X159624022Y-114957025D03*
X160894022Y-117497025D03*
%TD*%
D11*
%TO.P,D14,1,K*%
%TO.N,Net-(D14-K)*%
X104476270Y-67407129D03*
D12*
%TO.P,D14,2,A*%
%TO.N,Row2*%
X112096270Y-67407129D03*
%TD*%
D10*
%TO.P,K20,1,1*%
%TO.N,Col1*%
X175157295Y-119051110D03*
X176849067Y-116770232D03*
%TO.P,K20,2,2*%
%TO.N,Net-(D18-K)*%
X181851892Y-117652364D03*
X182661531Y-120374310D03*
%TD*%
D11*
%TO.P,D10,1,K*%
%TO.N,Net-(D10-K)*%
X85725000Y-100012500D03*
D12*
%TO.P,D10,2,A*%
%TO.N,Row3*%
X78105000Y-100012500D03*
%TD*%
D10*
%TO.P,K6,1,1*%
%TO.N,Col2*%
X138274022Y-95777025D03*
X139544022Y-93237025D03*
%TO.P,K6,2,2*%
%TO.N,Net-(D6-K)*%
X144624022Y-93237025D03*
X145894022Y-95777025D03*
%TD*%
%TO.P,K14,1,1*%
%TO.N,Col2*%
X78274022Y-87777025D03*
X79544022Y-85237025D03*
%TO.P,K14,2,2*%
%TO.N,Net-(D10-K)*%
X84624022Y-85237025D03*
X85894022Y-87777025D03*
%TD*%
D11*
%TO.P,D11,1,K*%
%TO.N,Row2*%
X125845081Y-62779299D03*
D12*
%TO.P,D11,2,A*%
%TO.N,Net-(D11-A)*%
X118225081Y-62779299D03*
%TD*%
D10*
%TO.P,K3,1,1*%
%TO.N,Col3*%
X158273750Y-97790000D03*
X159543750Y-95250000D03*
%TO.P,K3,2,2*%
%TO.N,Net-(D3-A)*%
X164623750Y-95250000D03*
X165893750Y-97790000D03*
%TD*%
%TO.P,K11,1,1*%
%TO.N,Col4*%
X98274022Y-74777025D03*
X99544022Y-72237025D03*
%TO.P,K11,2,2*%
%TO.N,Net-(D11-A)*%
X104624022Y-72237025D03*
X105894022Y-74777025D03*
%TD*%
%TO.P,K19,1,1*%
%TO.N,Col1*%
X196539756Y-124002739D03*
X198601899Y-122050286D03*
%TO.P,K19,2,2*%
%TO.N,Net-(D19-K)*%
X203375539Y-123787749D03*
X203700215Y-126608933D03*
%TD*%
D11*
%TO.P,D2,1,K*%
%TO.N,Row1*%
X171738933Y-81328564D03*
D12*
%TO.P,D2,2,A*%
%TO.N,Net-(D2-A)*%
X171738933Y-88948564D03*
%TD*%
D10*
%TO.P,K2,1,1*%
%TO.N,Col4*%
X158274022Y-77777025D03*
X159544022Y-75237025D03*
%TO.P,K2,2,2*%
%TO.N,Net-(D2-A)*%
X164624022Y-75237025D03*
X165894022Y-77777025D03*
%TD*%
%TO.P,K15,1,1*%
%TO.N,Col3*%
X78274022Y-107777025D03*
X79544022Y-105237025D03*
%TO.P,K15,2,2*%
%TO.N,Net-(D15-A)*%
X84624022Y-105237025D03*
X85894022Y-107777025D03*
%TD*%
%TO.P,K9,1,1*%
%TO.N,Col3*%
X118274022Y-89777025D03*
X119544022Y-87237025D03*
%TO.P,K9,2,2*%
%TO.N,Net-(D9-A)*%
X124624022Y-87237025D03*
X125894022Y-89777025D03*
%TD*%
D11*
%TO.P,D25,1,K*%
%TO.N,Row1*%
X152155682Y-110415453D03*
D12*
%TO.P,D25,2,A*%
%TO.N,Net-(D25-A)*%
X144535682Y-110415453D03*
%TD*%
D11*
%TO.P,D1,1,K*%
%TO.N,Net-(D1-K)*%
X171863807Y-57150000D03*
D12*
%TO.P,D1,2,A*%
%TO.N,Row1*%
X171863807Y-64770000D03*
%TD*%
D11*
%TO.P,D7,1,K*%
%TO.N,Row2*%
X131980016Y-59102748D03*
D12*
%TO.P,D7,2,A*%
%TO.N,Net-(D7-A)*%
X131980016Y-51482748D03*
%TD*%
D10*
%TO.P,K10,1,1*%
%TO.N,Col3*%
X98274022Y-54777025D03*
X99544022Y-52237025D03*
%TO.P,K10,2,2*%
%TO.N,Net-(D14-K)*%
X104624022Y-52237025D03*
X105894022Y-54777025D03*
%TD*%
%TO.P,K5,1,1*%
%TO.N,Col2*%
X138258759Y-75771514D03*
X139528759Y-73231514D03*
%TO.P,K5,2,2*%
%TO.N,Net-(D5-A)*%
X144608759Y-73231514D03*
X145878759Y-75771514D03*
%TD*%
D11*
%TO.P,D17,1,K*%
%TO.N,Row3*%
X71711739Y-96268613D03*
D12*
%TO.P,D17,2,A*%
%TO.N,Net-(D17-A)*%
X71711739Y-103888613D03*
%TD*%
D10*
%TO.P,K13,1,1*%
%TO.N,Col2*%
X78274022Y-67777025D03*
X79544022Y-65237025D03*
%TO.P,K13,2,2*%
%TO.N,Net-(D13-A)*%
X84624022Y-65237025D03*
X85894022Y-67777025D03*
%TD*%
D11*
%TO.P,D22,1,K*%
%TO.N,Net-(D22-K)*%
X165995772Y-70349102D03*
D12*
%TO.P,D22,2,A*%
%TO.N,Col2*%
X158375772Y-70349102D03*
%TD*%
D13*
%TO.P,J2-Right1,1*%
%TO.N,R-Row4*%
X178872538Y-96642984D03*
D14*
%TO.P,J2-Right1,2*%
%TO.N,R-Row3*%
X176332538Y-95372984D03*
%TO.P,J2-Right1,3*%
%TO.N,R-Row2*%
X178872538Y-94102984D03*
%TO.P,J2-Right1,4*%
%TO.N,R-Row1*%
X176332538Y-92832984D03*
%TO.P,J2-Right1,5*%
%TO.N,R-Col4*%
X178872538Y-91562984D03*
%TO.P,J2-Right1,6*%
%TO.N,R-Col3*%
X176332538Y-90292984D03*
%TO.P,J2-Right1,7*%
%TO.N,R-Col2*%
X178872538Y-89022984D03*
%TO.P,J2-Right1,8*%
%TO.N,R-Col1*%
X176332538Y-87752984D03*
D15*
%TO.P,J2-Right1,SH*%
%TO.N,GND*%
X188272538Y-99967984D03*
X188272538Y-84427984D03*
%TD*%
D11*
%TO.P,D8,1,K*%
%TO.N,Net-(D8-K)*%
X59531250Y-90487500D03*
D12*
%TO.P,D8,2,A*%
%TO.N,Row3*%
X67151250Y-90487500D03*
%TD*%
D10*
%TO.P,K22,1,1*%
%TO.N,Col1*%
X133274022Y-117497025D03*
X134544022Y-114957025D03*
%TO.P,K22,2,2*%
%TO.N,Net-(D25-A)*%
X139624022Y-114957025D03*
X140894022Y-117497025D03*
%TD*%
D11*
%TO.P,D6,1,K*%
%TO.N,Net-(D6-K)*%
X152331657Y-95925484D03*
D12*
%TO.P,D6,2,A*%
%TO.N,Row1*%
X152331657Y-88305484D03*
%TD*%
D11*
%TO.P,D9,1,K*%
%TO.N,Row2*%
X132172638Y-84032621D03*
D12*
%TO.P,D9,2,A*%
%TO.N,Net-(D9-A)*%
X132172638Y-91652621D03*
%TD*%
D11*
%TO.P,D23,1,K*%
%TO.N,Net-(D23-K)*%
X171811166Y-68146600D03*
D12*
%TO.P,D23,2,A*%
%TO.N,Col3*%
X171811166Y-75766600D03*
%TD*%
D10*
%TO.P,K7,1,1*%
%TO.N,Col2*%
X118274022Y-49777025D03*
X119544022Y-47237025D03*
%TO.P,K7,2,2*%
%TO.N,Net-(D7-A)*%
X124624022Y-47237025D03*
X125894022Y-49777025D03*
%TD*%
D11*
%TO.P,D13,1,K*%
%TO.N,Row3*%
X78000934Y-80456866D03*
D12*
%TO.P,D13,2,A*%
%TO.N,Net-(D13-A)*%
X85620934Y-80456866D03*
%TD*%
D11*
%TO.P,D20,1,K*%
%TO.N,Net-(D20-K)*%
X71962312Y-116719202D03*
D12*
%TO.P,D20,2,A*%
%TO.N,Row3*%
X71962312Y-109099202D03*
%TD*%
D16*
%TO.P,U1,1,0*%
%TO.N,R-Col1*%
X191647772Y-56477748D03*
%TO.P,U1,2,1*%
%TO.N,R-Col2*%
X191647772Y-59017748D03*
%TO.P,U1,3,2*%
%TO.N,R-Col3*%
X191647772Y-61557748D03*
%TO.P,U1,4,3*%
%TO.N,R-Col4*%
X191647772Y-64097748D03*
%TO.P,U1,5,4*%
%TO.N,R-Row1*%
X191647772Y-66637748D03*
%TO.P,U1,6,5*%
%TO.N,R-Row2*%
X191647772Y-69177748D03*
%TO.P,U1,7,6*%
%TO.N,R-Row3*%
X191647772Y-71717748D03*
%TO.P,U1,8,7*%
%TO.N,R-Row4*%
X191647772Y-74257748D03*
%TO.P,U1,9,8*%
%TO.N,Row4*%
X191647772Y-76797748D03*
D17*
%TO.P,U1,10,9*%
%TO.N,unconnected-(U1-9-Pad10)*%
X188607772Y-77297748D03*
%TO.P,U1,11,10*%
%TO.N,unconnected-(U1-10-Pad11)*%
X186067772Y-77297748D03*
%TO.P,U1,12,11*%
%TO.N,unconnected-(U1-11-Pad12)*%
X183527772Y-77297748D03*
%TO.P,U1,13,12*%
%TO.N,unconnected-(U1-12-Pad13)*%
X180987772Y-77297748D03*
%TO.P,U1,14,13*%
%TO.N,Col4*%
X178447772Y-77297748D03*
D16*
%TO.P,U1,15,14*%
%TO.N,Col1*%
X175407772Y-76797748D03*
%TO.P,U1,16,15*%
%TO.N,Col2*%
X175407772Y-74257748D03*
%TO.P,U1,17,26*%
%TO.N,Col3*%
X175407772Y-71717748D03*
%TO.P,U1,18,27*%
%TO.N,Row1*%
X175407772Y-69177748D03*
%TO.P,U1,19,28*%
%TO.N,Row2*%
X175407772Y-66637748D03*
%TO.P,U1,20,29*%
%TO.N,Row3*%
X175407772Y-64097748D03*
%TO.P,U1,21,3V3*%
%TO.N,unconnected-(U1-3V3-Pad21)*%
X175407772Y-61557748D03*
%TO.P,U1,22,GND*%
%TO.N,GND*%
X175407772Y-59017748D03*
%TO.P,U1,23,5V*%
%TO.N,unconnected-(U1-5V-Pad23)*%
X175407772Y-56477748D03*
%TD*%
D18*
%TO.P,SW1,A,A*%
%TO.N,Net-(D22-K)*%
X186030307Y-59083245D03*
D19*
%TO.P,SW1,B,B*%
%TO.N,Net-(D23-K)*%
X181030307Y-59083245D03*
%TO.P,SW1,C,C*%
%TO.N,Row4*%
X183530307Y-59083245D03*
D20*
%TO.P,SW1,MP*%
%TO.N,N/C*%
X189130307Y-66583245D03*
X177930307Y-66583245D03*
D19*
%TO.P,SW1,S1,S1*%
%TO.N,Net-(D24-K)*%
X181030307Y-73583245D03*
%TO.P,SW1,S2,S2*%
%TO.N,Row4*%
X186030307Y-73583245D03*
%TD*%
D10*
%TO.P,K12,1,1*%
%TO.N,Col4*%
X98274022Y-94777025D03*
X99544022Y-92237025D03*
%TO.P,K12,2,2*%
%TO.N,Net-(D21-K)*%
X104624022Y-92237025D03*
X105894022Y-94777025D03*
%TD*%
%TO.P,K16,1,1*%
%TO.N,Col3*%
X58274022Y-77777025D03*
X59544022Y-75237025D03*
%TO.P,K16,2,2*%
%TO.N,Net-(D8-K)*%
X64624022Y-75237025D03*
X65894022Y-77777025D03*
%TD*%
%TO.P,K4,1,1*%
%TO.N,Col3*%
X138291647Y-55777025D03*
X139561647Y-53237025D03*
%TO.P,K4,2,2*%
%TO.N,Net-(D4-K)*%
X144641647Y-53237025D03*
X145911647Y-55777025D03*
%TD*%
%TO.P,K8,1,1*%
%TO.N,Col2*%
X118274022Y-69777025D03*
X119544022Y-67237025D03*
%TO.P,K8,2,2*%
%TO.N,Net-(D16-K)*%
X124624022Y-67237025D03*
X125894022Y-69777025D03*
%TD*%
D11*
%TO.P,D15,1,K*%
%TO.N,Row3*%
X91739543Y-105401021D03*
D12*
%TO.P,D15,2,A*%
%TO.N,Net-(D15-A)*%
X91739543Y-113021021D03*
%TD*%
D11*
%TO.P,D24,1,K*%
%TO.N,Net-(D24-K)*%
X183288095Y-80341376D03*
D12*
%TO.P,D24,2,A*%
%TO.N,Col1*%
X175668095Y-80341376D03*
%TD*%
D11*
%TO.P,D3,1,K*%
%TO.N,Row1*%
X171430407Y-93447848D03*
D12*
%TO.P,D3,2,A*%
%TO.N,Net-(D3-A)*%
X171430407Y-101067848D03*
%TD*%
D11*
%TO.P,D4,1,K*%
%TO.N,Net-(D4-K)*%
X152400000Y-57150000D03*
D12*
%TO.P,D4,2,A*%
%TO.N,Row1*%
X152400000Y-64770000D03*
%TD*%
D21*
%TO.P,D18,1,K*%
%TO.N,Net-(D18-K)*%
X188273357Y-121721107D03*
D22*
%TO.P,D18,2,A*%
%TO.N,Row2*%
X189596550Y-114216870D03*
%TD*%
D10*
%TO.P,K18,1,1*%
%TO.N,Col4*%
X58274022Y-117777025D03*
X59544022Y-115237025D03*
%TO.P,K18,2,2*%
%TO.N,Net-(D20-K)*%
X64624022Y-115237025D03*
X65894022Y-117777025D03*
%TD*%
D11*
%TO.P,D5,1,K*%
%TO.N,Row1*%
X152400000Y-71437500D03*
D12*
%TO.P,D5,2,A*%
%TO.N,Net-(D5-A)*%
X152400000Y-79057500D03*
%TD*%
D23*
%TO.P,D19,1,K*%
%TO.N,Net-(D19-K)*%
X206756978Y-120913360D03*
D24*
%TO.P,D19,2,A*%
%TO.N,Row1*%
X199596518Y-118307167D03*
%TD*%
D11*
%TO.P,D21,1,K*%
%TO.N,Net-(D21-K)*%
X112133000Y-84326246D03*
D12*
%TO.P,D21,2,A*%
%TO.N,Row2*%
X112133000Y-76706246D03*
%TD*%
D11*
%TO.P,D16,1,K*%
%TO.N,Net-(D16-K)*%
X131915129Y-70292785D03*
D12*
%TO.P,D16,2,A*%
%TO.N,Row2*%
X131915129Y-77912785D03*
%TD*%
D13*
%TO.P,J1-Left1,1*%
%TO.N,R-Col1*%
X178886188Y-86488219D03*
D14*
%TO.P,J1-Left1,2*%
%TO.N,R-Col2*%
X176346188Y-87758219D03*
%TO.P,J1-Left1,3*%
%TO.N,R-Col3*%
X178886188Y-89028219D03*
%TO.P,J1-Left1,4*%
%TO.N,R-Col4*%
X176346188Y-90298219D03*
%TO.P,J1-Left1,5*%
%TO.N,R-Row1*%
X178886188Y-91568219D03*
%TO.P,J1-Left1,6*%
%TO.N,R-Row2*%
X176346188Y-92838219D03*
%TO.P,J1-Left1,7*%
%TO.N,R-Row3*%
X178886188Y-94108219D03*
%TO.P,J1-Left1,8*%
%TO.N,R-Row4*%
X176346188Y-95378219D03*
D15*
%TO.P,J1-Left1,SH*%
%TO.N,GND*%
X188286188Y-83163219D03*
X188286188Y-98703219D03*
%TD*%
D25*
%TO.N,Col2*%
X140022219Y-101922219D03*
X137534273Y-108368261D03*
%TO.N,R-Row2*%
X179703949Y-105445317D03*
%TO.N,R-Row3*%
X179015238Y-101668750D03*
X186210716Y-103118750D03*
%TO.N,R-Row1*%
X189775000Y-101668750D03*
X187205076Y-103224830D03*
%TO.N,R-Col3*%
X194267991Y-97603775D03*
X188488341Y-103118750D03*
%TO.N,R-Col2*%
X193560883Y-98310883D03*
X190500000Y-103118750D03*
%TO.N,Row2*%
X135731250Y-86725003D03*
X133657774Y-85007468D03*
%TO.N,Net-(D11-A)*%
X116681250Y-66675000D03*
X114300000Y-69056250D03*
%TO.N,Col3*%
X126206250Y-85882621D03*
%TO.N,Net-(D2-A)*%
X169888933Y-88106250D03*
X168343750Y-85725000D03*
%TO.N,Col4*%
X169961166Y-78581250D03*
X171450000Y-78581250D03*
%TO.N,Row1*%
X180193791Y-109131737D03*
X178144637Y-109130281D03*
X155667442Y-110476093D03*
%TO.N,Row3*%
X172200896Y-110640179D03*
%TO.N,Col3*%
X135731250Y-85725000D03*
%TD*%
D26*
%TO.N,Col2*%
X137534273Y-108368261D02*
X137534273Y-104410165D01*
X137534273Y-104410165D02*
X140022219Y-101922219D01*
%TO.N,R-Row2*%
X179136468Y-92838219D02*
X176346188Y-92838219D01*
X179961188Y-92013499D02*
X179136468Y-92838219D01*
X179961188Y-91122939D02*
X179961188Y-92013499D01*
X179331468Y-90493219D02*
X179961188Y-91122939D01*
X177170908Y-89223219D02*
X178440908Y-90493219D01*
X178440908Y-90493219D02*
X179331468Y-90493219D01*
X175900908Y-89223219D02*
X177170908Y-89223219D01*
X174371188Y-90752939D02*
X175900908Y-89223219D01*
X174371188Y-100112556D02*
X174371188Y-90752939D01*
X179703949Y-105445317D02*
X174371188Y-100112556D01*
%TO.N,R-Row3*%
X186210716Y-103118750D02*
X180465238Y-103118750D01*
X180465238Y-103118750D02*
X179015238Y-101668750D01*
%TO.N,R-Row1*%
X188761156Y-101668750D02*
X189775000Y-101668750D01*
X187205076Y-103224830D02*
X188761156Y-101668750D01*
%TO.N,R-Col3*%
X194285883Y-100358172D02*
X194285883Y-97621667D01*
X190800305Y-103843750D02*
X194285883Y-100358172D01*
X189213341Y-103843750D02*
X190800305Y-103843750D01*
X188488341Y-103118750D02*
X189213341Y-103843750D01*
X194285883Y-97621667D02*
X194267991Y-97603775D01*
%TO.N,R-Col2*%
X190500000Y-103118750D02*
X190500000Y-101371766D01*
X190500000Y-101371766D02*
X193560883Y-98310883D01*
%TO.N,R-Row1*%
X174821188Y-92842939D02*
X176095908Y-91568219D01*
X176095908Y-91568219D02*
X178886188Y-91568219D01*
X189046212Y-101800248D02*
X180381498Y-101800248D01*
X174821188Y-96239938D02*
X174821188Y-92842939D01*
X194572772Y-96273688D02*
X189046212Y-101800248D01*
X180381498Y-101800248D02*
X174821188Y-96239938D01*
X191147772Y-66637748D02*
X194572772Y-70062748D01*
X194572772Y-70062748D02*
X194572772Y-96273688D01*
%TO.N,R-Row2*%
X176346188Y-93857939D02*
X176346188Y-92838219D01*
X175271188Y-94932939D02*
X176346188Y-93857939D01*
X177622937Y-98175248D02*
X175271188Y-95823499D01*
X175271188Y-95823499D02*
X175271188Y-94932939D01*
X194122772Y-84483478D02*
X180431002Y-98175248D01*
X194122772Y-72152748D02*
X194122772Y-84483478D01*
X191147772Y-69177748D02*
X194122772Y-72152748D01*
X180431002Y-98175248D02*
X177622937Y-98175248D01*
%TO.N,R-Row3*%
X178886188Y-94750729D02*
X178886188Y-94108219D01*
X177107355Y-96137331D02*
X177499586Y-96137331D01*
X177499586Y-96137331D02*
X178886188Y-94750729D01*
X177815272Y-97725248D02*
X177107355Y-97017331D01*
X179965272Y-97725248D02*
X177815272Y-97725248D01*
X193672772Y-84017748D02*
X179965272Y-97725248D01*
X193672772Y-74242748D02*
X193672772Y-84017748D01*
X191147772Y-71717748D02*
X193672772Y-74242748D01*
X177107355Y-97017331D02*
X177107355Y-96137331D01*
%TO.N,R-Row4*%
X180975000Y-94565520D02*
X178890272Y-96650248D01*
X180975000Y-85725000D02*
X180975000Y-94565520D01*
X185737500Y-80962500D02*
X180975000Y-85725000D01*
X193222772Y-78239728D02*
X190500000Y-80962500D01*
X190500000Y-80962500D02*
X185737500Y-80962500D01*
X193222772Y-76332748D02*
X193222772Y-78239728D01*
X191147772Y-74257748D02*
X193222772Y-76332748D01*
%TO.N,Row4*%
X186030307Y-73583245D02*
X186030307Y-61583245D01*
X186030307Y-61583245D02*
X183530307Y-59083245D01*
X191147772Y-76797748D02*
X187933269Y-73583245D01*
X187933269Y-73583245D02*
X186030307Y-73583245D01*
%TO.N,Col4*%
X156506256Y-57777025D02*
X158274022Y-57777025D01*
X150018750Y-64264531D02*
X156506256Y-57777025D01*
X153949525Y-75237025D02*
X150018750Y-71306250D01*
X150018750Y-71306250D02*
X150018750Y-64264531D01*
X159544022Y-75237025D02*
X153949525Y-75237025D01*
%TO.N,Row2*%
X135705948Y-86725003D02*
X135731250Y-86725003D01*
X135100306Y-86450000D02*
X135430945Y-86450000D01*
X133657774Y-85007468D02*
X135100306Y-86450000D01*
X135430945Y-86450000D02*
X135705948Y-86725003D01*
%TO.N,Net-(D11-A)*%
X116681250Y-66675000D02*
X114300000Y-69056250D01*
X104624022Y-73507025D02*
X104624022Y-72237025D01*
X105894022Y-74777025D02*
X104624022Y-73507025D01*
%TO.N,Col3*%
X118274022Y-92868750D02*
X118274022Y-89777025D01*
X126097297Y-100692025D02*
X118274022Y-92868750D01*
X154101725Y-100692025D02*
X126097297Y-100692025D01*
X159543750Y-95250000D02*
X154101725Y-100692025D01*
X101119022Y-50662025D02*
X99544022Y-52237025D01*
X105430775Y-50662025D02*
X101119022Y-50662025D01*
X138106647Y-54692025D02*
X109460775Y-54692025D01*
X109460775Y-54692025D02*
X105430775Y-50662025D01*
X139561647Y-53237025D02*
X138106647Y-54692025D01*
X135731250Y-85725000D02*
X135731250Y-57839655D01*
X137793880Y-55777025D02*
X138291647Y-55777025D01*
X125985654Y-85662025D02*
X126206250Y-85882621D01*
X135731250Y-57839655D02*
X137793880Y-55777025D01*
X119544022Y-87237025D02*
X121119022Y-85662025D01*
X121119022Y-85662025D02*
X125985654Y-85662025D01*
X79544022Y-105237025D02*
X81311788Y-103469259D01*
X81311788Y-103469259D02*
X108461991Y-103469259D01*
X108461991Y-103469259D02*
X118274022Y-93657228D01*
X118274022Y-93657228D02*
X118274022Y-89777025D01*
X58274022Y-85080896D02*
X58274022Y-77777025D01*
X78430151Y-105237025D02*
X58274022Y-85080896D01*
X79544022Y-105237025D02*
X78430151Y-105237025D01*
%TO.N,Net-(D2-A)*%
X168343750Y-85725000D02*
X169888933Y-87270183D01*
X169888933Y-87270183D02*
X169888933Y-88106250D01*
X164624022Y-75237025D02*
X165894022Y-76507025D01*
X165894022Y-76507025D02*
X165894022Y-77777025D01*
%TO.N,Net-(D14-K)*%
X105894022Y-65989377D02*
X104476270Y-67407129D01*
X105894022Y-54777025D02*
X105894022Y-65989377D01*
%TO.N,Row2*%
X112133000Y-71651750D02*
X112133000Y-76706246D01*
X111918750Y-71437500D02*
X112133000Y-71651750D01*
X112096270Y-69759505D02*
X111918750Y-69937025D01*
X112096270Y-67407129D02*
X112096270Y-69759505D01*
X113567871Y-67407129D02*
X112096270Y-67407129D01*
X118195701Y-62779299D02*
X113567871Y-67407129D01*
X118225083Y-62779299D02*
X118195701Y-62779299D01*
X121901634Y-59102748D02*
X118225083Y-62779299D01*
X131980016Y-59102748D02*
X121901634Y-59102748D01*
%TO.N,Net-(D4-K)*%
X145911647Y-54507025D02*
X145911647Y-55777025D01*
X144641647Y-53237025D02*
X145911647Y-54507025D01*
X148645775Y-55777025D02*
X145911647Y-55777025D01*
X152400000Y-57150000D02*
X150018750Y-57150000D01*
X150018750Y-57150000D02*
X148645775Y-55777025D01*
%TO.N,Col4*%
X150018750Y-88106250D02*
X150018750Y-85534530D01*
X132782621Y-85157621D02*
X135731250Y-88106250D01*
X157776255Y-77777025D02*
X158274022Y-77777025D01*
X116113871Y-85157621D02*
X132782621Y-85157621D01*
X114300000Y-83343750D02*
X116113871Y-85157621D01*
X135731250Y-88106250D02*
X150018750Y-88106250D01*
X114300000Y-71437500D02*
X114300000Y-83343750D01*
X113524525Y-70662025D02*
X114300000Y-71437500D01*
X101119022Y-70662025D02*
X113524525Y-70662025D01*
X99544022Y-72237025D02*
X101119022Y-70662025D01*
X150018750Y-85534530D02*
X157776255Y-77777025D01*
X99544022Y-92237025D02*
X99544022Y-76047025D01*
X99544022Y-76047025D02*
X98274022Y-74777025D01*
X176664270Y-78581250D02*
X178447772Y-76797748D01*
X171450000Y-78581250D02*
X176664270Y-78581250D01*
X169961166Y-80070084D02*
X169961166Y-78581250D01*
X166687500Y-83343750D02*
X169961166Y-80070084D01*
X158274022Y-79865782D02*
X161751990Y-83343750D01*
X161751990Y-83343750D02*
X166687500Y-83343750D01*
X158274022Y-77777025D02*
X158274022Y-79865782D01*
%TO.N,Col1*%
X196196242Y-124346253D02*
X196539756Y-124002739D01*
X180975000Y-121362017D02*
X180975000Y-122367850D01*
X178664093Y-119051110D02*
X180975000Y-121362017D01*
X182953403Y-124346253D02*
X196196242Y-124346253D01*
X175157295Y-119051110D02*
X178664093Y-119051110D01*
X180975000Y-122367850D02*
X182953403Y-124346253D01*
X173842640Y-119051110D02*
X175157295Y-119051110D01*
X170481725Y-122412025D02*
X173842640Y-119051110D01*
X156100265Y-122412025D02*
X170481725Y-122412025D01*
X153274022Y-119585782D02*
X156100265Y-122412025D01*
X153274022Y-117497025D02*
X153274022Y-119585782D01*
X152776255Y-117497025D02*
X153274022Y-117497025D01*
X146448280Y-123825000D02*
X152776255Y-117497025D01*
X133274022Y-119585782D02*
X137513240Y-123825000D01*
X137513240Y-123825000D02*
X146448280Y-123825000D01*
X133274022Y-117497025D02*
X133274022Y-119585782D01*
%TO.N,Col4*%
X98274022Y-73507025D02*
X98274022Y-74777025D01*
X99544022Y-72237025D02*
X98274022Y-73507025D01*
X98274022Y-93507025D02*
X98274022Y-94777025D01*
X99544022Y-92237025D02*
X98274022Y-93507025D01*
X58274022Y-116507025D02*
X58274022Y-117777025D01*
X59544022Y-115237025D02*
X58274022Y-116507025D01*
%TO.N,Col3*%
X78274022Y-106507025D02*
X78274022Y-107777025D01*
X79544022Y-105237025D02*
X78274022Y-106507025D01*
%TO.N,Col4*%
X58274022Y-96507025D02*
X58274022Y-97777025D01*
X59544022Y-95237025D02*
X58274022Y-96507025D01*
%TO.N,Col2*%
X78274022Y-86507025D02*
X78274022Y-87777025D01*
X79544022Y-85237025D02*
X78274022Y-86507025D01*
%TO.N,Col3*%
X59544022Y-75237025D02*
X58274022Y-76507025D01*
X58274022Y-76507025D02*
X58274022Y-77777025D01*
%TO.N,Col2*%
X78274022Y-66507025D02*
X78274022Y-67777025D01*
X79544022Y-65237025D02*
X78274022Y-66507025D01*
%TO.N,Col3*%
X98274022Y-53507025D02*
X98274022Y-54777025D01*
X99544022Y-52237025D02*
X98274022Y-53507025D01*
%TO.N,Col2*%
X118274022Y-48507025D02*
X118274022Y-49777025D01*
X119544022Y-47237025D02*
X118274022Y-48507025D01*
X138258759Y-74501514D02*
X138258759Y-75771514D01*
X139528759Y-73231514D02*
X138258759Y-74501514D01*
X118274022Y-68507025D02*
X118274022Y-69777025D01*
X119544022Y-67237025D02*
X118274022Y-68507025D01*
%TO.N,Col3*%
X118274022Y-88507025D02*
X118274022Y-89777025D01*
X119544022Y-87237025D02*
X118274022Y-88507025D01*
X138291647Y-54507025D02*
X138291647Y-55777025D01*
X139561647Y-53237025D02*
X138291647Y-54507025D01*
%TO.N,Col4*%
X158274022Y-56507025D02*
X158274022Y-57777025D01*
X159544022Y-55237025D02*
X158274022Y-56507025D01*
X158274022Y-76507025D02*
X158274022Y-77777025D01*
X159544022Y-75237025D02*
X158274022Y-76507025D01*
%TO.N,Col2*%
X138274022Y-94507025D02*
X138274022Y-95777025D01*
X139544022Y-93237025D02*
X138274022Y-94507025D01*
%TO.N,Col3*%
X159543750Y-95250000D02*
X159543750Y-96520000D01*
X159543750Y-96520000D02*
X158273750Y-97790000D01*
%TO.N,Col1*%
X133274022Y-116227025D02*
X133274022Y-117497025D01*
X134544022Y-114957025D02*
X133274022Y-116227025D01*
X153274022Y-116227025D02*
X153274022Y-117497025D01*
X154544022Y-114957025D02*
X153274022Y-116227025D01*
X176849067Y-116770232D02*
X175157295Y-118462004D01*
X175157295Y-118462004D02*
X175157295Y-119051110D01*
X196649446Y-124002739D02*
X196539756Y-124002739D01*
X198601899Y-122050286D02*
X196649446Y-124002739D01*
%TO.N,Net-(D19-K)*%
X203375539Y-123787749D02*
X203375539Y-126284257D01*
X203375539Y-126284257D02*
X203700215Y-126608933D01*
X203882589Y-123787749D02*
X203375539Y-123787749D01*
X206756978Y-120913360D02*
X203882589Y-123787749D01*
%TO.N,Row1*%
X154682981Y-88305484D02*
X152331657Y-88305484D01*
X159825345Y-93447848D02*
X154682981Y-88305484D01*
%TO.N,Net-(D6-K)*%
X149480038Y-95925484D02*
X152331657Y-95925484D01*
X149331579Y-95777025D02*
X149480038Y-95925484D01*
%TO.N,Row1*%
X173611418Y-71474102D02*
X173739635Y-71345885D01*
X152400000Y-71437500D02*
X152436602Y-71474102D01*
X173739635Y-71345885D02*
X175907772Y-69177748D01*
X170686166Y-74399354D02*
X173739635Y-71345885D01*
X152436602Y-71474102D02*
X173611418Y-71474102D01*
%TO.N,Net-(D6-K)*%
X145894022Y-95777025D02*
X149331579Y-95777025D01*
%TO.N,Row1*%
X152400000Y-71437500D02*
X152400000Y-64770000D01*
X170613933Y-82453564D02*
X171738933Y-81328564D01*
X170613933Y-92631374D02*
X170613933Y-82453564D01*
X171430407Y-93447848D02*
X170613933Y-92631374D01*
X159825345Y-93447848D02*
X171430407Y-93447848D01*
X186143263Y-109131737D02*
X188118750Y-107156250D01*
X180193791Y-109131737D02*
X186143263Y-109131737D01*
X180192335Y-109130281D02*
X180193791Y-109131737D01*
X178144637Y-109130281D02*
X180192335Y-109130281D01*
X179812584Y-109130281D02*
X179822365Y-109140062D01*
X170686166Y-80275797D02*
X170686166Y-74399354D01*
X190868737Y-109579386D02*
X199596518Y-118307167D01*
X155667442Y-110476093D02*
X156564149Y-109579386D01*
X155606802Y-110415453D02*
X155667442Y-110476093D01*
X156564149Y-109579386D02*
X190868737Y-109579386D01*
X152155682Y-110415453D02*
X155606802Y-110415453D01*
X171863807Y-65133783D02*
X175907772Y-69177748D01*
X171863807Y-64770000D02*
X171863807Y-65133783D01*
X171738933Y-81328564D02*
X170686166Y-80275797D01*
%TO.N,Net-(D1-K)*%
X166521047Y-57150000D02*
X165894022Y-57777025D01*
X164624022Y-55237025D02*
X165894022Y-56507025D01*
X165894022Y-56507025D02*
X165894022Y-57777025D01*
X171863807Y-57150000D02*
X166521047Y-57150000D01*
%TO.N,Net-(D3-A)*%
X171430407Y-101067848D02*
X168152559Y-97790000D01*
X165893750Y-96520000D02*
X165893750Y-97790000D01*
X168152559Y-97790000D02*
X165893750Y-97790000D01*
X164623750Y-95250000D02*
X165893750Y-96520000D01*
%TO.N,Net-(D12-K)*%
X159624022Y-116227025D02*
X159624022Y-114957025D01*
X161422223Y-113158824D02*
X159624022Y-114957025D01*
X161422223Y-110704386D02*
X161422223Y-113158824D01*
X160894022Y-117497025D02*
X159624022Y-116227025D01*
%TO.N,Col3*%
X171811166Y-75766600D02*
X175860018Y-71717748D01*
X175860018Y-71717748D02*
X175907772Y-71717748D01*
%TO.N,Row3*%
X172136689Y-110704386D02*
X172200896Y-110640179D01*
X169042223Y-110704386D02*
X172136689Y-110704386D01*
%TO.N,Net-(D6-K)*%
X145894022Y-95777025D02*
X144624022Y-94507025D01*
X144624022Y-94507025D02*
X144624022Y-93237025D01*
%TD*%
M02*
