%TF.GenerationSoftware,KiCad,Pcbnew,8.0.3*%
%TF.CreationDate,2024-07-10T08:52:57-07:00*%
%TF.ProjectId,Custom_KB_V1,43757374-6f6d-45f4-9b42-5f56312e6b69,rev?*%
%TF.SameCoordinates,Original*%
%TF.FileFunction,Legend,Bot*%
%TF.FilePolarity,Positive*%
%FSLAX46Y46*%
G04 Gerber Fmt 4.6, Leading zero omitted, Abs format (unit mm)*
G04 Created by KiCad (PCBNEW 8.0.3) date 2024-07-10 08:52:57*
%MOMM*%
%LPD*%
G01*
G04 APERTURE LIST*
%ADD10C,0.150000*%
%ADD11C,0.120000*%
%ADD12C,0.100000*%
G04 APERTURE END LIST*
D10*
X176738451Y-60435444D02*
X176786070Y-60578301D01*
X176786070Y-60578301D02*
X176786070Y-60816396D01*
X176786070Y-60816396D02*
X176738451Y-60911634D01*
X176738451Y-60911634D02*
X176690831Y-60959253D01*
X176690831Y-60959253D02*
X176595593Y-61006872D01*
X176595593Y-61006872D02*
X176500355Y-61006872D01*
X176500355Y-61006872D02*
X176405117Y-60959253D01*
X176405117Y-60959253D02*
X176357498Y-60911634D01*
X176357498Y-60911634D02*
X176309879Y-60816396D01*
X176309879Y-60816396D02*
X176262260Y-60625920D01*
X176262260Y-60625920D02*
X176214641Y-60530682D01*
X176214641Y-60530682D02*
X176167022Y-60483063D01*
X176167022Y-60483063D02*
X176071784Y-60435444D01*
X176071784Y-60435444D02*
X175976546Y-60435444D01*
X175976546Y-60435444D02*
X175881308Y-60483063D01*
X175881308Y-60483063D02*
X175833689Y-60530682D01*
X175833689Y-60530682D02*
X175786070Y-60625920D01*
X175786070Y-60625920D02*
X175786070Y-60864015D01*
X175786070Y-60864015D02*
X175833689Y-61006872D01*
X175786070Y-61340206D02*
X176786070Y-61578301D01*
X176786070Y-61578301D02*
X176071784Y-61768777D01*
X176071784Y-61768777D02*
X176786070Y-61959253D01*
X176786070Y-61959253D02*
X175786070Y-62197349D01*
X176786070Y-63102110D02*
X176786070Y-62530682D01*
X176786070Y-62816396D02*
X175786070Y-62816396D01*
X175786070Y-62816396D02*
X175928927Y-62721158D01*
X175928927Y-62721158D02*
X176024165Y-62625920D01*
X176024165Y-62625920D02*
X176071784Y-62530682D01*
X200579537Y-105393462D02*
X201293822Y-105393462D01*
X201293822Y-105393462D02*
X201436679Y-105345843D01*
X201436679Y-105345843D02*
X201531918Y-105250605D01*
X201531918Y-105250605D02*
X201579537Y-105107748D01*
X201579537Y-105107748D02*
X201579537Y-105012510D01*
X201579537Y-105869653D02*
X200579537Y-105869653D01*
X200579537Y-105869653D02*
X200579537Y-106250605D01*
X200579537Y-106250605D02*
X200627156Y-106345843D01*
X200627156Y-106345843D02*
X200674775Y-106393462D01*
X200674775Y-106393462D02*
X200770013Y-106441081D01*
X200770013Y-106441081D02*
X200912870Y-106441081D01*
X200912870Y-106441081D02*
X201008108Y-106393462D01*
X201008108Y-106393462D02*
X201055727Y-106345843D01*
X201055727Y-106345843D02*
X201103346Y-106250605D01*
X201103346Y-106250605D02*
X201103346Y-105869653D01*
X201579537Y-107393462D02*
X201579537Y-106822034D01*
X201579537Y-107107748D02*
X200579537Y-107107748D01*
X200579537Y-107107748D02*
X200722394Y-107012510D01*
X200722394Y-107012510D02*
X200817632Y-106917272D01*
X200817632Y-106917272D02*
X200865251Y-106822034D01*
X196754727Y-105441982D02*
X197469012Y-105441982D01*
X197469012Y-105441982D02*
X197611869Y-105394363D01*
X197611869Y-105394363D02*
X197707108Y-105299125D01*
X197707108Y-105299125D02*
X197754727Y-105156268D01*
X197754727Y-105156268D02*
X197754727Y-105061030D01*
X197754727Y-105918173D02*
X196754727Y-105918173D01*
X196754727Y-105918173D02*
X196754727Y-106299125D01*
X196754727Y-106299125D02*
X196802346Y-106394363D01*
X196802346Y-106394363D02*
X196849965Y-106441982D01*
X196849965Y-106441982D02*
X196945203Y-106489601D01*
X196945203Y-106489601D02*
X197088060Y-106489601D01*
X197088060Y-106489601D02*
X197183298Y-106441982D01*
X197183298Y-106441982D02*
X197230917Y-106394363D01*
X197230917Y-106394363D02*
X197278536Y-106299125D01*
X197278536Y-106299125D02*
X197278536Y-105918173D01*
X196849965Y-106870554D02*
X196802346Y-106918173D01*
X196802346Y-106918173D02*
X196754727Y-107013411D01*
X196754727Y-107013411D02*
X196754727Y-107251506D01*
X196754727Y-107251506D02*
X196802346Y-107346744D01*
X196802346Y-107346744D02*
X196849965Y-107394363D01*
X196849965Y-107394363D02*
X196945203Y-107441982D01*
X196945203Y-107441982D02*
X197040441Y-107441982D01*
X197040441Y-107441982D02*
X197183298Y-107394363D01*
X197183298Y-107394363D02*
X197754727Y-106822935D01*
X197754727Y-106822935D02*
X197754727Y-107441982D01*
X189654727Y-105441982D02*
X190369012Y-105441982D01*
X190369012Y-105441982D02*
X190511869Y-105394363D01*
X190511869Y-105394363D02*
X190607108Y-105299125D01*
X190607108Y-105299125D02*
X190654727Y-105156268D01*
X190654727Y-105156268D02*
X190654727Y-105061030D01*
X190654727Y-105918173D02*
X189654727Y-105918173D01*
X189654727Y-105918173D02*
X189654727Y-106299125D01*
X189654727Y-106299125D02*
X189702346Y-106394363D01*
X189702346Y-106394363D02*
X189749965Y-106441982D01*
X189749965Y-106441982D02*
X189845203Y-106489601D01*
X189845203Y-106489601D02*
X189988060Y-106489601D01*
X189988060Y-106489601D02*
X190083298Y-106441982D01*
X190083298Y-106441982D02*
X190130917Y-106394363D01*
X190130917Y-106394363D02*
X190178536Y-106299125D01*
X190178536Y-106299125D02*
X190178536Y-105918173D01*
X189988060Y-107346744D02*
X190654727Y-107346744D01*
X189607108Y-107108649D02*
X190321393Y-106870554D01*
X190321393Y-106870554D02*
X190321393Y-107489601D01*
X179004727Y-105441982D02*
X179719012Y-105441982D01*
X179719012Y-105441982D02*
X179861869Y-105394363D01*
X179861869Y-105394363D02*
X179957108Y-105299125D01*
X179957108Y-105299125D02*
X180004727Y-105156268D01*
X180004727Y-105156268D02*
X180004727Y-105061030D01*
X180004727Y-105918173D02*
X179004727Y-105918173D01*
X179004727Y-105918173D02*
X179004727Y-106299125D01*
X179004727Y-106299125D02*
X179052346Y-106394363D01*
X179052346Y-106394363D02*
X179099965Y-106441982D01*
X179099965Y-106441982D02*
X179195203Y-106489601D01*
X179195203Y-106489601D02*
X179338060Y-106489601D01*
X179338060Y-106489601D02*
X179433298Y-106441982D01*
X179433298Y-106441982D02*
X179480917Y-106394363D01*
X179480917Y-106394363D02*
X179528536Y-106299125D01*
X179528536Y-106299125D02*
X179528536Y-105918173D01*
X179004727Y-106822935D02*
X179004727Y-107489601D01*
X179004727Y-107489601D02*
X180004727Y-107061030D01*
X175385624Y-105489323D02*
X176099909Y-105489323D01*
X176099909Y-105489323D02*
X176242766Y-105441704D01*
X176242766Y-105441704D02*
X176338005Y-105346466D01*
X176338005Y-105346466D02*
X176385624Y-105203609D01*
X176385624Y-105203609D02*
X176385624Y-105108371D01*
X176385624Y-105965514D02*
X175385624Y-105965514D01*
X175385624Y-105965514D02*
X175385624Y-106346466D01*
X175385624Y-106346466D02*
X175433243Y-106441704D01*
X175433243Y-106441704D02*
X175480862Y-106489323D01*
X175480862Y-106489323D02*
X175576100Y-106536942D01*
X175576100Y-106536942D02*
X175718957Y-106536942D01*
X175718957Y-106536942D02*
X175814195Y-106489323D01*
X175814195Y-106489323D02*
X175861814Y-106441704D01*
X175861814Y-106441704D02*
X175909433Y-106346466D01*
X175909433Y-106346466D02*
X175909433Y-105965514D01*
X175814195Y-107108371D02*
X175766576Y-107013133D01*
X175766576Y-107013133D02*
X175718957Y-106965514D01*
X175718957Y-106965514D02*
X175623719Y-106917895D01*
X175623719Y-106917895D02*
X175576100Y-106917895D01*
X175576100Y-106917895D02*
X175480862Y-106965514D01*
X175480862Y-106965514D02*
X175433243Y-107013133D01*
X175433243Y-107013133D02*
X175385624Y-107108371D01*
X175385624Y-107108371D02*
X175385624Y-107298847D01*
X175385624Y-107298847D02*
X175433243Y-107394085D01*
X175433243Y-107394085D02*
X175480862Y-107441704D01*
X175480862Y-107441704D02*
X175576100Y-107489323D01*
X175576100Y-107489323D02*
X175623719Y-107489323D01*
X175623719Y-107489323D02*
X175718957Y-107441704D01*
X175718957Y-107441704D02*
X175766576Y-107394085D01*
X175766576Y-107394085D02*
X175814195Y-107298847D01*
X175814195Y-107298847D02*
X175814195Y-107108371D01*
X175814195Y-107108371D02*
X175861814Y-107013133D01*
X175861814Y-107013133D02*
X175909433Y-106965514D01*
X175909433Y-106965514D02*
X176004671Y-106917895D01*
X176004671Y-106917895D02*
X176195147Y-106917895D01*
X176195147Y-106917895D02*
X176290385Y-106965514D01*
X176290385Y-106965514D02*
X176338005Y-107013133D01*
X176338005Y-107013133D02*
X176385624Y-107108371D01*
X176385624Y-107108371D02*
X176385624Y-107298847D01*
X176385624Y-107298847D02*
X176338005Y-107394085D01*
X176338005Y-107394085D02*
X176290385Y-107441704D01*
X176290385Y-107441704D02*
X176195147Y-107489323D01*
X176195147Y-107489323D02*
X176004671Y-107489323D01*
X176004671Y-107489323D02*
X175909433Y-107441704D01*
X175909433Y-107441704D02*
X175861814Y-107394085D01*
X175861814Y-107394085D02*
X175814195Y-107298847D01*
X176357407Y-89046437D02*
X177071692Y-89046437D01*
X177071692Y-89046437D02*
X177214549Y-88998818D01*
X177214549Y-88998818D02*
X177309788Y-88903580D01*
X177309788Y-88903580D02*
X177357407Y-88760723D01*
X177357407Y-88760723D02*
X177357407Y-88665485D01*
X176452645Y-89475009D02*
X176405026Y-89522628D01*
X176405026Y-89522628D02*
X176357407Y-89617866D01*
X176357407Y-89617866D02*
X176357407Y-89855961D01*
X176357407Y-89855961D02*
X176405026Y-89951199D01*
X176405026Y-89951199D02*
X176452645Y-89998818D01*
X176452645Y-89998818D02*
X176547883Y-90046437D01*
X176547883Y-90046437D02*
X176643121Y-90046437D01*
X176643121Y-90046437D02*
X176785978Y-89998818D01*
X176785978Y-89998818D02*
X177357407Y-89427390D01*
X177357407Y-89427390D02*
X177357407Y-90046437D01*
X176976454Y-90475009D02*
X176976454Y-91236914D01*
X177357407Y-92284532D02*
X176881216Y-91951199D01*
X177357407Y-91713104D02*
X176357407Y-91713104D01*
X176357407Y-91713104D02*
X176357407Y-92094056D01*
X176357407Y-92094056D02*
X176405026Y-92189294D01*
X176405026Y-92189294D02*
X176452645Y-92236913D01*
X176452645Y-92236913D02*
X176547883Y-92284532D01*
X176547883Y-92284532D02*
X176690740Y-92284532D01*
X176690740Y-92284532D02*
X176785978Y-92236913D01*
X176785978Y-92236913D02*
X176833597Y-92189294D01*
X176833597Y-92189294D02*
X176881216Y-92094056D01*
X176881216Y-92094056D02*
X176881216Y-91713104D01*
X177357407Y-92713104D02*
X176690740Y-92713104D01*
X176357407Y-92713104D02*
X176405026Y-92665485D01*
X176405026Y-92665485D02*
X176452645Y-92713104D01*
X176452645Y-92713104D02*
X176405026Y-92760723D01*
X176405026Y-92760723D02*
X176357407Y-92713104D01*
X176357407Y-92713104D02*
X176452645Y-92713104D01*
X176690740Y-93617865D02*
X177500264Y-93617865D01*
X177500264Y-93617865D02*
X177595502Y-93570246D01*
X177595502Y-93570246D02*
X177643121Y-93522627D01*
X177643121Y-93522627D02*
X177690740Y-93427389D01*
X177690740Y-93427389D02*
X177690740Y-93284532D01*
X177690740Y-93284532D02*
X177643121Y-93189294D01*
X177309788Y-93617865D02*
X177357407Y-93522627D01*
X177357407Y-93522627D02*
X177357407Y-93332151D01*
X177357407Y-93332151D02*
X177309788Y-93236913D01*
X177309788Y-93236913D02*
X177262168Y-93189294D01*
X177262168Y-93189294D02*
X177166930Y-93141675D01*
X177166930Y-93141675D02*
X176881216Y-93141675D01*
X176881216Y-93141675D02*
X176785978Y-93189294D01*
X176785978Y-93189294D02*
X176738359Y-93236913D01*
X176738359Y-93236913D02*
X176690740Y-93332151D01*
X176690740Y-93332151D02*
X176690740Y-93522627D01*
X176690740Y-93522627D02*
X176738359Y-93617865D01*
X177357407Y-94094056D02*
X176357407Y-94094056D01*
X177357407Y-94522627D02*
X176833597Y-94522627D01*
X176833597Y-94522627D02*
X176738359Y-94475008D01*
X176738359Y-94475008D02*
X176690740Y-94379770D01*
X176690740Y-94379770D02*
X176690740Y-94236913D01*
X176690740Y-94236913D02*
X176738359Y-94141675D01*
X176738359Y-94141675D02*
X176785978Y-94094056D01*
X176690740Y-94855961D02*
X176690740Y-95236913D01*
X176357407Y-94998818D02*
X177214549Y-94998818D01*
X177214549Y-94998818D02*
X177309788Y-95046437D01*
X177309788Y-95046437D02*
X177357407Y-95141675D01*
X177357407Y-95141675D02*
X177357407Y-95236913D01*
X177357407Y-96094056D02*
X177357407Y-95522628D01*
X177357407Y-95808342D02*
X176357407Y-95808342D01*
X176357407Y-95808342D02*
X176500264Y-95713104D01*
X176500264Y-95713104D02*
X176595502Y-95617866D01*
X176595502Y-95617866D02*
X176643121Y-95522628D01*
X182554727Y-105441982D02*
X183269012Y-105441982D01*
X183269012Y-105441982D02*
X183411869Y-105394363D01*
X183411869Y-105394363D02*
X183507108Y-105299125D01*
X183507108Y-105299125D02*
X183554727Y-105156268D01*
X183554727Y-105156268D02*
X183554727Y-105061030D01*
X183554727Y-105918173D02*
X182554727Y-105918173D01*
X182554727Y-105918173D02*
X182554727Y-106299125D01*
X182554727Y-106299125D02*
X182602346Y-106394363D01*
X182602346Y-106394363D02*
X182649965Y-106441982D01*
X182649965Y-106441982D02*
X182745203Y-106489601D01*
X182745203Y-106489601D02*
X182888060Y-106489601D01*
X182888060Y-106489601D02*
X182983298Y-106441982D01*
X182983298Y-106441982D02*
X183030917Y-106394363D01*
X183030917Y-106394363D02*
X183078536Y-106299125D01*
X183078536Y-106299125D02*
X183078536Y-105918173D01*
X182554727Y-107346744D02*
X182554727Y-107156268D01*
X182554727Y-107156268D02*
X182602346Y-107061030D01*
X182602346Y-107061030D02*
X182649965Y-107013411D01*
X182649965Y-107013411D02*
X182792822Y-106918173D01*
X182792822Y-106918173D02*
X182983298Y-106870554D01*
X182983298Y-106870554D02*
X183364250Y-106870554D01*
X183364250Y-106870554D02*
X183459488Y-106918173D01*
X183459488Y-106918173D02*
X183507108Y-106965792D01*
X183507108Y-106965792D02*
X183554727Y-107061030D01*
X183554727Y-107061030D02*
X183554727Y-107251506D01*
X183554727Y-107251506D02*
X183507108Y-107346744D01*
X183507108Y-107346744D02*
X183459488Y-107394363D01*
X183459488Y-107394363D02*
X183364250Y-107441982D01*
X183364250Y-107441982D02*
X183126155Y-107441982D01*
X183126155Y-107441982D02*
X183030917Y-107394363D01*
X183030917Y-107394363D02*
X182983298Y-107346744D01*
X182983298Y-107346744D02*
X182935679Y-107251506D01*
X182935679Y-107251506D02*
X182935679Y-107061030D01*
X182935679Y-107061030D02*
X182983298Y-106965792D01*
X182983298Y-106965792D02*
X183030917Y-106918173D01*
X183030917Y-106918173D02*
X183126155Y-106870554D01*
X186104727Y-105441982D02*
X186819012Y-105441982D01*
X186819012Y-105441982D02*
X186961869Y-105394363D01*
X186961869Y-105394363D02*
X187057108Y-105299125D01*
X187057108Y-105299125D02*
X187104727Y-105156268D01*
X187104727Y-105156268D02*
X187104727Y-105061030D01*
X187104727Y-105918173D02*
X186104727Y-105918173D01*
X186104727Y-105918173D02*
X186104727Y-106299125D01*
X186104727Y-106299125D02*
X186152346Y-106394363D01*
X186152346Y-106394363D02*
X186199965Y-106441982D01*
X186199965Y-106441982D02*
X186295203Y-106489601D01*
X186295203Y-106489601D02*
X186438060Y-106489601D01*
X186438060Y-106489601D02*
X186533298Y-106441982D01*
X186533298Y-106441982D02*
X186580917Y-106394363D01*
X186580917Y-106394363D02*
X186628536Y-106299125D01*
X186628536Y-106299125D02*
X186628536Y-105918173D01*
X186104727Y-107394363D02*
X186104727Y-106918173D01*
X186104727Y-106918173D02*
X186580917Y-106870554D01*
X186580917Y-106870554D02*
X186533298Y-106918173D01*
X186533298Y-106918173D02*
X186485679Y-107013411D01*
X186485679Y-107013411D02*
X186485679Y-107251506D01*
X186485679Y-107251506D02*
X186533298Y-107346744D01*
X186533298Y-107346744D02*
X186580917Y-107394363D01*
X186580917Y-107394363D02*
X186676155Y-107441982D01*
X186676155Y-107441982D02*
X186914250Y-107441982D01*
X186914250Y-107441982D02*
X187009488Y-107394363D01*
X187009488Y-107394363D02*
X187057108Y-107346744D01*
X187057108Y-107346744D02*
X187104727Y-107251506D01*
X187104727Y-107251506D02*
X187104727Y-107013411D01*
X187104727Y-107013411D02*
X187057108Y-106918173D01*
X187057108Y-106918173D02*
X187009488Y-106870554D01*
X193204727Y-105441982D02*
X193919012Y-105441982D01*
X193919012Y-105441982D02*
X194061869Y-105394363D01*
X194061869Y-105394363D02*
X194157108Y-105299125D01*
X194157108Y-105299125D02*
X194204727Y-105156268D01*
X194204727Y-105156268D02*
X194204727Y-105061030D01*
X194204727Y-105918173D02*
X193204727Y-105918173D01*
X193204727Y-105918173D02*
X193204727Y-106299125D01*
X193204727Y-106299125D02*
X193252346Y-106394363D01*
X193252346Y-106394363D02*
X193299965Y-106441982D01*
X193299965Y-106441982D02*
X193395203Y-106489601D01*
X193395203Y-106489601D02*
X193538060Y-106489601D01*
X193538060Y-106489601D02*
X193633298Y-106441982D01*
X193633298Y-106441982D02*
X193680917Y-106394363D01*
X193680917Y-106394363D02*
X193728536Y-106299125D01*
X193728536Y-106299125D02*
X193728536Y-105918173D01*
X193204727Y-106822935D02*
X193204727Y-107441982D01*
X193204727Y-107441982D02*
X193585679Y-107108649D01*
X193585679Y-107108649D02*
X193585679Y-107251506D01*
X193585679Y-107251506D02*
X193633298Y-107346744D01*
X193633298Y-107346744D02*
X193680917Y-107394363D01*
X193680917Y-107394363D02*
X193776155Y-107441982D01*
X193776155Y-107441982D02*
X194014250Y-107441982D01*
X194014250Y-107441982D02*
X194109488Y-107394363D01*
X194109488Y-107394363D02*
X194157108Y-107346744D01*
X194157108Y-107346744D02*
X194204727Y-107251506D01*
X194204727Y-107251506D02*
X194204727Y-106965792D01*
X194204727Y-106965792D02*
X194157108Y-106870554D01*
X194157108Y-106870554D02*
X194109488Y-106822935D01*
D11*
%TO.C,SW1*%
X189431251Y-60368777D02*
X189431251Y-64468777D01*
X189431251Y-68468777D02*
X189431251Y-72568777D01*
X189431251Y-72568777D02*
X187031251Y-72568777D01*
X183531251Y-66968777D02*
X183531251Y-65968777D01*
X184031251Y-66468777D02*
X183031251Y-66468777D01*
X184831251Y-72568777D02*
X182231251Y-72568777D01*
X179431251Y-58668777D02*
X179731251Y-58968777D01*
X179431251Y-59268777D02*
X179431251Y-58668777D01*
X179731251Y-58968777D02*
X179431251Y-59268777D01*
X189431251Y-60368777D02*
X177631251Y-60368777D01*
X177631251Y-60368777D02*
X177631251Y-64468777D01*
X177631251Y-72568777D02*
X177631251Y-68468777D01*
X180031251Y-72568777D02*
X177631251Y-72568777D01*
X186531251Y-66468777D02*
G75*
G02*
X180531251Y-66468777I-3000000J0D01*
G01*
X180531251Y-66468777D02*
G75*
G02*
X186531251Y-66468777I3000000J0D01*
G01*
%TO.C,JP1*%
X198324718Y-104826796D02*
X200324718Y-104826796D01*
X198324718Y-107626796D02*
X198324718Y-104826796D01*
X200324718Y-104826796D02*
X200324718Y-107626796D01*
X200324718Y-107626796D02*
X198324718Y-107626796D01*
%TO.C,JP2*%
X194499908Y-104875316D02*
X196499908Y-104875316D01*
X194499908Y-107675316D02*
X194499908Y-104875316D01*
X196499908Y-104875316D02*
X196499908Y-107675316D01*
X196499908Y-107675316D02*
X194499908Y-107675316D01*
%TO.C,JP4*%
X187399908Y-104875316D02*
X189399908Y-104875316D01*
X187399908Y-107675316D02*
X187399908Y-104875316D01*
X189399908Y-104875316D02*
X189399908Y-107675316D01*
X189399908Y-107675316D02*
X187399908Y-107675316D01*
%TO.C,JP7*%
X176749908Y-104875316D02*
X178749908Y-104875316D01*
X176749908Y-107675316D02*
X176749908Y-104875316D01*
X178749908Y-104875316D02*
X178749908Y-107675316D01*
X178749908Y-107675316D02*
X176749908Y-107675316D01*
%TO.C,JP8*%
X173130805Y-104922657D02*
X175130805Y-104922657D01*
X173130805Y-107722657D02*
X173130805Y-104922657D01*
X175130805Y-104922657D02*
X175130805Y-107722657D01*
X175130805Y-107722657D02*
X173130805Y-107722657D01*
%TO.C,J2-Right1*%
X177962588Y-84393580D02*
X177962588Y-100413580D01*
X181734588Y-83517580D02*
X182242588Y-84025580D01*
X182242588Y-84025580D02*
X182750588Y-83517580D01*
X182750588Y-83517580D02*
X181734588Y-83517580D01*
X189892588Y-84393580D02*
X177962588Y-84393580D01*
X189892588Y-100413580D02*
X177962588Y-100413580D01*
X196832588Y-84393580D02*
X193392588Y-84393580D01*
X196832588Y-84393580D02*
X196832588Y-100413580D01*
X196832588Y-100413580D02*
X193392589Y-100413580D01*
D12*
%TO.C,D25*%
X188190000Y-80750000D02*
X188689999Y-80750000D01*
X188690000Y-80350000D02*
X189290001Y-80750000D01*
X188690000Y-81150000D02*
X188690000Y-80350000D01*
X189290000Y-81300000D02*
X189290000Y-80200000D01*
X189290001Y-80750000D02*
X188690000Y-81150000D01*
X189290001Y-80750000D02*
X189690000Y-80750000D01*
D11*
%TO.C,JP6*%
X180299908Y-104875316D02*
X182299908Y-104875316D01*
X180299908Y-107675316D02*
X180299908Y-104875316D01*
X182299908Y-104875316D02*
X182299908Y-107675316D01*
X182299908Y-107675316D02*
X180299908Y-107675316D01*
%TO.C,JP5*%
X183849908Y-104875316D02*
X185849908Y-104875316D01*
X183849908Y-107675316D02*
X183849908Y-104875316D01*
X185849908Y-104875316D02*
X185849908Y-107675316D01*
X185849908Y-107675316D02*
X183849908Y-107675316D01*
%TO.C,JP3*%
X190949908Y-104875316D02*
X192949908Y-104875316D01*
X190949908Y-107675316D02*
X190949908Y-104875316D01*
X192949908Y-104875316D02*
X192949908Y-107675316D01*
X192949908Y-107675316D02*
X190949908Y-107675316D01*
%TD*%
M02*
