%TF.GenerationSoftware,KiCad,Pcbnew,8.0.3*%
%TF.CreationDate,2024-07-10T08:52:57-07:00*%
%TF.ProjectId,Custom_KB_V1,43757374-6f6d-45f4-9b42-5f56312e6b69,rev?*%
%TF.SameCoordinates,Original*%
%TF.FileFunction,Soldermask,Bot*%
%TF.FilePolarity,Negative*%
%FSLAX46Y46*%
G04 Gerber Fmt 4.6, Leading zero omitted, Abs format (unit mm)*
G04 Created by KiCad (PCBNEW 8.0.3) date 2024-07-10 08:52:57*
%MOMM*%
%LPD*%
G01*
G04 APERTURE LIST*
G04 Aperture macros list*
%AMRoundRect*
0 Rectangle with rounded corners*
0 $1 Rounding radius*
0 $2 $3 $4 $5 $6 $7 $8 $9 X,Y pos of 4 corners*
0 Add a 4 corners polygon primitive as box body*
4,1,4,$2,$3,$4,$5,$6,$7,$8,$9,$2,$3,0*
0 Add four circle primitives for the rounded corners*
1,1,$1+$1,$2,$3*
1,1,$1+$1,$4,$5*
1,1,$1+$1,$6,$7*
1,1,$1+$1,$8,$9*
0 Add four rect primitives between the rounded corners*
20,1,$1+$1,$2,$3,$4,$5,0*
20,1,$1+$1,$4,$5,$6,$7,0*
20,1,$1+$1,$6,$7,$8,$9,0*
20,1,$1+$1,$8,$9,$2,$3,0*%
%AMHorizOval*
0 Thick line with rounded ends*
0 $1 width*
0 $2 $3 position (X,Y) of the first rounded end (center of the circle)*
0 $4 $5 position (X,Y) of the second rounded end (center of the circle)*
0 Add line between two ends*
20,1,$1,$2,$3,$4,$5,0*
0 Add two circle primitives to create the rounded ends*
1,1,$1,$2,$3*
1,1,$1,$4,$5*%
%AMFreePoly0*
4,1,16,0.535355,0.785355,0.541603,0.777735,1.041603,0.027735,1.049029,-0.009806,1.041603,-0.027735,0.541603,-0.777735,0.509806,-0.799029,0.500000,-0.800000,-0.500000,-0.800000,-0.535355,-0.785355,-0.550000,-0.750000,-0.550000,0.750000,-0.535355,0.785355,-0.500000,0.800000,0.500000,0.800000,0.535355,0.785355,0.535355,0.785355,$1*%
%AMFreePoly1*
4,1,16,0.535355,0.785355,0.550000,0.750000,0.550000,-0.750000,0.535355,-0.785355,0.500000,-0.800000,-0.650000,-0.800000,-0.685355,-0.785355,-0.700000,-0.750000,-0.691603,-0.722265,-0.210093,0.000000,-0.691603,0.722265,-0.699029,0.759806,-0.677735,0.791603,-0.650000,0.800000,0.500000,0.800000,0.535355,0.785355,0.535355,0.785355,$1*%
G04 Aperture macros list end*
%ADD10RoundRect,0.050000X0.800000X-0.800000X0.800000X0.800000X-0.800000X0.800000X-0.800000X-0.800000X0*%
%ADD11O,1.700000X1.700000*%
%ADD12C,1.850000*%
%ADD13C,4.100000*%
%ADD14C,2.600000*%
%ADD15C,3.100000*%
%ADD16C,1.600000*%
%ADD17RoundRect,0.050000X-0.750000X0.750000X-0.750000X-0.750000X0.750000X-0.750000X0.750000X0.750000X0*%
%ADD18C,3.350000*%
%ADD19RoundRect,0.050000X-0.800000X0.800000X-0.800000X-0.800000X0.800000X-0.800000X0.800000X0.800000X0*%
%ADD20RoundRect,0.050000X0.800000X0.800000X-0.800000X0.800000X-0.800000X-0.800000X0.800000X-0.800000X0*%
%ADD21RoundRect,0.050000X-0.478138X1.025370X-1.025370X-0.478138X0.478138X-1.025370X1.025370X0.478138X0*%
%ADD22HorizOval,1.700000X0.000000X0.000000X0.000000X0.000000X0*%
%ADD23O,2.600000X1.600000*%
%ADD24O,1.600000X2.600000*%
%ADD25RoundRect,0.050000X-1.000000X1.000000X-1.000000X-1.000000X1.000000X-1.000000X1.000000X1.000000X0*%
%ADD26C,2.100000*%
%ADD27RoundRect,0.050000X-1.000000X1.600000X-1.000000X-1.600000X1.000000X-1.600000X1.000000X1.600000X0*%
%ADD28RoundRect,0.050000X-0.727231X0.866680X-0.866680X-0.727231X0.727231X-0.866680X0.866680X0.727231X0*%
%ADD29HorizOval,1.700000X0.000000X0.000000X0.000000X0.000000X0*%
%ADD30RoundRect,0.050000X-0.531146X0.998941X-0.998941X-0.531146X0.531146X-0.998941X0.998941X0.531146X0*%
%ADD31HorizOval,1.700000X0.000000X0.000000X0.000000X0.000000X0*%
%ADD32FreePoly0,90.000000*%
%ADD33FreePoly1,90.000000*%
%ADD34RoundRect,0.050000X0.750000X-0.750000X0.750000X0.750000X-0.750000X0.750000X-0.750000X-0.750000X0*%
G04 APERTURE END LIST*
D10*
%TO.C,D10*%
X112000000Y-84120000D03*
D11*
X112000000Y-76500000D03*
%TD*%
D12*
%TO.C,K4*%
X96920000Y-57250000D03*
D13*
X102000000Y-57250000D03*
X102000000Y-57250000D03*
D12*
X107080000Y-57250000D03*
D14*
X98190000Y-54710000D03*
X99460000Y-52170000D03*
X104540000Y-52170000D03*
X105810000Y-54710000D03*
%TD*%
D10*
%TO.C,D14*%
X152000000Y-106370000D03*
D11*
X152000000Y-98750000D03*
%TD*%
D12*
%TO.C,K11*%
X76920000Y-90250000D03*
D13*
X82000000Y-90250000D03*
X82000000Y-90250000D03*
D12*
X87080000Y-90250000D03*
D14*
X78190000Y-87710000D03*
X79460000Y-85170000D03*
X84540000Y-85170000D03*
X85810000Y-87710000D03*
%TD*%
D15*
%TO.C,J1-Left1*%
X191650000Y-85905000D03*
X191650000Y-101445000D03*
D16*
X179710000Y-89230000D03*
X182250000Y-90500000D03*
X179710000Y-91770000D03*
X182250000Y-93040001D03*
X179710000Y-94310000D03*
X182250000Y-95580000D03*
X179710000Y-96850000D03*
D17*
X182250000Y-98120000D03*
D18*
X188600000Y-87960000D03*
X188600000Y-99390001D03*
%TD*%
D19*
%TO.C,D7*%
X171750000Y-82250000D03*
D11*
X171750000Y-89870000D03*
%TD*%
D19*
%TO.C,D17*%
X91750000Y-103880000D03*
D11*
X91750000Y-111500000D03*
%TD*%
D20*
%TO.C,D24*%
X182250000Y-80750000D03*
D11*
X174630000Y-80750000D03*
%TD*%
D12*
%TO.C,K1*%
X156920000Y-60250000D03*
D13*
X162000000Y-60250000D03*
X162000000Y-60250000D03*
D12*
X167080000Y-60250000D03*
D14*
X158190000Y-57710000D03*
X159460000Y-55170000D03*
X164540000Y-55170000D03*
X165810000Y-57710000D03*
%TD*%
D12*
%TO.C,K22*%
X131920000Y-119970000D03*
D13*
X137000000Y-119970000D03*
X137000000Y-119970000D03*
D12*
X142080000Y-119970000D03*
D14*
X133190000Y-117430000D03*
X134460000Y-114890000D03*
X139540000Y-114890000D03*
X140810000Y-117430000D03*
%TD*%
D19*
%TO.C,D15*%
X132250000Y-92630000D03*
D11*
X132250000Y-100250000D03*
%TD*%
D12*
%TO.C,K12*%
X56920000Y-100250000D03*
D13*
X62000000Y-100250000D03*
X62000000Y-100250000D03*
D12*
X67080000Y-100250000D03*
D14*
X58190000Y-97710000D03*
X59460000Y-95170000D03*
X64540000Y-95170000D03*
X65810000Y-97710000D03*
%TD*%
D12*
%TO.C,K8*%
X136920000Y-78250000D03*
D13*
X142000000Y-78250000D03*
X142000000Y-78250000D03*
D12*
X147080000Y-78250000D03*
D14*
X138190000Y-75710000D03*
X139460000Y-73170000D03*
X144540000Y-73170000D03*
X145810000Y-75710000D03*
%TD*%
D12*
%TO.C,K16*%
X96920000Y-97250000D03*
D13*
X102000000Y-97250000D03*
X102000000Y-97250000D03*
D12*
X107080000Y-97250000D03*
D14*
X98190000Y-94710000D03*
X99460000Y-92170000D03*
X104540000Y-92170000D03*
X105810000Y-94710000D03*
%TD*%
D12*
%TO.C,K19*%
X194393596Y-125888168D03*
D13*
X199167234Y-127625630D03*
X199167234Y-127625630D03*
D12*
X203940872Y-129363092D03*
D14*
X196455733Y-123935714D03*
X198517877Y-121983261D03*
X203291517Y-123720724D03*
X203616193Y-126541908D03*
%TD*%
D19*
%TO.C,D3*%
X131750000Y-57130000D03*
D11*
X131750000Y-64750000D03*
%TD*%
D10*
%TO.C,D22*%
X146500000Y-127310000D03*
D11*
X146500000Y-119690000D03*
%TD*%
D12*
%TO.C,K14*%
X136920000Y-98250000D03*
D13*
X142000000Y-98250000D03*
X142000000Y-98250000D03*
D12*
X147080000Y-98250000D03*
D14*
X138190000Y-95710000D03*
X139460000Y-93170000D03*
X144540000Y-93170000D03*
X145810000Y-95710000D03*
%TD*%
D12*
%TO.C,K20*%
X173381502Y-121264964D03*
D13*
X178384325Y-122147096D03*
X178384325Y-122147096D03*
D12*
X183387148Y-123029228D03*
D14*
X175073273Y-118984085D03*
X176765045Y-116703207D03*
X181767870Y-117585339D03*
X182577509Y-120307285D03*
%TD*%
D10*
%TO.C,D12*%
X71750000Y-103060000D03*
D11*
X71750000Y-95440000D03*
%TD*%
D12*
%TO.C,K7*%
X156920000Y-80250000D03*
D13*
X162000000Y-80250000D03*
X162000000Y-80250000D03*
D12*
X167080000Y-80250000D03*
D14*
X158190000Y-77710000D03*
X159460000Y-75170000D03*
X164540000Y-75170000D03*
X165810000Y-77710000D03*
%TD*%
D12*
%TO.C,K15*%
X116920000Y-92250000D03*
D13*
X122000000Y-92250000D03*
X122000000Y-92250000D03*
D12*
X127080000Y-92250000D03*
D14*
X118190000Y-89710000D03*
X119460000Y-87170000D03*
X124540000Y-87170000D03*
X125810000Y-89710000D03*
%TD*%
D10*
%TO.C,D8*%
X152500000Y-89810000D03*
D11*
X152500000Y-82190000D03*
%TD*%
D19*
%TO.C,D23*%
X171601579Y-67037631D03*
D11*
X171601579Y-74657631D03*
%TD*%
D19*
%TO.C,D6*%
X72000000Y-76130000D03*
D11*
X72000000Y-83750000D03*
%TD*%
D10*
%TO.C,D2*%
X152250000Y-67560000D03*
D11*
X152250000Y-59940000D03*
%TD*%
D12*
%TO.C,K6*%
X56920000Y-80250000D03*
D13*
X62000000Y-80250000D03*
X62000000Y-80250000D03*
D12*
X67080000Y-80250000D03*
D14*
X58190000Y-77710000D03*
X59460000Y-75170000D03*
X64540000Y-75170000D03*
X65810000Y-77710000D03*
%TD*%
D12*
%TO.C,K3*%
X116920000Y-52250000D03*
D13*
X122000000Y-52250000D03*
X122000000Y-52250000D03*
D12*
X127080000Y-52250000D03*
D14*
X118190000Y-49710000D03*
X119460000Y-47170000D03*
X124540000Y-47170000D03*
X125810000Y-49710000D03*
%TD*%
D12*
%TO.C,K5*%
X76920000Y-70250000D03*
D13*
X82000000Y-70250000D03*
X82000000Y-70250000D03*
D12*
X87080000Y-70250000D03*
D14*
X78190000Y-67710000D03*
X79460000Y-65170000D03*
X84540000Y-65170000D03*
X85810000Y-67710000D03*
%TD*%
D12*
%TO.C,K18*%
X56920000Y-120250000D03*
D13*
X62000000Y-120250000D03*
X62000000Y-120250000D03*
D12*
X67080000Y-120250000D03*
D14*
X58190000Y-117710000D03*
X59460000Y-115170000D03*
X64540000Y-115170000D03*
X65810000Y-117710000D03*
%TD*%
D10*
%TO.C,D18*%
X71750000Y-120500000D03*
D11*
X71750000Y-112880000D03*
%TD*%
D12*
%TO.C,K10*%
X96920000Y-77250000D03*
D13*
X102000000Y-77250000D03*
X102000000Y-77250000D03*
D12*
X107080000Y-77250000D03*
D14*
X98190000Y-74710000D03*
X99460000Y-72170000D03*
X104540000Y-72170000D03*
X105810000Y-74710000D03*
%TD*%
D10*
%TO.C,D16*%
X111750000Y-100620000D03*
D11*
X111750000Y-93000000D03*
%TD*%
D19*
%TO.C,D13*%
X171000000Y-101380000D03*
D11*
X171000000Y-109000000D03*
%TD*%
D21*
%TO.C,D19*%
X207553096Y-131669771D03*
D22*
X204946903Y-138830231D03*
%TD*%
D23*
%TO.C,U1*%
X191647772Y-56477748D03*
X191647772Y-59017748D03*
X191647772Y-61557748D03*
X191647772Y-64097748D03*
X191647772Y-66637748D03*
X191647772Y-69177748D03*
X191647772Y-71717748D03*
X191647772Y-74257748D03*
X191647772Y-76797748D03*
D24*
X188607772Y-77297748D03*
X186067772Y-77297748D03*
X183527772Y-77297748D03*
X180987772Y-77297748D03*
X178447772Y-77297748D03*
D23*
X175407772Y-76797748D03*
X175407772Y-74257748D03*
X175407772Y-71717748D03*
X175407772Y-69177748D03*
X175407772Y-66637748D03*
X175407772Y-64097748D03*
X175407772Y-61557748D03*
X175407772Y-59017748D03*
X175407772Y-56477748D03*
%TD*%
D25*
%TO.C,SW1*%
X181031251Y-58968777D03*
D26*
X186031251Y-58968777D03*
X183531251Y-58968777D03*
D27*
X177931251Y-66468777D03*
X189131251Y-66468777D03*
D26*
X186031251Y-73468777D03*
X181031251Y-73468777D03*
%TD*%
D10*
%TO.C,D4*%
X112000000Y-64620000D03*
D11*
X112000000Y-57000000D03*
%TD*%
D12*
%TO.C,K9*%
X116920000Y-72250000D03*
D13*
X122000000Y-72250000D03*
X122000000Y-72250000D03*
D12*
X127080000Y-72250000D03*
D14*
X118190000Y-69710000D03*
X119460000Y-67170000D03*
X124540000Y-67170000D03*
X125810000Y-69710000D03*
%TD*%
D12*
%TO.C,K17*%
X76920000Y-110250000D03*
D13*
X82000000Y-110250000D03*
X82000000Y-110250000D03*
D12*
X87080000Y-110250000D03*
D14*
X78190000Y-107710000D03*
X79460000Y-105170000D03*
X84540000Y-105170000D03*
X85810000Y-107710000D03*
%TD*%
D28*
%TO.C,D21*%
X167582063Y-120704498D03*
D29*
X166917937Y-128295502D03*
%TD*%
D12*
%TO.C,K13*%
X156920000Y-100250000D03*
D13*
X162000000Y-100250000D03*
X162000000Y-100250000D03*
D12*
X167080000Y-100250000D03*
D14*
X158190000Y-97710000D03*
X159460000Y-95170000D03*
X164540000Y-95170000D03*
X165810000Y-97710000D03*
%TD*%
D12*
%TO.C,K2*%
X136920000Y-58250000D03*
D13*
X142000000Y-58250000D03*
X142000000Y-58250000D03*
D12*
X147080000Y-58250000D03*
D14*
X138190000Y-55710000D03*
X139460000Y-53170000D03*
X144540000Y-53170000D03*
X145810000Y-55710000D03*
%TD*%
D30*
%TO.C,D20*%
X188863935Y-124356478D03*
D31*
X186636063Y-131643523D03*
%TD*%
D10*
%TO.C,D5*%
X91750000Y-71809999D03*
D11*
X91750000Y-64189999D03*
%TD*%
D19*
%TO.C,D11*%
X92500000Y-84630000D03*
D11*
X92500000Y-92250000D03*
%TD*%
D19*
%TO.C,D1*%
X171601579Y-56385383D03*
D11*
X171601579Y-64005383D03*
%TD*%
D12*
%TO.C,K21*%
X151920000Y-119970000D03*
D13*
X157000000Y-119970000D03*
X157000000Y-119970000D03*
D12*
X162080000Y-119970000D03*
D14*
X153190000Y-117430000D03*
X154460000Y-114890000D03*
X159540000Y-114890000D03*
X160810000Y-117430000D03*
%TD*%
D19*
%TO.C,D9*%
X131750000Y-74630000D03*
D11*
X131750000Y-82250000D03*
%TD*%
D32*
%TO.C,JP1*%
X199324718Y-106951795D03*
D33*
X199324718Y-105501797D03*
%TD*%
D32*
%TO.C,JP2*%
X195499908Y-107000315D03*
D33*
X195499908Y-105550317D03*
%TD*%
D32*
%TO.C,JP4*%
X188399908Y-107000315D03*
D33*
X188399908Y-105550317D03*
%TD*%
D32*
%TO.C,JP7*%
X177749908Y-107000315D03*
D33*
X177749908Y-105550317D03*
%TD*%
D32*
%TO.C,JP8*%
X174130805Y-107047656D03*
D33*
X174130805Y-105597658D03*
%TD*%
D18*
%TO.C,J2-Right1*%
X188592588Y-86688579D03*
X188592588Y-98118580D03*
D34*
X182242588Y-87958580D03*
D16*
X179702588Y-89228580D03*
X182242588Y-90498580D03*
X179702588Y-91768580D03*
X182242588Y-93038579D03*
X179702588Y-94308580D03*
X182242588Y-95578580D03*
X179702588Y-96848580D03*
D15*
X191642588Y-84633580D03*
X191642588Y-100173580D03*
%TD*%
D20*
%TO.C,D25*%
X192750000Y-80750000D03*
D11*
X185130000Y-80750000D03*
%TD*%
D32*
%TO.C,JP6*%
X181299908Y-107000315D03*
D33*
X181299908Y-105550317D03*
%TD*%
D32*
%TO.C,JP5*%
X184849908Y-107000315D03*
D33*
X184849908Y-105550317D03*
%TD*%
D32*
%TO.C,JP3*%
X191949908Y-107000315D03*
D33*
X191949908Y-105550317D03*
%TD*%
M02*
