M48
; DRILL file {KiCad 8.0.3} date 2024-07-10T08:53:00-0700
; FORMAT={-:-/ absolute / inch / decimal}
; #@! TF.CreationDate,2024-07-10T08:53:00-07:00
; #@! TF.GenerationSoftware,Kicad,Pcbnew,8.0.3
; #@! TF.FileFunction,NonPlated,1,2,NPTH
FMAT,2
INCH
; #@! TA.AperFunction,NonPlated,NPTH,ComponentDrill
T1C0.0689
; #@! TA.AperFunction,NonPlated,NPTH,ComponentDrill
T2C0.1280
; #@! TA.AperFunction,NonPlated,NPTH,ComponentDrill
T3C0.1575
%
G90
G05
T1
X2.2409Y-3.1594
X2.2409Y-3.9469
X2.2409Y-4.7343
X2.6409Y-3.1594
X2.6409Y-3.9469
X2.6409Y-4.7343
X3.0283Y-2.7657
X3.0283Y-3.5531
X3.0283Y-4.3406
X3.4283Y-2.7657
X3.4283Y-3.5531
X3.4283Y-4.3406
X3.8157Y-2.2539
X3.8157Y-3.0413
X3.8157Y-3.8287
X4.2157Y-2.2539
X4.2157Y-3.0413
X4.2157Y-3.8287
X4.6031Y-2.0571
X4.6031Y-2.8445
X4.6031Y-3.6319
X5.0031Y-2.0571
X5.0031Y-2.8445
X5.0031Y-3.6319
X5.1937Y-4.7232
X5.3906Y-2.2933
X5.3906Y-3.0807
X5.3906Y-3.8681
X5.5937Y-4.7232
X5.7906Y-2.2933
X5.7906Y-3.0807
X5.7906Y-3.8681
X5.9811Y-4.7232
X6.178Y-2.372
X6.178Y-3.1594
X6.178Y-3.9469
X6.3811Y-4.7232
X6.578Y-2.372
X6.578Y-3.1594
X6.578Y-3.9469
X6.826Y-4.7742
X7.22Y-4.8437
X7.6533Y-4.9562
X8.0292Y-5.093
T2
X7.4249Y-3.4129
X7.4249Y-3.8629
X7.4252Y-3.463
X7.4252Y-3.913
T3
X2.4409Y-3.1594
X2.4409Y-3.1594
X2.4409Y-3.9469
X2.4409Y-3.9469
X2.4409Y-4.7343
X2.4409Y-4.7343
X3.2283Y-2.7657
X3.2283Y-2.7657
X3.2283Y-3.5531
X3.2283Y-3.5531
X3.2283Y-4.3406
X3.2283Y-4.3406
X4.0157Y-2.2539
X4.0157Y-2.2539
X4.0157Y-3.0413
X4.0157Y-3.0413
X4.0157Y-3.8287
X4.0157Y-3.8287
X4.8031Y-2.0571
X4.8031Y-2.0571
X4.8031Y-2.8445
X4.8031Y-2.8445
X4.8031Y-3.6319
X4.8031Y-3.6319
X5.3937Y-4.7232
X5.3937Y-4.7232
X5.5906Y-2.2933
X5.5906Y-2.2933
X5.5906Y-3.0807
X5.5906Y-3.0807
X5.5906Y-3.8681
X5.5906Y-3.8681
X6.1811Y-4.7232
X6.1811Y-4.7232
X6.378Y-2.372
X6.378Y-2.372
X6.378Y-3.1594
X6.378Y-3.1594
X6.378Y-3.9469
X6.378Y-3.9469
X7.023Y-4.8089
X7.023Y-4.8089
X7.8412Y-5.0246
X7.8412Y-5.0246
M30
