%TF.GenerationSoftware,KiCad,Pcbnew,8.0.3*%
%TF.CreationDate,2024-07-10T08:53:03-07:00*%
%TF.ProjectId,Custom_KB_V1,43757374-6f6d-45f4-9b42-5f56312e6b69,rev?*%
%TF.SameCoordinates,Original*%
%TF.FileFunction,Drillmap*%
%TF.FilePolarity,Positive*%
%FSLAX45Y45*%
G04 Gerber Fmt 4.5, Leading zero omitted, Abs format (unit mm)*
G04 Created by KiCad (PCBNEW 8.0.3) date 2024-07-10 08:53:03*
%MOMM*%
%LPD*%
G01*
G04 APERTURE LIST*
%ADD10C,0.050000*%
%ADD11C,0.200000*%
%ADD12C,0.175000*%
%ADD13C,0.325000*%
%ADD14C,0.400000*%
G04 APERTURE END LIST*
D10*
X21073938Y-12352434D02*
G75*
G02*
X21180352Y-12579258I-75926J-173995D01*
G01*
X20330557Y-12008063D02*
G75*
G02*
X20200000Y-11800000I92713J203169D01*
G01*
X19824449Y-10264104D02*
G75*
G02*
X19748395Y-10148365I48777J114910D01*
G01*
X20125551Y-10435896D02*
G75*
G02*
X20198026Y-10548238I-50831J-112342D01*
G01*
X20998547Y-13196985D02*
X21180352Y-12579258D01*
X20330557Y-12008063D02*
X21073938Y-12352434D01*
X20198026Y-10548238D02*
X20200000Y-11800000D01*
X11250000Y-4600000D02*
G75*
G02*
X11009916Y-4799354I-230344J33162D01*
G01*
X17021828Y-5188057D02*
X17020711Y-5220711D01*
X16843020Y-5002732D02*
G75*
G02*
X17021828Y-5188057I-3164J-181975D01*
G01*
X17200000Y-5400000D02*
G75*
G02*
X17020711Y-5220711I0J179289D01*
G01*
X17415670Y-5399708D02*
X17200000Y-5400000D01*
X20709373Y-14013542D02*
G75*
G02*
X20360932Y-14133492I-229537J100712D01*
G01*
X19750000Y-7975000D02*
X19748395Y-10148365D01*
X5505332Y-13072654D02*
G75*
G02*
X5250143Y-12835355I-9122J246054D01*
G01*
X16620881Y-13194354D02*
G75*
G02*
X20360932Y-14133492I-1120881J-12380645D01*
G01*
X13444096Y-5001898D02*
X15200000Y-5000000D01*
X9243041Y-5071570D02*
G75*
G02*
X9468016Y-4803451I246549J21570D01*
G01*
X19575000Y-7975000D02*
X19750000Y-7975000D01*
X5158675Y-7342192D02*
G75*
G02*
X5409007Y-7099524I246195J-3518D01*
G01*
X12965804Y-4389900D02*
G75*
G02*
X13200000Y-4650000I-12954J-247150D01*
G01*
X11443166Y-10647164D02*
G75*
G02*
X11193166Y-10897156I-249996J4D01*
G01*
X12330567Y-10403417D02*
X11667579Y-10402512D01*
X16620825Y-13194976D02*
X12825000Y-13200000D01*
X12575000Y-12950000D02*
X12585480Y-10650422D01*
X7248769Y-6808933D02*
X7250000Y-6300000D01*
X19340804Y-5414900D02*
G75*
G02*
X19575000Y-5675000I-12954J-247150D01*
G01*
X7476777Y-12426777D02*
G75*
G02*
X7726777Y-12176777I250003J-3D01*
G01*
X20998547Y-13196985D02*
X20709373Y-14013542D01*
X7476777Y-12426777D02*
X7473522Y-12823202D01*
X11442479Y-10608844D02*
G75*
G02*
X11667579Y-10402514I215001J-8606D01*
G01*
X7250000Y-6300000D02*
G75*
G02*
X7500000Y-6050000I250000J0D01*
G01*
X9223223Y-12175000D02*
X7726777Y-12176777D01*
X9468016Y-4803454D02*
X11009916Y-4799354D01*
X9475000Y-10900000D02*
X9473223Y-11925000D01*
X13444096Y-5001898D02*
G75*
G02*
X13199082Y-4747016I4934J249948D01*
G01*
X19575000Y-5675000D02*
X19575000Y-7975000D01*
X9473223Y-11925000D02*
G75*
G02*
X9223223Y-12175003I-250003J0D01*
G01*
X11250000Y-4600000D02*
G75*
G02*
X11428443Y-4371333I252049J-12731D01*
G01*
X11442479Y-10608844D02*
X11443166Y-10647164D01*
X11428443Y-4371333D02*
X12965804Y-4389900D01*
X19824449Y-10264104D02*
X20125551Y-10435896D01*
X17415670Y-5399708D02*
X19340804Y-5414900D01*
X7500000Y-6050000D02*
X9006237Y-6046666D01*
X7248769Y-6808933D02*
G75*
G02*
X7007060Y-7066959I-249869J-8157D01*
G01*
X7473522Y-12823202D02*
G75*
G02*
X7222954Y-13072925I-250000J277D01*
G01*
X7222954Y-13072924D02*
X5505332Y-13072654D01*
X15200000Y-5000000D02*
X16843020Y-5002732D01*
X9247947Y-5788641D02*
G75*
G02*
X9006237Y-6046666I-249867J-8159D01*
G01*
X12330567Y-10403417D02*
G75*
G02*
X12585484Y-10650422I4933J-249953D01*
G01*
X5409007Y-7099520D02*
X7007060Y-7066957D01*
X12825000Y-13200000D02*
G75*
G02*
X12575000Y-12950000I0J250000D01*
G01*
X11193166Y-10897164D02*
X9475000Y-10900000D01*
X5250140Y-12835356D02*
X5158675Y-7342192D01*
X9247947Y-5788641D02*
X9243041Y-5071570D01*
X13200000Y-4650000D02*
X13199074Y-4747016D01*
D11*
D12*
X5604500Y-7937500D02*
X5779500Y-8112500D01*
X5779500Y-7937500D02*
X5604500Y-8112500D01*
X5604500Y-9937500D02*
X5779500Y-10112500D01*
X5779500Y-9937500D02*
X5604500Y-10112500D01*
X5604500Y-11937500D02*
X5779500Y-12112500D01*
X5779500Y-11937500D02*
X5604500Y-12112500D01*
X6620500Y-7937500D02*
X6795500Y-8112500D01*
X6795500Y-7937500D02*
X6620500Y-8112500D01*
X6620500Y-9937500D02*
X6795500Y-10112500D01*
X6795500Y-9937500D02*
X6620500Y-10112500D01*
X6620500Y-11937500D02*
X6795500Y-12112500D01*
X6795500Y-11937500D02*
X6620500Y-12112500D01*
X7604500Y-6937500D02*
X7779500Y-7112500D01*
X7779500Y-6937500D02*
X7604500Y-7112500D01*
X7604500Y-8937500D02*
X7779500Y-9112500D01*
X7779500Y-8937500D02*
X7604500Y-9112500D01*
X7604500Y-10937500D02*
X7779500Y-11112500D01*
X7779500Y-10937500D02*
X7604500Y-11112500D01*
X8620500Y-6937500D02*
X8795500Y-7112500D01*
X8795500Y-6937500D02*
X8620500Y-7112500D01*
X8620500Y-8937500D02*
X8795500Y-9112500D01*
X8795500Y-8937500D02*
X8620500Y-9112500D01*
X8620500Y-10937500D02*
X8795500Y-11112500D01*
X8795500Y-10937500D02*
X8620500Y-11112500D01*
X9604500Y-5637500D02*
X9779500Y-5812500D01*
X9779500Y-5637500D02*
X9604500Y-5812500D01*
X9604500Y-7637500D02*
X9779500Y-7812500D01*
X9779500Y-7637500D02*
X9604500Y-7812500D01*
X9604500Y-9637500D02*
X9779500Y-9812500D01*
X9779500Y-9637500D02*
X9604500Y-9812500D01*
X10620500Y-5637500D02*
X10795500Y-5812500D01*
X10795500Y-5637500D02*
X10620500Y-5812500D01*
X10620500Y-7637500D02*
X10795500Y-7812500D01*
X10795500Y-7637500D02*
X10620500Y-7812500D01*
X10620500Y-9637500D02*
X10795500Y-9812500D01*
X10795500Y-9637500D02*
X10620500Y-9812500D01*
X11604500Y-5137500D02*
X11779500Y-5312500D01*
X11779500Y-5137500D02*
X11604500Y-5312500D01*
X11604500Y-7137500D02*
X11779500Y-7312500D01*
X11779500Y-7137500D02*
X11604500Y-7312500D01*
X11604500Y-9137500D02*
X11779500Y-9312500D01*
X11779500Y-9137500D02*
X11604500Y-9312500D01*
X12620500Y-5137500D02*
X12795500Y-5312500D01*
X12795500Y-5137500D02*
X12620500Y-5312500D01*
X12620500Y-7137500D02*
X12795500Y-7312500D01*
X12795500Y-7137500D02*
X12620500Y-7312500D01*
X12620500Y-9137500D02*
X12795500Y-9312500D01*
X12795500Y-9137500D02*
X12620500Y-9312500D01*
X13104500Y-11909500D02*
X13279500Y-12084500D01*
X13279500Y-11909500D02*
X13104500Y-12084500D01*
X13604500Y-5737500D02*
X13779500Y-5912500D01*
X13779500Y-5737500D02*
X13604500Y-5912500D01*
X13604500Y-7737500D02*
X13779500Y-7912500D01*
X13779500Y-7737500D02*
X13604500Y-7912500D01*
X13604500Y-9737500D02*
X13779500Y-9912500D01*
X13779500Y-9737500D02*
X13604500Y-9912500D01*
X14120500Y-11909500D02*
X14295500Y-12084500D01*
X14295500Y-11909500D02*
X14120500Y-12084500D01*
X14620500Y-5737500D02*
X14795500Y-5912500D01*
X14795500Y-5737500D02*
X14620500Y-5912500D01*
X14620500Y-7737500D02*
X14795500Y-7912500D01*
X14795500Y-7737500D02*
X14620500Y-7912500D01*
X14620500Y-9737500D02*
X14795500Y-9912500D01*
X14795500Y-9737500D02*
X14620500Y-9912500D01*
X15104500Y-11909500D02*
X15279500Y-12084500D01*
X15279500Y-11909500D02*
X15104500Y-12084500D01*
X15604500Y-5937500D02*
X15779500Y-6112500D01*
X15779500Y-5937500D02*
X15604500Y-6112500D01*
X15604500Y-7937500D02*
X15779500Y-8112500D01*
X15779500Y-7937500D02*
X15604500Y-8112500D01*
X15604500Y-9937500D02*
X15779500Y-10112500D01*
X15779500Y-9937500D02*
X15604500Y-10112500D01*
X16120500Y-11909500D02*
X16295500Y-12084500D01*
X16295500Y-11909500D02*
X16120500Y-12084500D01*
X16620500Y-5937500D02*
X16795500Y-6112500D01*
X16795500Y-5937500D02*
X16620500Y-6112500D01*
X16620500Y-7937500D02*
X16795500Y-8112500D01*
X16795500Y-7937500D02*
X16620500Y-8112500D01*
X16620500Y-9937500D02*
X16795500Y-10112500D01*
X16795500Y-9937500D02*
X16620500Y-10112500D01*
X17250650Y-12038996D02*
X17425650Y-12213996D01*
X17425650Y-12038996D02*
X17250650Y-12213996D01*
X18251215Y-12215423D02*
X18426215Y-12390423D01*
X18426215Y-12215423D02*
X18251215Y-12390423D01*
X19351860Y-12501317D02*
X19526860Y-12676317D01*
X19526860Y-12501317D02*
X19351860Y-12676317D01*
X20306587Y-12848809D02*
X20481587Y-13023809D01*
X20481587Y-12848809D02*
X20306587Y-13023809D01*
D13*
X19021759Y-8668858D02*
G75*
G02*
X18696759Y-8668858I-162500J0D01*
G01*
X18696759Y-8668858D02*
G75*
G02*
X19021759Y-8668858I162500J0D01*
G01*
X19021759Y-9811858D02*
G75*
G02*
X18696759Y-9811858I-162500J0D01*
G01*
X18696759Y-9811858D02*
G75*
G02*
X19021759Y-9811858I162500J0D01*
G01*
X19022500Y-8796000D02*
G75*
G02*
X18697500Y-8796000I-162500J0D01*
G01*
X18697500Y-8796000D02*
G75*
G02*
X19022500Y-8796000I162500J0D01*
G01*
X19022500Y-9939000D02*
G75*
G02*
X18697500Y-9939000I-162500J0D01*
G01*
X18697500Y-9939000D02*
G75*
G02*
X19022500Y-9939000I162500J0D01*
G01*
D14*
X6200000Y-7825000D02*
X6200000Y-8225000D01*
X6000000Y-8025000D02*
X6400000Y-8025000D01*
X6200000Y-7825000D02*
X6200000Y-8225000D01*
X6000000Y-8025000D02*
X6400000Y-8025000D01*
X6200000Y-9825000D02*
X6200000Y-10225000D01*
X6000000Y-10025000D02*
X6400000Y-10025000D01*
X6200000Y-9825000D02*
X6200000Y-10225000D01*
X6000000Y-10025000D02*
X6400000Y-10025000D01*
X6200000Y-11825000D02*
X6200000Y-12225000D01*
X6000000Y-12025000D02*
X6400000Y-12025000D01*
X6200000Y-11825000D02*
X6200000Y-12225000D01*
X6000000Y-12025000D02*
X6400000Y-12025000D01*
X8200000Y-6825000D02*
X8200000Y-7225000D01*
X8000000Y-7025000D02*
X8400000Y-7025000D01*
X8200000Y-6825000D02*
X8200000Y-7225000D01*
X8000000Y-7025000D02*
X8400000Y-7025000D01*
X8200000Y-8825000D02*
X8200000Y-9225000D01*
X8000000Y-9025000D02*
X8400000Y-9025000D01*
X8200000Y-8825000D02*
X8200000Y-9225000D01*
X8000000Y-9025000D02*
X8400000Y-9025000D01*
X8200000Y-10825000D02*
X8200000Y-11225000D01*
X8000000Y-11025000D02*
X8400000Y-11025000D01*
X8200000Y-10825000D02*
X8200000Y-11225000D01*
X8000000Y-11025000D02*
X8400000Y-11025000D01*
X10200000Y-5525000D02*
X10200000Y-5925000D01*
X10000000Y-5725000D02*
X10400000Y-5725000D01*
X10200000Y-5525000D02*
X10200000Y-5925000D01*
X10000000Y-5725000D02*
X10400000Y-5725000D01*
X10200000Y-7525000D02*
X10200000Y-7925000D01*
X10000000Y-7725000D02*
X10400000Y-7725000D01*
X10200000Y-7525000D02*
X10200000Y-7925000D01*
X10000000Y-7725000D02*
X10400000Y-7725000D01*
X10200000Y-9525000D02*
X10200000Y-9925000D01*
X10000000Y-9725000D02*
X10400000Y-9725000D01*
X10200000Y-9525000D02*
X10200000Y-9925000D01*
X10000000Y-9725000D02*
X10400000Y-9725000D01*
X12200000Y-5025000D02*
X12200000Y-5425000D01*
X12000000Y-5225000D02*
X12400000Y-5225000D01*
X12200000Y-5025000D02*
X12200000Y-5425000D01*
X12000000Y-5225000D02*
X12400000Y-5225000D01*
X12200000Y-7025000D02*
X12200000Y-7425000D01*
X12000000Y-7225000D02*
X12400000Y-7225000D01*
X12200000Y-7025000D02*
X12200000Y-7425000D01*
X12000000Y-7225000D02*
X12400000Y-7225000D01*
X12200000Y-9025000D02*
X12200000Y-9425000D01*
X12000000Y-9225000D02*
X12400000Y-9225000D01*
X12200000Y-9025000D02*
X12200000Y-9425000D01*
X12000000Y-9225000D02*
X12400000Y-9225000D01*
X13700000Y-11797000D02*
X13700000Y-12197000D01*
X13500000Y-11997000D02*
X13900000Y-11997000D01*
X13700000Y-11797000D02*
X13700000Y-12197000D01*
X13500000Y-11997000D02*
X13900000Y-11997000D01*
X14200000Y-5625000D02*
X14200000Y-6025000D01*
X14000000Y-5825000D02*
X14400000Y-5825000D01*
X14200000Y-5625000D02*
X14200000Y-6025000D01*
X14000000Y-5825000D02*
X14400000Y-5825000D01*
X14200000Y-7625000D02*
X14200000Y-8025000D01*
X14000000Y-7825000D02*
X14400000Y-7825000D01*
X14200000Y-7625000D02*
X14200000Y-8025000D01*
X14000000Y-7825000D02*
X14400000Y-7825000D01*
X14200000Y-9625000D02*
X14200000Y-10025000D01*
X14000000Y-9825000D02*
X14400000Y-9825000D01*
X14200000Y-9625000D02*
X14200000Y-10025000D01*
X14000000Y-9825000D02*
X14400000Y-9825000D01*
X15700000Y-11797000D02*
X15700000Y-12197000D01*
X15500000Y-11997000D02*
X15900000Y-11997000D01*
X15700000Y-11797000D02*
X15700000Y-12197000D01*
X15500000Y-11997000D02*
X15900000Y-11997000D01*
X16200000Y-5825000D02*
X16200000Y-6225000D01*
X16000000Y-6025000D02*
X16400000Y-6025000D01*
X16200000Y-5825000D02*
X16200000Y-6225000D01*
X16000000Y-6025000D02*
X16400000Y-6025000D01*
X16200000Y-7825000D02*
X16200000Y-8225000D01*
X16000000Y-8025000D02*
X16400000Y-8025000D01*
X16200000Y-7825000D02*
X16200000Y-8225000D01*
X16000000Y-8025000D02*
X16400000Y-8025000D01*
X16200000Y-9825000D02*
X16200000Y-10225000D01*
X16000000Y-10025000D02*
X16400000Y-10025000D01*
X16200000Y-9825000D02*
X16200000Y-10225000D01*
X16000000Y-10025000D02*
X16400000Y-10025000D01*
X17838433Y-12014710D02*
X17838433Y-12414710D01*
X17638433Y-12214710D02*
X18038433Y-12214710D01*
X17838433Y-12014710D02*
X17838433Y-12414710D01*
X17638433Y-12214710D02*
X18038433Y-12214710D01*
X19916723Y-12562563D02*
X19916723Y-12962563D01*
X19716723Y-12762563D02*
X20116723Y-12762563D01*
X19916723Y-12562563D02*
X19916723Y-12962563D01*
X19716723Y-12762563D02*
X20116723Y-12762563D01*
D11*
X5416951Y-14477473D02*
X5416951Y-14277473D01*
X5416951Y-14277473D02*
X5464570Y-14277473D01*
X5464570Y-14277473D02*
X5493142Y-14286997D01*
X5493142Y-14286997D02*
X5512190Y-14306044D01*
X5512190Y-14306044D02*
X5521713Y-14325092D01*
X5521713Y-14325092D02*
X5531237Y-14363187D01*
X5531237Y-14363187D02*
X5531237Y-14391759D01*
X5531237Y-14391759D02*
X5521713Y-14429854D01*
X5521713Y-14429854D02*
X5512190Y-14448901D01*
X5512190Y-14448901D02*
X5493142Y-14467949D01*
X5493142Y-14467949D02*
X5464570Y-14477473D01*
X5464570Y-14477473D02*
X5416951Y-14477473D01*
X5616951Y-14477473D02*
X5616951Y-14344140D01*
X5616951Y-14382235D02*
X5626475Y-14363187D01*
X5626475Y-14363187D02*
X5635999Y-14353663D01*
X5635999Y-14353663D02*
X5655047Y-14344140D01*
X5655047Y-14344140D02*
X5674094Y-14344140D01*
X5740761Y-14477473D02*
X5740761Y-14344140D01*
X5740761Y-14277473D02*
X5731237Y-14286997D01*
X5731237Y-14286997D02*
X5740761Y-14296521D01*
X5740761Y-14296521D02*
X5750285Y-14286997D01*
X5750285Y-14286997D02*
X5740761Y-14277473D01*
X5740761Y-14277473D02*
X5740761Y-14296521D01*
X5864570Y-14477473D02*
X5845523Y-14467949D01*
X5845523Y-14467949D02*
X5835999Y-14448901D01*
X5835999Y-14448901D02*
X5835999Y-14277473D01*
X5969332Y-14477473D02*
X5950285Y-14467949D01*
X5950285Y-14467949D02*
X5940761Y-14448901D01*
X5940761Y-14448901D02*
X5940761Y-14277473D01*
X6197904Y-14477473D02*
X6197904Y-14277473D01*
X6197904Y-14277473D02*
X6264570Y-14420330D01*
X6264570Y-14420330D02*
X6331237Y-14277473D01*
X6331237Y-14277473D02*
X6331237Y-14477473D01*
X6512189Y-14477473D02*
X6512189Y-14372711D01*
X6512189Y-14372711D02*
X6502666Y-14353663D01*
X6502666Y-14353663D02*
X6483618Y-14344140D01*
X6483618Y-14344140D02*
X6445523Y-14344140D01*
X6445523Y-14344140D02*
X6426475Y-14353663D01*
X6512189Y-14467949D02*
X6493142Y-14477473D01*
X6493142Y-14477473D02*
X6445523Y-14477473D01*
X6445523Y-14477473D02*
X6426475Y-14467949D01*
X6426475Y-14467949D02*
X6416951Y-14448901D01*
X6416951Y-14448901D02*
X6416951Y-14429854D01*
X6416951Y-14429854D02*
X6426475Y-14410806D01*
X6426475Y-14410806D02*
X6445523Y-14401282D01*
X6445523Y-14401282D02*
X6493142Y-14401282D01*
X6493142Y-14401282D02*
X6512189Y-14391759D01*
X6607428Y-14344140D02*
X6607428Y-14544140D01*
X6607428Y-14353663D02*
X6626475Y-14344140D01*
X6626475Y-14344140D02*
X6664570Y-14344140D01*
X6664570Y-14344140D02*
X6683618Y-14353663D01*
X6683618Y-14353663D02*
X6693142Y-14363187D01*
X6693142Y-14363187D02*
X6702666Y-14382235D01*
X6702666Y-14382235D02*
X6702666Y-14439378D01*
X6702666Y-14439378D02*
X6693142Y-14458425D01*
X6693142Y-14458425D02*
X6683618Y-14467949D01*
X6683618Y-14467949D02*
X6664570Y-14477473D01*
X6664570Y-14477473D02*
X6626475Y-14477473D01*
X6626475Y-14477473D02*
X6607428Y-14467949D01*
X6788380Y-14458425D02*
X6797904Y-14467949D01*
X6797904Y-14467949D02*
X6788380Y-14477473D01*
X6788380Y-14477473D02*
X6778856Y-14467949D01*
X6778856Y-14467949D02*
X6788380Y-14458425D01*
X6788380Y-14458425D02*
X6788380Y-14477473D01*
X6788380Y-14353663D02*
X6797904Y-14363187D01*
X6797904Y-14363187D02*
X6788380Y-14372711D01*
X6788380Y-14372711D02*
X6778856Y-14363187D01*
X6778856Y-14363187D02*
X6788380Y-14353663D01*
X6788380Y-14353663D02*
X6788380Y-14372711D01*
D12*
X4981175Y-14718489D02*
X5156175Y-14893489D01*
X5156175Y-14718489D02*
X4981175Y-14893489D01*
D11*
X5521713Y-14897473D02*
X5407428Y-14897473D01*
X5464570Y-14897473D02*
X5464570Y-14697473D01*
X5464570Y-14697473D02*
X5445523Y-14726044D01*
X5445523Y-14726044D02*
X5426475Y-14745092D01*
X5426475Y-14745092D02*
X5407428Y-14754616D01*
X5607428Y-14878425D02*
X5616951Y-14887949D01*
X5616951Y-14887949D02*
X5607428Y-14897473D01*
X5607428Y-14897473D02*
X5597904Y-14887949D01*
X5597904Y-14887949D02*
X5607428Y-14878425D01*
X5607428Y-14878425D02*
X5607428Y-14897473D01*
X5683618Y-14697473D02*
X5816951Y-14697473D01*
X5816951Y-14697473D02*
X5731237Y-14897473D01*
X5988380Y-14697473D02*
X5893142Y-14697473D01*
X5893142Y-14697473D02*
X5883618Y-14792711D01*
X5883618Y-14792711D02*
X5893142Y-14783187D01*
X5893142Y-14783187D02*
X5912189Y-14773663D01*
X5912189Y-14773663D02*
X5959809Y-14773663D01*
X5959809Y-14773663D02*
X5978856Y-14783187D01*
X5978856Y-14783187D02*
X5988380Y-14792711D01*
X5988380Y-14792711D02*
X5997904Y-14811759D01*
X5997904Y-14811759D02*
X5997904Y-14859378D01*
X5997904Y-14859378D02*
X5988380Y-14878425D01*
X5988380Y-14878425D02*
X5978856Y-14887949D01*
X5978856Y-14887949D02*
X5959809Y-14897473D01*
X5959809Y-14897473D02*
X5912189Y-14897473D01*
X5912189Y-14897473D02*
X5893142Y-14887949D01*
X5893142Y-14887949D02*
X5883618Y-14878425D01*
X6121713Y-14697473D02*
X6140761Y-14697473D01*
X6140761Y-14697473D02*
X6159809Y-14706997D01*
X6159809Y-14706997D02*
X6169332Y-14716521D01*
X6169332Y-14716521D02*
X6178856Y-14735568D01*
X6178856Y-14735568D02*
X6188380Y-14773663D01*
X6188380Y-14773663D02*
X6188380Y-14821282D01*
X6188380Y-14821282D02*
X6178856Y-14859378D01*
X6178856Y-14859378D02*
X6169332Y-14878425D01*
X6169332Y-14878425D02*
X6159809Y-14887949D01*
X6159809Y-14887949D02*
X6140761Y-14897473D01*
X6140761Y-14897473D02*
X6121713Y-14897473D01*
X6121713Y-14897473D02*
X6102666Y-14887949D01*
X6102666Y-14887949D02*
X6093142Y-14878425D01*
X6093142Y-14878425D02*
X6083618Y-14859378D01*
X6083618Y-14859378D02*
X6074094Y-14821282D01*
X6074094Y-14821282D02*
X6074094Y-14773663D01*
X6074094Y-14773663D02*
X6083618Y-14735568D01*
X6083618Y-14735568D02*
X6093142Y-14716521D01*
X6093142Y-14716521D02*
X6102666Y-14706997D01*
X6102666Y-14706997D02*
X6121713Y-14697473D01*
X6274094Y-14897473D02*
X6274094Y-14764140D01*
X6274094Y-14783187D02*
X6283618Y-14773663D01*
X6283618Y-14773663D02*
X6302666Y-14764140D01*
X6302666Y-14764140D02*
X6331237Y-14764140D01*
X6331237Y-14764140D02*
X6350285Y-14773663D01*
X6350285Y-14773663D02*
X6359809Y-14792711D01*
X6359809Y-14792711D02*
X6359809Y-14897473D01*
X6359809Y-14792711D02*
X6369332Y-14773663D01*
X6369332Y-14773663D02*
X6388380Y-14764140D01*
X6388380Y-14764140D02*
X6416951Y-14764140D01*
X6416951Y-14764140D02*
X6435999Y-14773663D01*
X6435999Y-14773663D02*
X6445523Y-14792711D01*
X6445523Y-14792711D02*
X6445523Y-14897473D01*
X6540761Y-14897473D02*
X6540761Y-14764140D01*
X6540761Y-14783187D02*
X6550285Y-14773663D01*
X6550285Y-14773663D02*
X6569332Y-14764140D01*
X6569332Y-14764140D02*
X6597904Y-14764140D01*
X6597904Y-14764140D02*
X6616951Y-14773663D01*
X6616951Y-14773663D02*
X6626475Y-14792711D01*
X6626475Y-14792711D02*
X6626475Y-14897473D01*
X6626475Y-14792711D02*
X6635999Y-14773663D01*
X6635999Y-14773663D02*
X6655047Y-14764140D01*
X6655047Y-14764140D02*
X6683618Y-14764140D01*
X6683618Y-14764140D02*
X6702666Y-14773663D01*
X6702666Y-14773663D02*
X6712190Y-14792711D01*
X6712190Y-14792711D02*
X6712190Y-14897473D01*
X7102666Y-14687949D02*
X6931237Y-14945092D01*
X7359809Y-14697473D02*
X7378856Y-14697473D01*
X7378856Y-14697473D02*
X7397904Y-14706997D01*
X7397904Y-14706997D02*
X7407428Y-14716521D01*
X7407428Y-14716521D02*
X7416952Y-14735568D01*
X7416952Y-14735568D02*
X7426475Y-14773663D01*
X7426475Y-14773663D02*
X7426475Y-14821282D01*
X7426475Y-14821282D02*
X7416952Y-14859378D01*
X7416952Y-14859378D02*
X7407428Y-14878425D01*
X7407428Y-14878425D02*
X7397904Y-14887949D01*
X7397904Y-14887949D02*
X7378856Y-14897473D01*
X7378856Y-14897473D02*
X7359809Y-14897473D01*
X7359809Y-14897473D02*
X7340761Y-14887949D01*
X7340761Y-14887949D02*
X7331237Y-14878425D01*
X7331237Y-14878425D02*
X7321713Y-14859378D01*
X7321713Y-14859378D02*
X7312190Y-14821282D01*
X7312190Y-14821282D02*
X7312190Y-14773663D01*
X7312190Y-14773663D02*
X7321713Y-14735568D01*
X7321713Y-14735568D02*
X7331237Y-14716521D01*
X7331237Y-14716521D02*
X7340761Y-14706997D01*
X7340761Y-14706997D02*
X7359809Y-14697473D01*
X7512190Y-14878425D02*
X7521713Y-14887949D01*
X7521713Y-14887949D02*
X7512190Y-14897473D01*
X7512190Y-14897473D02*
X7502666Y-14887949D01*
X7502666Y-14887949D02*
X7512190Y-14878425D01*
X7512190Y-14878425D02*
X7512190Y-14897473D01*
X7645523Y-14697473D02*
X7664571Y-14697473D01*
X7664571Y-14697473D02*
X7683618Y-14706997D01*
X7683618Y-14706997D02*
X7693142Y-14716521D01*
X7693142Y-14716521D02*
X7702666Y-14735568D01*
X7702666Y-14735568D02*
X7712190Y-14773663D01*
X7712190Y-14773663D02*
X7712190Y-14821282D01*
X7712190Y-14821282D02*
X7702666Y-14859378D01*
X7702666Y-14859378D02*
X7693142Y-14878425D01*
X7693142Y-14878425D02*
X7683618Y-14887949D01*
X7683618Y-14887949D02*
X7664571Y-14897473D01*
X7664571Y-14897473D02*
X7645523Y-14897473D01*
X7645523Y-14897473D02*
X7626475Y-14887949D01*
X7626475Y-14887949D02*
X7616952Y-14878425D01*
X7616952Y-14878425D02*
X7607428Y-14859378D01*
X7607428Y-14859378D02*
X7597904Y-14821282D01*
X7597904Y-14821282D02*
X7597904Y-14773663D01*
X7597904Y-14773663D02*
X7607428Y-14735568D01*
X7607428Y-14735568D02*
X7616952Y-14716521D01*
X7616952Y-14716521D02*
X7626475Y-14706997D01*
X7626475Y-14706997D02*
X7645523Y-14697473D01*
X7883618Y-14697473D02*
X7845523Y-14697473D01*
X7845523Y-14697473D02*
X7826475Y-14706997D01*
X7826475Y-14706997D02*
X7816952Y-14716521D01*
X7816952Y-14716521D02*
X7797904Y-14745092D01*
X7797904Y-14745092D02*
X7788380Y-14783187D01*
X7788380Y-14783187D02*
X7788380Y-14859378D01*
X7788380Y-14859378D02*
X7797904Y-14878425D01*
X7797904Y-14878425D02*
X7807428Y-14887949D01*
X7807428Y-14887949D02*
X7826475Y-14897473D01*
X7826475Y-14897473D02*
X7864571Y-14897473D01*
X7864571Y-14897473D02*
X7883618Y-14887949D01*
X7883618Y-14887949D02*
X7893142Y-14878425D01*
X7893142Y-14878425D02*
X7902666Y-14859378D01*
X7902666Y-14859378D02*
X7902666Y-14811759D01*
X7902666Y-14811759D02*
X7893142Y-14792711D01*
X7893142Y-14792711D02*
X7883618Y-14783187D01*
X7883618Y-14783187D02*
X7864571Y-14773663D01*
X7864571Y-14773663D02*
X7826475Y-14773663D01*
X7826475Y-14773663D02*
X7807428Y-14783187D01*
X7807428Y-14783187D02*
X7797904Y-14792711D01*
X7797904Y-14792711D02*
X7788380Y-14811759D01*
X8016952Y-14783187D02*
X7997904Y-14773663D01*
X7997904Y-14773663D02*
X7988380Y-14764140D01*
X7988380Y-14764140D02*
X7978856Y-14745092D01*
X7978856Y-14745092D02*
X7978856Y-14735568D01*
X7978856Y-14735568D02*
X7988380Y-14716521D01*
X7988380Y-14716521D02*
X7997904Y-14706997D01*
X7997904Y-14706997D02*
X8016952Y-14697473D01*
X8016952Y-14697473D02*
X8055047Y-14697473D01*
X8055047Y-14697473D02*
X8074094Y-14706997D01*
X8074094Y-14706997D02*
X8083618Y-14716521D01*
X8083618Y-14716521D02*
X8093142Y-14735568D01*
X8093142Y-14735568D02*
X8093142Y-14745092D01*
X8093142Y-14745092D02*
X8083618Y-14764140D01*
X8083618Y-14764140D02*
X8074094Y-14773663D01*
X8074094Y-14773663D02*
X8055047Y-14783187D01*
X8055047Y-14783187D02*
X8016952Y-14783187D01*
X8016952Y-14783187D02*
X7997904Y-14792711D01*
X7997904Y-14792711D02*
X7988380Y-14802235D01*
X7988380Y-14802235D02*
X7978856Y-14821282D01*
X7978856Y-14821282D02*
X7978856Y-14859378D01*
X7978856Y-14859378D02*
X7988380Y-14878425D01*
X7988380Y-14878425D02*
X7997904Y-14887949D01*
X7997904Y-14887949D02*
X8016952Y-14897473D01*
X8016952Y-14897473D02*
X8055047Y-14897473D01*
X8055047Y-14897473D02*
X8074094Y-14887949D01*
X8074094Y-14887949D02*
X8083618Y-14878425D01*
X8083618Y-14878425D02*
X8093142Y-14859378D01*
X8093142Y-14859378D02*
X8093142Y-14821282D01*
X8093142Y-14821282D02*
X8083618Y-14802235D01*
X8083618Y-14802235D02*
X8074094Y-14792711D01*
X8074094Y-14792711D02*
X8055047Y-14783187D01*
X8188380Y-14897473D02*
X8226475Y-14897473D01*
X8226475Y-14897473D02*
X8245523Y-14887949D01*
X8245523Y-14887949D02*
X8255047Y-14878425D01*
X8255047Y-14878425D02*
X8274094Y-14849854D01*
X8274094Y-14849854D02*
X8283618Y-14811759D01*
X8283618Y-14811759D02*
X8283618Y-14735568D01*
X8283618Y-14735568D02*
X8274094Y-14716521D01*
X8274094Y-14716521D02*
X8264571Y-14706997D01*
X8264571Y-14706997D02*
X8245523Y-14697473D01*
X8245523Y-14697473D02*
X8207428Y-14697473D01*
X8207428Y-14697473D02*
X8188380Y-14706997D01*
X8188380Y-14706997D02*
X8178856Y-14716521D01*
X8178856Y-14716521D02*
X8169333Y-14735568D01*
X8169333Y-14735568D02*
X8169333Y-14783187D01*
X8169333Y-14783187D02*
X8178856Y-14802235D01*
X8178856Y-14802235D02*
X8188380Y-14811759D01*
X8188380Y-14811759D02*
X8207428Y-14821282D01*
X8207428Y-14821282D02*
X8245523Y-14821282D01*
X8245523Y-14821282D02*
X8264571Y-14811759D01*
X8264571Y-14811759D02*
X8274094Y-14802235D01*
X8274094Y-14802235D02*
X8283618Y-14783187D01*
X8359809Y-14697473D02*
X8359809Y-14735568D01*
X8435999Y-14697473D02*
X8435999Y-14735568D01*
X8731238Y-14973663D02*
X8721714Y-14964140D01*
X8721714Y-14964140D02*
X8702666Y-14935568D01*
X8702666Y-14935568D02*
X8693142Y-14916521D01*
X8693142Y-14916521D02*
X8683618Y-14887949D01*
X8683618Y-14887949D02*
X8674095Y-14840330D01*
X8674095Y-14840330D02*
X8674095Y-14802235D01*
X8674095Y-14802235D02*
X8683618Y-14754616D01*
X8683618Y-14754616D02*
X8693142Y-14726044D01*
X8693142Y-14726044D02*
X8702666Y-14706997D01*
X8702666Y-14706997D02*
X8721714Y-14678425D01*
X8721714Y-14678425D02*
X8731238Y-14668901D01*
X8893142Y-14764140D02*
X8893142Y-14897473D01*
X8845523Y-14687949D02*
X8797904Y-14830806D01*
X8797904Y-14830806D02*
X8921714Y-14830806D01*
X9083618Y-14764140D02*
X9083618Y-14897473D01*
X9035999Y-14687949D02*
X8988380Y-14830806D01*
X8988380Y-14830806D02*
X9112190Y-14830806D01*
X9340761Y-14897473D02*
X9340761Y-14697473D01*
X9426476Y-14897473D02*
X9426476Y-14792711D01*
X9426476Y-14792711D02*
X9416952Y-14773663D01*
X9416952Y-14773663D02*
X9397904Y-14764140D01*
X9397904Y-14764140D02*
X9369333Y-14764140D01*
X9369333Y-14764140D02*
X9350285Y-14773663D01*
X9350285Y-14773663D02*
X9340761Y-14783187D01*
X9550285Y-14897473D02*
X9531238Y-14887949D01*
X9531238Y-14887949D02*
X9521714Y-14878425D01*
X9521714Y-14878425D02*
X9512190Y-14859378D01*
X9512190Y-14859378D02*
X9512190Y-14802235D01*
X9512190Y-14802235D02*
X9521714Y-14783187D01*
X9521714Y-14783187D02*
X9531238Y-14773663D01*
X9531238Y-14773663D02*
X9550285Y-14764140D01*
X9550285Y-14764140D02*
X9578857Y-14764140D01*
X9578857Y-14764140D02*
X9597904Y-14773663D01*
X9597904Y-14773663D02*
X9607428Y-14783187D01*
X9607428Y-14783187D02*
X9616952Y-14802235D01*
X9616952Y-14802235D02*
X9616952Y-14859378D01*
X9616952Y-14859378D02*
X9607428Y-14878425D01*
X9607428Y-14878425D02*
X9597904Y-14887949D01*
X9597904Y-14887949D02*
X9578857Y-14897473D01*
X9578857Y-14897473D02*
X9550285Y-14897473D01*
X9731238Y-14897473D02*
X9712190Y-14887949D01*
X9712190Y-14887949D02*
X9702666Y-14868901D01*
X9702666Y-14868901D02*
X9702666Y-14697473D01*
X9883619Y-14887949D02*
X9864571Y-14897473D01*
X9864571Y-14897473D02*
X9826476Y-14897473D01*
X9826476Y-14897473D02*
X9807428Y-14887949D01*
X9807428Y-14887949D02*
X9797904Y-14868901D01*
X9797904Y-14868901D02*
X9797904Y-14792711D01*
X9797904Y-14792711D02*
X9807428Y-14773663D01*
X9807428Y-14773663D02*
X9826476Y-14764140D01*
X9826476Y-14764140D02*
X9864571Y-14764140D01*
X9864571Y-14764140D02*
X9883619Y-14773663D01*
X9883619Y-14773663D02*
X9893142Y-14792711D01*
X9893142Y-14792711D02*
X9893142Y-14811759D01*
X9893142Y-14811759D02*
X9797904Y-14830806D01*
X9969333Y-14887949D02*
X9988380Y-14897473D01*
X9988380Y-14897473D02*
X10026476Y-14897473D01*
X10026476Y-14897473D02*
X10045523Y-14887949D01*
X10045523Y-14887949D02*
X10055047Y-14868901D01*
X10055047Y-14868901D02*
X10055047Y-14859378D01*
X10055047Y-14859378D02*
X10045523Y-14840330D01*
X10045523Y-14840330D02*
X10026476Y-14830806D01*
X10026476Y-14830806D02*
X9997904Y-14830806D01*
X9997904Y-14830806D02*
X9978857Y-14821282D01*
X9978857Y-14821282D02*
X9969333Y-14802235D01*
X9969333Y-14802235D02*
X9969333Y-14792711D01*
X9969333Y-14792711D02*
X9978857Y-14773663D01*
X9978857Y-14773663D02*
X9997904Y-14764140D01*
X9997904Y-14764140D02*
X10026476Y-14764140D01*
X10026476Y-14764140D02*
X10045523Y-14773663D01*
X10121714Y-14973663D02*
X10131238Y-14964140D01*
X10131238Y-14964140D02*
X10150285Y-14935568D01*
X10150285Y-14935568D02*
X10159809Y-14916521D01*
X10159809Y-14916521D02*
X10169333Y-14887949D01*
X10169333Y-14887949D02*
X10178857Y-14840330D01*
X10178857Y-14840330D02*
X10178857Y-14802235D01*
X10178857Y-14802235D02*
X10169333Y-14754616D01*
X10169333Y-14754616D02*
X10159809Y-14726044D01*
X10159809Y-14726044D02*
X10150285Y-14706997D01*
X10150285Y-14706997D02*
X10131238Y-14678425D01*
X10131238Y-14678425D02*
X10121714Y-14668901D01*
X10483619Y-14973663D02*
X10474095Y-14964140D01*
X10474095Y-14964140D02*
X10455047Y-14935568D01*
X10455047Y-14935568D02*
X10445523Y-14916521D01*
X10445523Y-14916521D02*
X10436000Y-14887949D01*
X10436000Y-14887949D02*
X10426476Y-14840330D01*
X10426476Y-14840330D02*
X10426476Y-14802235D01*
X10426476Y-14802235D02*
X10436000Y-14754616D01*
X10436000Y-14754616D02*
X10445523Y-14726044D01*
X10445523Y-14726044D02*
X10455047Y-14706997D01*
X10455047Y-14706997D02*
X10474095Y-14678425D01*
X10474095Y-14678425D02*
X10483619Y-14668901D01*
X10559809Y-14764140D02*
X10559809Y-14897473D01*
X10559809Y-14783187D02*
X10569333Y-14773663D01*
X10569333Y-14773663D02*
X10588380Y-14764140D01*
X10588380Y-14764140D02*
X10616952Y-14764140D01*
X10616952Y-14764140D02*
X10636000Y-14773663D01*
X10636000Y-14773663D02*
X10645523Y-14792711D01*
X10645523Y-14792711D02*
X10645523Y-14897473D01*
X10769333Y-14897473D02*
X10750285Y-14887949D01*
X10750285Y-14887949D02*
X10740761Y-14878425D01*
X10740761Y-14878425D02*
X10731238Y-14859378D01*
X10731238Y-14859378D02*
X10731238Y-14802235D01*
X10731238Y-14802235D02*
X10740761Y-14783187D01*
X10740761Y-14783187D02*
X10750285Y-14773663D01*
X10750285Y-14773663D02*
X10769333Y-14764140D01*
X10769333Y-14764140D02*
X10797904Y-14764140D01*
X10797904Y-14764140D02*
X10816952Y-14773663D01*
X10816952Y-14773663D02*
X10826476Y-14783187D01*
X10826476Y-14783187D02*
X10836000Y-14802235D01*
X10836000Y-14802235D02*
X10836000Y-14859378D01*
X10836000Y-14859378D02*
X10826476Y-14878425D01*
X10826476Y-14878425D02*
X10816952Y-14887949D01*
X10816952Y-14887949D02*
X10797904Y-14897473D01*
X10797904Y-14897473D02*
X10769333Y-14897473D01*
X10893142Y-14764140D02*
X10969333Y-14764140D01*
X10921714Y-14697473D02*
X10921714Y-14868901D01*
X10921714Y-14868901D02*
X10931238Y-14887949D01*
X10931238Y-14887949D02*
X10950285Y-14897473D01*
X10950285Y-14897473D02*
X10969333Y-14897473D01*
X11188380Y-14764140D02*
X11188380Y-14964140D01*
X11188380Y-14773663D02*
X11207428Y-14764140D01*
X11207428Y-14764140D02*
X11245523Y-14764140D01*
X11245523Y-14764140D02*
X11264571Y-14773663D01*
X11264571Y-14773663D02*
X11274095Y-14783187D01*
X11274095Y-14783187D02*
X11283619Y-14802235D01*
X11283619Y-14802235D02*
X11283619Y-14859378D01*
X11283619Y-14859378D02*
X11274095Y-14878425D01*
X11274095Y-14878425D02*
X11264571Y-14887949D01*
X11264571Y-14887949D02*
X11245523Y-14897473D01*
X11245523Y-14897473D02*
X11207428Y-14897473D01*
X11207428Y-14897473D02*
X11188380Y-14887949D01*
X11397904Y-14897473D02*
X11378857Y-14887949D01*
X11378857Y-14887949D02*
X11369333Y-14868901D01*
X11369333Y-14868901D02*
X11369333Y-14697473D01*
X11559809Y-14897473D02*
X11559809Y-14792711D01*
X11559809Y-14792711D02*
X11550285Y-14773663D01*
X11550285Y-14773663D02*
X11531238Y-14764140D01*
X11531238Y-14764140D02*
X11493142Y-14764140D01*
X11493142Y-14764140D02*
X11474095Y-14773663D01*
X11559809Y-14887949D02*
X11540761Y-14897473D01*
X11540761Y-14897473D02*
X11493142Y-14897473D01*
X11493142Y-14897473D02*
X11474095Y-14887949D01*
X11474095Y-14887949D02*
X11464571Y-14868901D01*
X11464571Y-14868901D02*
X11464571Y-14849854D01*
X11464571Y-14849854D02*
X11474095Y-14830806D01*
X11474095Y-14830806D02*
X11493142Y-14821282D01*
X11493142Y-14821282D02*
X11540761Y-14821282D01*
X11540761Y-14821282D02*
X11559809Y-14811759D01*
X11626476Y-14764140D02*
X11702666Y-14764140D01*
X11655047Y-14697473D02*
X11655047Y-14868901D01*
X11655047Y-14868901D02*
X11664571Y-14887949D01*
X11664571Y-14887949D02*
X11683619Y-14897473D01*
X11683619Y-14897473D02*
X11702666Y-14897473D01*
X11845523Y-14887949D02*
X11826476Y-14897473D01*
X11826476Y-14897473D02*
X11788380Y-14897473D01*
X11788380Y-14897473D02*
X11769333Y-14887949D01*
X11769333Y-14887949D02*
X11759809Y-14868901D01*
X11759809Y-14868901D02*
X11759809Y-14792711D01*
X11759809Y-14792711D02*
X11769333Y-14773663D01*
X11769333Y-14773663D02*
X11788380Y-14764140D01*
X11788380Y-14764140D02*
X11826476Y-14764140D01*
X11826476Y-14764140D02*
X11845523Y-14773663D01*
X11845523Y-14773663D02*
X11855047Y-14792711D01*
X11855047Y-14792711D02*
X11855047Y-14811759D01*
X11855047Y-14811759D02*
X11759809Y-14830806D01*
X12026476Y-14897473D02*
X12026476Y-14697473D01*
X12026476Y-14887949D02*
X12007428Y-14897473D01*
X12007428Y-14897473D02*
X11969333Y-14897473D01*
X11969333Y-14897473D02*
X11950285Y-14887949D01*
X11950285Y-14887949D02*
X11940761Y-14878425D01*
X11940761Y-14878425D02*
X11931238Y-14859378D01*
X11931238Y-14859378D02*
X11931238Y-14802235D01*
X11931238Y-14802235D02*
X11940761Y-14783187D01*
X11940761Y-14783187D02*
X11950285Y-14773663D01*
X11950285Y-14773663D02*
X11969333Y-14764140D01*
X11969333Y-14764140D02*
X12007428Y-14764140D01*
X12007428Y-14764140D02*
X12026476Y-14773663D01*
X12102666Y-14973663D02*
X12112190Y-14964140D01*
X12112190Y-14964140D02*
X12131238Y-14935568D01*
X12131238Y-14935568D02*
X12140761Y-14916521D01*
X12140761Y-14916521D02*
X12150285Y-14887949D01*
X12150285Y-14887949D02*
X12159809Y-14840330D01*
X12159809Y-14840330D02*
X12159809Y-14802235D01*
X12159809Y-14802235D02*
X12150285Y-14754616D01*
X12150285Y-14754616D02*
X12140761Y-14726044D01*
X12140761Y-14726044D02*
X12131238Y-14706997D01*
X12131238Y-14706997D02*
X12112190Y-14678425D01*
X12112190Y-14678425D02*
X12102666Y-14668901D01*
X5156175Y-15100989D02*
G75*
G02*
X4956175Y-15100989I-100000J0D01*
G01*
X4956175Y-15100989D02*
G75*
G02*
X5156175Y-15100989I100000J0D01*
G01*
X5397904Y-14992473D02*
X5521713Y-14992473D01*
X5521713Y-14992473D02*
X5455047Y-15068663D01*
X5455047Y-15068663D02*
X5483618Y-15068663D01*
X5483618Y-15068663D02*
X5502666Y-15078187D01*
X5502666Y-15078187D02*
X5512190Y-15087711D01*
X5512190Y-15087711D02*
X5521713Y-15106759D01*
X5521713Y-15106759D02*
X5521713Y-15154378D01*
X5521713Y-15154378D02*
X5512190Y-15173425D01*
X5512190Y-15173425D02*
X5502666Y-15182949D01*
X5502666Y-15182949D02*
X5483618Y-15192473D01*
X5483618Y-15192473D02*
X5426475Y-15192473D01*
X5426475Y-15192473D02*
X5407428Y-15182949D01*
X5407428Y-15182949D02*
X5397904Y-15173425D01*
X5607428Y-15173425D02*
X5616951Y-15182949D01*
X5616951Y-15182949D02*
X5607428Y-15192473D01*
X5607428Y-15192473D02*
X5597904Y-15182949D01*
X5597904Y-15182949D02*
X5607428Y-15173425D01*
X5607428Y-15173425D02*
X5607428Y-15192473D01*
X5693142Y-15011521D02*
X5702666Y-15001997D01*
X5702666Y-15001997D02*
X5721713Y-14992473D01*
X5721713Y-14992473D02*
X5769332Y-14992473D01*
X5769332Y-14992473D02*
X5788380Y-15001997D01*
X5788380Y-15001997D02*
X5797904Y-15011521D01*
X5797904Y-15011521D02*
X5807428Y-15030568D01*
X5807428Y-15030568D02*
X5807428Y-15049616D01*
X5807428Y-15049616D02*
X5797904Y-15078187D01*
X5797904Y-15078187D02*
X5683618Y-15192473D01*
X5683618Y-15192473D02*
X5807428Y-15192473D01*
X5988380Y-14992473D02*
X5893142Y-14992473D01*
X5893142Y-14992473D02*
X5883618Y-15087711D01*
X5883618Y-15087711D02*
X5893142Y-15078187D01*
X5893142Y-15078187D02*
X5912189Y-15068663D01*
X5912189Y-15068663D02*
X5959809Y-15068663D01*
X5959809Y-15068663D02*
X5978856Y-15078187D01*
X5978856Y-15078187D02*
X5988380Y-15087711D01*
X5988380Y-15087711D02*
X5997904Y-15106759D01*
X5997904Y-15106759D02*
X5997904Y-15154378D01*
X5997904Y-15154378D02*
X5988380Y-15173425D01*
X5988380Y-15173425D02*
X5978856Y-15182949D01*
X5978856Y-15182949D02*
X5959809Y-15192473D01*
X5959809Y-15192473D02*
X5912189Y-15192473D01*
X5912189Y-15192473D02*
X5893142Y-15182949D01*
X5893142Y-15182949D02*
X5883618Y-15173425D01*
X6121713Y-14992473D02*
X6140761Y-14992473D01*
X6140761Y-14992473D02*
X6159809Y-15001997D01*
X6159809Y-15001997D02*
X6169332Y-15011521D01*
X6169332Y-15011521D02*
X6178856Y-15030568D01*
X6178856Y-15030568D02*
X6188380Y-15068663D01*
X6188380Y-15068663D02*
X6188380Y-15116282D01*
X6188380Y-15116282D02*
X6178856Y-15154378D01*
X6178856Y-15154378D02*
X6169332Y-15173425D01*
X6169332Y-15173425D02*
X6159809Y-15182949D01*
X6159809Y-15182949D02*
X6140761Y-15192473D01*
X6140761Y-15192473D02*
X6121713Y-15192473D01*
X6121713Y-15192473D02*
X6102666Y-15182949D01*
X6102666Y-15182949D02*
X6093142Y-15173425D01*
X6093142Y-15173425D02*
X6083618Y-15154378D01*
X6083618Y-15154378D02*
X6074094Y-15116282D01*
X6074094Y-15116282D02*
X6074094Y-15068663D01*
X6074094Y-15068663D02*
X6083618Y-15030568D01*
X6083618Y-15030568D02*
X6093142Y-15011521D01*
X6093142Y-15011521D02*
X6102666Y-15001997D01*
X6102666Y-15001997D02*
X6121713Y-14992473D01*
X6274094Y-15192473D02*
X6274094Y-15059140D01*
X6274094Y-15078187D02*
X6283618Y-15068663D01*
X6283618Y-15068663D02*
X6302666Y-15059140D01*
X6302666Y-15059140D02*
X6331237Y-15059140D01*
X6331237Y-15059140D02*
X6350285Y-15068663D01*
X6350285Y-15068663D02*
X6359809Y-15087711D01*
X6359809Y-15087711D02*
X6359809Y-15192473D01*
X6359809Y-15087711D02*
X6369332Y-15068663D01*
X6369332Y-15068663D02*
X6388380Y-15059140D01*
X6388380Y-15059140D02*
X6416951Y-15059140D01*
X6416951Y-15059140D02*
X6435999Y-15068663D01*
X6435999Y-15068663D02*
X6445523Y-15087711D01*
X6445523Y-15087711D02*
X6445523Y-15192473D01*
X6540761Y-15192473D02*
X6540761Y-15059140D01*
X6540761Y-15078187D02*
X6550285Y-15068663D01*
X6550285Y-15068663D02*
X6569332Y-15059140D01*
X6569332Y-15059140D02*
X6597904Y-15059140D01*
X6597904Y-15059140D02*
X6616951Y-15068663D01*
X6616951Y-15068663D02*
X6626475Y-15087711D01*
X6626475Y-15087711D02*
X6626475Y-15192473D01*
X6626475Y-15087711D02*
X6635999Y-15068663D01*
X6635999Y-15068663D02*
X6655047Y-15059140D01*
X6655047Y-15059140D02*
X6683618Y-15059140D01*
X6683618Y-15059140D02*
X6702666Y-15068663D01*
X6702666Y-15068663D02*
X6712190Y-15087711D01*
X6712190Y-15087711D02*
X6712190Y-15192473D01*
X7102666Y-14982949D02*
X6931237Y-15240092D01*
X7359809Y-14992473D02*
X7378856Y-14992473D01*
X7378856Y-14992473D02*
X7397904Y-15001997D01*
X7397904Y-15001997D02*
X7407428Y-15011521D01*
X7407428Y-15011521D02*
X7416952Y-15030568D01*
X7416952Y-15030568D02*
X7426475Y-15068663D01*
X7426475Y-15068663D02*
X7426475Y-15116282D01*
X7426475Y-15116282D02*
X7416952Y-15154378D01*
X7416952Y-15154378D02*
X7407428Y-15173425D01*
X7407428Y-15173425D02*
X7397904Y-15182949D01*
X7397904Y-15182949D02*
X7378856Y-15192473D01*
X7378856Y-15192473D02*
X7359809Y-15192473D01*
X7359809Y-15192473D02*
X7340761Y-15182949D01*
X7340761Y-15182949D02*
X7331237Y-15173425D01*
X7331237Y-15173425D02*
X7321713Y-15154378D01*
X7321713Y-15154378D02*
X7312190Y-15116282D01*
X7312190Y-15116282D02*
X7312190Y-15068663D01*
X7312190Y-15068663D02*
X7321713Y-15030568D01*
X7321713Y-15030568D02*
X7331237Y-15011521D01*
X7331237Y-15011521D02*
X7340761Y-15001997D01*
X7340761Y-15001997D02*
X7359809Y-14992473D01*
X7512190Y-15173425D02*
X7521713Y-15182949D01*
X7521713Y-15182949D02*
X7512190Y-15192473D01*
X7512190Y-15192473D02*
X7502666Y-15182949D01*
X7502666Y-15182949D02*
X7512190Y-15173425D01*
X7512190Y-15173425D02*
X7512190Y-15192473D01*
X7712190Y-15192473D02*
X7597904Y-15192473D01*
X7655047Y-15192473D02*
X7655047Y-14992473D01*
X7655047Y-14992473D02*
X7635999Y-15021044D01*
X7635999Y-15021044D02*
X7616952Y-15040092D01*
X7616952Y-15040092D02*
X7597904Y-15049616D01*
X7788380Y-15011521D02*
X7797904Y-15001997D01*
X7797904Y-15001997D02*
X7816952Y-14992473D01*
X7816952Y-14992473D02*
X7864571Y-14992473D01*
X7864571Y-14992473D02*
X7883618Y-15001997D01*
X7883618Y-15001997D02*
X7893142Y-15011521D01*
X7893142Y-15011521D02*
X7902666Y-15030568D01*
X7902666Y-15030568D02*
X7902666Y-15049616D01*
X7902666Y-15049616D02*
X7893142Y-15078187D01*
X7893142Y-15078187D02*
X7778856Y-15192473D01*
X7778856Y-15192473D02*
X7902666Y-15192473D01*
X8016952Y-15078187D02*
X7997904Y-15068663D01*
X7997904Y-15068663D02*
X7988380Y-15059140D01*
X7988380Y-15059140D02*
X7978856Y-15040092D01*
X7978856Y-15040092D02*
X7978856Y-15030568D01*
X7978856Y-15030568D02*
X7988380Y-15011521D01*
X7988380Y-15011521D02*
X7997904Y-15001997D01*
X7997904Y-15001997D02*
X8016952Y-14992473D01*
X8016952Y-14992473D02*
X8055047Y-14992473D01*
X8055047Y-14992473D02*
X8074094Y-15001997D01*
X8074094Y-15001997D02*
X8083618Y-15011521D01*
X8083618Y-15011521D02*
X8093142Y-15030568D01*
X8093142Y-15030568D02*
X8093142Y-15040092D01*
X8093142Y-15040092D02*
X8083618Y-15059140D01*
X8083618Y-15059140D02*
X8074094Y-15068663D01*
X8074094Y-15068663D02*
X8055047Y-15078187D01*
X8055047Y-15078187D02*
X8016952Y-15078187D01*
X8016952Y-15078187D02*
X7997904Y-15087711D01*
X7997904Y-15087711D02*
X7988380Y-15097235D01*
X7988380Y-15097235D02*
X7978856Y-15116282D01*
X7978856Y-15116282D02*
X7978856Y-15154378D01*
X7978856Y-15154378D02*
X7988380Y-15173425D01*
X7988380Y-15173425D02*
X7997904Y-15182949D01*
X7997904Y-15182949D02*
X8016952Y-15192473D01*
X8016952Y-15192473D02*
X8055047Y-15192473D01*
X8055047Y-15192473D02*
X8074094Y-15182949D01*
X8074094Y-15182949D02*
X8083618Y-15173425D01*
X8083618Y-15173425D02*
X8093142Y-15154378D01*
X8093142Y-15154378D02*
X8093142Y-15116282D01*
X8093142Y-15116282D02*
X8083618Y-15097235D01*
X8083618Y-15097235D02*
X8074094Y-15087711D01*
X8074094Y-15087711D02*
X8055047Y-15078187D01*
X8216952Y-14992473D02*
X8235999Y-14992473D01*
X8235999Y-14992473D02*
X8255047Y-15001997D01*
X8255047Y-15001997D02*
X8264571Y-15011521D01*
X8264571Y-15011521D02*
X8274094Y-15030568D01*
X8274094Y-15030568D02*
X8283618Y-15068663D01*
X8283618Y-15068663D02*
X8283618Y-15116282D01*
X8283618Y-15116282D02*
X8274094Y-15154378D01*
X8274094Y-15154378D02*
X8264571Y-15173425D01*
X8264571Y-15173425D02*
X8255047Y-15182949D01*
X8255047Y-15182949D02*
X8235999Y-15192473D01*
X8235999Y-15192473D02*
X8216952Y-15192473D01*
X8216952Y-15192473D02*
X8197904Y-15182949D01*
X8197904Y-15182949D02*
X8188380Y-15173425D01*
X8188380Y-15173425D02*
X8178856Y-15154378D01*
X8178856Y-15154378D02*
X8169333Y-15116282D01*
X8169333Y-15116282D02*
X8169333Y-15068663D01*
X8169333Y-15068663D02*
X8178856Y-15030568D01*
X8178856Y-15030568D02*
X8188380Y-15011521D01*
X8188380Y-15011521D02*
X8197904Y-15001997D01*
X8197904Y-15001997D02*
X8216952Y-14992473D01*
X8359809Y-14992473D02*
X8359809Y-15030568D01*
X8435999Y-14992473D02*
X8435999Y-15030568D01*
X8731238Y-15268663D02*
X8721714Y-15259140D01*
X8721714Y-15259140D02*
X8702666Y-15230568D01*
X8702666Y-15230568D02*
X8693142Y-15211521D01*
X8693142Y-15211521D02*
X8683618Y-15182949D01*
X8683618Y-15182949D02*
X8674095Y-15135330D01*
X8674095Y-15135330D02*
X8674095Y-15097235D01*
X8674095Y-15097235D02*
X8683618Y-15049616D01*
X8683618Y-15049616D02*
X8693142Y-15021044D01*
X8693142Y-15021044D02*
X8702666Y-15001997D01*
X8702666Y-15001997D02*
X8721714Y-14973425D01*
X8721714Y-14973425D02*
X8731238Y-14963901D01*
X8893142Y-15059140D02*
X8893142Y-15192473D01*
X8845523Y-14982949D02*
X8797904Y-15125806D01*
X8797904Y-15125806D02*
X8921714Y-15125806D01*
X9150285Y-15192473D02*
X9150285Y-14992473D01*
X9235999Y-15192473D02*
X9235999Y-15087711D01*
X9235999Y-15087711D02*
X9226476Y-15068663D01*
X9226476Y-15068663D02*
X9207428Y-15059140D01*
X9207428Y-15059140D02*
X9178857Y-15059140D01*
X9178857Y-15059140D02*
X9159809Y-15068663D01*
X9159809Y-15068663D02*
X9150285Y-15078187D01*
X9359809Y-15192473D02*
X9340761Y-15182949D01*
X9340761Y-15182949D02*
X9331238Y-15173425D01*
X9331238Y-15173425D02*
X9321714Y-15154378D01*
X9321714Y-15154378D02*
X9321714Y-15097235D01*
X9321714Y-15097235D02*
X9331238Y-15078187D01*
X9331238Y-15078187D02*
X9340761Y-15068663D01*
X9340761Y-15068663D02*
X9359809Y-15059140D01*
X9359809Y-15059140D02*
X9388380Y-15059140D01*
X9388380Y-15059140D02*
X9407428Y-15068663D01*
X9407428Y-15068663D02*
X9416952Y-15078187D01*
X9416952Y-15078187D02*
X9426476Y-15097235D01*
X9426476Y-15097235D02*
X9426476Y-15154378D01*
X9426476Y-15154378D02*
X9416952Y-15173425D01*
X9416952Y-15173425D02*
X9407428Y-15182949D01*
X9407428Y-15182949D02*
X9388380Y-15192473D01*
X9388380Y-15192473D02*
X9359809Y-15192473D01*
X9540761Y-15192473D02*
X9521714Y-15182949D01*
X9521714Y-15182949D02*
X9512190Y-15163901D01*
X9512190Y-15163901D02*
X9512190Y-14992473D01*
X9693142Y-15182949D02*
X9674095Y-15192473D01*
X9674095Y-15192473D02*
X9635999Y-15192473D01*
X9635999Y-15192473D02*
X9616952Y-15182949D01*
X9616952Y-15182949D02*
X9607428Y-15163901D01*
X9607428Y-15163901D02*
X9607428Y-15087711D01*
X9607428Y-15087711D02*
X9616952Y-15068663D01*
X9616952Y-15068663D02*
X9635999Y-15059140D01*
X9635999Y-15059140D02*
X9674095Y-15059140D01*
X9674095Y-15059140D02*
X9693142Y-15068663D01*
X9693142Y-15068663D02*
X9702666Y-15087711D01*
X9702666Y-15087711D02*
X9702666Y-15106759D01*
X9702666Y-15106759D02*
X9607428Y-15125806D01*
X9778857Y-15182949D02*
X9797904Y-15192473D01*
X9797904Y-15192473D02*
X9835999Y-15192473D01*
X9835999Y-15192473D02*
X9855047Y-15182949D01*
X9855047Y-15182949D02*
X9864571Y-15163901D01*
X9864571Y-15163901D02*
X9864571Y-15154378D01*
X9864571Y-15154378D02*
X9855047Y-15135330D01*
X9855047Y-15135330D02*
X9835999Y-15125806D01*
X9835999Y-15125806D02*
X9807428Y-15125806D01*
X9807428Y-15125806D02*
X9788380Y-15116282D01*
X9788380Y-15116282D02*
X9778857Y-15097235D01*
X9778857Y-15097235D02*
X9778857Y-15087711D01*
X9778857Y-15087711D02*
X9788380Y-15068663D01*
X9788380Y-15068663D02*
X9807428Y-15059140D01*
X9807428Y-15059140D02*
X9835999Y-15059140D01*
X9835999Y-15059140D02*
X9855047Y-15068663D01*
X9931238Y-15268663D02*
X9940761Y-15259140D01*
X9940761Y-15259140D02*
X9959809Y-15230568D01*
X9959809Y-15230568D02*
X9969333Y-15211521D01*
X9969333Y-15211521D02*
X9978857Y-15182949D01*
X9978857Y-15182949D02*
X9988380Y-15135330D01*
X9988380Y-15135330D02*
X9988380Y-15097235D01*
X9988380Y-15097235D02*
X9978857Y-15049616D01*
X9978857Y-15049616D02*
X9969333Y-15021044D01*
X9969333Y-15021044D02*
X9959809Y-15001997D01*
X9959809Y-15001997D02*
X9940761Y-14973425D01*
X9940761Y-14973425D02*
X9931238Y-14963901D01*
X10293142Y-15268663D02*
X10283619Y-15259140D01*
X10283619Y-15259140D02*
X10264571Y-15230568D01*
X10264571Y-15230568D02*
X10255047Y-15211521D01*
X10255047Y-15211521D02*
X10245523Y-15182949D01*
X10245523Y-15182949D02*
X10236000Y-15135330D01*
X10236000Y-15135330D02*
X10236000Y-15097235D01*
X10236000Y-15097235D02*
X10245523Y-15049616D01*
X10245523Y-15049616D02*
X10255047Y-15021044D01*
X10255047Y-15021044D02*
X10264571Y-15001997D01*
X10264571Y-15001997D02*
X10283619Y-14973425D01*
X10283619Y-14973425D02*
X10293142Y-14963901D01*
X10369333Y-15059140D02*
X10369333Y-15192473D01*
X10369333Y-15078187D02*
X10378857Y-15068663D01*
X10378857Y-15068663D02*
X10397904Y-15059140D01*
X10397904Y-15059140D02*
X10426476Y-15059140D01*
X10426476Y-15059140D02*
X10445523Y-15068663D01*
X10445523Y-15068663D02*
X10455047Y-15087711D01*
X10455047Y-15087711D02*
X10455047Y-15192473D01*
X10578857Y-15192473D02*
X10559809Y-15182949D01*
X10559809Y-15182949D02*
X10550285Y-15173425D01*
X10550285Y-15173425D02*
X10540761Y-15154378D01*
X10540761Y-15154378D02*
X10540761Y-15097235D01*
X10540761Y-15097235D02*
X10550285Y-15078187D01*
X10550285Y-15078187D02*
X10559809Y-15068663D01*
X10559809Y-15068663D02*
X10578857Y-15059140D01*
X10578857Y-15059140D02*
X10607428Y-15059140D01*
X10607428Y-15059140D02*
X10626476Y-15068663D01*
X10626476Y-15068663D02*
X10636000Y-15078187D01*
X10636000Y-15078187D02*
X10645523Y-15097235D01*
X10645523Y-15097235D02*
X10645523Y-15154378D01*
X10645523Y-15154378D02*
X10636000Y-15173425D01*
X10636000Y-15173425D02*
X10626476Y-15182949D01*
X10626476Y-15182949D02*
X10607428Y-15192473D01*
X10607428Y-15192473D02*
X10578857Y-15192473D01*
X10702666Y-15059140D02*
X10778857Y-15059140D01*
X10731238Y-14992473D02*
X10731238Y-15163901D01*
X10731238Y-15163901D02*
X10740761Y-15182949D01*
X10740761Y-15182949D02*
X10759809Y-15192473D01*
X10759809Y-15192473D02*
X10778857Y-15192473D01*
X10997904Y-15059140D02*
X10997904Y-15259140D01*
X10997904Y-15068663D02*
X11016952Y-15059140D01*
X11016952Y-15059140D02*
X11055047Y-15059140D01*
X11055047Y-15059140D02*
X11074095Y-15068663D01*
X11074095Y-15068663D02*
X11083619Y-15078187D01*
X11083619Y-15078187D02*
X11093142Y-15097235D01*
X11093142Y-15097235D02*
X11093142Y-15154378D01*
X11093142Y-15154378D02*
X11083619Y-15173425D01*
X11083619Y-15173425D02*
X11074095Y-15182949D01*
X11074095Y-15182949D02*
X11055047Y-15192473D01*
X11055047Y-15192473D02*
X11016952Y-15192473D01*
X11016952Y-15192473D02*
X10997904Y-15182949D01*
X11207428Y-15192473D02*
X11188380Y-15182949D01*
X11188380Y-15182949D02*
X11178857Y-15163901D01*
X11178857Y-15163901D02*
X11178857Y-14992473D01*
X11369333Y-15192473D02*
X11369333Y-15087711D01*
X11369333Y-15087711D02*
X11359809Y-15068663D01*
X11359809Y-15068663D02*
X11340761Y-15059140D01*
X11340761Y-15059140D02*
X11302666Y-15059140D01*
X11302666Y-15059140D02*
X11283619Y-15068663D01*
X11369333Y-15182949D02*
X11350285Y-15192473D01*
X11350285Y-15192473D02*
X11302666Y-15192473D01*
X11302666Y-15192473D02*
X11283619Y-15182949D01*
X11283619Y-15182949D02*
X11274095Y-15163901D01*
X11274095Y-15163901D02*
X11274095Y-15144854D01*
X11274095Y-15144854D02*
X11283619Y-15125806D01*
X11283619Y-15125806D02*
X11302666Y-15116282D01*
X11302666Y-15116282D02*
X11350285Y-15116282D01*
X11350285Y-15116282D02*
X11369333Y-15106759D01*
X11436000Y-15059140D02*
X11512190Y-15059140D01*
X11464571Y-14992473D02*
X11464571Y-15163901D01*
X11464571Y-15163901D02*
X11474095Y-15182949D01*
X11474095Y-15182949D02*
X11493142Y-15192473D01*
X11493142Y-15192473D02*
X11512190Y-15192473D01*
X11655047Y-15182949D02*
X11636000Y-15192473D01*
X11636000Y-15192473D02*
X11597904Y-15192473D01*
X11597904Y-15192473D02*
X11578857Y-15182949D01*
X11578857Y-15182949D02*
X11569333Y-15163901D01*
X11569333Y-15163901D02*
X11569333Y-15087711D01*
X11569333Y-15087711D02*
X11578857Y-15068663D01*
X11578857Y-15068663D02*
X11597904Y-15059140D01*
X11597904Y-15059140D02*
X11636000Y-15059140D01*
X11636000Y-15059140D02*
X11655047Y-15068663D01*
X11655047Y-15068663D02*
X11664571Y-15087711D01*
X11664571Y-15087711D02*
X11664571Y-15106759D01*
X11664571Y-15106759D02*
X11569333Y-15125806D01*
X11836000Y-15192473D02*
X11836000Y-14992473D01*
X11836000Y-15182949D02*
X11816952Y-15192473D01*
X11816952Y-15192473D02*
X11778857Y-15192473D01*
X11778857Y-15192473D02*
X11759809Y-15182949D01*
X11759809Y-15182949D02*
X11750285Y-15173425D01*
X11750285Y-15173425D02*
X11740761Y-15154378D01*
X11740761Y-15154378D02*
X11740761Y-15097235D01*
X11740761Y-15097235D02*
X11750285Y-15078187D01*
X11750285Y-15078187D02*
X11759809Y-15068663D01*
X11759809Y-15068663D02*
X11778857Y-15059140D01*
X11778857Y-15059140D02*
X11816952Y-15059140D01*
X11816952Y-15059140D02*
X11836000Y-15068663D01*
X11912190Y-15268663D02*
X11921714Y-15259140D01*
X11921714Y-15259140D02*
X11940761Y-15230568D01*
X11940761Y-15230568D02*
X11950285Y-15211521D01*
X11950285Y-15211521D02*
X11959809Y-15182949D01*
X11959809Y-15182949D02*
X11969333Y-15135330D01*
X11969333Y-15135330D02*
X11969333Y-15097235D01*
X11969333Y-15097235D02*
X11959809Y-15049616D01*
X11959809Y-15049616D02*
X11950285Y-15021044D01*
X11950285Y-15021044D02*
X11940761Y-15001997D01*
X11940761Y-15001997D02*
X11921714Y-14973425D01*
X11921714Y-14973425D02*
X11912190Y-14963901D01*
X5056175Y-15320989D02*
X5056175Y-15520989D01*
X4956175Y-15420989D02*
X5156175Y-15420989D01*
X5502666Y-15379140D02*
X5502666Y-15512473D01*
X5455047Y-15302949D02*
X5407428Y-15445806D01*
X5407428Y-15445806D02*
X5531237Y-15445806D01*
X5607428Y-15493425D02*
X5616951Y-15502949D01*
X5616951Y-15502949D02*
X5607428Y-15512473D01*
X5607428Y-15512473D02*
X5597904Y-15502949D01*
X5597904Y-15502949D02*
X5607428Y-15493425D01*
X5607428Y-15493425D02*
X5607428Y-15512473D01*
X5740761Y-15312473D02*
X5759809Y-15312473D01*
X5759809Y-15312473D02*
X5778856Y-15321997D01*
X5778856Y-15321997D02*
X5788380Y-15331521D01*
X5788380Y-15331521D02*
X5797904Y-15350568D01*
X5797904Y-15350568D02*
X5807428Y-15388663D01*
X5807428Y-15388663D02*
X5807428Y-15436282D01*
X5807428Y-15436282D02*
X5797904Y-15474378D01*
X5797904Y-15474378D02*
X5788380Y-15493425D01*
X5788380Y-15493425D02*
X5778856Y-15502949D01*
X5778856Y-15502949D02*
X5759809Y-15512473D01*
X5759809Y-15512473D02*
X5740761Y-15512473D01*
X5740761Y-15512473D02*
X5721713Y-15502949D01*
X5721713Y-15502949D02*
X5712189Y-15493425D01*
X5712189Y-15493425D02*
X5702666Y-15474378D01*
X5702666Y-15474378D02*
X5693142Y-15436282D01*
X5693142Y-15436282D02*
X5693142Y-15388663D01*
X5693142Y-15388663D02*
X5702666Y-15350568D01*
X5702666Y-15350568D02*
X5712189Y-15331521D01*
X5712189Y-15331521D02*
X5721713Y-15321997D01*
X5721713Y-15321997D02*
X5740761Y-15312473D01*
X5931237Y-15312473D02*
X5950285Y-15312473D01*
X5950285Y-15312473D02*
X5969332Y-15321997D01*
X5969332Y-15321997D02*
X5978856Y-15331521D01*
X5978856Y-15331521D02*
X5988380Y-15350568D01*
X5988380Y-15350568D02*
X5997904Y-15388663D01*
X5997904Y-15388663D02*
X5997904Y-15436282D01*
X5997904Y-15436282D02*
X5988380Y-15474378D01*
X5988380Y-15474378D02*
X5978856Y-15493425D01*
X5978856Y-15493425D02*
X5969332Y-15502949D01*
X5969332Y-15502949D02*
X5950285Y-15512473D01*
X5950285Y-15512473D02*
X5931237Y-15512473D01*
X5931237Y-15512473D02*
X5912189Y-15502949D01*
X5912189Y-15502949D02*
X5902666Y-15493425D01*
X5902666Y-15493425D02*
X5893142Y-15474378D01*
X5893142Y-15474378D02*
X5883618Y-15436282D01*
X5883618Y-15436282D02*
X5883618Y-15388663D01*
X5883618Y-15388663D02*
X5893142Y-15350568D01*
X5893142Y-15350568D02*
X5902666Y-15331521D01*
X5902666Y-15331521D02*
X5912189Y-15321997D01*
X5912189Y-15321997D02*
X5931237Y-15312473D01*
X6121713Y-15312473D02*
X6140761Y-15312473D01*
X6140761Y-15312473D02*
X6159809Y-15321997D01*
X6159809Y-15321997D02*
X6169332Y-15331521D01*
X6169332Y-15331521D02*
X6178856Y-15350568D01*
X6178856Y-15350568D02*
X6188380Y-15388663D01*
X6188380Y-15388663D02*
X6188380Y-15436282D01*
X6188380Y-15436282D02*
X6178856Y-15474378D01*
X6178856Y-15474378D02*
X6169332Y-15493425D01*
X6169332Y-15493425D02*
X6159809Y-15502949D01*
X6159809Y-15502949D02*
X6140761Y-15512473D01*
X6140761Y-15512473D02*
X6121713Y-15512473D01*
X6121713Y-15512473D02*
X6102666Y-15502949D01*
X6102666Y-15502949D02*
X6093142Y-15493425D01*
X6093142Y-15493425D02*
X6083618Y-15474378D01*
X6083618Y-15474378D02*
X6074094Y-15436282D01*
X6074094Y-15436282D02*
X6074094Y-15388663D01*
X6074094Y-15388663D02*
X6083618Y-15350568D01*
X6083618Y-15350568D02*
X6093142Y-15331521D01*
X6093142Y-15331521D02*
X6102666Y-15321997D01*
X6102666Y-15321997D02*
X6121713Y-15312473D01*
X6274094Y-15512473D02*
X6274094Y-15379140D01*
X6274094Y-15398187D02*
X6283618Y-15388663D01*
X6283618Y-15388663D02*
X6302666Y-15379140D01*
X6302666Y-15379140D02*
X6331237Y-15379140D01*
X6331237Y-15379140D02*
X6350285Y-15388663D01*
X6350285Y-15388663D02*
X6359809Y-15407711D01*
X6359809Y-15407711D02*
X6359809Y-15512473D01*
X6359809Y-15407711D02*
X6369332Y-15388663D01*
X6369332Y-15388663D02*
X6388380Y-15379140D01*
X6388380Y-15379140D02*
X6416951Y-15379140D01*
X6416951Y-15379140D02*
X6435999Y-15388663D01*
X6435999Y-15388663D02*
X6445523Y-15407711D01*
X6445523Y-15407711D02*
X6445523Y-15512473D01*
X6540761Y-15512473D02*
X6540761Y-15379140D01*
X6540761Y-15398187D02*
X6550285Y-15388663D01*
X6550285Y-15388663D02*
X6569332Y-15379140D01*
X6569332Y-15379140D02*
X6597904Y-15379140D01*
X6597904Y-15379140D02*
X6616951Y-15388663D01*
X6616951Y-15388663D02*
X6626475Y-15407711D01*
X6626475Y-15407711D02*
X6626475Y-15512473D01*
X6626475Y-15407711D02*
X6635999Y-15388663D01*
X6635999Y-15388663D02*
X6655047Y-15379140D01*
X6655047Y-15379140D02*
X6683618Y-15379140D01*
X6683618Y-15379140D02*
X6702666Y-15388663D01*
X6702666Y-15388663D02*
X6712190Y-15407711D01*
X6712190Y-15407711D02*
X6712190Y-15512473D01*
X7102666Y-15302949D02*
X6931237Y-15560092D01*
X7359809Y-15312473D02*
X7378856Y-15312473D01*
X7378856Y-15312473D02*
X7397904Y-15321997D01*
X7397904Y-15321997D02*
X7407428Y-15331521D01*
X7407428Y-15331521D02*
X7416952Y-15350568D01*
X7416952Y-15350568D02*
X7426475Y-15388663D01*
X7426475Y-15388663D02*
X7426475Y-15436282D01*
X7426475Y-15436282D02*
X7416952Y-15474378D01*
X7416952Y-15474378D02*
X7407428Y-15493425D01*
X7407428Y-15493425D02*
X7397904Y-15502949D01*
X7397904Y-15502949D02*
X7378856Y-15512473D01*
X7378856Y-15512473D02*
X7359809Y-15512473D01*
X7359809Y-15512473D02*
X7340761Y-15502949D01*
X7340761Y-15502949D02*
X7331237Y-15493425D01*
X7331237Y-15493425D02*
X7321713Y-15474378D01*
X7321713Y-15474378D02*
X7312190Y-15436282D01*
X7312190Y-15436282D02*
X7312190Y-15388663D01*
X7312190Y-15388663D02*
X7321713Y-15350568D01*
X7321713Y-15350568D02*
X7331237Y-15331521D01*
X7331237Y-15331521D02*
X7340761Y-15321997D01*
X7340761Y-15321997D02*
X7359809Y-15312473D01*
X7512190Y-15493425D02*
X7521713Y-15502949D01*
X7521713Y-15502949D02*
X7512190Y-15512473D01*
X7512190Y-15512473D02*
X7502666Y-15502949D01*
X7502666Y-15502949D02*
X7512190Y-15493425D01*
X7512190Y-15493425D02*
X7512190Y-15512473D01*
X7712190Y-15512473D02*
X7597904Y-15512473D01*
X7655047Y-15512473D02*
X7655047Y-15312473D01*
X7655047Y-15312473D02*
X7635999Y-15341044D01*
X7635999Y-15341044D02*
X7616952Y-15360092D01*
X7616952Y-15360092D02*
X7597904Y-15369616D01*
X7893142Y-15312473D02*
X7797904Y-15312473D01*
X7797904Y-15312473D02*
X7788380Y-15407711D01*
X7788380Y-15407711D02*
X7797904Y-15398187D01*
X7797904Y-15398187D02*
X7816952Y-15388663D01*
X7816952Y-15388663D02*
X7864571Y-15388663D01*
X7864571Y-15388663D02*
X7883618Y-15398187D01*
X7883618Y-15398187D02*
X7893142Y-15407711D01*
X7893142Y-15407711D02*
X7902666Y-15426759D01*
X7902666Y-15426759D02*
X7902666Y-15474378D01*
X7902666Y-15474378D02*
X7893142Y-15493425D01*
X7893142Y-15493425D02*
X7883618Y-15502949D01*
X7883618Y-15502949D02*
X7864571Y-15512473D01*
X7864571Y-15512473D02*
X7816952Y-15512473D01*
X7816952Y-15512473D02*
X7797904Y-15502949D01*
X7797904Y-15502949D02*
X7788380Y-15493425D01*
X7969333Y-15312473D02*
X8102666Y-15312473D01*
X8102666Y-15312473D02*
X8016952Y-15512473D01*
X8274094Y-15312473D02*
X8178856Y-15312473D01*
X8178856Y-15312473D02*
X8169333Y-15407711D01*
X8169333Y-15407711D02*
X8178856Y-15398187D01*
X8178856Y-15398187D02*
X8197904Y-15388663D01*
X8197904Y-15388663D02*
X8245523Y-15388663D01*
X8245523Y-15388663D02*
X8264571Y-15398187D01*
X8264571Y-15398187D02*
X8274094Y-15407711D01*
X8274094Y-15407711D02*
X8283618Y-15426759D01*
X8283618Y-15426759D02*
X8283618Y-15474378D01*
X8283618Y-15474378D02*
X8274094Y-15493425D01*
X8274094Y-15493425D02*
X8264571Y-15502949D01*
X8264571Y-15502949D02*
X8245523Y-15512473D01*
X8245523Y-15512473D02*
X8197904Y-15512473D01*
X8197904Y-15512473D02*
X8178856Y-15502949D01*
X8178856Y-15502949D02*
X8169333Y-15493425D01*
X8359809Y-15312473D02*
X8359809Y-15350568D01*
X8435999Y-15312473D02*
X8435999Y-15350568D01*
X8731238Y-15588663D02*
X8721714Y-15579140D01*
X8721714Y-15579140D02*
X8702666Y-15550568D01*
X8702666Y-15550568D02*
X8693142Y-15531521D01*
X8693142Y-15531521D02*
X8683618Y-15502949D01*
X8683618Y-15502949D02*
X8674095Y-15455330D01*
X8674095Y-15455330D02*
X8674095Y-15417235D01*
X8674095Y-15417235D02*
X8683618Y-15369616D01*
X8683618Y-15369616D02*
X8693142Y-15341044D01*
X8693142Y-15341044D02*
X8702666Y-15321997D01*
X8702666Y-15321997D02*
X8721714Y-15293425D01*
X8721714Y-15293425D02*
X8731238Y-15283901D01*
X8893142Y-15379140D02*
X8893142Y-15512473D01*
X8845523Y-15302949D02*
X8797904Y-15445806D01*
X8797904Y-15445806D02*
X8921714Y-15445806D01*
X9083618Y-15379140D02*
X9083618Y-15512473D01*
X9035999Y-15302949D02*
X8988380Y-15445806D01*
X8988380Y-15445806D02*
X9112190Y-15445806D01*
X9340761Y-15512473D02*
X9340761Y-15312473D01*
X9426476Y-15512473D02*
X9426476Y-15407711D01*
X9426476Y-15407711D02*
X9416952Y-15388663D01*
X9416952Y-15388663D02*
X9397904Y-15379140D01*
X9397904Y-15379140D02*
X9369333Y-15379140D01*
X9369333Y-15379140D02*
X9350285Y-15388663D01*
X9350285Y-15388663D02*
X9340761Y-15398187D01*
X9550285Y-15512473D02*
X9531238Y-15502949D01*
X9531238Y-15502949D02*
X9521714Y-15493425D01*
X9521714Y-15493425D02*
X9512190Y-15474378D01*
X9512190Y-15474378D02*
X9512190Y-15417235D01*
X9512190Y-15417235D02*
X9521714Y-15398187D01*
X9521714Y-15398187D02*
X9531238Y-15388663D01*
X9531238Y-15388663D02*
X9550285Y-15379140D01*
X9550285Y-15379140D02*
X9578857Y-15379140D01*
X9578857Y-15379140D02*
X9597904Y-15388663D01*
X9597904Y-15388663D02*
X9607428Y-15398187D01*
X9607428Y-15398187D02*
X9616952Y-15417235D01*
X9616952Y-15417235D02*
X9616952Y-15474378D01*
X9616952Y-15474378D02*
X9607428Y-15493425D01*
X9607428Y-15493425D02*
X9597904Y-15502949D01*
X9597904Y-15502949D02*
X9578857Y-15512473D01*
X9578857Y-15512473D02*
X9550285Y-15512473D01*
X9731238Y-15512473D02*
X9712190Y-15502949D01*
X9712190Y-15502949D02*
X9702666Y-15483901D01*
X9702666Y-15483901D02*
X9702666Y-15312473D01*
X9883619Y-15502949D02*
X9864571Y-15512473D01*
X9864571Y-15512473D02*
X9826476Y-15512473D01*
X9826476Y-15512473D02*
X9807428Y-15502949D01*
X9807428Y-15502949D02*
X9797904Y-15483901D01*
X9797904Y-15483901D02*
X9797904Y-15407711D01*
X9797904Y-15407711D02*
X9807428Y-15388663D01*
X9807428Y-15388663D02*
X9826476Y-15379140D01*
X9826476Y-15379140D02*
X9864571Y-15379140D01*
X9864571Y-15379140D02*
X9883619Y-15388663D01*
X9883619Y-15388663D02*
X9893142Y-15407711D01*
X9893142Y-15407711D02*
X9893142Y-15426759D01*
X9893142Y-15426759D02*
X9797904Y-15445806D01*
X9969333Y-15502949D02*
X9988380Y-15512473D01*
X9988380Y-15512473D02*
X10026476Y-15512473D01*
X10026476Y-15512473D02*
X10045523Y-15502949D01*
X10045523Y-15502949D02*
X10055047Y-15483901D01*
X10055047Y-15483901D02*
X10055047Y-15474378D01*
X10055047Y-15474378D02*
X10045523Y-15455330D01*
X10045523Y-15455330D02*
X10026476Y-15445806D01*
X10026476Y-15445806D02*
X9997904Y-15445806D01*
X9997904Y-15445806D02*
X9978857Y-15436282D01*
X9978857Y-15436282D02*
X9969333Y-15417235D01*
X9969333Y-15417235D02*
X9969333Y-15407711D01*
X9969333Y-15407711D02*
X9978857Y-15388663D01*
X9978857Y-15388663D02*
X9997904Y-15379140D01*
X9997904Y-15379140D02*
X10026476Y-15379140D01*
X10026476Y-15379140D02*
X10045523Y-15388663D01*
X10121714Y-15588663D02*
X10131238Y-15579140D01*
X10131238Y-15579140D02*
X10150285Y-15550568D01*
X10150285Y-15550568D02*
X10159809Y-15531521D01*
X10159809Y-15531521D02*
X10169333Y-15502949D01*
X10169333Y-15502949D02*
X10178857Y-15455330D01*
X10178857Y-15455330D02*
X10178857Y-15417235D01*
X10178857Y-15417235D02*
X10169333Y-15369616D01*
X10169333Y-15369616D02*
X10159809Y-15341044D01*
X10159809Y-15341044D02*
X10150285Y-15321997D01*
X10150285Y-15321997D02*
X10131238Y-15293425D01*
X10131238Y-15293425D02*
X10121714Y-15283901D01*
X10483619Y-15588663D02*
X10474095Y-15579140D01*
X10474095Y-15579140D02*
X10455047Y-15550568D01*
X10455047Y-15550568D02*
X10445523Y-15531521D01*
X10445523Y-15531521D02*
X10436000Y-15502949D01*
X10436000Y-15502949D02*
X10426476Y-15455330D01*
X10426476Y-15455330D02*
X10426476Y-15417235D01*
X10426476Y-15417235D02*
X10436000Y-15369616D01*
X10436000Y-15369616D02*
X10445523Y-15341044D01*
X10445523Y-15341044D02*
X10455047Y-15321997D01*
X10455047Y-15321997D02*
X10474095Y-15293425D01*
X10474095Y-15293425D02*
X10483619Y-15283901D01*
X10559809Y-15379140D02*
X10559809Y-15512473D01*
X10559809Y-15398187D02*
X10569333Y-15388663D01*
X10569333Y-15388663D02*
X10588380Y-15379140D01*
X10588380Y-15379140D02*
X10616952Y-15379140D01*
X10616952Y-15379140D02*
X10636000Y-15388663D01*
X10636000Y-15388663D02*
X10645523Y-15407711D01*
X10645523Y-15407711D02*
X10645523Y-15512473D01*
X10769333Y-15512473D02*
X10750285Y-15502949D01*
X10750285Y-15502949D02*
X10740761Y-15493425D01*
X10740761Y-15493425D02*
X10731238Y-15474378D01*
X10731238Y-15474378D02*
X10731238Y-15417235D01*
X10731238Y-15417235D02*
X10740761Y-15398187D01*
X10740761Y-15398187D02*
X10750285Y-15388663D01*
X10750285Y-15388663D02*
X10769333Y-15379140D01*
X10769333Y-15379140D02*
X10797904Y-15379140D01*
X10797904Y-15379140D02*
X10816952Y-15388663D01*
X10816952Y-15388663D02*
X10826476Y-15398187D01*
X10826476Y-15398187D02*
X10836000Y-15417235D01*
X10836000Y-15417235D02*
X10836000Y-15474378D01*
X10836000Y-15474378D02*
X10826476Y-15493425D01*
X10826476Y-15493425D02*
X10816952Y-15502949D01*
X10816952Y-15502949D02*
X10797904Y-15512473D01*
X10797904Y-15512473D02*
X10769333Y-15512473D01*
X10893142Y-15379140D02*
X10969333Y-15379140D01*
X10921714Y-15312473D02*
X10921714Y-15483901D01*
X10921714Y-15483901D02*
X10931238Y-15502949D01*
X10931238Y-15502949D02*
X10950285Y-15512473D01*
X10950285Y-15512473D02*
X10969333Y-15512473D01*
X11188380Y-15379140D02*
X11188380Y-15579140D01*
X11188380Y-15388663D02*
X11207428Y-15379140D01*
X11207428Y-15379140D02*
X11245523Y-15379140D01*
X11245523Y-15379140D02*
X11264571Y-15388663D01*
X11264571Y-15388663D02*
X11274095Y-15398187D01*
X11274095Y-15398187D02*
X11283619Y-15417235D01*
X11283619Y-15417235D02*
X11283619Y-15474378D01*
X11283619Y-15474378D02*
X11274095Y-15493425D01*
X11274095Y-15493425D02*
X11264571Y-15502949D01*
X11264571Y-15502949D02*
X11245523Y-15512473D01*
X11245523Y-15512473D02*
X11207428Y-15512473D01*
X11207428Y-15512473D02*
X11188380Y-15502949D01*
X11397904Y-15512473D02*
X11378857Y-15502949D01*
X11378857Y-15502949D02*
X11369333Y-15483901D01*
X11369333Y-15483901D02*
X11369333Y-15312473D01*
X11559809Y-15512473D02*
X11559809Y-15407711D01*
X11559809Y-15407711D02*
X11550285Y-15388663D01*
X11550285Y-15388663D02*
X11531238Y-15379140D01*
X11531238Y-15379140D02*
X11493142Y-15379140D01*
X11493142Y-15379140D02*
X11474095Y-15388663D01*
X11559809Y-15502949D02*
X11540761Y-15512473D01*
X11540761Y-15512473D02*
X11493142Y-15512473D01*
X11493142Y-15512473D02*
X11474095Y-15502949D01*
X11474095Y-15502949D02*
X11464571Y-15483901D01*
X11464571Y-15483901D02*
X11464571Y-15464854D01*
X11464571Y-15464854D02*
X11474095Y-15445806D01*
X11474095Y-15445806D02*
X11493142Y-15436282D01*
X11493142Y-15436282D02*
X11540761Y-15436282D01*
X11540761Y-15436282D02*
X11559809Y-15426759D01*
X11626476Y-15379140D02*
X11702666Y-15379140D01*
X11655047Y-15312473D02*
X11655047Y-15483901D01*
X11655047Y-15483901D02*
X11664571Y-15502949D01*
X11664571Y-15502949D02*
X11683619Y-15512473D01*
X11683619Y-15512473D02*
X11702666Y-15512473D01*
X11845523Y-15502949D02*
X11826476Y-15512473D01*
X11826476Y-15512473D02*
X11788380Y-15512473D01*
X11788380Y-15512473D02*
X11769333Y-15502949D01*
X11769333Y-15502949D02*
X11759809Y-15483901D01*
X11759809Y-15483901D02*
X11759809Y-15407711D01*
X11759809Y-15407711D02*
X11769333Y-15388663D01*
X11769333Y-15388663D02*
X11788380Y-15379140D01*
X11788380Y-15379140D02*
X11826476Y-15379140D01*
X11826476Y-15379140D02*
X11845523Y-15388663D01*
X11845523Y-15388663D02*
X11855047Y-15407711D01*
X11855047Y-15407711D02*
X11855047Y-15426759D01*
X11855047Y-15426759D02*
X11759809Y-15445806D01*
X12026476Y-15512473D02*
X12026476Y-15312473D01*
X12026476Y-15502949D02*
X12007428Y-15512473D01*
X12007428Y-15512473D02*
X11969333Y-15512473D01*
X11969333Y-15512473D02*
X11950285Y-15502949D01*
X11950285Y-15502949D02*
X11940761Y-15493425D01*
X11940761Y-15493425D02*
X11931238Y-15474378D01*
X11931238Y-15474378D02*
X11931238Y-15417235D01*
X11931238Y-15417235D02*
X11940761Y-15398187D01*
X11940761Y-15398187D02*
X11950285Y-15388663D01*
X11950285Y-15388663D02*
X11969333Y-15379140D01*
X11969333Y-15379140D02*
X12007428Y-15379140D01*
X12007428Y-15379140D02*
X12026476Y-15388663D01*
X12102666Y-15588663D02*
X12112190Y-15579140D01*
X12112190Y-15579140D02*
X12131238Y-15550568D01*
X12131238Y-15550568D02*
X12140761Y-15531521D01*
X12140761Y-15531521D02*
X12150285Y-15502949D01*
X12150285Y-15502949D02*
X12159809Y-15455330D01*
X12159809Y-15455330D02*
X12159809Y-15417235D01*
X12159809Y-15417235D02*
X12150285Y-15369616D01*
X12150285Y-15369616D02*
X12140761Y-15341044D01*
X12140761Y-15341044D02*
X12131238Y-15321997D01*
X12131238Y-15321997D02*
X12112190Y-15293425D01*
X12112190Y-15293425D02*
X12102666Y-15283901D01*
M02*
